M48
;GenerationSoftware,Autodesk,EAGLE,9.6.2*%
;CreationDate,2023-04-03T16:15:09Z*%
FMAT,2
ICI,OFF
METRIC,TZ,000.000
T7C0.305
T6C0.400
T5C0.650
T4C1.000
T3C1.016
T2C3.200
T1C3.302
%
G90
M71
T1
X124968Y74422
X60960Y2540
X2540Y2540
X2540Y60960
X60960Y60960
X66548Y146304
X124968Y146304
X66548Y2540
X66548Y204724
X124968Y204724
X60960Y74422
X2540Y74422
X2540Y132842
X124968Y2540
X60960Y132842
X66548Y60960
X124968Y60960
X66548Y74422
X66548Y132842
X124968Y132842
X60960Y204724
X60960Y146304
X2540Y146304
X2540Y204724
T2
X73533Y2540
X84963Y2540
X90043Y2540
X101473Y2540
X106553Y2540
X117983Y2540
X106553Y146304
X9525Y74422
X20955Y74422
X26035Y74422
X37465Y74422
X42545Y74422
X53975Y74422
X117983Y146304
X53975Y146304
X20955Y2540
X26035Y2540
X73533Y146304
X84963Y146304
X73533Y74422
X84963Y74422
X37465Y2540
X101473Y74422
X106553Y74422
X117983Y74422
X42545Y2540
X53975Y2540
X9525Y2540
X90043Y74422
X90043Y146304
X101473Y146304
X9525Y146304
X20955Y146304
X26035Y146304
X37465Y146304
X42545Y146304
T3
X126238Y85852
X126238Y83312
X126238Y80772
X126238Y78232
X126238Y97282
X126238Y99822
X126238Y171704
X62230Y171704
X54610Y175514
X52070Y175514
X52070Y184404
X52070Y186944
X62230Y157734
X62230Y155194
X62230Y152654
X62230Y150114
X62230Y169164
X54610Y31750
X52070Y31750
X52070Y40640
X52070Y43180
X118618Y175514
X116078Y175514
X116078Y184404
X116078Y186944
X126238Y157734
X126238Y155194
X126238Y152654
X126238Y13970
X126238Y11430
X126238Y8890
X126238Y6350
X126238Y25400
X126238Y27940
X126238Y150114
X126238Y169164
X54610Y103632
X52070Y103632
X52070Y112522
X52070Y115062
X62230Y85852
X62230Y83312
X62230Y80772
X62230Y78232
X62230Y97282
X62230Y13970
X62230Y11430
X62230Y8890
X62230Y6350
X62230Y25400
X62230Y27940
X62230Y99822
X118618Y103632
X116078Y103632
X116078Y112522
X118618Y31750
X116078Y31750
X116078Y40640
X116078Y43180
X116078Y115062
T4
X13335Y8890
X76073Y155194
X79883Y152654
X77343Y152654
X74803Y152654
X100203Y155194
X98933Y152654
X97663Y155194
X95123Y155194
X92583Y155194
X96393Y152654
X93853Y152654
X91313Y152654
X116713Y155194
X115443Y152654
X114173Y155194
X19685Y11430
X18415Y8890
X17145Y11430
X14605Y11430
X12065Y11430
X15875Y8890
X83693Y11430
X10795Y8890
X36195Y11430
X34925Y8890
X33655Y11430
X31115Y11430
X28575Y11430
X32385Y8890
X29845Y8890
X27305Y8890
X52705Y11430
X51435Y8890
X50165Y11430
X47625Y11430
X45085Y11430
X48895Y8890
X46355Y8890
X43815Y8890
X111633Y155194
X109093Y155194
X112903Y152654
X110363Y152654
X107823Y152654
X82423Y8890
X81153Y11430
X78613Y11430
X76073Y11430
X79883Y8890
X77343Y8890
X74803Y8890
X100203Y11430
X98933Y8890
X97663Y11430
X95123Y11430
X92583Y11430
X96393Y8890
X93853Y8890
X91313Y8890
X116713Y11430
X115443Y8890
X114173Y11430
X111633Y11430
X109093Y11430
X112903Y8890
X110363Y8890
X107823Y8890
X91313Y80772
X17145Y83312
X14605Y83312
X12065Y83312
X15875Y80772
X13335Y80772
X10795Y80772
X83693Y83312
X82423Y80772
X81153Y83312
X78613Y83312
X76073Y83312
X79883Y80772
X77343Y80772
X74803Y80772
X100203Y83312
X98933Y80772
X97663Y83312
X95123Y83312
X92583Y83312
X96393Y80772
X93853Y80772
X50165Y83312
X116713Y83312
X115443Y80772
X114173Y83312
X111633Y83312
X109093Y83312
X112903Y80772
X110363Y80772
X107823Y80772
X36195Y83312
X34925Y80772
X33655Y83312
X31115Y83312
X28575Y83312
X32385Y80772
X29845Y80772
X27305Y80772
X52705Y83312
X51435Y80772
X19685Y155194
X18415Y152654
X17145Y155194
X14605Y155194
X12065Y155194
X15875Y152654
X13335Y152654
X10795Y152654
X36195Y155194
X34925Y152654
X33655Y155194
X31115Y155194
X28575Y155194
X32385Y152654
X29845Y152654
X27305Y152654
X52705Y155194
X51435Y152654
X50165Y155194
X47625Y155194
X45085Y155194
X48895Y152654
X46355Y152654
X43815Y152654
X47625Y83312
X45085Y83312
X48895Y80772
X46355Y80772
X43815Y80772
X19685Y83312
X18415Y80772
X83693Y155194
X82423Y152654
X81153Y155194
X78613Y155194
T5
X56690Y54960
X120698Y49180
X120698Y54960
X56690Y121062
X56690Y126842
X120698Y121062
X120698Y126842
X56690Y192944
X56690Y198724
X120698Y192944
X120698Y198724
X56690Y49180
T6
X60340Y56388
X56160Y56388
X56160Y47752
X124348Y47752
X124348Y56388
X120168Y56388
X120168Y47752
X60340Y47752
X120168Y128270
X120168Y119634
X124348Y200152
X120168Y200152
X120168Y191516
X56160Y128270
X56160Y119634
X56160Y200152
X56160Y191516
X60340Y119634
X60340Y200152
X60340Y128270
X124348Y191516
X124348Y119634
X124348Y128270
X60340Y191516
T7
X62230Y33655
X48260Y25400
X48260Y26670
X48260Y24130
X45720Y24130
X49530Y26035
X46990Y26035
X21590Y54610
X24130Y54610
X45720Y25400
X45720Y26670
X44450Y26035
X48260Y22860
X56515Y10795
X49149Y43434
X61214Y31750
X58674Y30480
X46203Y51689
X42545Y52959
X24130Y53340
X57150Y21971
X31750Y41910
X55245Y17145
X42545Y13335
X26670Y24765
X23241Y26670
X57150Y20701
X33655Y41275
X55880Y17780
X57785Y15875
X42545Y14605
X27940Y26035
X24740Y28829
X52070Y14605
X57150Y14605
X3810Y14605
X5080Y10795
X31750Y24130
X27940Y20320
X25400Y17780
X25400Y21590
X29210Y21590
X29718Y16129
X36830Y26670
X33655Y17780
X35560Y17780
X49022Y48895
X39624Y51435
X49022Y50165
X39624Y52705
X31750Y36195
X32639Y32385
X31496Y31750
X26035Y33655
X22987Y38354
X15240Y38100
X20955Y31242
X13335Y16510
X14605Y20320
X17145Y14605
X36195Y46990
X36195Y49022
X36195Y44450
X36195Y41910
X36195Y39878
X39878Y40640
X37465Y31115
X42164Y41910
X39055Y15875
X42164Y43180
X42164Y45720
X42164Y46990
X37973Y52705
X21336Y44450
X24257Y37973
X15240Y36830
X24384Y46990
X47625Y38100
X21336Y45720
X21336Y49530
X21336Y48260
X21336Y52070
X10795Y36195
X21336Y50800
X43180Y33020
X57150Y52705
X57150Y51435
X55880Y45720
X55245Y45720
X50165Y40132
X57150Y37465
X55245Y44450
X55880Y44450
X57150Y38100
X54737Y57506
X52578Y51435
X26035Y40005
X15875Y44450
X26670Y41224
X15875Y43180
X3048Y20828
X3048Y32258
X3810Y47244
X40005Y11430
X40005Y10795
X29972Y33757
X30480Y31750
X24130Y20320
X6604Y19939
X13335Y22860
X28575Y33782
X28575Y31115
X22860Y19050
X6604Y18669
X14605Y21590
X24130Y25781
X116078Y27940
X114808Y22860
X114808Y24130
X114808Y21590
X114808Y25400
X116078Y25400
X66548Y10795
X67818Y7620
X125222Y37211
X123698Y34925
X125476Y33655
X96393Y22606
X98044Y21336
X97663Y34798
X86868Y37465
X84963Y40513
X78613Y45085
X117348Y27940
X118618Y27940
X116268Y29210
X114427Y27940
X112268Y29845
X112268Y31750
X116268Y30226
X114554Y31750
X117983Y26035
X119253Y26035
X109728Y29845
X109728Y22860
X110998Y21590
X112268Y20320
X113538Y19050
X115443Y18415
X117348Y22860
X117348Y24130
X116713Y49530
X113538Y49530
X118618Y48260
X110998Y56642
X100203Y51562
X106553Y53848
X106680Y48260
X102743Y56642
X106553Y56642
X119253Y35560
X117348Y35560
X116078Y36830
X115443Y35306
X111633Y35306
X117983Y29845
X93218Y35433
X91313Y31115
X70358Y13970
X65278Y13970
X83439Y42672
X89408Y39370
X91948Y32385
X97155Y30607
X98933Y31115
X93599Y30480
X97663Y33020
X99568Y34290
X97663Y36195
X94234Y45593
X92456Y45593
X96012Y45593
X97282Y46863
X97282Y48641
X97282Y50419
X94234Y51689
X91186Y48641
X91186Y46863
X91186Y50419
X92456Y51689
X96012Y51689
X88773Y55880
X84963Y55880
X73533Y62865
X69723Y62865
X64643Y59055
X64643Y53340
X80518Y55372
X83693Y55372
X78613Y41275
X82042Y40005
X117348Y21590
X117348Y18415
X121158Y19050
X107188Y22860
X107188Y25400
X109728Y27940
X117348Y20320
X116078Y20320
X119253Y18415
X120523Y21336
X126873Y21590
X123063Y17780
X87503Y19685
X88773Y19304
X105918Y13970
X87503Y17145
X87503Y20955
X88773Y20955
X100203Y39116
X103124Y36830
X100203Y49784
X96393Y41275
X113538Y56515
X116078Y56515
X117983Y57785
X117983Y62865
X123063Y62865
X126873Y59055
X126873Y46736
X126238Y41910
X110998Y48260
X109728Y36830
X107823Y36830
X112522Y7366
X114808Y6985
X64643Y4445
X68453Y635
X67818Y6350
X64643Y19050
X65278Y21590
X126873Y19050
X126873Y15875
X119888Y8890
X118618Y10160
X121158Y12700
X95758Y635
X112268Y635
X126873Y4445
X123063Y635
X126873Y29210
X79248Y635
X64643Y40005
X70358Y48260
X69088Y49530
X75438Y53340
X74168Y54610
X80518Y53340
X74803Y44450
X74803Y40640
X76708Y49530
X64643Y15875
X64643Y8255
X71628Y11430
X91948Y24130
X94488Y25400
X96393Y26797
X99568Y25400
X101473Y33020
X103378Y26035
X109728Y19050
X112268Y15240
X103378Y23495
X105283Y18415
X74168Y17780
X90043Y34671
X88138Y48260
X91948Y41910
X90678Y54610
X88138Y52070
X83820Y51435
X110490Y43180
X91313Y15875
X99822Y15240
X98552Y45720
X94615Y36703
X105918Y51689
X106350Y49543
X103378Y55118
X100203Y52705
X101473Y53975
X113030Y50927
X113030Y52197
X89408Y49530
X111633Y9906
X114173Y9906
X109220Y9906
X81153Y9525
X85471Y43688
X102997Y51816
X107188Y30480
X106172Y41021
X96393Y12065
X115443Y13970
X119253Y13335
X65913Y56515
X67183Y57785
X68453Y59055
X69723Y57150
X68834Y56134
X67818Y55245
X69723Y59690
X73152Y59690
X73152Y57150
X71628Y55880
X71628Y60960
X64643Y55245
X108458Y46609
X110998Y46990
X118618Y50800
X118618Y55880
X118618Y53340
X116078Y48260
X120523Y57404
X120269Y46609
X122428Y45720
X115443Y52070
X115189Y39370
X118872Y39878
X109474Y40005
X79248Y22860
X77978Y22225
X71120Y19304
X90678Y12700
X86868Y10160
X95758Y6350
X88138Y6985
X74803Y6985
X79248Y13589
X80518Y13589
X82423Y20320
X71882Y21590
X71628Y17780
X74803Y34925
X74803Y29845
X77343Y26035
X81788Y29210
X78613Y36195
X83058Y27940
X80518Y23495
X76708Y23495
X121793Y10795
X72898Y6350
X79248Y4445
X95758Y4445
X87503Y4445
X84328Y33655
X86233Y32385
X91821Y36195
X86233Y19685
X86233Y18415
X86233Y22225
X70993Y8255
X69088Y22860
X72898Y25400
X89408Y40640
X83058Y38735
X80645Y47498
X83058Y36195
X80264Y43815
X93853Y12065
X78613Y37465
X67818Y44450
X69088Y40640
X71628Y43180
X99060Y23622
X100203Y20320
X101473Y20320
X102108Y13970
X107188Y15240
X64643Y34925
X64643Y28575
X68453Y27305
X68453Y36195
X103378Y18415
X95758Y28702
X88138Y28321
X91313Y25400
X92456Y27305
X86868Y25400
X88900Y24003
X90678Y29210
X102362Y15494
X123063Y57785
X120904Y61277
X120523Y44958
X120015Y41910
X114427Y46101
X117983Y46355
X120396Y39878
X122428Y38100
X119126Y37592
X122174Y32639
X113157Y44450
X111760Y38862
X104013Y7620
X101473Y8255
X100203Y5715
X105029Y5969
X106172Y7874
X77978Y19685
X120523Y53340
X121793Y61214
X120523Y50800
X121793Y59309
X126238Y40640
X126238Y33655
X112268Y25400
X112268Y26670
X112268Y24130
X109728Y24130
X113538Y26035
X110998Y26035
X85598Y54610
X88138Y54610
X109728Y25400
X109728Y26670
X108458Y26035
X112268Y22860
X120523Y10795
X113157Y43434
X125222Y31750
X122682Y30480
X110211Y51689
X106553Y52959
X88138Y53340
X121158Y21971
X95758Y41910
X119253Y17145
X106553Y13335
X90678Y24765
X87249Y26670
X121158Y20701
X97663Y41275
X119888Y17780
X121793Y15875
X106553Y14605
X91948Y26035
X88748Y28829
X116078Y14605
X121158Y14605
X67818Y14605
X69088Y10795
X95758Y24130
X91948Y20320
X89408Y17780
X89408Y21590
X93218Y21590
X93726Y16129
X100838Y26670
X97663Y17780
X99568Y17780
X113030Y48895
X103632Y51435
X113030Y50165
X103632Y52705
X95758Y36195
X96647Y32385
X95504Y31750
X90043Y33655
X86995Y38354
X79248Y38100
X84963Y31242
X77343Y16510
X78613Y20320
X81153Y14605
X100203Y46990
X100203Y49022
X100203Y44450
X100203Y41910
X100203Y39878
X103886Y40640
X101473Y31115
X106172Y41910
X103063Y15875
X106172Y43180
X106172Y45720
X106172Y46990
X101981Y52705
X85344Y44450
X88265Y37973
X79248Y36830
X88392Y46990
X111633Y38100
X85344Y45720
X85344Y49530
X85344Y48260
X85344Y52070
X74803Y36195
X85344Y50800
X107188Y33020
X121158Y52705
X121158Y51435
X119888Y45720
X119253Y45720
X114173Y40132
X121158Y37465
X119253Y44450
X119888Y44450
X121158Y38100
X118745Y57506
X116586Y51435
X90043Y40005
X79883Y44450
X90678Y41224
X79883Y43180
X67056Y20828
X67056Y32258
X67818Y47244
X104013Y11430
X104013Y10795
X93980Y33757
X94488Y31750
X88138Y20320
X70612Y19939
X77343Y22860
X92583Y33782
X92583Y31115
X86868Y19050
X70612Y18669
X78613Y21590
X88138Y25781
X52070Y99822
X50800Y94742
X50800Y96012
X50800Y93472
X50800Y97282
X52070Y97282
X2540Y82677
X3810Y79502
X61214Y109093
X59690Y106807
X61468Y105537
X32385Y94488
X34036Y93218
X33655Y106680
X22860Y109347
X20955Y112395
X14605Y116967
X53340Y99822
X54610Y99822
X52260Y101092
X50419Y99822
X48260Y101727
X48260Y103632
X52260Y102108
X50546Y103632
X53975Y97917
X55245Y97917
X45720Y101727
X45720Y94742
X46990Y93472
X48260Y92202
X49530Y90932
X51435Y90297
X53340Y94742
X53340Y96012
X52705Y121412
X49530Y121412
X54610Y120142
X46990Y128524
X36195Y123444
X42545Y125730
X42672Y120142
X38735Y128524
X42545Y128524
X55245Y107442
X53340Y107442
X52070Y108712
X51435Y107188
X47625Y107188
X53975Y101727
X29210Y107315
X27305Y102997
X6350Y85852
X1270Y85852
X19431Y114554
X25400Y111252
X27940Y104267
X33147Y102489
X34925Y102997
X29591Y102362
X33655Y104902
X35560Y106172
X33655Y108077
X30226Y117475
X28448Y117475
X32004Y117475
X33274Y118745
X33274Y120523
X33274Y122301
X30226Y123571
X27178Y120523
X27178Y118745
X27178Y122301
X28448Y123571
X32004Y123571
X24765Y127762
X20955Y127762
X9525Y134747
X5715Y134747
X635Y130937
X635Y125222
X16510Y127254
X19685Y127254
X14605Y113157
X18034Y111887
X53340Y93472
X53340Y90297
X57150Y90932
X43180Y94742
X43180Y97282
X45720Y99822
X53340Y92202
X52070Y92202
X55245Y90297
X56515Y93218
X62865Y93472
X59055Y89662
X23495Y91567
X24765Y91186
X41910Y85852
X23495Y89027
X23495Y92837
X24765Y92837
X36195Y110998
X39116Y108712
X36195Y121666
X32385Y113157
X49530Y128397
X52070Y128397
X53975Y129667
X53975Y134747
X59055Y134747
X62865Y130937
X62865Y118618
X62230Y113792
X46990Y120142
X45720Y108712
X43815Y108712
X48514Y79248
X50800Y78867
X635Y76327
X4445Y72517
X3810Y78232
X635Y90932
X1270Y93472
X62865Y90932
X62865Y87757
X55880Y80772
X54610Y82042
X57150Y84582
X31750Y72517
X48260Y72517
X62865Y76327
X59055Y72517
X62865Y101092
X15240Y72517
X635Y111887
X6350Y120142
X5080Y121412
X11430Y125222
X10160Y126492
X16510Y125222
X10795Y116332
X10795Y112522
X12700Y121412
X635Y87757
X635Y80137
X7620Y83312
X27940Y96012
X30480Y97282
X32385Y98679
X35560Y97282
X37465Y104902
X39370Y97917
X45720Y90932
X48260Y87122
X39370Y95377
X41275Y90297
X10160Y89662
X26035Y106553
X24130Y120142
X27940Y113792
X26670Y126492
X24130Y123952
X19812Y123317
X46482Y115062
X27305Y87757
X35814Y87122
X34544Y117602
X30607Y108585
X41910Y123571
X42342Y121425
X39370Y127000
X36195Y124587
X37465Y125857
X49022Y122809
X49022Y124079
X25400Y121412
X47625Y81788
X50165Y81788
X45212Y81788
X17145Y81407
X21463Y115570
X38989Y123698
X43180Y102362
X42164Y112903
X32385Y83947
X51435Y85852
X55245Y85217
X1905Y128397
X3175Y129667
X4445Y130937
X5715Y129032
X4826Y128016
X3810Y127127
X5715Y131572
X9144Y131572
X9144Y129032
X7620Y127762
X7620Y132842
X635Y127127
X44450Y118491
X46990Y118872
X54610Y122682
X54610Y127762
X54610Y125222
X52070Y120142
X56515Y129286
X56261Y118491
X58420Y117602
X51435Y123952
X51181Y111252
X54864Y111760
X45466Y111887
X15240Y94742
X13970Y94107
X7112Y91186
X26670Y84582
X22860Y82042
X31750Y78232
X24130Y78867
X10795Y78867
X15240Y85471
X16510Y85471
X18415Y92202
X7874Y93472
X7620Y89662
X10795Y106807
X10795Y101727
X13335Y97917
X17780Y101092
X14605Y108077
X19050Y99822
X16510Y95377
X12700Y95377
X57785Y82677
X8890Y78232
X15240Y76327
X31750Y76327
X23495Y76327
X20320Y105537
X22225Y104267
X27813Y108077
X22225Y91567
X22225Y90297
X22225Y94107
X6985Y80137
X5080Y94742
X8890Y97282
X25400Y112522
X19050Y110617
X16637Y119380
X19050Y108077
X16256Y115697
X29845Y83947
X14605Y109347
X3810Y116332
X5080Y112522
X7620Y115062
X35052Y95504
X36195Y92202
X37465Y92202
X38100Y85852
X43180Y87122
X635Y106807
X635Y100457
X4445Y99187
X4445Y108077
X39370Y90297
X31750Y100584
X24130Y100203
X27305Y97282
X28448Y99187
X22860Y97282
X24892Y95885
X26670Y101092
X38354Y87376
X59055Y129667
X56896Y133160
X56515Y116840
X56007Y113792
X50419Y117983
X53975Y118237
X56388Y111760
X58420Y109982
X55118Y109474
X58166Y104521
X49149Y116332
X47752Y110744
X40005Y79502
X37465Y80137
X36195Y77597
X41021Y77851
X42164Y79756
X13970Y91567
X56515Y125222
X57785Y133096
X56515Y122682
X57785Y131191
X62230Y112522
X62230Y105537
X48260Y97282
X48260Y98552
X48260Y96012
X45720Y96012
X49530Y97917
X46990Y97917
X21590Y126492
X24130Y126492
X45720Y97282
X45720Y98552
X44450Y97917
X48260Y94742
X56515Y82677
X49149Y115316
X61214Y103632
X58674Y102362
X46203Y123571
X42545Y124841
X24130Y125222
X57150Y93853
X31750Y113792
X55245Y89027
X42545Y85217
X26670Y96647
X23241Y98552
X57150Y92583
X33655Y113157
X55880Y89662
X57785Y87757
X42545Y86487
X27940Y97917
X24740Y100711
X52070Y86487
X57150Y86487
X3810Y86487
X5080Y82677
X31750Y96012
X27940Y92202
X25400Y89662
X25400Y93472
X29210Y93472
X29718Y88011
X36830Y98552
X33655Y89662
X35560Y89662
X49022Y120777
X39624Y123317
X49022Y122047
X39624Y124587
X31750Y108077
X32639Y104267
X31496Y103632
X26035Y105537
X22987Y110236
X15240Y109982
X20955Y103124
X13335Y88392
X14605Y92202
X17145Y86487
X36195Y118872
X36195Y120904
X36195Y116332
X36195Y113792
X36195Y111760
X39878Y112522
X37465Y102997
X42164Y113792
X39055Y87757
X42164Y115062
X42164Y117602
X42164Y118872
X37973Y124587
X21336Y116332
X24257Y109855
X15240Y108712
X24384Y118872
X47625Y109982
X21336Y117602
X21336Y121412
X21336Y120142
X21336Y123952
X10795Y108077
X21336Y122682
X43180Y104902
X57150Y124587
X57150Y123317
X55880Y117602
X55245Y117602
X50165Y112014
X57150Y109347
X55245Y116332
X55880Y116332
X57150Y109982
X54737Y129388
X52578Y123317
X26035Y111887
X15875Y116332
X26670Y113106
X15875Y115062
X3048Y92710
X3048Y104140
X3810Y119126
X40005Y83312
X40005Y82677
X29972Y105639
X30480Y103632
X24130Y92202
X6604Y91821
X13335Y94742
X28575Y105664
X28575Y102997
X22860Y90932
X6604Y90551
X14605Y93472
X24130Y97663
X116078Y99822
X114808Y94742
X114808Y96012
X114808Y93472
X114808Y97282
X116078Y97282
X66548Y82677
X67818Y79502
X125222Y109093
X123698Y106807
X125476Y105537
X96393Y94488
X98044Y93218
X97663Y106680
X86868Y109347
X84963Y112395
X78613Y116967
X117348Y99822
X118618Y99822
X116268Y101092
X114427Y99822
X112268Y101727
X112268Y103632
X116268Y102108
X114554Y103632
X117983Y97917
X119253Y97917
X109728Y101727
X109728Y94742
X110998Y93472
X112268Y92202
X113538Y90932
X115443Y90297
X117348Y94742
X117348Y96012
X116713Y121412
X113538Y121412
X118618Y120142
X110998Y128524
X100203Y123444
X106553Y125730
X106680Y120142
X102743Y128524
X106553Y128524
X119253Y107442
X117348Y107442
X116078Y108712
X115443Y107188
X111633Y107188
X117983Y101727
X93218Y107315
X91313Y102997
X70358Y85852
X65278Y85852
X83439Y114554
X89408Y111252
X91948Y104267
X97155Y102489
X98933Y102997
X93599Y102362
X97663Y104902
X99568Y106172
X97663Y108077
X94234Y117475
X92456Y117475
X96012Y117475
X97282Y118745
X97282Y120523
X97282Y122301
X94234Y123571
X91186Y120523
X91186Y118745
X91186Y122301
X92456Y123571
X96012Y123571
X88773Y127762
X84963Y127762
X73533Y134747
X69723Y134747
X64643Y130937
X64643Y125222
X80518Y127254
X83693Y127254
X78613Y113157
X82042Y111887
X117348Y93472
X117348Y90297
X121158Y90932
X107188Y94742
X107188Y97282
X109728Y99822
X117348Y92202
X116078Y92202
X119253Y90297
X120523Y93218
X126873Y93472
X123063Y89662
X87503Y91567
X88773Y91186
X105918Y85852
X87503Y89027
X87503Y92837
X88773Y92837
X100203Y110998
X103124Y108712
X100203Y121666
X96393Y113157
X113538Y128397
X116078Y128397
X117983Y129667
X117983Y134747
X123063Y134747
X126873Y130937
X126873Y118618
X126238Y113792
X110998Y120142
X109728Y108712
X107823Y108712
X112522Y79248
X114808Y78867
X64643Y76327
X68453Y72517
X67818Y78232
X64643Y90932
X65278Y93472
X126873Y90932
X126873Y87757
X119888Y80772
X118618Y82042
X121158Y84582
X95758Y72517
X112268Y72517
X126873Y76327
X123063Y72517
X126873Y101092
X79248Y72517
X64643Y111887
X70358Y120142
X69088Y121412
X75438Y125222
X74168Y126492
X80518Y125222
X74803Y116332
X74803Y112522
X76708Y121412
X64643Y87757
X64643Y80137
X71628Y83312
X91948Y96012
X94488Y97282
X96393Y98679
X99568Y97282
X101473Y104902
X103378Y97917
X109728Y90932
X112268Y87122
X103378Y95377
X105283Y90297
X74168Y89662
X90043Y106553
X88138Y120142
X91948Y113792
X90678Y126492
X88138Y123952
X83820Y123317
X110490Y115062
X91313Y87757
X99822Y87122
X98552Y117602
X94615Y108585
X105918Y123571
X106350Y121425
X103378Y127000
X100203Y124587
X101473Y125857
X113030Y122809
X113030Y124079
X89408Y121412
X111633Y81788
X114173Y81788
X109220Y81788
X81153Y81407
X85471Y115570
X102997Y123698
X107188Y102362
X106172Y112903
X96393Y83947
X115443Y85852
X119253Y85217
X65913Y128397
X67183Y129667
X68453Y130937
X69723Y129032
X68834Y128016
X67818Y127127
X69723Y131572
X73152Y131572
X73152Y129032
X71628Y127762
X71628Y132842
X64643Y127127
X108458Y118491
X110998Y118872
X118618Y122682
X118618Y127762
X118618Y125222
X116078Y120142
X120523Y129286
X120269Y118491
X122428Y117602
X115443Y123952
X115189Y111252
X118872Y111760
X109474Y111887
X79248Y94742
X77978Y94107
X71120Y91186
X90678Y84582
X86868Y82042
X95758Y78232
X88138Y78867
X74803Y78867
X79248Y85471
X80518Y85471
X82423Y92202
X71882Y93472
X71628Y89662
X74803Y106807
X74803Y101727
X77343Y97917
X81788Y101092
X78613Y108077
X83058Y99822
X80518Y95377
X76708Y95377
X121793Y82677
X72898Y78232
X79248Y76327
X95758Y76327
X87503Y76327
X84328Y105537
X86233Y104267
X91821Y108077
X86233Y91567
X86233Y90297
X86233Y94107
X70993Y80137
X69088Y94742
X72898Y97282
X89408Y112522
X83058Y110617
X80645Y119380
X83058Y108077
X80264Y115697
X93853Y83947
X78613Y109347
X67818Y116332
X69088Y112522
X71628Y115062
X99060Y95504
X100203Y92202
X101473Y92202
X102108Y85852
X107188Y87122
X64643Y106807
X64643Y100457
X68453Y99187
X68453Y108077
X103378Y90297
X95758Y100584
X88138Y100203
X91313Y97282
X92456Y99187
X86868Y97282
X88900Y95885
X90678Y101092
X102362Y87376
X123063Y129667
X120904Y133160
X120523Y116840
X120015Y113792
X114427Y117983
X117983Y118237
X120396Y111760
X122428Y109982
X119126Y109474
X122174Y104521
X113157Y116332
X111760Y110744
X104013Y79502
X101473Y80137
X100203Y77597
X105029Y77851
X106172Y79756
X77978Y91567
X120523Y125222
X121793Y133096
X120523Y122682
X121793Y131191
X126238Y112522
X126238Y105537
X112268Y97282
X112268Y98552
X112268Y96012
X109728Y96012
X113538Y97917
X110998Y97917
X85598Y126492
X88138Y126492
X109728Y97282
X109728Y98552
X108458Y97917
X112268Y94742
X120523Y82677
X113157Y115316
X125222Y103632
X122682Y102362
X110211Y123571
X106553Y124841
X88138Y125222
X121158Y93853
X95758Y113792
X119253Y89027
X106553Y85217
X90678Y96647
X87249Y98552
X121158Y92583
X97663Y113157
X119888Y89662
X121793Y87757
X106553Y86487
X91948Y97917
X88748Y100711
X116078Y86487
X121158Y86487
X67818Y86487
X69088Y82677
X95758Y96012
X91948Y92202
X89408Y89662
X89408Y93472
X93218Y93472
X93726Y88011
X100838Y98552
X97663Y89662
X99568Y89662
X113030Y120777
X103632Y123317
X113030Y122047
X103632Y124587
X95758Y108077
X96647Y104267
X95504Y103632
X90043Y105537
X86995Y110236
X79248Y109982
X84963Y103124
X77343Y88392
X78613Y92202
X81153Y86487
X100203Y118872
X100203Y120904
X100203Y116332
X100203Y113792
X100203Y111760
X103886Y112522
X101473Y102997
X106172Y113792
X103063Y87757
X106172Y115062
X106172Y117602
X106172Y118872
X101981Y124587
X85344Y116332
X88265Y109855
X79248Y108712
X88392Y118872
X111633Y109982
X85344Y117602
X85344Y121412
X85344Y120142
X85344Y123952
X74803Y108077
X85344Y122682
X107188Y104902
X121158Y124587
X121158Y123317
X119888Y117602
X119253Y117602
X114173Y112014
X121158Y109347
X119253Y116332
X119888Y116332
X121158Y109982
X118745Y129388
X116586Y123317
X90043Y111887
X79883Y116332
X90678Y113106
X79883Y115062
X67056Y92710
X67056Y104140
X67818Y119126
X104013Y83312
X104013Y82677
X93980Y105639
X94488Y103632
X88138Y92202
X70612Y91821
X77343Y94742
X92583Y105664
X92583Y102997
X86868Y90932
X70612Y90551
X78613Y93472
X88138Y97663
X52070Y171704
X50800Y166624
X50800Y167894
X50800Y165354
X50800Y169164
X52070Y169164
X2540Y154559
X3810Y151384
X61214Y180975
X59690Y178689
X61468Y177419
X32385Y166370
X34036Y165100
X33655Y178562
X22860Y181229
X20955Y184277
X14605Y188849
X53340Y171704
X54610Y171704
X52260Y172974
X50419Y171704
X48260Y173609
X48260Y175514
X52260Y173990
X50546Y175514
X53975Y169799
X55245Y169799
X45720Y173609
X45720Y166624
X46990Y165354
X48260Y164084
X49530Y162814
X51435Y162179
X53340Y166624
X53340Y167894
X52705Y193294
X49530Y193294
X54610Y192024
X46990Y200406
X36195Y195326
X42545Y197612
X42672Y192024
X38735Y200406
X42545Y200406
X55245Y179324
X53340Y179324
X52070Y180594
X51435Y179070
X47625Y179070
X53975Y173609
X29210Y179197
X27305Y174879
X6350Y157734
X1270Y157734
X19431Y186436
X25400Y183134
X27940Y176149
X33147Y174371
X34925Y174879
X29591Y174244
X33655Y176784
X35560Y178054
X33655Y179959
X30226Y189357
X28448Y189357
X32004Y189357
X33274Y190627
X33274Y192405
X33274Y194183
X30226Y195453
X27178Y192405
X27178Y190627
X27178Y194183
X28448Y195453
X32004Y195453
X24765Y199644
X20955Y199644
X9525Y206629
X5715Y206629
X635Y202819
X635Y197104
X16510Y199136
X19685Y199136
X14605Y185039
X18034Y183769
X53340Y165354
X53340Y162179
X57150Y162814
X43180Y166624
X43180Y169164
X45720Y171704
X53340Y164084
X52070Y164084
X55245Y162179
X56515Y165100
X62865Y165354
X59055Y161544
X23495Y163449
X24765Y163068
X41910Y157734
X23495Y160909
X23495Y164719
X24765Y164719
X36195Y182880
X39116Y180594
X36195Y193548
X32385Y185039
X49530Y200279
X52070Y200279
X53975Y201549
X53975Y206629
X59055Y206629
X62865Y202819
X62865Y190500
X62230Y185674
X46990Y192024
X45720Y180594
X43815Y180594
X48514Y151130
X50800Y150749
X635Y148209
X4445Y144399
X3810Y150114
X635Y162814
X1270Y165354
X62865Y162814
X62865Y159639
X55880Y152654
X54610Y153924
X57150Y156464
X31750Y144399
X48260Y144399
X62865Y148209
X59055Y144399
X62865Y172974
X15240Y144399
X635Y183769
X6350Y192024
X5080Y193294
X11430Y197104
X10160Y198374
X16510Y197104
X10795Y188214
X10795Y184404
X12700Y193294
X635Y159639
X635Y152019
X7620Y155194
X27940Y167894
X30480Y169164
X32385Y170561
X35560Y169164
X37465Y176784
X39370Y169799
X45720Y162814
X48260Y159004
X39370Y167259
X41275Y162179
X10160Y161544
X26035Y178435
X24130Y192024
X27940Y185674
X26670Y198374
X24130Y195834
X19812Y195199
X46482Y186944
X27305Y159639
X35814Y159004
X34544Y189484
X30607Y180467
X41910Y195453
X42342Y193307
X39370Y198882
X36195Y196469
X37465Y197739
X49022Y194691
X49022Y195961
X25400Y193294
X47625Y153670
X50165Y153670
X45212Y153670
X17145Y153289
X21463Y187452
X38989Y195580
X43180Y174244
X42164Y184785
X32385Y155829
X51435Y157734
X55245Y157099
X1905Y200279
X3175Y201549
X4445Y202819
X5715Y200914
X4826Y199898
X3810Y199009
X5715Y203454
X9144Y203454
X9144Y200914
X7620Y199644
X7620Y204724
X635Y199009
X44450Y190373
X46990Y190754
X54610Y194564
X54610Y199644
X54610Y197104
X52070Y192024
X56515Y201168
X56261Y190373
X58420Y189484
X51435Y195834
X51181Y183134
X54864Y183642
X45466Y183769
X15240Y166624
X13970Y165989
X7112Y163068
X26670Y156464
X22860Y153924
X31750Y150114
X24130Y150749
X10795Y150749
X15240Y157353
X16510Y157353
X18415Y164084
X7874Y165354
X7620Y161544
X10795Y178689
X10795Y173609
X13335Y169799
X17780Y172974
X14605Y179959
X19050Y171704
X16510Y167259
X12700Y167259
X57785Y154559
X8890Y150114
X15240Y148209
X31750Y148209
X23495Y148209
X20320Y177419
X22225Y176149
X27813Y179959
X22225Y163449
X22225Y162179
X22225Y165989
X6985Y152019
X5080Y166624
X8890Y169164
X25400Y184404
X19050Y182499
X16637Y191262
X19050Y179959
X16256Y187579
X29845Y155829
X14605Y181229
X3810Y188214
X5080Y184404
X7620Y186944
X35052Y167386
X36195Y164084
X37465Y164084
X38100Y157734
X43180Y159004
X635Y178689
X635Y172339
X4445Y171069
X4445Y179959
X39370Y162179
X31750Y172466
X24130Y172085
X27305Y169164
X28448Y171069
X22860Y169164
X24892Y167767
X26670Y172974
X38354Y159258
X59055Y201549
X56896Y205041
X56515Y188722
X56007Y185674
X50419Y189865
X53975Y190119
X56388Y183642
X58420Y181864
X55118Y181356
X58166Y176403
X49149Y188214
X47752Y182626
X40005Y151384
X37465Y152019
X36195Y149479
X41021Y149733
X42164Y151638
X13970Y163449
X56515Y197104
X57785Y204978
X56515Y194564
X57785Y203073
X62230Y184404
X62230Y177419
X48260Y169164
X48260Y170434
X48260Y167894
X45720Y167894
X49530Y169799
X46990Y169799
X21590Y198374
X24130Y198374
X45720Y169164
X45720Y170434
X44450Y169799
X48260Y166624
X56515Y154559
X49149Y187198
X61214Y175514
X58674Y174244
X46203Y195453
X42545Y196723
X24130Y197104
X57150Y165735
X31750Y185674
X55245Y160909
X42545Y157099
X26670Y168529
X23241Y170434
X57150Y164465
X33655Y185039
X55880Y161544
X57785Y159639
X42545Y158369
X27940Y169799
X24740Y172593
X52070Y158369
X57150Y158369
X3810Y158369
X5080Y154559
X31750Y167894
X27940Y164084
X25400Y161544
X25400Y165354
X29210Y165354
X29718Y159893
X36830Y170434
X33655Y161544
X35560Y161544
X49022Y192659
X39624Y195199
X49022Y193929
X39624Y196469
X31750Y179959
X32639Y176149
X31496Y175514
X26035Y177419
X22987Y182118
X15240Y181864
X20955Y175006
X13335Y160274
X14605Y164084
X17145Y158369
X36195Y190754
X36195Y192786
X36195Y188214
X36195Y185674
X36195Y183642
X39878Y184404
X37465Y174879
X42164Y185674
X39055Y159639
X42164Y186944
X42164Y189484
X42164Y190754
X37973Y196469
X21336Y188214
X24257Y181737
X15240Y180594
X24384Y190754
X47625Y181864
X21336Y189484
X21336Y193294
X21336Y192024
X21336Y195834
X10795Y179959
X21336Y194564
X43180Y176784
X57150Y196469
X57150Y195199
X55880Y189484
X55245Y189484
X50165Y183896
X57150Y181229
X55245Y188214
X55880Y188214
X57150Y181864
X54737Y201270
X52578Y195199
X26035Y183769
X15875Y188214
X26670Y184988
X15875Y186944
X3048Y164592
X3048Y176022
X3810Y191008
X40005Y155194
X40005Y154559
X29972Y177521
X30480Y175514
X24130Y164084
X6604Y163703
X13335Y166624
X28575Y177546
X28575Y174879
X22860Y162814
X6604Y162433
X14605Y165354
X24130Y169545
X116078Y171704
X114808Y166624
X114808Y167894
X114808Y165354
X114808Y169164
X116078Y169164
X66548Y154559
X67818Y151384
X125222Y180975
X123698Y178689
X125476Y177419
X96393Y166370
X98044Y165100
X97663Y178562
X86868Y181229
X84963Y184277
X78613Y188849
X52070Y27940
X118618Y171704
X116268Y172974
X114427Y171704
X112268Y173609
X112268Y175514
X116268Y173990
X114554Y175514
X117983Y169799
X119253Y169799
X109728Y173609
X109728Y166624
X110998Y165354
X112268Y164084
X113538Y162814
X115443Y162179
X117348Y166624
X117348Y167894
X116713Y193294
X113538Y193294
X118618Y192024
X110998Y200406
X100203Y195326
X106553Y197612
X106680Y192024
X102743Y200406
X106553Y200406
X119253Y179324
X117348Y179324
X116078Y180594
X115443Y179070
X111633Y179070
X117983Y173609
X93218Y179197
X91313Y174879
X70358Y157734
X65278Y157734
X83439Y186436
X89408Y183134
X91948Y176149
X97155Y174371
X98933Y174879
X93599Y174244
X97663Y176784
X99568Y178054
X97663Y179959
X94234Y189357
X92456Y189357
X96012Y189357
X97282Y190627
X97282Y192405
X97282Y194183
X94234Y195453
X91186Y192405
X91186Y190627
X91186Y194183
X92456Y195453
X96012Y195453
X88773Y199644
X84963Y199644
X73533Y206629
X69723Y206629
X64643Y202819
X64643Y197104
X80518Y199136
X83693Y199136
X78613Y185039
X82042Y183769
X117348Y165354
X117348Y162179
X121158Y162814
X107188Y166624
X107188Y169164
X109728Y171704
X117348Y164084
X116078Y164084
X119253Y162179
X120523Y165100
X126873Y165354
X123063Y161544
X87503Y163449
X88773Y163068
X105918Y157734
X87503Y160909
X87503Y164719
X88773Y164719
X100203Y182880
X103124Y180594
X100203Y193548
X96393Y185039
X113538Y200279
X116078Y200279
X117983Y201549
X117983Y206629
X123063Y206629
X126873Y202819
X126873Y190500
X126238Y185674
X110998Y192024
X109728Y180594
X107823Y180594
X112522Y151130
X114808Y150749
X64643Y148209
X68453Y144399
X67818Y150114
X64643Y162814
X65278Y165354
X126873Y162814
X126873Y159639
X119888Y152654
X118618Y153924
X121158Y156464
X95758Y144399
X112268Y144399
X126873Y148209
X123063Y144399
X126873Y172974
X79248Y144399
X64643Y183769
X70358Y192024
X69088Y193294
X75438Y197104
X74168Y198374
X80518Y197104
X74803Y188214
X74803Y184404
X76708Y193294
X64643Y159639
X64643Y152019
X71628Y155194
X91948Y167894
X94488Y169164
X96393Y170561
X99568Y169164
X101473Y176784
X103378Y169799
X109728Y162814
X112268Y159004
X103378Y167259
X105283Y162179
X74168Y161544
X90043Y178435
X88138Y192024
X91948Y185674
X90678Y198374
X88138Y195834
X83820Y195199
X110490Y186944
X91313Y159639
X99822Y159004
X98552Y189484
X94615Y180467
X105918Y195453
X106350Y193307
X103378Y198882
X100203Y196469
X101473Y197739
X113030Y194691
X113030Y195961
X89408Y193294
X111633Y153670
X114173Y153670
X109220Y153670
X81153Y153289
X85471Y187452
X102997Y195580
X107188Y174244
X106172Y184785
X96393Y155829
X115443Y157734
X119253Y157099
X65913Y200279
X67183Y201549
X68453Y202819
X69723Y200914
X68834Y199898
X67818Y199009
X69723Y203454
X73152Y203454
X73152Y200914
X71628Y199644
X71628Y204724
X64643Y199009
X108458Y190373
X110998Y190754
X118618Y194564
X118618Y199644
X118618Y197104
X116078Y192024
X120523Y201168
X120269Y190373
X122428Y189484
X115443Y195834
X115189Y183134
X118872Y183642
X109474Y183769
X79248Y166624
X77978Y165989
X71120Y163068
X90678Y156464
X86868Y153924
X95758Y150114
X88138Y150749
X74803Y150749
X79248Y157353
X80518Y157353
X82423Y164084
X71882Y165354
X71628Y161544
X74803Y178689
X74803Y173609
X77343Y169799
X81788Y172974
X78613Y179959
X83058Y171704
X80518Y167259
X76708Y167259
X121793Y154559
X72898Y150114
X79248Y148209
X95758Y148209
X87503Y148209
X84328Y177419
X86233Y176149
X91821Y179959
X86233Y163449
X86233Y162179
X86233Y165989
X70993Y152019
X69088Y166624
X72898Y169164
X89408Y184404
X83058Y182499
X80645Y191262
X83058Y179959
X80264Y187579
X93853Y155829
X78613Y181229
X67818Y188214
X69088Y184404
X71628Y186944
X99060Y167386
X100203Y164084
X101473Y164084
X102108Y157734
X107188Y159004
X64643Y178689
X64643Y172339
X68453Y171069
X68453Y179959
X103378Y162179
X95758Y172466
X88138Y172085
X91313Y169164
X92456Y171069
X86868Y169164
X88900Y167767
X90678Y172974
X102362Y159258
X123063Y201549
X120904Y205041
X120523Y188722
X120015Y185674
X114427Y189865
X117983Y190119
X120396Y183642
X122428Y181864
X119126Y181356
X122174Y176403
X113157Y188214
X111760Y182626
X104013Y151384
X101473Y152019
X100203Y149479
X105029Y149733
X106172Y151638
X77978Y163449
X120523Y197104
X121793Y204978
X120523Y194564
X121793Y203073
X126238Y184404
X126238Y177419
X112268Y169164
X112268Y170434
X112268Y167894
X109728Y167894
X113538Y169799
X110998Y169799
X85598Y198374
X88138Y198374
X109728Y169164
X109728Y170434
X108458Y169799
X112268Y166624
X120523Y154559
X113157Y187198
X125222Y175514
X122682Y174244
X110211Y195453
X106553Y196723
X88138Y197104
X121158Y165735
X95758Y185674
X119253Y160909
X106553Y157099
X90678Y168529
X87249Y170434
X121158Y164465
X97663Y185039
X119888Y161544
X121793Y159639
X106553Y158369
X91948Y169799
X88748Y172593
X116078Y158369
X121158Y158369
X67818Y158369
X69088Y154559
X95758Y167894
X91948Y164084
X89408Y161544
X89408Y165354
X93218Y165354
X93726Y159893
X100838Y170434
X97663Y161544
X99568Y161544
X113030Y192659
X103632Y195199
X113030Y193929
X103632Y196469
X95758Y179959
X96647Y176149
X95504Y175514
X90043Y177419
X86995Y182118
X79248Y181864
X84963Y175006
X77343Y160274
X78613Y164084
X81153Y158369
X100203Y190754
X100203Y192786
X100203Y188214
X100203Y185674
X100203Y183642
X103886Y184404
X117348Y171704
X106172Y185674
X103063Y159639
X106172Y186944
X106172Y189484
X106172Y190754
X101981Y196469
X85344Y188214
X88265Y181737
X79248Y180594
X88392Y190754
X111633Y181864
X85344Y189484
X85344Y193294
X85344Y192024
X85344Y195834
X74803Y179959
X85344Y194564
X107188Y176784
X121158Y196469
X121158Y195199
X119888Y189484
X119253Y189484
X114173Y183896
X121158Y181229
X119253Y188214
X119888Y188214
X121158Y181864
X118745Y201270
X116586Y195199
X90043Y183769
X79883Y188214
X90678Y184988
X79883Y186944
X67056Y164592
X67056Y176022
X67818Y191008
X104013Y155194
X104013Y154559
X93980Y177521
X94488Y175514
X88138Y164084
X70612Y163703
X77343Y166624
X92583Y177546
X92583Y174879
X86868Y162814
X70612Y162433
X78613Y165354
X88138Y169545
X50800Y22860
X50800Y24130
X50800Y21590
X50800Y25400
X52070Y25400
X2540Y10795
X3810Y7620
X61214Y37211
X59690Y34925
X61468Y33655
X32385Y22606
X34036Y21336
X33655Y34798
X22860Y37465
X20955Y40513
X14605Y45085
X53340Y27940
X54610Y27940
X52260Y29210
X50419Y27940
X48260Y29845
X48260Y31750
X52260Y30226
X50546Y31750
X53975Y26035
X55245Y26035
X45720Y29845
X45720Y22860
X46990Y21590
X48260Y20320
X49530Y19050
X51435Y18415
X53340Y22860
X53340Y24130
X52705Y49530
X49530Y49530
X54610Y48260
X46990Y56642
X36195Y51562
X42545Y53848
X42672Y48260
X38735Y56642
X42545Y56642
X55245Y35560
X53340Y35560
X52070Y36830
X51435Y35306
X47625Y35306
X53975Y29845
X29210Y35433
X27305Y31115
X6350Y13970
X1270Y13970
X19431Y42672
X25400Y39370
X27940Y32385
X33147Y30607
X34925Y31115
X29591Y30480
X33655Y33020
X35560Y34290
X33655Y36195
X30226Y45593
X28448Y45593
X32004Y45593
X33274Y46863
X33274Y48641
X33274Y50419
X30226Y51689
X27178Y48641
X27178Y46863
X27178Y50419
X28448Y51689
X32004Y51689
X24765Y55880
X20955Y55880
X9525Y62865
X5715Y62865
X635Y59055
X635Y53340
X16510Y55372
X19685Y55372
X14605Y41275
X18034Y40005
X53340Y21590
X53340Y18415
X57150Y19050
X43180Y22860
X43180Y25400
X45720Y27940
X53340Y20320
X52070Y20320
X55245Y18415
X56515Y21336
X62865Y21590
X59055Y17780
X23495Y19685
X24765Y19304
X41910Y13970
X23495Y17145
X23495Y20955
X24765Y20955
X36195Y39116
X39116Y36830
X36195Y49784
X32385Y41275
X49530Y56515
X52070Y56515
X53975Y57785
X53975Y62865
X59055Y62865
X62865Y59055
X62865Y46736
X62230Y41910
X46990Y48260
X45720Y36830
X43815Y36830
X48514Y7366
X50800Y6985
X635Y4445
X4445Y635
X3810Y6350
X635Y19050
X1270Y21590
X62865Y19050
X62865Y15875
X55880Y8890
X54610Y10160
X57150Y12700
X31750Y635
X48260Y635
X62865Y4445
X59055Y635
X62865Y29210
X15240Y635
X635Y40005
X6350Y48260
X5080Y49530
X11430Y53340
X10160Y54610
X16510Y53340
X10795Y44450
X10795Y40640
X12700Y49530
X635Y15875
X635Y8255
X7620Y11430
X27940Y24130
X30480Y25400
X32385Y26797
X35560Y25400
X37465Y33020
X39370Y26035
X45720Y19050
X48260Y15240
X39370Y23495
X41275Y18415
X10160Y17780
X26035Y34671
X24130Y48260
X27940Y41910
X26670Y54610
X24130Y52070
X19812Y51435
X46482Y43180
X27305Y15875
X35814Y15240
X34544Y45720
X30607Y36703
X41910Y51689
X42342Y49543
X39370Y55118
X36195Y52705
X37465Y53975
X49022Y50927
X49022Y52197
X25400Y49530
X47625Y9906
X50165Y9906
X45212Y9906
X17145Y9525
X21463Y43688
X38989Y51816
X43180Y30480
X42164Y41021
X32385Y12065
X51435Y13970
X55245Y13335
X1905Y56515
X3175Y57785
X4445Y59055
X5715Y57150
X4826Y56134
X3810Y55245
X5715Y59690
X9144Y59690
X9144Y57150
X7620Y55880
X7620Y60960
X635Y55245
X44450Y46609
X46990Y46990
X54610Y50800
X54610Y55880
X54610Y53340
X52070Y48260
X56515Y57404
X56261Y46609
X58420Y45720
X51435Y52070
X51181Y39370
X54864Y39878
X45466Y40005
X15240Y22860
X13970Y22225
X7112Y19304
X26670Y12700
X22860Y10160
X31750Y6350
X24130Y6985
X10795Y6985
X15240Y13589
X16510Y13589
X18415Y20320
X7874Y21590
X7620Y17780
X10795Y34925
X10795Y29845
X13335Y26035
X17780Y29210
X14605Y36195
X19050Y27940
X16510Y23495
X12700Y23495
X57785Y10795
X8890Y6350
X15240Y4445
X31750Y4445
X23495Y4445
X20320Y33655
X22225Y32385
X27813Y36195
X22225Y19685
X22225Y18415
X22225Y22225
X6985Y8255
X5080Y22860
X8890Y25400
X25400Y40640
X19050Y38735
X16637Y47498
X19050Y36195
X16256Y43815
X29845Y12065
X14605Y37465
X3810Y44450
X5080Y40640
X7620Y43180
X35052Y23622
X36195Y20320
X37465Y20320
X38100Y13970
X43180Y15240
X635Y34925
X635Y28575
X4445Y27305
X4445Y36195
X39370Y18415
X31750Y28702
X24130Y28321
X27305Y25400
X28448Y27305
X22860Y25400
X24892Y24003
X26670Y29210
X38354Y15494
X59055Y57785
X56896Y61277
X56515Y44958
X56007Y41910
X50419Y46101
X53975Y46355
X56388Y39878
X58420Y38100
X55118Y37592
X58166Y32639
X49149Y44450
X47752Y38862
X40005Y7620
X37465Y8255
X36195Y5715
X41021Y5969
X42164Y7874
X13970Y19685
X56515Y53340
X57785Y61214
X56515Y50800
X57785Y59309
X62230Y40640
X101473Y174879
M30