G04 EAGLE Gerber RS-274X export*
G75*
%MOMM*%
%FSLAX34Y34*%
%LPD*%
%INSoldermask Bottom*%
%IPPOS*%
%AMOC8*
5,1,8,0,0,1.08239X$1,22.5*%
G01*
%ADD10C,3.429000*%
%ADD11C,1.127000*%
%ADD12C,0.777000*%
%ADD13C,0.228344*%
%ADD14C,0.228600*%
%ADD15C,2.006600*%
%ADD16R,2.006600X2.006600*%
%ADD17C,3.327000*%
%ADD18C,1.143000*%
%ADD19C,1.270000*%
%ADD20C,1.627000*%

G36*
X535370Y1029093D02*
X535370Y1029093D01*
X535436Y1029095D01*
X535479Y1029113D01*
X535526Y1029121D01*
X535583Y1029155D01*
X535643Y1029180D01*
X535678Y1029211D01*
X535719Y1029236D01*
X535761Y1029287D01*
X535809Y1029331D01*
X535831Y1029373D01*
X535860Y1029410D01*
X535881Y1029472D01*
X535912Y1029531D01*
X535920Y1029585D01*
X535932Y1029622D01*
X535931Y1029662D01*
X535939Y1029716D01*
X535939Y1042924D01*
X535928Y1042989D01*
X535926Y1043055D01*
X535908Y1043098D01*
X535900Y1043145D01*
X535866Y1043202D01*
X535841Y1043262D01*
X535810Y1043297D01*
X535785Y1043338D01*
X535734Y1043380D01*
X535690Y1043428D01*
X535648Y1043450D01*
X535611Y1043479D01*
X535549Y1043500D01*
X535490Y1043531D01*
X535436Y1043539D01*
X535399Y1043551D01*
X535359Y1043550D01*
X535305Y1043558D01*
X531495Y1043558D01*
X531430Y1043547D01*
X531364Y1043545D01*
X531321Y1043527D01*
X531274Y1043519D01*
X531217Y1043485D01*
X531157Y1043460D01*
X531122Y1043429D01*
X531081Y1043404D01*
X531040Y1043353D01*
X530991Y1043309D01*
X530969Y1043267D01*
X530940Y1043230D01*
X530919Y1043168D01*
X530888Y1043109D01*
X530880Y1043055D01*
X530868Y1043018D01*
X530869Y1042978D01*
X530861Y1042924D01*
X530861Y1029716D01*
X530872Y1029651D01*
X530874Y1029585D01*
X530892Y1029542D01*
X530900Y1029495D01*
X530934Y1029438D01*
X530959Y1029378D01*
X530990Y1029343D01*
X531015Y1029302D01*
X531066Y1029261D01*
X531110Y1029212D01*
X531152Y1029190D01*
X531189Y1029161D01*
X531251Y1029140D01*
X531310Y1029109D01*
X531364Y1029101D01*
X531401Y1029089D01*
X531441Y1029090D01*
X531495Y1029082D01*
X535305Y1029082D01*
X535370Y1029093D01*
G37*
G36*
X1175450Y1029093D02*
X1175450Y1029093D01*
X1175516Y1029095D01*
X1175559Y1029113D01*
X1175606Y1029121D01*
X1175663Y1029155D01*
X1175723Y1029180D01*
X1175758Y1029211D01*
X1175799Y1029236D01*
X1175841Y1029287D01*
X1175889Y1029331D01*
X1175911Y1029373D01*
X1175940Y1029410D01*
X1175961Y1029472D01*
X1175992Y1029531D01*
X1176000Y1029585D01*
X1176012Y1029622D01*
X1176011Y1029662D01*
X1176019Y1029716D01*
X1176019Y1042924D01*
X1176008Y1042989D01*
X1176006Y1043055D01*
X1175988Y1043098D01*
X1175980Y1043145D01*
X1175946Y1043202D01*
X1175921Y1043262D01*
X1175890Y1043297D01*
X1175865Y1043338D01*
X1175814Y1043380D01*
X1175770Y1043428D01*
X1175728Y1043450D01*
X1175691Y1043479D01*
X1175629Y1043500D01*
X1175570Y1043531D01*
X1175516Y1043539D01*
X1175479Y1043551D01*
X1175439Y1043550D01*
X1175385Y1043558D01*
X1171575Y1043558D01*
X1171510Y1043547D01*
X1171444Y1043545D01*
X1171401Y1043527D01*
X1171354Y1043519D01*
X1171297Y1043485D01*
X1171237Y1043460D01*
X1171202Y1043429D01*
X1171161Y1043404D01*
X1171120Y1043353D01*
X1171071Y1043309D01*
X1171049Y1043267D01*
X1171020Y1043230D01*
X1170999Y1043168D01*
X1170968Y1043109D01*
X1170960Y1043055D01*
X1170948Y1043018D01*
X1170949Y1042978D01*
X1170941Y1042924D01*
X1170941Y1029716D01*
X1170952Y1029651D01*
X1170954Y1029585D01*
X1170972Y1029542D01*
X1170980Y1029495D01*
X1171014Y1029438D01*
X1171039Y1029378D01*
X1171070Y1029343D01*
X1171095Y1029302D01*
X1171146Y1029261D01*
X1171190Y1029212D01*
X1171232Y1029190D01*
X1171269Y1029161D01*
X1171331Y1029140D01*
X1171390Y1029109D01*
X1171444Y1029101D01*
X1171481Y1029089D01*
X1171521Y1029090D01*
X1171575Y1029082D01*
X1175385Y1029082D01*
X1175450Y1029093D01*
G37*
G36*
X1175450Y1747913D02*
X1175450Y1747913D01*
X1175516Y1747915D01*
X1175559Y1747933D01*
X1175606Y1747941D01*
X1175663Y1747975D01*
X1175723Y1748000D01*
X1175758Y1748031D01*
X1175799Y1748056D01*
X1175841Y1748107D01*
X1175889Y1748151D01*
X1175911Y1748193D01*
X1175940Y1748230D01*
X1175961Y1748292D01*
X1175992Y1748351D01*
X1176000Y1748405D01*
X1176012Y1748442D01*
X1176011Y1748482D01*
X1176019Y1748536D01*
X1176019Y1761744D01*
X1176008Y1761809D01*
X1176006Y1761875D01*
X1175988Y1761918D01*
X1175980Y1761965D01*
X1175946Y1762022D01*
X1175921Y1762082D01*
X1175890Y1762117D01*
X1175865Y1762158D01*
X1175814Y1762200D01*
X1175770Y1762248D01*
X1175728Y1762270D01*
X1175691Y1762299D01*
X1175629Y1762320D01*
X1175570Y1762351D01*
X1175516Y1762359D01*
X1175479Y1762371D01*
X1175439Y1762370D01*
X1175385Y1762378D01*
X1171575Y1762378D01*
X1171510Y1762367D01*
X1171444Y1762365D01*
X1171401Y1762347D01*
X1171354Y1762339D01*
X1171297Y1762305D01*
X1171237Y1762280D01*
X1171202Y1762249D01*
X1171161Y1762224D01*
X1171120Y1762173D01*
X1171071Y1762129D01*
X1171049Y1762087D01*
X1171020Y1762050D01*
X1170999Y1761988D01*
X1170968Y1761929D01*
X1170960Y1761875D01*
X1170948Y1761838D01*
X1170949Y1761798D01*
X1170941Y1761744D01*
X1170941Y1748536D01*
X1170952Y1748471D01*
X1170954Y1748405D01*
X1170972Y1748362D01*
X1170980Y1748315D01*
X1171014Y1748258D01*
X1171039Y1748198D01*
X1171070Y1748163D01*
X1171095Y1748122D01*
X1171146Y1748081D01*
X1171190Y1748032D01*
X1171232Y1748010D01*
X1171269Y1747981D01*
X1171331Y1747960D01*
X1171390Y1747929D01*
X1171444Y1747921D01*
X1171481Y1747909D01*
X1171521Y1747910D01*
X1171575Y1747902D01*
X1175385Y1747902D01*
X1175450Y1747913D01*
G37*
G36*
X535370Y1747913D02*
X535370Y1747913D01*
X535436Y1747915D01*
X535479Y1747933D01*
X535526Y1747941D01*
X535583Y1747975D01*
X535643Y1748000D01*
X535678Y1748031D01*
X535719Y1748056D01*
X535761Y1748107D01*
X535809Y1748151D01*
X535831Y1748193D01*
X535860Y1748230D01*
X535881Y1748292D01*
X535912Y1748351D01*
X535920Y1748405D01*
X535932Y1748442D01*
X535931Y1748482D01*
X535939Y1748536D01*
X535939Y1761744D01*
X535928Y1761809D01*
X535926Y1761875D01*
X535908Y1761918D01*
X535900Y1761965D01*
X535866Y1762022D01*
X535841Y1762082D01*
X535810Y1762117D01*
X535785Y1762158D01*
X535734Y1762200D01*
X535690Y1762248D01*
X535648Y1762270D01*
X535611Y1762299D01*
X535549Y1762320D01*
X535490Y1762351D01*
X535436Y1762359D01*
X535399Y1762371D01*
X535359Y1762370D01*
X535305Y1762378D01*
X531495Y1762378D01*
X531430Y1762367D01*
X531364Y1762365D01*
X531321Y1762347D01*
X531274Y1762339D01*
X531217Y1762305D01*
X531157Y1762280D01*
X531122Y1762249D01*
X531081Y1762224D01*
X531040Y1762173D01*
X530991Y1762129D01*
X530969Y1762087D01*
X530940Y1762050D01*
X530919Y1761988D01*
X530888Y1761929D01*
X530880Y1761875D01*
X530868Y1761838D01*
X530869Y1761798D01*
X530861Y1761744D01*
X530861Y1748536D01*
X530872Y1748471D01*
X530874Y1748405D01*
X530892Y1748362D01*
X530900Y1748315D01*
X530934Y1748258D01*
X530959Y1748198D01*
X530990Y1748163D01*
X531015Y1748122D01*
X531066Y1748081D01*
X531110Y1748032D01*
X531152Y1748010D01*
X531189Y1747981D01*
X531251Y1747960D01*
X531310Y1747929D01*
X531364Y1747921D01*
X531401Y1747909D01*
X531441Y1747910D01*
X531495Y1747902D01*
X535305Y1747902D01*
X535370Y1747913D01*
G37*
G36*
X1175450Y310273D02*
X1175450Y310273D01*
X1175516Y310275D01*
X1175559Y310293D01*
X1175606Y310301D01*
X1175663Y310335D01*
X1175723Y310360D01*
X1175758Y310391D01*
X1175799Y310416D01*
X1175841Y310467D01*
X1175889Y310511D01*
X1175911Y310553D01*
X1175940Y310590D01*
X1175961Y310652D01*
X1175992Y310711D01*
X1176000Y310765D01*
X1176012Y310802D01*
X1176011Y310842D01*
X1176019Y310896D01*
X1176019Y324104D01*
X1176008Y324169D01*
X1176006Y324235D01*
X1175988Y324278D01*
X1175980Y324325D01*
X1175946Y324382D01*
X1175921Y324442D01*
X1175890Y324477D01*
X1175865Y324518D01*
X1175814Y324560D01*
X1175770Y324608D01*
X1175728Y324630D01*
X1175691Y324659D01*
X1175629Y324680D01*
X1175570Y324711D01*
X1175516Y324719D01*
X1175479Y324731D01*
X1175439Y324730D01*
X1175385Y324738D01*
X1171575Y324738D01*
X1171510Y324727D01*
X1171444Y324725D01*
X1171401Y324707D01*
X1171354Y324699D01*
X1171297Y324665D01*
X1171237Y324640D01*
X1171202Y324609D01*
X1171161Y324584D01*
X1171120Y324533D01*
X1171071Y324489D01*
X1171049Y324447D01*
X1171020Y324410D01*
X1170999Y324348D01*
X1170968Y324289D01*
X1170960Y324235D01*
X1170948Y324198D01*
X1170949Y324158D01*
X1170941Y324104D01*
X1170941Y310896D01*
X1170952Y310831D01*
X1170954Y310765D01*
X1170972Y310722D01*
X1170980Y310675D01*
X1171014Y310618D01*
X1171039Y310558D01*
X1171070Y310523D01*
X1171095Y310482D01*
X1171146Y310441D01*
X1171190Y310392D01*
X1171232Y310370D01*
X1171269Y310341D01*
X1171331Y310320D01*
X1171390Y310289D01*
X1171444Y310281D01*
X1171481Y310269D01*
X1171521Y310270D01*
X1171575Y310262D01*
X1175385Y310262D01*
X1175450Y310273D01*
G37*
G36*
X535370Y310273D02*
X535370Y310273D01*
X535436Y310275D01*
X535479Y310293D01*
X535526Y310301D01*
X535583Y310335D01*
X535643Y310360D01*
X535678Y310391D01*
X535719Y310416D01*
X535761Y310467D01*
X535809Y310511D01*
X535831Y310553D01*
X535860Y310590D01*
X535881Y310652D01*
X535912Y310711D01*
X535920Y310765D01*
X535932Y310802D01*
X535931Y310842D01*
X535939Y310896D01*
X535939Y324104D01*
X535928Y324169D01*
X535926Y324235D01*
X535908Y324278D01*
X535900Y324325D01*
X535866Y324382D01*
X535841Y324442D01*
X535810Y324477D01*
X535785Y324518D01*
X535734Y324560D01*
X535690Y324608D01*
X535648Y324630D01*
X535611Y324659D01*
X535549Y324680D01*
X535490Y324711D01*
X535436Y324719D01*
X535399Y324731D01*
X535359Y324730D01*
X535305Y324738D01*
X531495Y324738D01*
X531430Y324727D01*
X531364Y324725D01*
X531321Y324707D01*
X531274Y324699D01*
X531217Y324665D01*
X531157Y324640D01*
X531122Y324609D01*
X531081Y324584D01*
X531040Y324533D01*
X530991Y324489D01*
X530969Y324447D01*
X530940Y324410D01*
X530919Y324348D01*
X530888Y324289D01*
X530880Y324235D01*
X530868Y324198D01*
X530869Y324158D01*
X530861Y324104D01*
X530861Y310896D01*
X530872Y310831D01*
X530874Y310765D01*
X530892Y310722D01*
X530900Y310675D01*
X530934Y310618D01*
X530959Y310558D01*
X530990Y310523D01*
X531015Y310482D01*
X531066Y310441D01*
X531110Y310392D01*
X531152Y310370D01*
X531189Y310341D01*
X531251Y310320D01*
X531310Y310289D01*
X531364Y310281D01*
X531401Y310269D01*
X531441Y310270D01*
X531495Y310262D01*
X535305Y310262D01*
X535370Y310273D01*
G37*
G36*
X39435Y1543062D02*
X39435Y1543062D01*
X39501Y1543064D01*
X39544Y1543082D01*
X39591Y1543090D01*
X39648Y1543124D01*
X39708Y1543149D01*
X39743Y1543180D01*
X39784Y1543205D01*
X39826Y1543256D01*
X39874Y1543300D01*
X39896Y1543342D01*
X39925Y1543379D01*
X39946Y1543441D01*
X39977Y1543500D01*
X39985Y1543554D01*
X39997Y1543591D01*
X39996Y1543631D01*
X40004Y1543685D01*
X40004Y1547495D01*
X39993Y1547560D01*
X39991Y1547626D01*
X39973Y1547669D01*
X39965Y1547716D01*
X39931Y1547773D01*
X39906Y1547833D01*
X39875Y1547868D01*
X39850Y1547909D01*
X39799Y1547951D01*
X39755Y1547999D01*
X39713Y1548021D01*
X39676Y1548050D01*
X39614Y1548071D01*
X39555Y1548102D01*
X39501Y1548110D01*
X39464Y1548122D01*
X39424Y1548121D01*
X39370Y1548129D01*
X36830Y1548129D01*
X36765Y1548118D01*
X36699Y1548116D01*
X36656Y1548098D01*
X36609Y1548090D01*
X36552Y1548056D01*
X36492Y1548031D01*
X36457Y1548000D01*
X36416Y1547975D01*
X36375Y1547924D01*
X36326Y1547880D01*
X36304Y1547838D01*
X36275Y1547801D01*
X36254Y1547739D01*
X36223Y1547680D01*
X36215Y1547626D01*
X36203Y1547589D01*
X36203Y1547585D01*
X36203Y1547584D01*
X36204Y1547549D01*
X36196Y1547495D01*
X36196Y1543685D01*
X36207Y1543620D01*
X36209Y1543554D01*
X36227Y1543511D01*
X36235Y1543464D01*
X36269Y1543407D01*
X36294Y1543347D01*
X36325Y1543312D01*
X36350Y1543271D01*
X36401Y1543230D01*
X36445Y1543181D01*
X36487Y1543159D01*
X36524Y1543130D01*
X36586Y1543109D01*
X36645Y1543078D01*
X36699Y1543070D01*
X36736Y1543058D01*
X36776Y1543059D01*
X36830Y1543051D01*
X39370Y1543051D01*
X39435Y1543062D01*
G37*
G36*
X679515Y1543062D02*
X679515Y1543062D01*
X679581Y1543064D01*
X679624Y1543082D01*
X679671Y1543090D01*
X679728Y1543124D01*
X679788Y1543149D01*
X679823Y1543180D01*
X679864Y1543205D01*
X679906Y1543256D01*
X679954Y1543300D01*
X679976Y1543342D01*
X680005Y1543379D01*
X680026Y1543441D01*
X680057Y1543500D01*
X680065Y1543554D01*
X680077Y1543591D01*
X680076Y1543631D01*
X680084Y1543685D01*
X680084Y1547495D01*
X680073Y1547560D01*
X680071Y1547626D01*
X680053Y1547669D01*
X680045Y1547716D01*
X680011Y1547773D01*
X679986Y1547833D01*
X679955Y1547868D01*
X679930Y1547909D01*
X679879Y1547951D01*
X679835Y1547999D01*
X679793Y1548021D01*
X679756Y1548050D01*
X679694Y1548071D01*
X679635Y1548102D01*
X679581Y1548110D01*
X679544Y1548122D01*
X679504Y1548121D01*
X679450Y1548129D01*
X676910Y1548129D01*
X676845Y1548118D01*
X676779Y1548116D01*
X676736Y1548098D01*
X676689Y1548090D01*
X676632Y1548056D01*
X676572Y1548031D01*
X676537Y1548000D01*
X676496Y1547975D01*
X676455Y1547924D01*
X676406Y1547880D01*
X676384Y1547838D01*
X676355Y1547801D01*
X676334Y1547739D01*
X676303Y1547680D01*
X676295Y1547626D01*
X676283Y1547589D01*
X676283Y1547585D01*
X676283Y1547584D01*
X676284Y1547549D01*
X676276Y1547495D01*
X676276Y1543685D01*
X676287Y1543620D01*
X676289Y1543554D01*
X676307Y1543511D01*
X676315Y1543464D01*
X676349Y1543407D01*
X676374Y1543347D01*
X676405Y1543312D01*
X676430Y1543271D01*
X676481Y1543230D01*
X676525Y1543181D01*
X676567Y1543159D01*
X676604Y1543130D01*
X676666Y1543109D01*
X676725Y1543078D01*
X676779Y1543070D01*
X676816Y1543058D01*
X676856Y1543059D01*
X676910Y1543051D01*
X679450Y1543051D01*
X679515Y1543062D01*
G37*
G36*
X445835Y1752612D02*
X445835Y1752612D01*
X445901Y1752614D01*
X445944Y1752632D01*
X445991Y1752640D01*
X446048Y1752674D01*
X446108Y1752699D01*
X446143Y1752730D01*
X446184Y1752755D01*
X446226Y1752806D01*
X446274Y1752850D01*
X446296Y1752892D01*
X446325Y1752929D01*
X446346Y1752991D01*
X446377Y1753050D01*
X446385Y1753104D01*
X446397Y1753141D01*
X446396Y1753181D01*
X446404Y1753235D01*
X446404Y1757045D01*
X446393Y1757110D01*
X446391Y1757176D01*
X446373Y1757219D01*
X446365Y1757266D01*
X446331Y1757323D01*
X446306Y1757383D01*
X446275Y1757418D01*
X446250Y1757459D01*
X446199Y1757501D01*
X446155Y1757549D01*
X446113Y1757571D01*
X446076Y1757600D01*
X446014Y1757621D01*
X445955Y1757652D01*
X445901Y1757660D01*
X445864Y1757672D01*
X445824Y1757671D01*
X445770Y1757679D01*
X443230Y1757679D01*
X443165Y1757668D01*
X443099Y1757666D01*
X443056Y1757648D01*
X443009Y1757640D01*
X442952Y1757606D01*
X442892Y1757581D01*
X442857Y1757550D01*
X442816Y1757525D01*
X442775Y1757474D01*
X442726Y1757430D01*
X442704Y1757388D01*
X442675Y1757351D01*
X442654Y1757289D01*
X442623Y1757230D01*
X442615Y1757176D01*
X442603Y1757139D01*
X442603Y1757135D01*
X442603Y1757134D01*
X442604Y1757099D01*
X442596Y1757045D01*
X442596Y1753235D01*
X442607Y1753170D01*
X442609Y1753104D01*
X442627Y1753061D01*
X442635Y1753014D01*
X442669Y1752957D01*
X442694Y1752897D01*
X442725Y1752862D01*
X442750Y1752821D01*
X442801Y1752780D01*
X442845Y1752731D01*
X442887Y1752709D01*
X442924Y1752680D01*
X442986Y1752659D01*
X443045Y1752628D01*
X443099Y1752620D01*
X443136Y1752608D01*
X443176Y1752609D01*
X443230Y1752601D01*
X445770Y1752601D01*
X445835Y1752612D01*
G37*
G36*
X1085915Y1752612D02*
X1085915Y1752612D01*
X1085981Y1752614D01*
X1086024Y1752632D01*
X1086071Y1752640D01*
X1086128Y1752674D01*
X1086188Y1752699D01*
X1086223Y1752730D01*
X1086264Y1752755D01*
X1086306Y1752806D01*
X1086354Y1752850D01*
X1086376Y1752892D01*
X1086405Y1752929D01*
X1086426Y1752991D01*
X1086457Y1753050D01*
X1086465Y1753104D01*
X1086477Y1753141D01*
X1086476Y1753181D01*
X1086484Y1753235D01*
X1086484Y1757045D01*
X1086473Y1757110D01*
X1086471Y1757176D01*
X1086453Y1757219D01*
X1086445Y1757266D01*
X1086411Y1757323D01*
X1086386Y1757383D01*
X1086355Y1757418D01*
X1086330Y1757459D01*
X1086279Y1757501D01*
X1086235Y1757549D01*
X1086193Y1757571D01*
X1086156Y1757600D01*
X1086094Y1757621D01*
X1086035Y1757652D01*
X1085981Y1757660D01*
X1085944Y1757672D01*
X1085904Y1757671D01*
X1085850Y1757679D01*
X1083310Y1757679D01*
X1083245Y1757668D01*
X1083179Y1757666D01*
X1083136Y1757648D01*
X1083089Y1757640D01*
X1083032Y1757606D01*
X1082972Y1757581D01*
X1082937Y1757550D01*
X1082896Y1757525D01*
X1082855Y1757474D01*
X1082806Y1757430D01*
X1082784Y1757388D01*
X1082755Y1757351D01*
X1082734Y1757289D01*
X1082703Y1757230D01*
X1082695Y1757176D01*
X1082683Y1757139D01*
X1082683Y1757135D01*
X1082683Y1757134D01*
X1082684Y1757099D01*
X1082676Y1757045D01*
X1082676Y1753235D01*
X1082687Y1753170D01*
X1082689Y1753104D01*
X1082707Y1753061D01*
X1082715Y1753014D01*
X1082749Y1752957D01*
X1082774Y1752897D01*
X1082805Y1752862D01*
X1082830Y1752821D01*
X1082881Y1752780D01*
X1082925Y1752731D01*
X1082967Y1752709D01*
X1083004Y1752680D01*
X1083066Y1752659D01*
X1083125Y1752628D01*
X1083179Y1752620D01*
X1083216Y1752608D01*
X1083256Y1752609D01*
X1083310Y1752601D01*
X1085850Y1752601D01*
X1085915Y1752612D01*
G37*
G36*
X1085915Y1033792D02*
X1085915Y1033792D01*
X1085981Y1033794D01*
X1086024Y1033812D01*
X1086071Y1033820D01*
X1086128Y1033854D01*
X1086188Y1033879D01*
X1086223Y1033910D01*
X1086264Y1033935D01*
X1086306Y1033986D01*
X1086354Y1034030D01*
X1086376Y1034072D01*
X1086405Y1034109D01*
X1086426Y1034171D01*
X1086457Y1034230D01*
X1086465Y1034284D01*
X1086477Y1034321D01*
X1086476Y1034361D01*
X1086484Y1034415D01*
X1086484Y1038225D01*
X1086473Y1038290D01*
X1086471Y1038356D01*
X1086453Y1038399D01*
X1086445Y1038446D01*
X1086411Y1038503D01*
X1086386Y1038563D01*
X1086355Y1038598D01*
X1086330Y1038639D01*
X1086279Y1038681D01*
X1086235Y1038729D01*
X1086193Y1038751D01*
X1086156Y1038780D01*
X1086094Y1038801D01*
X1086035Y1038832D01*
X1085981Y1038840D01*
X1085944Y1038852D01*
X1085904Y1038851D01*
X1085850Y1038859D01*
X1083310Y1038859D01*
X1083245Y1038848D01*
X1083179Y1038846D01*
X1083136Y1038828D01*
X1083089Y1038820D01*
X1083032Y1038786D01*
X1082972Y1038761D01*
X1082937Y1038730D01*
X1082896Y1038705D01*
X1082855Y1038654D01*
X1082806Y1038610D01*
X1082784Y1038568D01*
X1082755Y1038531D01*
X1082734Y1038469D01*
X1082703Y1038410D01*
X1082695Y1038356D01*
X1082683Y1038319D01*
X1082683Y1038315D01*
X1082683Y1038314D01*
X1082684Y1038279D01*
X1082676Y1038225D01*
X1082676Y1034415D01*
X1082687Y1034350D01*
X1082689Y1034284D01*
X1082707Y1034241D01*
X1082715Y1034194D01*
X1082749Y1034137D01*
X1082774Y1034077D01*
X1082805Y1034042D01*
X1082830Y1034001D01*
X1082881Y1033960D01*
X1082925Y1033911D01*
X1082967Y1033889D01*
X1083004Y1033860D01*
X1083066Y1033839D01*
X1083125Y1033808D01*
X1083179Y1033800D01*
X1083216Y1033788D01*
X1083256Y1033789D01*
X1083310Y1033781D01*
X1085850Y1033781D01*
X1085915Y1033792D01*
G37*
G36*
X445835Y1033792D02*
X445835Y1033792D01*
X445901Y1033794D01*
X445944Y1033812D01*
X445991Y1033820D01*
X446048Y1033854D01*
X446108Y1033879D01*
X446143Y1033910D01*
X446184Y1033935D01*
X446226Y1033986D01*
X446274Y1034030D01*
X446296Y1034072D01*
X446325Y1034109D01*
X446346Y1034171D01*
X446377Y1034230D01*
X446385Y1034284D01*
X446397Y1034321D01*
X446396Y1034361D01*
X446404Y1034415D01*
X446404Y1038225D01*
X446393Y1038290D01*
X446391Y1038356D01*
X446373Y1038399D01*
X446365Y1038446D01*
X446331Y1038503D01*
X446306Y1038563D01*
X446275Y1038598D01*
X446250Y1038639D01*
X446199Y1038681D01*
X446155Y1038729D01*
X446113Y1038751D01*
X446076Y1038780D01*
X446014Y1038801D01*
X445955Y1038832D01*
X445901Y1038840D01*
X445864Y1038852D01*
X445824Y1038851D01*
X445770Y1038859D01*
X443230Y1038859D01*
X443165Y1038848D01*
X443099Y1038846D01*
X443056Y1038828D01*
X443009Y1038820D01*
X442952Y1038786D01*
X442892Y1038761D01*
X442857Y1038730D01*
X442816Y1038705D01*
X442775Y1038654D01*
X442726Y1038610D01*
X442704Y1038568D01*
X442675Y1038531D01*
X442654Y1038469D01*
X442623Y1038410D01*
X442615Y1038356D01*
X442603Y1038319D01*
X442603Y1038315D01*
X442603Y1038314D01*
X442604Y1038279D01*
X442596Y1038225D01*
X442596Y1034415D01*
X442607Y1034350D01*
X442609Y1034284D01*
X442627Y1034241D01*
X442635Y1034194D01*
X442669Y1034137D01*
X442694Y1034077D01*
X442725Y1034042D01*
X442750Y1034001D01*
X442801Y1033960D01*
X442845Y1033911D01*
X442887Y1033889D01*
X442924Y1033860D01*
X442986Y1033839D01*
X443045Y1033808D01*
X443099Y1033800D01*
X443136Y1033788D01*
X443176Y1033789D01*
X443230Y1033781D01*
X445770Y1033781D01*
X445835Y1033792D01*
G37*
G36*
X39435Y824242D02*
X39435Y824242D01*
X39501Y824244D01*
X39544Y824262D01*
X39591Y824270D01*
X39648Y824304D01*
X39708Y824329D01*
X39743Y824360D01*
X39784Y824385D01*
X39826Y824436D01*
X39874Y824480D01*
X39896Y824522D01*
X39925Y824559D01*
X39946Y824621D01*
X39977Y824680D01*
X39985Y824734D01*
X39997Y824771D01*
X39996Y824811D01*
X40004Y824865D01*
X40004Y828675D01*
X39993Y828740D01*
X39991Y828806D01*
X39973Y828849D01*
X39965Y828896D01*
X39931Y828953D01*
X39906Y829013D01*
X39875Y829048D01*
X39850Y829089D01*
X39799Y829131D01*
X39755Y829179D01*
X39713Y829201D01*
X39676Y829230D01*
X39614Y829251D01*
X39555Y829282D01*
X39501Y829290D01*
X39464Y829302D01*
X39424Y829301D01*
X39370Y829309D01*
X36830Y829309D01*
X36765Y829298D01*
X36699Y829296D01*
X36656Y829278D01*
X36609Y829270D01*
X36552Y829236D01*
X36492Y829211D01*
X36457Y829180D01*
X36416Y829155D01*
X36375Y829104D01*
X36326Y829060D01*
X36304Y829018D01*
X36275Y828981D01*
X36254Y828919D01*
X36223Y828860D01*
X36215Y828806D01*
X36203Y828769D01*
X36203Y828765D01*
X36203Y828764D01*
X36204Y828729D01*
X36196Y828675D01*
X36196Y824865D01*
X36207Y824800D01*
X36209Y824734D01*
X36227Y824691D01*
X36235Y824644D01*
X36269Y824587D01*
X36294Y824527D01*
X36325Y824492D01*
X36350Y824451D01*
X36401Y824410D01*
X36445Y824361D01*
X36487Y824339D01*
X36524Y824310D01*
X36586Y824289D01*
X36645Y824258D01*
X36699Y824250D01*
X36736Y824238D01*
X36776Y824239D01*
X36830Y824231D01*
X39370Y824231D01*
X39435Y824242D01*
G37*
G36*
X679515Y824242D02*
X679515Y824242D01*
X679581Y824244D01*
X679624Y824262D01*
X679671Y824270D01*
X679728Y824304D01*
X679788Y824329D01*
X679823Y824360D01*
X679864Y824385D01*
X679906Y824436D01*
X679954Y824480D01*
X679976Y824522D01*
X680005Y824559D01*
X680026Y824621D01*
X680057Y824680D01*
X680065Y824734D01*
X680077Y824771D01*
X680076Y824811D01*
X680084Y824865D01*
X680084Y828675D01*
X680073Y828740D01*
X680071Y828806D01*
X680053Y828849D01*
X680045Y828896D01*
X680011Y828953D01*
X679986Y829013D01*
X679955Y829048D01*
X679930Y829089D01*
X679879Y829131D01*
X679835Y829179D01*
X679793Y829201D01*
X679756Y829230D01*
X679694Y829251D01*
X679635Y829282D01*
X679581Y829290D01*
X679544Y829302D01*
X679504Y829301D01*
X679450Y829309D01*
X676910Y829309D01*
X676845Y829298D01*
X676779Y829296D01*
X676736Y829278D01*
X676689Y829270D01*
X676632Y829236D01*
X676572Y829211D01*
X676537Y829180D01*
X676496Y829155D01*
X676455Y829104D01*
X676406Y829060D01*
X676384Y829018D01*
X676355Y828981D01*
X676334Y828919D01*
X676303Y828860D01*
X676295Y828806D01*
X676283Y828769D01*
X676283Y828765D01*
X676283Y828764D01*
X676284Y828729D01*
X676276Y828675D01*
X676276Y824865D01*
X676287Y824800D01*
X676289Y824734D01*
X676307Y824691D01*
X676315Y824644D01*
X676349Y824587D01*
X676374Y824527D01*
X676405Y824492D01*
X676430Y824451D01*
X676481Y824410D01*
X676525Y824361D01*
X676567Y824339D01*
X676604Y824310D01*
X676666Y824289D01*
X676725Y824258D01*
X676779Y824250D01*
X676816Y824238D01*
X676856Y824239D01*
X676910Y824231D01*
X679450Y824231D01*
X679515Y824242D01*
G37*
G36*
X679515Y105422D02*
X679515Y105422D01*
X679581Y105424D01*
X679624Y105442D01*
X679671Y105450D01*
X679728Y105484D01*
X679788Y105509D01*
X679823Y105540D01*
X679864Y105565D01*
X679906Y105616D01*
X679954Y105660D01*
X679976Y105702D01*
X680005Y105739D01*
X680026Y105801D01*
X680057Y105860D01*
X680065Y105914D01*
X680077Y105951D01*
X680076Y105991D01*
X680084Y106045D01*
X680084Y109855D01*
X680073Y109920D01*
X680071Y109986D01*
X680053Y110029D01*
X680045Y110076D01*
X680011Y110133D01*
X679986Y110193D01*
X679955Y110228D01*
X679930Y110269D01*
X679879Y110311D01*
X679835Y110359D01*
X679793Y110381D01*
X679756Y110410D01*
X679694Y110431D01*
X679635Y110462D01*
X679581Y110470D01*
X679544Y110482D01*
X679504Y110481D01*
X679450Y110489D01*
X676910Y110489D01*
X676845Y110478D01*
X676779Y110476D01*
X676736Y110458D01*
X676689Y110450D01*
X676632Y110416D01*
X676572Y110391D01*
X676537Y110360D01*
X676496Y110335D01*
X676455Y110284D01*
X676406Y110240D01*
X676384Y110198D01*
X676355Y110161D01*
X676334Y110099D01*
X676303Y110040D01*
X676295Y109986D01*
X676283Y109949D01*
X676283Y109945D01*
X676283Y109944D01*
X676284Y109909D01*
X676276Y109855D01*
X676276Y106045D01*
X676287Y105980D01*
X676289Y105914D01*
X676307Y105871D01*
X676315Y105824D01*
X676349Y105767D01*
X676374Y105707D01*
X676405Y105672D01*
X676430Y105631D01*
X676481Y105590D01*
X676525Y105541D01*
X676567Y105519D01*
X676604Y105490D01*
X676666Y105469D01*
X676725Y105438D01*
X676779Y105430D01*
X676816Y105418D01*
X676856Y105419D01*
X676910Y105411D01*
X679450Y105411D01*
X679515Y105422D01*
G37*
G36*
X1085915Y314972D02*
X1085915Y314972D01*
X1085981Y314974D01*
X1086024Y314992D01*
X1086071Y315000D01*
X1086128Y315034D01*
X1086188Y315059D01*
X1086223Y315090D01*
X1086264Y315115D01*
X1086306Y315166D01*
X1086354Y315210D01*
X1086376Y315252D01*
X1086405Y315289D01*
X1086426Y315351D01*
X1086457Y315410D01*
X1086465Y315464D01*
X1086477Y315501D01*
X1086476Y315541D01*
X1086484Y315595D01*
X1086484Y319405D01*
X1086473Y319470D01*
X1086471Y319536D01*
X1086453Y319579D01*
X1086445Y319626D01*
X1086411Y319683D01*
X1086386Y319743D01*
X1086355Y319778D01*
X1086330Y319819D01*
X1086279Y319861D01*
X1086235Y319909D01*
X1086193Y319931D01*
X1086156Y319960D01*
X1086094Y319981D01*
X1086035Y320012D01*
X1085981Y320020D01*
X1085944Y320032D01*
X1085904Y320031D01*
X1085850Y320039D01*
X1083310Y320039D01*
X1083245Y320028D01*
X1083179Y320026D01*
X1083136Y320008D01*
X1083089Y320000D01*
X1083032Y319966D01*
X1082972Y319941D01*
X1082937Y319910D01*
X1082896Y319885D01*
X1082855Y319834D01*
X1082806Y319790D01*
X1082784Y319748D01*
X1082755Y319711D01*
X1082734Y319649D01*
X1082703Y319590D01*
X1082695Y319536D01*
X1082683Y319499D01*
X1082683Y319495D01*
X1082683Y319494D01*
X1082684Y319459D01*
X1082676Y319405D01*
X1082676Y315595D01*
X1082687Y315530D01*
X1082689Y315464D01*
X1082707Y315421D01*
X1082715Y315374D01*
X1082749Y315317D01*
X1082774Y315257D01*
X1082805Y315222D01*
X1082830Y315181D01*
X1082881Y315140D01*
X1082925Y315091D01*
X1082967Y315069D01*
X1083004Y315040D01*
X1083066Y315019D01*
X1083125Y314988D01*
X1083179Y314980D01*
X1083216Y314968D01*
X1083256Y314969D01*
X1083310Y314961D01*
X1085850Y314961D01*
X1085915Y314972D01*
G37*
G36*
X445835Y314972D02*
X445835Y314972D01*
X445901Y314974D01*
X445944Y314992D01*
X445991Y315000D01*
X446048Y315034D01*
X446108Y315059D01*
X446143Y315090D01*
X446184Y315115D01*
X446226Y315166D01*
X446274Y315210D01*
X446296Y315252D01*
X446325Y315289D01*
X446346Y315351D01*
X446377Y315410D01*
X446385Y315464D01*
X446397Y315501D01*
X446396Y315541D01*
X446404Y315595D01*
X446404Y319405D01*
X446393Y319470D01*
X446391Y319536D01*
X446373Y319579D01*
X446365Y319626D01*
X446331Y319683D01*
X446306Y319743D01*
X446275Y319778D01*
X446250Y319819D01*
X446199Y319861D01*
X446155Y319909D01*
X446113Y319931D01*
X446076Y319960D01*
X446014Y319981D01*
X445955Y320012D01*
X445901Y320020D01*
X445864Y320032D01*
X445824Y320031D01*
X445770Y320039D01*
X443230Y320039D01*
X443165Y320028D01*
X443099Y320026D01*
X443056Y320008D01*
X443009Y320000D01*
X442952Y319966D01*
X442892Y319941D01*
X442857Y319910D01*
X442816Y319885D01*
X442775Y319834D01*
X442726Y319790D01*
X442704Y319748D01*
X442675Y319711D01*
X442654Y319649D01*
X442623Y319590D01*
X442615Y319536D01*
X442603Y319499D01*
X442603Y319495D01*
X442603Y319494D01*
X442604Y319459D01*
X442596Y319405D01*
X442596Y315595D01*
X442607Y315530D01*
X442609Y315464D01*
X442627Y315421D01*
X442635Y315374D01*
X442669Y315317D01*
X442694Y315257D01*
X442725Y315222D01*
X442750Y315181D01*
X442801Y315140D01*
X442845Y315091D01*
X442887Y315069D01*
X442924Y315040D01*
X442986Y315019D01*
X443045Y314988D01*
X443099Y314980D01*
X443136Y314968D01*
X443176Y314969D01*
X443230Y314961D01*
X445770Y314961D01*
X445835Y314972D01*
G37*
G36*
X39435Y105422D02*
X39435Y105422D01*
X39501Y105424D01*
X39544Y105442D01*
X39591Y105450D01*
X39648Y105484D01*
X39708Y105509D01*
X39743Y105540D01*
X39784Y105565D01*
X39826Y105616D01*
X39874Y105660D01*
X39896Y105702D01*
X39925Y105739D01*
X39946Y105801D01*
X39977Y105860D01*
X39985Y105914D01*
X39997Y105951D01*
X39996Y105991D01*
X40004Y106045D01*
X40004Y109855D01*
X39993Y109920D01*
X39991Y109986D01*
X39973Y110029D01*
X39965Y110076D01*
X39931Y110133D01*
X39906Y110193D01*
X39875Y110228D01*
X39850Y110269D01*
X39799Y110311D01*
X39755Y110359D01*
X39713Y110381D01*
X39676Y110410D01*
X39614Y110431D01*
X39555Y110462D01*
X39501Y110470D01*
X39464Y110482D01*
X39424Y110481D01*
X39370Y110489D01*
X36830Y110489D01*
X36765Y110478D01*
X36699Y110476D01*
X36656Y110458D01*
X36609Y110450D01*
X36552Y110416D01*
X36492Y110391D01*
X36457Y110360D01*
X36416Y110335D01*
X36375Y110284D01*
X36326Y110240D01*
X36304Y110198D01*
X36275Y110161D01*
X36254Y110099D01*
X36223Y110040D01*
X36215Y109986D01*
X36203Y109949D01*
X36203Y109945D01*
X36203Y109944D01*
X36204Y109909D01*
X36196Y109855D01*
X36196Y106045D01*
X36207Y105980D01*
X36209Y105914D01*
X36227Y105871D01*
X36235Y105824D01*
X36269Y105767D01*
X36294Y105707D01*
X36325Y105672D01*
X36350Y105631D01*
X36401Y105590D01*
X36445Y105541D01*
X36487Y105519D01*
X36524Y105490D01*
X36586Y105469D01*
X36645Y105438D01*
X36699Y105430D01*
X36736Y105418D01*
X36776Y105419D01*
X36830Y105411D01*
X39370Y105411D01*
X39435Y105422D01*
G37*
G36*
X598870Y1034427D02*
X598870Y1034427D01*
X598936Y1034429D01*
X598979Y1034447D01*
X599026Y1034455D01*
X599083Y1034489D01*
X599143Y1034514D01*
X599178Y1034545D01*
X599219Y1034570D01*
X599261Y1034621D01*
X599309Y1034665D01*
X599331Y1034707D01*
X599360Y1034744D01*
X599381Y1034806D01*
X599412Y1034865D01*
X599420Y1034919D01*
X599432Y1034956D01*
X599431Y1034996D01*
X599439Y1035050D01*
X599439Y1037590D01*
X599428Y1037655D01*
X599426Y1037721D01*
X599408Y1037764D01*
X599400Y1037811D01*
X599366Y1037868D01*
X599341Y1037928D01*
X599310Y1037963D01*
X599285Y1038004D01*
X599234Y1038046D01*
X599190Y1038094D01*
X599148Y1038116D01*
X599111Y1038145D01*
X599049Y1038166D01*
X598990Y1038197D01*
X598936Y1038205D01*
X598899Y1038217D01*
X598859Y1038216D01*
X598805Y1038224D01*
X594995Y1038224D01*
X594930Y1038213D01*
X594864Y1038211D01*
X594821Y1038193D01*
X594774Y1038185D01*
X594717Y1038151D01*
X594657Y1038126D01*
X594622Y1038095D01*
X594581Y1038070D01*
X594540Y1038019D01*
X594491Y1037975D01*
X594469Y1037933D01*
X594440Y1037896D01*
X594419Y1037834D01*
X594388Y1037775D01*
X594380Y1037721D01*
X594368Y1037684D01*
X594368Y1037681D01*
X594369Y1037644D01*
X594361Y1037590D01*
X594361Y1035050D01*
X594372Y1034985D01*
X594374Y1034919D01*
X594392Y1034876D01*
X594400Y1034829D01*
X594434Y1034772D01*
X594459Y1034712D01*
X594490Y1034677D01*
X594515Y1034636D01*
X594566Y1034595D01*
X594610Y1034546D01*
X594652Y1034524D01*
X594689Y1034495D01*
X594751Y1034474D01*
X594810Y1034443D01*
X594864Y1034435D01*
X594901Y1034423D01*
X594941Y1034424D01*
X594995Y1034416D01*
X598805Y1034416D01*
X598870Y1034427D01*
G37*
G36*
X1238950Y1034427D02*
X1238950Y1034427D01*
X1239016Y1034429D01*
X1239059Y1034447D01*
X1239106Y1034455D01*
X1239163Y1034489D01*
X1239223Y1034514D01*
X1239258Y1034545D01*
X1239299Y1034570D01*
X1239341Y1034621D01*
X1239389Y1034665D01*
X1239411Y1034707D01*
X1239440Y1034744D01*
X1239461Y1034806D01*
X1239492Y1034865D01*
X1239500Y1034919D01*
X1239512Y1034956D01*
X1239511Y1034996D01*
X1239519Y1035050D01*
X1239519Y1037590D01*
X1239508Y1037655D01*
X1239506Y1037721D01*
X1239488Y1037764D01*
X1239480Y1037811D01*
X1239446Y1037868D01*
X1239421Y1037928D01*
X1239390Y1037963D01*
X1239365Y1038004D01*
X1239314Y1038046D01*
X1239270Y1038094D01*
X1239228Y1038116D01*
X1239191Y1038145D01*
X1239129Y1038166D01*
X1239070Y1038197D01*
X1239016Y1038205D01*
X1238979Y1038217D01*
X1238939Y1038216D01*
X1238885Y1038224D01*
X1235075Y1038224D01*
X1235010Y1038213D01*
X1234944Y1038211D01*
X1234901Y1038193D01*
X1234854Y1038185D01*
X1234797Y1038151D01*
X1234737Y1038126D01*
X1234702Y1038095D01*
X1234661Y1038070D01*
X1234620Y1038019D01*
X1234571Y1037975D01*
X1234549Y1037933D01*
X1234520Y1037896D01*
X1234499Y1037834D01*
X1234468Y1037775D01*
X1234460Y1037721D01*
X1234448Y1037684D01*
X1234448Y1037681D01*
X1234449Y1037644D01*
X1234441Y1037590D01*
X1234441Y1035050D01*
X1234452Y1034985D01*
X1234454Y1034919D01*
X1234472Y1034876D01*
X1234480Y1034829D01*
X1234514Y1034772D01*
X1234539Y1034712D01*
X1234570Y1034677D01*
X1234595Y1034636D01*
X1234646Y1034595D01*
X1234690Y1034546D01*
X1234732Y1034524D01*
X1234769Y1034495D01*
X1234831Y1034474D01*
X1234890Y1034443D01*
X1234944Y1034435D01*
X1234981Y1034423D01*
X1235021Y1034424D01*
X1235075Y1034416D01*
X1238885Y1034416D01*
X1238950Y1034427D01*
G37*
G36*
X598870Y1753247D02*
X598870Y1753247D01*
X598936Y1753249D01*
X598979Y1753267D01*
X599026Y1753275D01*
X599083Y1753309D01*
X599143Y1753334D01*
X599178Y1753365D01*
X599219Y1753390D01*
X599261Y1753441D01*
X599309Y1753485D01*
X599331Y1753527D01*
X599360Y1753564D01*
X599381Y1753626D01*
X599412Y1753685D01*
X599420Y1753739D01*
X599432Y1753776D01*
X599431Y1753816D01*
X599439Y1753870D01*
X599439Y1756410D01*
X599428Y1756475D01*
X599426Y1756541D01*
X599408Y1756584D01*
X599400Y1756631D01*
X599366Y1756688D01*
X599341Y1756748D01*
X599310Y1756783D01*
X599285Y1756824D01*
X599234Y1756866D01*
X599190Y1756914D01*
X599148Y1756936D01*
X599111Y1756965D01*
X599049Y1756986D01*
X598990Y1757017D01*
X598936Y1757025D01*
X598899Y1757037D01*
X598859Y1757036D01*
X598805Y1757044D01*
X594995Y1757044D01*
X594930Y1757033D01*
X594864Y1757031D01*
X594821Y1757013D01*
X594774Y1757005D01*
X594717Y1756971D01*
X594657Y1756946D01*
X594622Y1756915D01*
X594581Y1756890D01*
X594540Y1756839D01*
X594491Y1756795D01*
X594469Y1756753D01*
X594440Y1756716D01*
X594419Y1756654D01*
X594388Y1756595D01*
X594380Y1756541D01*
X594368Y1756504D01*
X594368Y1756501D01*
X594369Y1756464D01*
X594361Y1756410D01*
X594361Y1753870D01*
X594372Y1753805D01*
X594374Y1753739D01*
X594392Y1753696D01*
X594400Y1753649D01*
X594434Y1753592D01*
X594459Y1753532D01*
X594490Y1753497D01*
X594515Y1753456D01*
X594566Y1753415D01*
X594610Y1753366D01*
X594652Y1753344D01*
X594689Y1753315D01*
X594751Y1753294D01*
X594810Y1753263D01*
X594864Y1753255D01*
X594901Y1753243D01*
X594941Y1753244D01*
X594995Y1753236D01*
X598805Y1753236D01*
X598870Y1753247D01*
G37*
G36*
X1238950Y1753247D02*
X1238950Y1753247D01*
X1239016Y1753249D01*
X1239059Y1753267D01*
X1239106Y1753275D01*
X1239163Y1753309D01*
X1239223Y1753334D01*
X1239258Y1753365D01*
X1239299Y1753390D01*
X1239341Y1753441D01*
X1239389Y1753485D01*
X1239411Y1753527D01*
X1239440Y1753564D01*
X1239461Y1753626D01*
X1239492Y1753685D01*
X1239500Y1753739D01*
X1239512Y1753776D01*
X1239511Y1753816D01*
X1239519Y1753870D01*
X1239519Y1756410D01*
X1239508Y1756475D01*
X1239506Y1756541D01*
X1239488Y1756584D01*
X1239480Y1756631D01*
X1239446Y1756688D01*
X1239421Y1756748D01*
X1239390Y1756783D01*
X1239365Y1756824D01*
X1239314Y1756866D01*
X1239270Y1756914D01*
X1239228Y1756936D01*
X1239191Y1756965D01*
X1239129Y1756986D01*
X1239070Y1757017D01*
X1239016Y1757025D01*
X1238979Y1757037D01*
X1238939Y1757036D01*
X1238885Y1757044D01*
X1235075Y1757044D01*
X1235010Y1757033D01*
X1234944Y1757031D01*
X1234901Y1757013D01*
X1234854Y1757005D01*
X1234797Y1756971D01*
X1234737Y1756946D01*
X1234702Y1756915D01*
X1234661Y1756890D01*
X1234620Y1756839D01*
X1234571Y1756795D01*
X1234549Y1756753D01*
X1234520Y1756716D01*
X1234499Y1756654D01*
X1234468Y1756595D01*
X1234460Y1756541D01*
X1234448Y1756504D01*
X1234448Y1756501D01*
X1234449Y1756464D01*
X1234441Y1756410D01*
X1234441Y1753870D01*
X1234452Y1753805D01*
X1234454Y1753739D01*
X1234472Y1753696D01*
X1234480Y1753649D01*
X1234514Y1753592D01*
X1234539Y1753532D01*
X1234570Y1753497D01*
X1234595Y1753456D01*
X1234646Y1753415D01*
X1234690Y1753366D01*
X1234732Y1753344D01*
X1234769Y1753315D01*
X1234831Y1753294D01*
X1234890Y1753263D01*
X1234944Y1753255D01*
X1234981Y1753243D01*
X1235021Y1753244D01*
X1235075Y1753236D01*
X1238885Y1753236D01*
X1238950Y1753247D01*
G37*
G36*
X794450Y1613547D02*
X794450Y1613547D01*
X794516Y1613549D01*
X794559Y1613567D01*
X794606Y1613575D01*
X794663Y1613609D01*
X794723Y1613634D01*
X794758Y1613665D01*
X794799Y1613690D01*
X794841Y1613741D01*
X794889Y1613785D01*
X794911Y1613827D01*
X794940Y1613864D01*
X794961Y1613926D01*
X794992Y1613985D01*
X795000Y1614039D01*
X795012Y1614076D01*
X795011Y1614116D01*
X795019Y1614170D01*
X795019Y1616710D01*
X795008Y1616775D01*
X795006Y1616841D01*
X794988Y1616884D01*
X794980Y1616931D01*
X794946Y1616988D01*
X794921Y1617048D01*
X794890Y1617083D01*
X794865Y1617124D01*
X794814Y1617166D01*
X794770Y1617214D01*
X794728Y1617236D01*
X794691Y1617265D01*
X794629Y1617286D01*
X794570Y1617317D01*
X794516Y1617325D01*
X794479Y1617337D01*
X794439Y1617336D01*
X794385Y1617344D01*
X790575Y1617344D01*
X790510Y1617333D01*
X790444Y1617331D01*
X790401Y1617313D01*
X790354Y1617305D01*
X790297Y1617271D01*
X790237Y1617246D01*
X790202Y1617215D01*
X790161Y1617190D01*
X790120Y1617139D01*
X790071Y1617095D01*
X790049Y1617053D01*
X790020Y1617016D01*
X789999Y1616954D01*
X789968Y1616895D01*
X789960Y1616841D01*
X789948Y1616804D01*
X789948Y1616801D01*
X789949Y1616764D01*
X789941Y1616710D01*
X789941Y1614170D01*
X789952Y1614105D01*
X789954Y1614039D01*
X789972Y1613996D01*
X789980Y1613949D01*
X790014Y1613892D01*
X790039Y1613832D01*
X790070Y1613797D01*
X790095Y1613756D01*
X790146Y1613715D01*
X790190Y1613666D01*
X790232Y1613644D01*
X790269Y1613615D01*
X790331Y1613594D01*
X790390Y1613563D01*
X790444Y1613555D01*
X790481Y1613543D01*
X790521Y1613544D01*
X790575Y1613536D01*
X794385Y1613536D01*
X794450Y1613547D01*
G37*
G36*
X154370Y1613547D02*
X154370Y1613547D01*
X154436Y1613549D01*
X154479Y1613567D01*
X154526Y1613575D01*
X154583Y1613609D01*
X154643Y1613634D01*
X154678Y1613665D01*
X154719Y1613690D01*
X154761Y1613741D01*
X154809Y1613785D01*
X154831Y1613827D01*
X154860Y1613864D01*
X154881Y1613926D01*
X154912Y1613985D01*
X154920Y1614039D01*
X154932Y1614076D01*
X154931Y1614116D01*
X154939Y1614170D01*
X154939Y1616710D01*
X154928Y1616775D01*
X154926Y1616841D01*
X154908Y1616884D01*
X154900Y1616931D01*
X154866Y1616988D01*
X154841Y1617048D01*
X154810Y1617083D01*
X154785Y1617124D01*
X154734Y1617166D01*
X154690Y1617214D01*
X154648Y1617236D01*
X154611Y1617265D01*
X154549Y1617286D01*
X154490Y1617317D01*
X154436Y1617325D01*
X154399Y1617337D01*
X154359Y1617336D01*
X154305Y1617344D01*
X150495Y1617344D01*
X150430Y1617333D01*
X150364Y1617331D01*
X150321Y1617313D01*
X150274Y1617305D01*
X150217Y1617271D01*
X150157Y1617246D01*
X150122Y1617215D01*
X150081Y1617190D01*
X150040Y1617139D01*
X149991Y1617095D01*
X149969Y1617053D01*
X149940Y1617016D01*
X149919Y1616954D01*
X149888Y1616895D01*
X149880Y1616841D01*
X149868Y1616804D01*
X149868Y1616801D01*
X149869Y1616764D01*
X149861Y1616710D01*
X149861Y1614170D01*
X149872Y1614105D01*
X149874Y1614039D01*
X149892Y1613996D01*
X149900Y1613949D01*
X149934Y1613892D01*
X149959Y1613832D01*
X149990Y1613797D01*
X150015Y1613756D01*
X150066Y1613715D01*
X150110Y1613666D01*
X150152Y1613644D01*
X150189Y1613615D01*
X150251Y1613594D01*
X150310Y1613563D01*
X150364Y1613555D01*
X150401Y1613543D01*
X150441Y1613544D01*
X150495Y1613536D01*
X154305Y1613536D01*
X154370Y1613547D01*
G37*
G36*
X1183070Y1588147D02*
X1183070Y1588147D01*
X1183136Y1588149D01*
X1183179Y1588167D01*
X1183226Y1588175D01*
X1183283Y1588209D01*
X1183343Y1588234D01*
X1183378Y1588265D01*
X1183419Y1588290D01*
X1183461Y1588341D01*
X1183509Y1588385D01*
X1183531Y1588427D01*
X1183560Y1588464D01*
X1183581Y1588526D01*
X1183612Y1588585D01*
X1183620Y1588639D01*
X1183632Y1588676D01*
X1183631Y1588716D01*
X1183639Y1588770D01*
X1183639Y1591310D01*
X1183628Y1591375D01*
X1183626Y1591441D01*
X1183608Y1591484D01*
X1183600Y1591531D01*
X1183566Y1591588D01*
X1183541Y1591648D01*
X1183510Y1591683D01*
X1183485Y1591724D01*
X1183434Y1591766D01*
X1183390Y1591814D01*
X1183348Y1591836D01*
X1183311Y1591865D01*
X1183249Y1591886D01*
X1183190Y1591917D01*
X1183136Y1591925D01*
X1183099Y1591937D01*
X1183059Y1591936D01*
X1183005Y1591944D01*
X1179195Y1591944D01*
X1179130Y1591933D01*
X1179064Y1591931D01*
X1179021Y1591913D01*
X1178974Y1591905D01*
X1178917Y1591871D01*
X1178857Y1591846D01*
X1178822Y1591815D01*
X1178781Y1591790D01*
X1178740Y1591739D01*
X1178691Y1591695D01*
X1178669Y1591653D01*
X1178640Y1591616D01*
X1178619Y1591554D01*
X1178588Y1591495D01*
X1178580Y1591441D01*
X1178568Y1591404D01*
X1178568Y1591401D01*
X1178569Y1591364D01*
X1178561Y1591310D01*
X1178561Y1588770D01*
X1178572Y1588705D01*
X1178574Y1588639D01*
X1178592Y1588596D01*
X1178600Y1588549D01*
X1178634Y1588492D01*
X1178659Y1588432D01*
X1178690Y1588397D01*
X1178715Y1588356D01*
X1178766Y1588315D01*
X1178810Y1588266D01*
X1178852Y1588244D01*
X1178889Y1588215D01*
X1178951Y1588194D01*
X1179010Y1588163D01*
X1179064Y1588155D01*
X1179101Y1588143D01*
X1179141Y1588144D01*
X1179195Y1588136D01*
X1183005Y1588136D01*
X1183070Y1588147D01*
G37*
G36*
X1193230Y1588147D02*
X1193230Y1588147D01*
X1193296Y1588149D01*
X1193339Y1588167D01*
X1193386Y1588175D01*
X1193443Y1588209D01*
X1193503Y1588234D01*
X1193538Y1588265D01*
X1193579Y1588290D01*
X1193621Y1588341D01*
X1193669Y1588385D01*
X1193691Y1588427D01*
X1193720Y1588464D01*
X1193741Y1588526D01*
X1193772Y1588585D01*
X1193780Y1588639D01*
X1193792Y1588676D01*
X1193791Y1588716D01*
X1193799Y1588770D01*
X1193799Y1591310D01*
X1193788Y1591375D01*
X1193786Y1591441D01*
X1193768Y1591484D01*
X1193760Y1591531D01*
X1193726Y1591588D01*
X1193701Y1591648D01*
X1193670Y1591683D01*
X1193645Y1591724D01*
X1193594Y1591766D01*
X1193550Y1591814D01*
X1193508Y1591836D01*
X1193471Y1591865D01*
X1193409Y1591886D01*
X1193350Y1591917D01*
X1193296Y1591925D01*
X1193259Y1591937D01*
X1193219Y1591936D01*
X1193165Y1591944D01*
X1189355Y1591944D01*
X1189290Y1591933D01*
X1189224Y1591931D01*
X1189181Y1591913D01*
X1189134Y1591905D01*
X1189077Y1591871D01*
X1189017Y1591846D01*
X1188982Y1591815D01*
X1188941Y1591790D01*
X1188900Y1591739D01*
X1188851Y1591695D01*
X1188829Y1591653D01*
X1188800Y1591616D01*
X1188779Y1591554D01*
X1188748Y1591495D01*
X1188740Y1591441D01*
X1188728Y1591404D01*
X1188728Y1591401D01*
X1188729Y1591364D01*
X1188721Y1591310D01*
X1188721Y1588770D01*
X1188732Y1588705D01*
X1188734Y1588639D01*
X1188752Y1588596D01*
X1188760Y1588549D01*
X1188794Y1588492D01*
X1188819Y1588432D01*
X1188850Y1588397D01*
X1188875Y1588356D01*
X1188926Y1588315D01*
X1188970Y1588266D01*
X1189012Y1588244D01*
X1189049Y1588215D01*
X1189111Y1588194D01*
X1189170Y1588163D01*
X1189224Y1588155D01*
X1189261Y1588143D01*
X1189301Y1588144D01*
X1189355Y1588136D01*
X1193165Y1588136D01*
X1193230Y1588147D01*
G37*
G36*
X542990Y1588147D02*
X542990Y1588147D01*
X543056Y1588149D01*
X543099Y1588167D01*
X543146Y1588175D01*
X543203Y1588209D01*
X543263Y1588234D01*
X543298Y1588265D01*
X543339Y1588290D01*
X543381Y1588341D01*
X543429Y1588385D01*
X543451Y1588427D01*
X543480Y1588464D01*
X543501Y1588526D01*
X543532Y1588585D01*
X543540Y1588639D01*
X543552Y1588676D01*
X543551Y1588716D01*
X543559Y1588770D01*
X543559Y1591310D01*
X543548Y1591375D01*
X543546Y1591441D01*
X543528Y1591484D01*
X543520Y1591531D01*
X543486Y1591588D01*
X543461Y1591648D01*
X543430Y1591683D01*
X543405Y1591724D01*
X543354Y1591766D01*
X543310Y1591814D01*
X543268Y1591836D01*
X543231Y1591865D01*
X543169Y1591886D01*
X543110Y1591917D01*
X543056Y1591925D01*
X543019Y1591937D01*
X542979Y1591936D01*
X542925Y1591944D01*
X539115Y1591944D01*
X539050Y1591933D01*
X538984Y1591931D01*
X538941Y1591913D01*
X538894Y1591905D01*
X538837Y1591871D01*
X538777Y1591846D01*
X538742Y1591815D01*
X538701Y1591790D01*
X538660Y1591739D01*
X538611Y1591695D01*
X538589Y1591653D01*
X538560Y1591616D01*
X538539Y1591554D01*
X538508Y1591495D01*
X538500Y1591441D01*
X538488Y1591404D01*
X538488Y1591401D01*
X538489Y1591364D01*
X538481Y1591310D01*
X538481Y1588770D01*
X538492Y1588705D01*
X538494Y1588639D01*
X538512Y1588596D01*
X538520Y1588549D01*
X538554Y1588492D01*
X538579Y1588432D01*
X538610Y1588397D01*
X538635Y1588356D01*
X538686Y1588315D01*
X538730Y1588266D01*
X538772Y1588244D01*
X538809Y1588215D01*
X538871Y1588194D01*
X538930Y1588163D01*
X538984Y1588155D01*
X539021Y1588143D01*
X539061Y1588144D01*
X539115Y1588136D01*
X542925Y1588136D01*
X542990Y1588147D01*
G37*
G36*
X553150Y1588147D02*
X553150Y1588147D01*
X553216Y1588149D01*
X553259Y1588167D01*
X553306Y1588175D01*
X553363Y1588209D01*
X553423Y1588234D01*
X553458Y1588265D01*
X553499Y1588290D01*
X553541Y1588341D01*
X553589Y1588385D01*
X553611Y1588427D01*
X553640Y1588464D01*
X553661Y1588526D01*
X553692Y1588585D01*
X553700Y1588639D01*
X553712Y1588676D01*
X553711Y1588716D01*
X553719Y1588770D01*
X553719Y1591310D01*
X553708Y1591375D01*
X553706Y1591441D01*
X553688Y1591484D01*
X553680Y1591531D01*
X553646Y1591588D01*
X553621Y1591648D01*
X553590Y1591683D01*
X553565Y1591724D01*
X553514Y1591766D01*
X553470Y1591814D01*
X553428Y1591836D01*
X553391Y1591865D01*
X553329Y1591886D01*
X553270Y1591917D01*
X553216Y1591925D01*
X553179Y1591937D01*
X553139Y1591936D01*
X553085Y1591944D01*
X549275Y1591944D01*
X549210Y1591933D01*
X549144Y1591931D01*
X549101Y1591913D01*
X549054Y1591905D01*
X548997Y1591871D01*
X548937Y1591846D01*
X548902Y1591815D01*
X548861Y1591790D01*
X548820Y1591739D01*
X548771Y1591695D01*
X548749Y1591653D01*
X548720Y1591616D01*
X548699Y1591554D01*
X548668Y1591495D01*
X548660Y1591441D01*
X548648Y1591404D01*
X548648Y1591401D01*
X548649Y1591364D01*
X548641Y1591310D01*
X548641Y1588770D01*
X548652Y1588705D01*
X548654Y1588639D01*
X548672Y1588596D01*
X548680Y1588549D01*
X548714Y1588492D01*
X548739Y1588432D01*
X548770Y1588397D01*
X548795Y1588356D01*
X548846Y1588315D01*
X548890Y1588266D01*
X548932Y1588244D01*
X548969Y1588215D01*
X549031Y1588194D01*
X549090Y1588163D01*
X549144Y1588155D01*
X549181Y1588143D01*
X549221Y1588144D01*
X549275Y1588136D01*
X553085Y1588136D01*
X553150Y1588147D01*
G37*
G36*
X620460Y1237627D02*
X620460Y1237627D01*
X620526Y1237629D01*
X620569Y1237647D01*
X620616Y1237655D01*
X620673Y1237689D01*
X620733Y1237714D01*
X620768Y1237745D01*
X620809Y1237770D01*
X620851Y1237821D01*
X620899Y1237865D01*
X620921Y1237907D01*
X620950Y1237944D01*
X620971Y1238006D01*
X621002Y1238065D01*
X621010Y1238119D01*
X621022Y1238156D01*
X621021Y1238196D01*
X621029Y1238250D01*
X621029Y1240790D01*
X621018Y1240855D01*
X621016Y1240921D01*
X620998Y1240964D01*
X620990Y1241011D01*
X620956Y1241068D01*
X620931Y1241128D01*
X620900Y1241163D01*
X620875Y1241204D01*
X620824Y1241246D01*
X620780Y1241294D01*
X620738Y1241316D01*
X620701Y1241345D01*
X620639Y1241366D01*
X620580Y1241397D01*
X620526Y1241405D01*
X620489Y1241417D01*
X620449Y1241416D01*
X620395Y1241424D01*
X616585Y1241424D01*
X616520Y1241413D01*
X616454Y1241411D01*
X616411Y1241393D01*
X616364Y1241385D01*
X616307Y1241351D01*
X616247Y1241326D01*
X616212Y1241295D01*
X616171Y1241270D01*
X616130Y1241219D01*
X616081Y1241175D01*
X616059Y1241133D01*
X616030Y1241096D01*
X616009Y1241034D01*
X615978Y1240975D01*
X615970Y1240921D01*
X615958Y1240884D01*
X615958Y1240881D01*
X615959Y1240844D01*
X615951Y1240790D01*
X615951Y1238250D01*
X615962Y1238185D01*
X615964Y1238119D01*
X615982Y1238076D01*
X615990Y1238029D01*
X616024Y1237972D01*
X616049Y1237912D01*
X616080Y1237877D01*
X616105Y1237836D01*
X616156Y1237795D01*
X616200Y1237746D01*
X616242Y1237724D01*
X616279Y1237695D01*
X616341Y1237674D01*
X616400Y1237643D01*
X616454Y1237635D01*
X616491Y1237623D01*
X616531Y1237624D01*
X616585Y1237616D01*
X620395Y1237616D01*
X620460Y1237627D01*
G37*
G36*
X1260540Y1237627D02*
X1260540Y1237627D01*
X1260606Y1237629D01*
X1260649Y1237647D01*
X1260696Y1237655D01*
X1260753Y1237689D01*
X1260813Y1237714D01*
X1260848Y1237745D01*
X1260889Y1237770D01*
X1260931Y1237821D01*
X1260979Y1237865D01*
X1261001Y1237907D01*
X1261030Y1237944D01*
X1261051Y1238006D01*
X1261082Y1238065D01*
X1261090Y1238119D01*
X1261102Y1238156D01*
X1261101Y1238196D01*
X1261109Y1238250D01*
X1261109Y1240790D01*
X1261098Y1240855D01*
X1261096Y1240921D01*
X1261078Y1240964D01*
X1261070Y1241011D01*
X1261036Y1241068D01*
X1261011Y1241128D01*
X1260980Y1241163D01*
X1260955Y1241204D01*
X1260904Y1241246D01*
X1260860Y1241294D01*
X1260818Y1241316D01*
X1260781Y1241345D01*
X1260719Y1241366D01*
X1260660Y1241397D01*
X1260606Y1241405D01*
X1260569Y1241417D01*
X1260529Y1241416D01*
X1260475Y1241424D01*
X1256665Y1241424D01*
X1256600Y1241413D01*
X1256534Y1241411D01*
X1256491Y1241393D01*
X1256444Y1241385D01*
X1256387Y1241351D01*
X1256327Y1241326D01*
X1256292Y1241295D01*
X1256251Y1241270D01*
X1256210Y1241219D01*
X1256161Y1241175D01*
X1256139Y1241133D01*
X1256110Y1241096D01*
X1256089Y1241034D01*
X1256058Y1240975D01*
X1256050Y1240921D01*
X1256038Y1240884D01*
X1256038Y1240881D01*
X1256039Y1240844D01*
X1256031Y1240790D01*
X1256031Y1238250D01*
X1256042Y1238185D01*
X1256044Y1238119D01*
X1256062Y1238076D01*
X1256070Y1238029D01*
X1256104Y1237972D01*
X1256129Y1237912D01*
X1256160Y1237877D01*
X1256185Y1237836D01*
X1256236Y1237795D01*
X1256280Y1237746D01*
X1256322Y1237724D01*
X1256359Y1237695D01*
X1256421Y1237674D01*
X1256480Y1237643D01*
X1256534Y1237635D01*
X1256571Y1237623D01*
X1256611Y1237624D01*
X1256665Y1237616D01*
X1260475Y1237616D01*
X1260540Y1237627D01*
G37*
G36*
X1017970Y1212227D02*
X1017970Y1212227D01*
X1018036Y1212229D01*
X1018079Y1212247D01*
X1018126Y1212255D01*
X1018183Y1212289D01*
X1018243Y1212314D01*
X1018278Y1212345D01*
X1018319Y1212370D01*
X1018361Y1212421D01*
X1018409Y1212465D01*
X1018431Y1212507D01*
X1018460Y1212544D01*
X1018481Y1212606D01*
X1018512Y1212665D01*
X1018520Y1212719D01*
X1018532Y1212756D01*
X1018531Y1212796D01*
X1018539Y1212850D01*
X1018539Y1215390D01*
X1018528Y1215455D01*
X1018526Y1215521D01*
X1018508Y1215564D01*
X1018500Y1215611D01*
X1018466Y1215668D01*
X1018441Y1215728D01*
X1018410Y1215763D01*
X1018385Y1215804D01*
X1018334Y1215846D01*
X1018290Y1215894D01*
X1018248Y1215916D01*
X1018211Y1215945D01*
X1018149Y1215966D01*
X1018090Y1215997D01*
X1018036Y1216005D01*
X1017999Y1216017D01*
X1017959Y1216016D01*
X1017905Y1216024D01*
X1014095Y1216024D01*
X1014030Y1216013D01*
X1013964Y1216011D01*
X1013921Y1215993D01*
X1013874Y1215985D01*
X1013817Y1215951D01*
X1013757Y1215926D01*
X1013722Y1215895D01*
X1013681Y1215870D01*
X1013640Y1215819D01*
X1013591Y1215775D01*
X1013569Y1215733D01*
X1013540Y1215696D01*
X1013519Y1215634D01*
X1013488Y1215575D01*
X1013480Y1215521D01*
X1013468Y1215484D01*
X1013468Y1215481D01*
X1013469Y1215444D01*
X1013461Y1215390D01*
X1013461Y1212850D01*
X1013472Y1212785D01*
X1013474Y1212719D01*
X1013492Y1212676D01*
X1013500Y1212629D01*
X1013534Y1212572D01*
X1013559Y1212512D01*
X1013590Y1212477D01*
X1013615Y1212436D01*
X1013666Y1212395D01*
X1013710Y1212346D01*
X1013752Y1212324D01*
X1013789Y1212295D01*
X1013851Y1212274D01*
X1013910Y1212243D01*
X1013964Y1212235D01*
X1014001Y1212223D01*
X1014041Y1212224D01*
X1014095Y1212216D01*
X1017905Y1212216D01*
X1017970Y1212227D01*
G37*
G36*
X377890Y1212227D02*
X377890Y1212227D01*
X377956Y1212229D01*
X377999Y1212247D01*
X378046Y1212255D01*
X378103Y1212289D01*
X378163Y1212314D01*
X378198Y1212345D01*
X378239Y1212370D01*
X378281Y1212421D01*
X378329Y1212465D01*
X378351Y1212507D01*
X378380Y1212544D01*
X378401Y1212606D01*
X378432Y1212665D01*
X378440Y1212719D01*
X378452Y1212756D01*
X378451Y1212796D01*
X378459Y1212850D01*
X378459Y1215390D01*
X378448Y1215455D01*
X378446Y1215521D01*
X378428Y1215564D01*
X378420Y1215611D01*
X378386Y1215668D01*
X378361Y1215728D01*
X378330Y1215763D01*
X378305Y1215804D01*
X378254Y1215846D01*
X378210Y1215894D01*
X378168Y1215916D01*
X378131Y1215945D01*
X378069Y1215966D01*
X378010Y1215997D01*
X377956Y1216005D01*
X377919Y1216017D01*
X377879Y1216016D01*
X377825Y1216024D01*
X374015Y1216024D01*
X373950Y1216013D01*
X373884Y1216011D01*
X373841Y1215993D01*
X373794Y1215985D01*
X373737Y1215951D01*
X373677Y1215926D01*
X373642Y1215895D01*
X373601Y1215870D01*
X373560Y1215819D01*
X373511Y1215775D01*
X373489Y1215733D01*
X373460Y1215696D01*
X373439Y1215634D01*
X373408Y1215575D01*
X373400Y1215521D01*
X373388Y1215484D01*
X373388Y1215481D01*
X373389Y1215444D01*
X373381Y1215390D01*
X373381Y1212850D01*
X373392Y1212785D01*
X373394Y1212719D01*
X373412Y1212676D01*
X373420Y1212629D01*
X373454Y1212572D01*
X373479Y1212512D01*
X373510Y1212477D01*
X373535Y1212436D01*
X373586Y1212395D01*
X373630Y1212346D01*
X373672Y1212324D01*
X373709Y1212295D01*
X373771Y1212274D01*
X373830Y1212243D01*
X373884Y1212235D01*
X373921Y1212223D01*
X373961Y1212224D01*
X374015Y1212216D01*
X377825Y1212216D01*
X377890Y1212227D01*
G37*
G36*
X1017970Y1186827D02*
X1017970Y1186827D01*
X1018036Y1186829D01*
X1018079Y1186847D01*
X1018126Y1186855D01*
X1018183Y1186889D01*
X1018243Y1186914D01*
X1018278Y1186945D01*
X1018319Y1186970D01*
X1018361Y1187021D01*
X1018409Y1187065D01*
X1018431Y1187107D01*
X1018460Y1187144D01*
X1018481Y1187206D01*
X1018512Y1187265D01*
X1018520Y1187319D01*
X1018532Y1187356D01*
X1018531Y1187396D01*
X1018539Y1187450D01*
X1018539Y1189990D01*
X1018528Y1190055D01*
X1018526Y1190121D01*
X1018508Y1190164D01*
X1018500Y1190211D01*
X1018466Y1190268D01*
X1018441Y1190328D01*
X1018410Y1190363D01*
X1018385Y1190404D01*
X1018334Y1190446D01*
X1018290Y1190494D01*
X1018248Y1190516D01*
X1018211Y1190545D01*
X1018149Y1190566D01*
X1018090Y1190597D01*
X1018036Y1190605D01*
X1017999Y1190617D01*
X1017959Y1190616D01*
X1017905Y1190624D01*
X1014095Y1190624D01*
X1014030Y1190613D01*
X1013964Y1190611D01*
X1013921Y1190593D01*
X1013874Y1190585D01*
X1013817Y1190551D01*
X1013757Y1190526D01*
X1013722Y1190495D01*
X1013681Y1190470D01*
X1013640Y1190419D01*
X1013591Y1190375D01*
X1013569Y1190333D01*
X1013540Y1190296D01*
X1013519Y1190234D01*
X1013488Y1190175D01*
X1013480Y1190121D01*
X1013468Y1190084D01*
X1013468Y1190081D01*
X1013469Y1190044D01*
X1013461Y1189990D01*
X1013461Y1187450D01*
X1013472Y1187385D01*
X1013474Y1187319D01*
X1013492Y1187276D01*
X1013500Y1187229D01*
X1013534Y1187172D01*
X1013559Y1187112D01*
X1013590Y1187077D01*
X1013615Y1187036D01*
X1013666Y1186995D01*
X1013710Y1186946D01*
X1013752Y1186924D01*
X1013789Y1186895D01*
X1013851Y1186874D01*
X1013910Y1186843D01*
X1013964Y1186835D01*
X1014001Y1186823D01*
X1014041Y1186824D01*
X1014095Y1186816D01*
X1017905Y1186816D01*
X1017970Y1186827D01*
G37*
G36*
X377890Y1161427D02*
X377890Y1161427D01*
X377956Y1161429D01*
X377999Y1161447D01*
X378046Y1161455D01*
X378103Y1161489D01*
X378163Y1161514D01*
X378198Y1161545D01*
X378239Y1161570D01*
X378281Y1161621D01*
X378329Y1161665D01*
X378351Y1161707D01*
X378380Y1161744D01*
X378401Y1161806D01*
X378432Y1161865D01*
X378440Y1161919D01*
X378452Y1161956D01*
X378451Y1161996D01*
X378459Y1162050D01*
X378459Y1164590D01*
X378448Y1164655D01*
X378446Y1164721D01*
X378428Y1164764D01*
X378420Y1164811D01*
X378386Y1164868D01*
X378361Y1164928D01*
X378330Y1164963D01*
X378305Y1165004D01*
X378254Y1165046D01*
X378210Y1165094D01*
X378168Y1165116D01*
X378131Y1165145D01*
X378069Y1165166D01*
X378010Y1165197D01*
X377956Y1165205D01*
X377919Y1165217D01*
X377879Y1165216D01*
X377825Y1165224D01*
X374015Y1165224D01*
X373950Y1165213D01*
X373884Y1165211D01*
X373841Y1165193D01*
X373794Y1165185D01*
X373737Y1165151D01*
X373677Y1165126D01*
X373642Y1165095D01*
X373601Y1165070D01*
X373560Y1165019D01*
X373511Y1164975D01*
X373489Y1164933D01*
X373460Y1164896D01*
X373439Y1164834D01*
X373408Y1164775D01*
X373400Y1164721D01*
X373388Y1164684D01*
X373388Y1164681D01*
X373389Y1164644D01*
X373381Y1164590D01*
X373381Y1162050D01*
X373392Y1161985D01*
X373394Y1161919D01*
X373412Y1161876D01*
X373420Y1161829D01*
X373454Y1161772D01*
X373479Y1161712D01*
X373510Y1161677D01*
X373535Y1161636D01*
X373586Y1161595D01*
X373630Y1161546D01*
X373672Y1161524D01*
X373709Y1161495D01*
X373771Y1161474D01*
X373830Y1161443D01*
X373884Y1161435D01*
X373921Y1161423D01*
X373961Y1161424D01*
X374015Y1161416D01*
X377825Y1161416D01*
X377890Y1161427D01*
G37*
G36*
X1017970Y1161427D02*
X1017970Y1161427D01*
X1018036Y1161429D01*
X1018079Y1161447D01*
X1018126Y1161455D01*
X1018183Y1161489D01*
X1018243Y1161514D01*
X1018278Y1161545D01*
X1018319Y1161570D01*
X1018361Y1161621D01*
X1018409Y1161665D01*
X1018431Y1161707D01*
X1018460Y1161744D01*
X1018481Y1161806D01*
X1018512Y1161865D01*
X1018520Y1161919D01*
X1018532Y1161956D01*
X1018531Y1161996D01*
X1018539Y1162050D01*
X1018539Y1164590D01*
X1018528Y1164655D01*
X1018526Y1164721D01*
X1018508Y1164764D01*
X1018500Y1164811D01*
X1018466Y1164868D01*
X1018441Y1164928D01*
X1018410Y1164963D01*
X1018385Y1165004D01*
X1018334Y1165046D01*
X1018290Y1165094D01*
X1018248Y1165116D01*
X1018211Y1165145D01*
X1018149Y1165166D01*
X1018090Y1165197D01*
X1018036Y1165205D01*
X1017999Y1165217D01*
X1017959Y1165216D01*
X1017905Y1165224D01*
X1014095Y1165224D01*
X1014030Y1165213D01*
X1013964Y1165211D01*
X1013921Y1165193D01*
X1013874Y1165185D01*
X1013817Y1165151D01*
X1013757Y1165126D01*
X1013722Y1165095D01*
X1013681Y1165070D01*
X1013640Y1165019D01*
X1013591Y1164975D01*
X1013569Y1164933D01*
X1013540Y1164896D01*
X1013519Y1164834D01*
X1013488Y1164775D01*
X1013480Y1164721D01*
X1013468Y1164684D01*
X1013468Y1164681D01*
X1013469Y1164644D01*
X1013461Y1164590D01*
X1013461Y1162050D01*
X1013472Y1161985D01*
X1013474Y1161919D01*
X1013492Y1161876D01*
X1013500Y1161829D01*
X1013534Y1161772D01*
X1013559Y1161712D01*
X1013590Y1161677D01*
X1013615Y1161636D01*
X1013666Y1161595D01*
X1013710Y1161546D01*
X1013752Y1161524D01*
X1013789Y1161495D01*
X1013851Y1161474D01*
X1013910Y1161443D01*
X1013964Y1161435D01*
X1014001Y1161423D01*
X1014041Y1161424D01*
X1014095Y1161416D01*
X1017905Y1161416D01*
X1017970Y1161427D01*
G37*
G36*
X377890Y1136027D02*
X377890Y1136027D01*
X377956Y1136029D01*
X377999Y1136047D01*
X378046Y1136055D01*
X378103Y1136089D01*
X378163Y1136114D01*
X378198Y1136145D01*
X378239Y1136170D01*
X378281Y1136221D01*
X378329Y1136265D01*
X378351Y1136307D01*
X378380Y1136344D01*
X378401Y1136406D01*
X378432Y1136465D01*
X378440Y1136519D01*
X378452Y1136556D01*
X378451Y1136596D01*
X378459Y1136650D01*
X378459Y1139190D01*
X378448Y1139255D01*
X378446Y1139321D01*
X378428Y1139364D01*
X378420Y1139411D01*
X378386Y1139468D01*
X378361Y1139528D01*
X378330Y1139563D01*
X378305Y1139604D01*
X378254Y1139646D01*
X378210Y1139694D01*
X378168Y1139716D01*
X378131Y1139745D01*
X378069Y1139766D01*
X378010Y1139797D01*
X377956Y1139805D01*
X377919Y1139817D01*
X377879Y1139816D01*
X377825Y1139824D01*
X374015Y1139824D01*
X373950Y1139813D01*
X373884Y1139811D01*
X373841Y1139793D01*
X373794Y1139785D01*
X373737Y1139751D01*
X373677Y1139726D01*
X373642Y1139695D01*
X373601Y1139670D01*
X373560Y1139619D01*
X373511Y1139575D01*
X373489Y1139533D01*
X373460Y1139496D01*
X373439Y1139434D01*
X373408Y1139375D01*
X373400Y1139321D01*
X373388Y1139284D01*
X373388Y1139281D01*
X373389Y1139244D01*
X373381Y1139190D01*
X373381Y1136650D01*
X373392Y1136585D01*
X373394Y1136519D01*
X373412Y1136476D01*
X373420Y1136429D01*
X373454Y1136372D01*
X373479Y1136312D01*
X373510Y1136277D01*
X373535Y1136236D01*
X373586Y1136195D01*
X373630Y1136146D01*
X373672Y1136124D01*
X373709Y1136095D01*
X373771Y1136074D01*
X373830Y1136043D01*
X373884Y1136035D01*
X373921Y1136023D01*
X373961Y1136024D01*
X374015Y1136016D01*
X377825Y1136016D01*
X377890Y1136027D01*
G37*
G36*
X1017970Y1136027D02*
X1017970Y1136027D01*
X1018036Y1136029D01*
X1018079Y1136047D01*
X1018126Y1136055D01*
X1018183Y1136089D01*
X1018243Y1136114D01*
X1018278Y1136145D01*
X1018319Y1136170D01*
X1018361Y1136221D01*
X1018409Y1136265D01*
X1018431Y1136307D01*
X1018460Y1136344D01*
X1018481Y1136406D01*
X1018512Y1136465D01*
X1018520Y1136519D01*
X1018532Y1136556D01*
X1018531Y1136596D01*
X1018539Y1136650D01*
X1018539Y1139190D01*
X1018528Y1139255D01*
X1018526Y1139321D01*
X1018508Y1139364D01*
X1018500Y1139411D01*
X1018466Y1139468D01*
X1018441Y1139528D01*
X1018410Y1139563D01*
X1018385Y1139604D01*
X1018334Y1139646D01*
X1018290Y1139694D01*
X1018248Y1139716D01*
X1018211Y1139745D01*
X1018149Y1139766D01*
X1018090Y1139797D01*
X1018036Y1139805D01*
X1017999Y1139817D01*
X1017959Y1139816D01*
X1017905Y1139824D01*
X1014095Y1139824D01*
X1014030Y1139813D01*
X1013964Y1139811D01*
X1013921Y1139793D01*
X1013874Y1139785D01*
X1013817Y1139751D01*
X1013757Y1139726D01*
X1013722Y1139695D01*
X1013681Y1139670D01*
X1013640Y1139619D01*
X1013591Y1139575D01*
X1013569Y1139533D01*
X1013540Y1139496D01*
X1013519Y1139434D01*
X1013488Y1139375D01*
X1013480Y1139321D01*
X1013468Y1139284D01*
X1013468Y1139281D01*
X1013469Y1139244D01*
X1013461Y1139190D01*
X1013461Y1136650D01*
X1013472Y1136585D01*
X1013474Y1136519D01*
X1013492Y1136476D01*
X1013500Y1136429D01*
X1013534Y1136372D01*
X1013559Y1136312D01*
X1013590Y1136277D01*
X1013615Y1136236D01*
X1013666Y1136195D01*
X1013710Y1136146D01*
X1013752Y1136124D01*
X1013789Y1136095D01*
X1013851Y1136074D01*
X1013910Y1136043D01*
X1013964Y1136035D01*
X1014001Y1136023D01*
X1014041Y1136024D01*
X1014095Y1136016D01*
X1017905Y1136016D01*
X1017970Y1136027D01*
G37*
G36*
X377890Y1110627D02*
X377890Y1110627D01*
X377956Y1110629D01*
X377999Y1110647D01*
X378046Y1110655D01*
X378103Y1110689D01*
X378163Y1110714D01*
X378198Y1110745D01*
X378239Y1110770D01*
X378281Y1110821D01*
X378329Y1110865D01*
X378351Y1110907D01*
X378380Y1110944D01*
X378401Y1111006D01*
X378432Y1111065D01*
X378440Y1111119D01*
X378452Y1111156D01*
X378451Y1111196D01*
X378459Y1111250D01*
X378459Y1113790D01*
X378448Y1113855D01*
X378446Y1113921D01*
X378428Y1113964D01*
X378420Y1114011D01*
X378386Y1114068D01*
X378361Y1114128D01*
X378330Y1114163D01*
X378305Y1114204D01*
X378254Y1114246D01*
X378210Y1114294D01*
X378168Y1114316D01*
X378131Y1114345D01*
X378069Y1114366D01*
X378010Y1114397D01*
X377956Y1114405D01*
X377919Y1114417D01*
X377879Y1114416D01*
X377825Y1114424D01*
X374015Y1114424D01*
X373950Y1114413D01*
X373884Y1114411D01*
X373841Y1114393D01*
X373794Y1114385D01*
X373737Y1114351D01*
X373677Y1114326D01*
X373642Y1114295D01*
X373601Y1114270D01*
X373560Y1114219D01*
X373511Y1114175D01*
X373489Y1114133D01*
X373460Y1114096D01*
X373439Y1114034D01*
X373408Y1113975D01*
X373400Y1113921D01*
X373388Y1113884D01*
X373388Y1113881D01*
X373389Y1113844D01*
X373381Y1113790D01*
X373381Y1111250D01*
X373392Y1111185D01*
X373394Y1111119D01*
X373412Y1111076D01*
X373420Y1111029D01*
X373454Y1110972D01*
X373479Y1110912D01*
X373510Y1110877D01*
X373535Y1110836D01*
X373586Y1110795D01*
X373630Y1110746D01*
X373672Y1110724D01*
X373709Y1110695D01*
X373771Y1110674D01*
X373830Y1110643D01*
X373884Y1110635D01*
X373921Y1110623D01*
X373961Y1110624D01*
X374015Y1110616D01*
X377825Y1110616D01*
X377890Y1110627D01*
G37*
G36*
X1017970Y1110627D02*
X1017970Y1110627D01*
X1018036Y1110629D01*
X1018079Y1110647D01*
X1018126Y1110655D01*
X1018183Y1110689D01*
X1018243Y1110714D01*
X1018278Y1110745D01*
X1018319Y1110770D01*
X1018361Y1110821D01*
X1018409Y1110865D01*
X1018431Y1110907D01*
X1018460Y1110944D01*
X1018481Y1111006D01*
X1018512Y1111065D01*
X1018520Y1111119D01*
X1018532Y1111156D01*
X1018531Y1111196D01*
X1018539Y1111250D01*
X1018539Y1113790D01*
X1018528Y1113855D01*
X1018526Y1113921D01*
X1018508Y1113964D01*
X1018500Y1114011D01*
X1018466Y1114068D01*
X1018441Y1114128D01*
X1018410Y1114163D01*
X1018385Y1114204D01*
X1018334Y1114246D01*
X1018290Y1114294D01*
X1018248Y1114316D01*
X1018211Y1114345D01*
X1018149Y1114366D01*
X1018090Y1114397D01*
X1018036Y1114405D01*
X1017999Y1114417D01*
X1017959Y1114416D01*
X1017905Y1114424D01*
X1014095Y1114424D01*
X1014030Y1114413D01*
X1013964Y1114411D01*
X1013921Y1114393D01*
X1013874Y1114385D01*
X1013817Y1114351D01*
X1013757Y1114326D01*
X1013722Y1114295D01*
X1013681Y1114270D01*
X1013640Y1114219D01*
X1013591Y1114175D01*
X1013569Y1114133D01*
X1013540Y1114096D01*
X1013519Y1114034D01*
X1013488Y1113975D01*
X1013480Y1113921D01*
X1013468Y1113884D01*
X1013468Y1113881D01*
X1013469Y1113844D01*
X1013461Y1113790D01*
X1013461Y1111250D01*
X1013472Y1111185D01*
X1013474Y1111119D01*
X1013492Y1111076D01*
X1013500Y1111029D01*
X1013534Y1110972D01*
X1013559Y1110912D01*
X1013590Y1110877D01*
X1013615Y1110836D01*
X1013666Y1110795D01*
X1013710Y1110746D01*
X1013752Y1110724D01*
X1013789Y1110695D01*
X1013851Y1110674D01*
X1013910Y1110643D01*
X1013964Y1110635D01*
X1014001Y1110623D01*
X1014041Y1110624D01*
X1014095Y1110616D01*
X1017905Y1110616D01*
X1017970Y1110627D01*
G37*
G36*
X377890Y1186827D02*
X377890Y1186827D01*
X377956Y1186829D01*
X377999Y1186847D01*
X378046Y1186855D01*
X378103Y1186889D01*
X378163Y1186914D01*
X378198Y1186945D01*
X378239Y1186970D01*
X378281Y1187021D01*
X378329Y1187065D01*
X378351Y1187107D01*
X378380Y1187144D01*
X378401Y1187206D01*
X378432Y1187265D01*
X378440Y1187319D01*
X378452Y1187356D01*
X378451Y1187396D01*
X378459Y1187450D01*
X378459Y1189990D01*
X378448Y1190055D01*
X378446Y1190121D01*
X378428Y1190164D01*
X378420Y1190211D01*
X378386Y1190268D01*
X378361Y1190328D01*
X378330Y1190363D01*
X378305Y1190404D01*
X378254Y1190446D01*
X378210Y1190494D01*
X378168Y1190516D01*
X378131Y1190545D01*
X378069Y1190566D01*
X378010Y1190597D01*
X377956Y1190605D01*
X377919Y1190617D01*
X377879Y1190616D01*
X377825Y1190624D01*
X374015Y1190624D01*
X373950Y1190613D01*
X373884Y1190611D01*
X373841Y1190593D01*
X373794Y1190585D01*
X373737Y1190551D01*
X373677Y1190526D01*
X373642Y1190495D01*
X373601Y1190470D01*
X373560Y1190419D01*
X373511Y1190375D01*
X373489Y1190333D01*
X373460Y1190296D01*
X373439Y1190234D01*
X373408Y1190175D01*
X373400Y1190121D01*
X373388Y1190084D01*
X373388Y1190081D01*
X373389Y1190044D01*
X373381Y1189990D01*
X373381Y1187450D01*
X373392Y1187385D01*
X373394Y1187319D01*
X373412Y1187276D01*
X373420Y1187229D01*
X373454Y1187172D01*
X373479Y1187112D01*
X373510Y1187077D01*
X373535Y1187036D01*
X373586Y1186995D01*
X373630Y1186946D01*
X373672Y1186924D01*
X373709Y1186895D01*
X373771Y1186874D01*
X373830Y1186843D01*
X373884Y1186835D01*
X373921Y1186823D01*
X373961Y1186824D01*
X374015Y1186816D01*
X377825Y1186816D01*
X377890Y1186827D01*
G37*
G36*
X620460Y1956447D02*
X620460Y1956447D01*
X620526Y1956449D01*
X620569Y1956467D01*
X620616Y1956475D01*
X620673Y1956509D01*
X620733Y1956534D01*
X620768Y1956565D01*
X620809Y1956590D01*
X620851Y1956641D01*
X620899Y1956685D01*
X620921Y1956727D01*
X620950Y1956764D01*
X620971Y1956826D01*
X621002Y1956885D01*
X621010Y1956939D01*
X621022Y1956976D01*
X621021Y1957016D01*
X621029Y1957070D01*
X621029Y1959610D01*
X621018Y1959675D01*
X621016Y1959741D01*
X620998Y1959784D01*
X620990Y1959831D01*
X620956Y1959888D01*
X620931Y1959948D01*
X620900Y1959983D01*
X620875Y1960024D01*
X620824Y1960066D01*
X620780Y1960114D01*
X620738Y1960136D01*
X620701Y1960165D01*
X620639Y1960186D01*
X620580Y1960217D01*
X620526Y1960225D01*
X620489Y1960237D01*
X620449Y1960236D01*
X620395Y1960244D01*
X616585Y1960244D01*
X616520Y1960233D01*
X616454Y1960231D01*
X616411Y1960213D01*
X616364Y1960205D01*
X616307Y1960171D01*
X616247Y1960146D01*
X616212Y1960115D01*
X616171Y1960090D01*
X616130Y1960039D01*
X616081Y1959995D01*
X616059Y1959953D01*
X616030Y1959916D01*
X616009Y1959854D01*
X615978Y1959795D01*
X615970Y1959741D01*
X615958Y1959704D01*
X615958Y1959701D01*
X615959Y1959664D01*
X615951Y1959610D01*
X615951Y1957070D01*
X615962Y1957005D01*
X615964Y1956939D01*
X615982Y1956896D01*
X615990Y1956849D01*
X616024Y1956792D01*
X616049Y1956732D01*
X616080Y1956697D01*
X616105Y1956656D01*
X616156Y1956615D01*
X616200Y1956566D01*
X616242Y1956544D01*
X616279Y1956515D01*
X616341Y1956494D01*
X616400Y1956463D01*
X616454Y1956455D01*
X616491Y1956443D01*
X616531Y1956444D01*
X616585Y1956436D01*
X620395Y1956436D01*
X620460Y1956447D01*
G37*
G36*
X1260540Y1956447D02*
X1260540Y1956447D01*
X1260606Y1956449D01*
X1260649Y1956467D01*
X1260696Y1956475D01*
X1260753Y1956509D01*
X1260813Y1956534D01*
X1260848Y1956565D01*
X1260889Y1956590D01*
X1260931Y1956641D01*
X1260979Y1956685D01*
X1261001Y1956727D01*
X1261030Y1956764D01*
X1261051Y1956826D01*
X1261082Y1956885D01*
X1261090Y1956939D01*
X1261102Y1956976D01*
X1261101Y1957016D01*
X1261109Y1957070D01*
X1261109Y1959610D01*
X1261098Y1959675D01*
X1261096Y1959741D01*
X1261078Y1959784D01*
X1261070Y1959831D01*
X1261036Y1959888D01*
X1261011Y1959948D01*
X1260980Y1959983D01*
X1260955Y1960024D01*
X1260904Y1960066D01*
X1260860Y1960114D01*
X1260818Y1960136D01*
X1260781Y1960165D01*
X1260719Y1960186D01*
X1260660Y1960217D01*
X1260606Y1960225D01*
X1260569Y1960237D01*
X1260529Y1960236D01*
X1260475Y1960244D01*
X1256665Y1960244D01*
X1256600Y1960233D01*
X1256534Y1960231D01*
X1256491Y1960213D01*
X1256444Y1960205D01*
X1256387Y1960171D01*
X1256327Y1960146D01*
X1256292Y1960115D01*
X1256251Y1960090D01*
X1256210Y1960039D01*
X1256161Y1959995D01*
X1256139Y1959953D01*
X1256110Y1959916D01*
X1256089Y1959854D01*
X1256058Y1959795D01*
X1256050Y1959741D01*
X1256038Y1959704D01*
X1256038Y1959701D01*
X1256039Y1959664D01*
X1256031Y1959610D01*
X1256031Y1957070D01*
X1256042Y1957005D01*
X1256044Y1956939D01*
X1256062Y1956896D01*
X1256070Y1956849D01*
X1256104Y1956792D01*
X1256129Y1956732D01*
X1256160Y1956697D01*
X1256185Y1956656D01*
X1256236Y1956615D01*
X1256280Y1956566D01*
X1256322Y1956544D01*
X1256359Y1956515D01*
X1256421Y1956494D01*
X1256480Y1956463D01*
X1256534Y1956455D01*
X1256571Y1956443D01*
X1256611Y1956444D01*
X1256665Y1956436D01*
X1260475Y1956436D01*
X1260540Y1956447D01*
G37*
G36*
X1017970Y1931047D02*
X1017970Y1931047D01*
X1018036Y1931049D01*
X1018079Y1931067D01*
X1018126Y1931075D01*
X1018183Y1931109D01*
X1018243Y1931134D01*
X1018278Y1931165D01*
X1018319Y1931190D01*
X1018361Y1931241D01*
X1018409Y1931285D01*
X1018431Y1931327D01*
X1018460Y1931364D01*
X1018481Y1931426D01*
X1018512Y1931485D01*
X1018520Y1931539D01*
X1018532Y1931576D01*
X1018531Y1931616D01*
X1018539Y1931670D01*
X1018539Y1934210D01*
X1018528Y1934275D01*
X1018526Y1934341D01*
X1018508Y1934384D01*
X1018500Y1934431D01*
X1018466Y1934488D01*
X1018441Y1934548D01*
X1018410Y1934583D01*
X1018385Y1934624D01*
X1018334Y1934666D01*
X1018290Y1934714D01*
X1018248Y1934736D01*
X1018211Y1934765D01*
X1018149Y1934786D01*
X1018090Y1934817D01*
X1018036Y1934825D01*
X1017999Y1934837D01*
X1017959Y1934836D01*
X1017905Y1934844D01*
X1014095Y1934844D01*
X1014030Y1934833D01*
X1013964Y1934831D01*
X1013921Y1934813D01*
X1013874Y1934805D01*
X1013817Y1934771D01*
X1013757Y1934746D01*
X1013722Y1934715D01*
X1013681Y1934690D01*
X1013640Y1934639D01*
X1013591Y1934595D01*
X1013569Y1934553D01*
X1013540Y1934516D01*
X1013519Y1934454D01*
X1013488Y1934395D01*
X1013480Y1934341D01*
X1013468Y1934304D01*
X1013468Y1934301D01*
X1013469Y1934264D01*
X1013461Y1934210D01*
X1013461Y1931670D01*
X1013472Y1931605D01*
X1013474Y1931539D01*
X1013492Y1931496D01*
X1013500Y1931449D01*
X1013534Y1931392D01*
X1013559Y1931332D01*
X1013590Y1931297D01*
X1013615Y1931256D01*
X1013666Y1931215D01*
X1013710Y1931166D01*
X1013752Y1931144D01*
X1013789Y1931115D01*
X1013851Y1931094D01*
X1013910Y1931063D01*
X1013964Y1931055D01*
X1014001Y1931043D01*
X1014041Y1931044D01*
X1014095Y1931036D01*
X1017905Y1931036D01*
X1017970Y1931047D01*
G37*
G36*
X377890Y1931047D02*
X377890Y1931047D01*
X377956Y1931049D01*
X377999Y1931067D01*
X378046Y1931075D01*
X378103Y1931109D01*
X378163Y1931134D01*
X378198Y1931165D01*
X378239Y1931190D01*
X378281Y1931241D01*
X378329Y1931285D01*
X378351Y1931327D01*
X378380Y1931364D01*
X378401Y1931426D01*
X378432Y1931485D01*
X378440Y1931539D01*
X378452Y1931576D01*
X378451Y1931616D01*
X378459Y1931670D01*
X378459Y1934210D01*
X378448Y1934275D01*
X378446Y1934341D01*
X378428Y1934384D01*
X378420Y1934431D01*
X378386Y1934488D01*
X378361Y1934548D01*
X378330Y1934583D01*
X378305Y1934624D01*
X378254Y1934666D01*
X378210Y1934714D01*
X378168Y1934736D01*
X378131Y1934765D01*
X378069Y1934786D01*
X378010Y1934817D01*
X377956Y1934825D01*
X377919Y1934837D01*
X377879Y1934836D01*
X377825Y1934844D01*
X374015Y1934844D01*
X373950Y1934833D01*
X373884Y1934831D01*
X373841Y1934813D01*
X373794Y1934805D01*
X373737Y1934771D01*
X373677Y1934746D01*
X373642Y1934715D01*
X373601Y1934690D01*
X373560Y1934639D01*
X373511Y1934595D01*
X373489Y1934553D01*
X373460Y1934516D01*
X373439Y1934454D01*
X373408Y1934395D01*
X373400Y1934341D01*
X373388Y1934304D01*
X373388Y1934301D01*
X373389Y1934264D01*
X373381Y1934210D01*
X373381Y1931670D01*
X373392Y1931605D01*
X373394Y1931539D01*
X373412Y1931496D01*
X373420Y1931449D01*
X373454Y1931392D01*
X373479Y1931332D01*
X373510Y1931297D01*
X373535Y1931256D01*
X373586Y1931215D01*
X373630Y1931166D01*
X373672Y1931144D01*
X373709Y1931115D01*
X373771Y1931094D01*
X373830Y1931063D01*
X373884Y1931055D01*
X373921Y1931043D01*
X373961Y1931044D01*
X374015Y1931036D01*
X377825Y1931036D01*
X377890Y1931047D01*
G37*
G36*
X154370Y894727D02*
X154370Y894727D01*
X154436Y894729D01*
X154479Y894747D01*
X154526Y894755D01*
X154583Y894789D01*
X154643Y894814D01*
X154678Y894845D01*
X154719Y894870D01*
X154761Y894921D01*
X154809Y894965D01*
X154831Y895007D01*
X154860Y895044D01*
X154881Y895106D01*
X154912Y895165D01*
X154920Y895219D01*
X154932Y895256D01*
X154931Y895296D01*
X154939Y895350D01*
X154939Y897890D01*
X154928Y897955D01*
X154926Y898021D01*
X154908Y898064D01*
X154900Y898111D01*
X154866Y898168D01*
X154841Y898228D01*
X154810Y898263D01*
X154785Y898304D01*
X154734Y898346D01*
X154690Y898394D01*
X154648Y898416D01*
X154611Y898445D01*
X154549Y898466D01*
X154490Y898497D01*
X154436Y898505D01*
X154399Y898517D01*
X154359Y898516D01*
X154305Y898524D01*
X150495Y898524D01*
X150430Y898513D01*
X150364Y898511D01*
X150321Y898493D01*
X150274Y898485D01*
X150217Y898451D01*
X150157Y898426D01*
X150122Y898395D01*
X150081Y898370D01*
X150040Y898319D01*
X149991Y898275D01*
X149969Y898233D01*
X149940Y898196D01*
X149919Y898134D01*
X149888Y898075D01*
X149880Y898021D01*
X149868Y897984D01*
X149868Y897981D01*
X149869Y897944D01*
X149861Y897890D01*
X149861Y895350D01*
X149872Y895285D01*
X149874Y895219D01*
X149892Y895176D01*
X149900Y895129D01*
X149934Y895072D01*
X149959Y895012D01*
X149990Y894977D01*
X150015Y894936D01*
X150066Y894895D01*
X150110Y894846D01*
X150152Y894824D01*
X150189Y894795D01*
X150251Y894774D01*
X150310Y894743D01*
X150364Y894735D01*
X150401Y894723D01*
X150441Y894724D01*
X150495Y894716D01*
X154305Y894716D01*
X154370Y894727D01*
G37*
G36*
X794450Y894727D02*
X794450Y894727D01*
X794516Y894729D01*
X794559Y894747D01*
X794606Y894755D01*
X794663Y894789D01*
X794723Y894814D01*
X794758Y894845D01*
X794799Y894870D01*
X794841Y894921D01*
X794889Y894965D01*
X794911Y895007D01*
X794940Y895044D01*
X794961Y895106D01*
X794992Y895165D01*
X795000Y895219D01*
X795012Y895256D01*
X795011Y895296D01*
X795019Y895350D01*
X795019Y897890D01*
X795008Y897955D01*
X795006Y898021D01*
X794988Y898064D01*
X794980Y898111D01*
X794946Y898168D01*
X794921Y898228D01*
X794890Y898263D01*
X794865Y898304D01*
X794814Y898346D01*
X794770Y898394D01*
X794728Y898416D01*
X794691Y898445D01*
X794629Y898466D01*
X794570Y898497D01*
X794516Y898505D01*
X794479Y898517D01*
X794439Y898516D01*
X794385Y898524D01*
X790575Y898524D01*
X790510Y898513D01*
X790444Y898511D01*
X790401Y898493D01*
X790354Y898485D01*
X790297Y898451D01*
X790237Y898426D01*
X790202Y898395D01*
X790161Y898370D01*
X790120Y898319D01*
X790071Y898275D01*
X790049Y898233D01*
X790020Y898196D01*
X789999Y898134D01*
X789968Y898075D01*
X789960Y898021D01*
X789948Y897984D01*
X789948Y897981D01*
X789949Y897944D01*
X789941Y897890D01*
X789941Y895350D01*
X789952Y895285D01*
X789954Y895219D01*
X789972Y895176D01*
X789980Y895129D01*
X790014Y895072D01*
X790039Y895012D01*
X790070Y894977D01*
X790095Y894936D01*
X790146Y894895D01*
X790190Y894846D01*
X790232Y894824D01*
X790269Y894795D01*
X790331Y894774D01*
X790390Y894743D01*
X790444Y894735D01*
X790481Y894723D01*
X790521Y894724D01*
X790575Y894716D01*
X794385Y894716D01*
X794450Y894727D01*
G37*
G36*
X553150Y869327D02*
X553150Y869327D01*
X553216Y869329D01*
X553259Y869347D01*
X553306Y869355D01*
X553363Y869389D01*
X553423Y869414D01*
X553458Y869445D01*
X553499Y869470D01*
X553541Y869521D01*
X553589Y869565D01*
X553611Y869607D01*
X553640Y869644D01*
X553661Y869706D01*
X553692Y869765D01*
X553700Y869819D01*
X553712Y869856D01*
X553711Y869896D01*
X553719Y869950D01*
X553719Y872490D01*
X553708Y872555D01*
X553706Y872621D01*
X553688Y872664D01*
X553680Y872711D01*
X553646Y872768D01*
X553621Y872828D01*
X553590Y872863D01*
X553565Y872904D01*
X553514Y872946D01*
X553470Y872994D01*
X553428Y873016D01*
X553391Y873045D01*
X553329Y873066D01*
X553270Y873097D01*
X553216Y873105D01*
X553179Y873117D01*
X553139Y873116D01*
X553085Y873124D01*
X549275Y873124D01*
X549210Y873113D01*
X549144Y873111D01*
X549101Y873093D01*
X549054Y873085D01*
X548997Y873051D01*
X548937Y873026D01*
X548902Y872995D01*
X548861Y872970D01*
X548820Y872919D01*
X548771Y872875D01*
X548749Y872833D01*
X548720Y872796D01*
X548699Y872734D01*
X548668Y872675D01*
X548660Y872621D01*
X548648Y872584D01*
X548648Y872581D01*
X548649Y872544D01*
X548641Y872490D01*
X548641Y869950D01*
X548652Y869885D01*
X548654Y869819D01*
X548672Y869776D01*
X548680Y869729D01*
X548714Y869672D01*
X548739Y869612D01*
X548770Y869577D01*
X548795Y869536D01*
X548846Y869495D01*
X548890Y869446D01*
X548932Y869424D01*
X548969Y869395D01*
X549031Y869374D01*
X549090Y869343D01*
X549144Y869335D01*
X549181Y869323D01*
X549221Y869324D01*
X549275Y869316D01*
X553085Y869316D01*
X553150Y869327D01*
G37*
G36*
X542990Y869327D02*
X542990Y869327D01*
X543056Y869329D01*
X543099Y869347D01*
X543146Y869355D01*
X543203Y869389D01*
X543263Y869414D01*
X543298Y869445D01*
X543339Y869470D01*
X543381Y869521D01*
X543429Y869565D01*
X543451Y869607D01*
X543480Y869644D01*
X543501Y869706D01*
X543532Y869765D01*
X543540Y869819D01*
X543552Y869856D01*
X543551Y869896D01*
X543559Y869950D01*
X543559Y872490D01*
X543548Y872555D01*
X543546Y872621D01*
X543528Y872664D01*
X543520Y872711D01*
X543486Y872768D01*
X543461Y872828D01*
X543430Y872863D01*
X543405Y872904D01*
X543354Y872946D01*
X543310Y872994D01*
X543268Y873016D01*
X543231Y873045D01*
X543169Y873066D01*
X543110Y873097D01*
X543056Y873105D01*
X543019Y873117D01*
X542979Y873116D01*
X542925Y873124D01*
X539115Y873124D01*
X539050Y873113D01*
X538984Y873111D01*
X538941Y873093D01*
X538894Y873085D01*
X538837Y873051D01*
X538777Y873026D01*
X538742Y872995D01*
X538701Y872970D01*
X538660Y872919D01*
X538611Y872875D01*
X538589Y872833D01*
X538560Y872796D01*
X538539Y872734D01*
X538508Y872675D01*
X538500Y872621D01*
X538488Y872584D01*
X538488Y872581D01*
X538489Y872544D01*
X538481Y872490D01*
X538481Y869950D01*
X538492Y869885D01*
X538494Y869819D01*
X538512Y869776D01*
X538520Y869729D01*
X538554Y869672D01*
X538579Y869612D01*
X538610Y869577D01*
X538635Y869536D01*
X538686Y869495D01*
X538730Y869446D01*
X538772Y869424D01*
X538809Y869395D01*
X538871Y869374D01*
X538930Y869343D01*
X538984Y869335D01*
X539021Y869323D01*
X539061Y869324D01*
X539115Y869316D01*
X542925Y869316D01*
X542990Y869327D01*
G37*
G36*
X1183070Y869327D02*
X1183070Y869327D01*
X1183136Y869329D01*
X1183179Y869347D01*
X1183226Y869355D01*
X1183283Y869389D01*
X1183343Y869414D01*
X1183378Y869445D01*
X1183419Y869470D01*
X1183461Y869521D01*
X1183509Y869565D01*
X1183531Y869607D01*
X1183560Y869644D01*
X1183581Y869706D01*
X1183612Y869765D01*
X1183620Y869819D01*
X1183632Y869856D01*
X1183631Y869896D01*
X1183639Y869950D01*
X1183639Y872490D01*
X1183628Y872555D01*
X1183626Y872621D01*
X1183608Y872664D01*
X1183600Y872711D01*
X1183566Y872768D01*
X1183541Y872828D01*
X1183510Y872863D01*
X1183485Y872904D01*
X1183434Y872946D01*
X1183390Y872994D01*
X1183348Y873016D01*
X1183311Y873045D01*
X1183249Y873066D01*
X1183190Y873097D01*
X1183136Y873105D01*
X1183099Y873117D01*
X1183059Y873116D01*
X1183005Y873124D01*
X1179195Y873124D01*
X1179130Y873113D01*
X1179064Y873111D01*
X1179021Y873093D01*
X1178974Y873085D01*
X1178917Y873051D01*
X1178857Y873026D01*
X1178822Y872995D01*
X1178781Y872970D01*
X1178740Y872919D01*
X1178691Y872875D01*
X1178669Y872833D01*
X1178640Y872796D01*
X1178619Y872734D01*
X1178588Y872675D01*
X1178580Y872621D01*
X1178568Y872584D01*
X1178568Y872581D01*
X1178569Y872544D01*
X1178561Y872490D01*
X1178561Y869950D01*
X1178572Y869885D01*
X1178574Y869819D01*
X1178592Y869776D01*
X1178600Y869729D01*
X1178634Y869672D01*
X1178659Y869612D01*
X1178690Y869577D01*
X1178715Y869536D01*
X1178766Y869495D01*
X1178810Y869446D01*
X1178852Y869424D01*
X1178889Y869395D01*
X1178951Y869374D01*
X1179010Y869343D01*
X1179064Y869335D01*
X1179101Y869323D01*
X1179141Y869324D01*
X1179195Y869316D01*
X1183005Y869316D01*
X1183070Y869327D01*
G37*
G36*
X1193230Y869327D02*
X1193230Y869327D01*
X1193296Y869329D01*
X1193339Y869347D01*
X1193386Y869355D01*
X1193443Y869389D01*
X1193503Y869414D01*
X1193538Y869445D01*
X1193579Y869470D01*
X1193621Y869521D01*
X1193669Y869565D01*
X1193691Y869607D01*
X1193720Y869644D01*
X1193741Y869706D01*
X1193772Y869765D01*
X1193780Y869819D01*
X1193792Y869856D01*
X1193791Y869896D01*
X1193799Y869950D01*
X1193799Y872490D01*
X1193788Y872555D01*
X1193786Y872621D01*
X1193768Y872664D01*
X1193760Y872711D01*
X1193726Y872768D01*
X1193701Y872828D01*
X1193670Y872863D01*
X1193645Y872904D01*
X1193594Y872946D01*
X1193550Y872994D01*
X1193508Y873016D01*
X1193471Y873045D01*
X1193409Y873066D01*
X1193350Y873097D01*
X1193296Y873105D01*
X1193259Y873117D01*
X1193219Y873116D01*
X1193165Y873124D01*
X1189355Y873124D01*
X1189290Y873113D01*
X1189224Y873111D01*
X1189181Y873093D01*
X1189134Y873085D01*
X1189077Y873051D01*
X1189017Y873026D01*
X1188982Y872995D01*
X1188941Y872970D01*
X1188900Y872919D01*
X1188851Y872875D01*
X1188829Y872833D01*
X1188800Y872796D01*
X1188779Y872734D01*
X1188748Y872675D01*
X1188740Y872621D01*
X1188728Y872584D01*
X1188728Y872581D01*
X1188729Y872544D01*
X1188721Y872490D01*
X1188721Y869950D01*
X1188732Y869885D01*
X1188734Y869819D01*
X1188752Y869776D01*
X1188760Y869729D01*
X1188794Y869672D01*
X1188819Y869612D01*
X1188850Y869577D01*
X1188875Y869536D01*
X1188926Y869495D01*
X1188970Y869446D01*
X1189012Y869424D01*
X1189049Y869395D01*
X1189111Y869374D01*
X1189170Y869343D01*
X1189224Y869335D01*
X1189261Y869323D01*
X1189301Y869324D01*
X1189355Y869316D01*
X1193165Y869316D01*
X1193230Y869327D01*
G37*
G36*
X1017970Y1905647D02*
X1017970Y1905647D01*
X1018036Y1905649D01*
X1018079Y1905667D01*
X1018126Y1905675D01*
X1018183Y1905709D01*
X1018243Y1905734D01*
X1018278Y1905765D01*
X1018319Y1905790D01*
X1018361Y1905841D01*
X1018409Y1905885D01*
X1018431Y1905927D01*
X1018460Y1905964D01*
X1018481Y1906026D01*
X1018512Y1906085D01*
X1018520Y1906139D01*
X1018532Y1906176D01*
X1018531Y1906216D01*
X1018539Y1906270D01*
X1018539Y1908810D01*
X1018528Y1908875D01*
X1018526Y1908941D01*
X1018508Y1908984D01*
X1018500Y1909031D01*
X1018466Y1909088D01*
X1018441Y1909148D01*
X1018410Y1909183D01*
X1018385Y1909224D01*
X1018334Y1909266D01*
X1018290Y1909314D01*
X1018248Y1909336D01*
X1018211Y1909365D01*
X1018149Y1909386D01*
X1018090Y1909417D01*
X1018036Y1909425D01*
X1017999Y1909437D01*
X1017959Y1909436D01*
X1017905Y1909444D01*
X1014095Y1909444D01*
X1014030Y1909433D01*
X1013964Y1909431D01*
X1013921Y1909413D01*
X1013874Y1909405D01*
X1013817Y1909371D01*
X1013757Y1909346D01*
X1013722Y1909315D01*
X1013681Y1909290D01*
X1013640Y1909239D01*
X1013591Y1909195D01*
X1013569Y1909153D01*
X1013540Y1909116D01*
X1013519Y1909054D01*
X1013488Y1908995D01*
X1013480Y1908941D01*
X1013468Y1908904D01*
X1013468Y1908901D01*
X1013469Y1908864D01*
X1013461Y1908810D01*
X1013461Y1906270D01*
X1013472Y1906205D01*
X1013474Y1906139D01*
X1013492Y1906096D01*
X1013500Y1906049D01*
X1013534Y1905992D01*
X1013559Y1905932D01*
X1013590Y1905897D01*
X1013615Y1905856D01*
X1013666Y1905815D01*
X1013710Y1905766D01*
X1013752Y1905744D01*
X1013789Y1905715D01*
X1013851Y1905694D01*
X1013910Y1905663D01*
X1013964Y1905655D01*
X1014001Y1905643D01*
X1014041Y1905644D01*
X1014095Y1905636D01*
X1017905Y1905636D01*
X1017970Y1905647D01*
G37*
G36*
X377890Y1905647D02*
X377890Y1905647D01*
X377956Y1905649D01*
X377999Y1905667D01*
X378046Y1905675D01*
X378103Y1905709D01*
X378163Y1905734D01*
X378198Y1905765D01*
X378239Y1905790D01*
X378281Y1905841D01*
X378329Y1905885D01*
X378351Y1905927D01*
X378380Y1905964D01*
X378401Y1906026D01*
X378432Y1906085D01*
X378440Y1906139D01*
X378452Y1906176D01*
X378451Y1906216D01*
X378459Y1906270D01*
X378459Y1908810D01*
X378448Y1908875D01*
X378446Y1908941D01*
X378428Y1908984D01*
X378420Y1909031D01*
X378386Y1909088D01*
X378361Y1909148D01*
X378330Y1909183D01*
X378305Y1909224D01*
X378254Y1909266D01*
X378210Y1909314D01*
X378168Y1909336D01*
X378131Y1909365D01*
X378069Y1909386D01*
X378010Y1909417D01*
X377956Y1909425D01*
X377919Y1909437D01*
X377879Y1909436D01*
X377825Y1909444D01*
X374015Y1909444D01*
X373950Y1909433D01*
X373884Y1909431D01*
X373841Y1909413D01*
X373794Y1909405D01*
X373737Y1909371D01*
X373677Y1909346D01*
X373642Y1909315D01*
X373601Y1909290D01*
X373560Y1909239D01*
X373511Y1909195D01*
X373489Y1909153D01*
X373460Y1909116D01*
X373439Y1909054D01*
X373408Y1908995D01*
X373400Y1908941D01*
X373388Y1908904D01*
X373388Y1908901D01*
X373389Y1908864D01*
X373381Y1908810D01*
X373381Y1906270D01*
X373392Y1906205D01*
X373394Y1906139D01*
X373412Y1906096D01*
X373420Y1906049D01*
X373454Y1905992D01*
X373479Y1905932D01*
X373510Y1905897D01*
X373535Y1905856D01*
X373586Y1905815D01*
X373630Y1905766D01*
X373672Y1905744D01*
X373709Y1905715D01*
X373771Y1905694D01*
X373830Y1905663D01*
X373884Y1905655D01*
X373921Y1905643D01*
X373961Y1905644D01*
X374015Y1905636D01*
X377825Y1905636D01*
X377890Y1905647D01*
G37*
G36*
X1260540Y518807D02*
X1260540Y518807D01*
X1260606Y518809D01*
X1260649Y518827D01*
X1260696Y518835D01*
X1260753Y518869D01*
X1260813Y518894D01*
X1260848Y518925D01*
X1260889Y518950D01*
X1260931Y519001D01*
X1260979Y519045D01*
X1261001Y519087D01*
X1261030Y519124D01*
X1261051Y519186D01*
X1261082Y519245D01*
X1261090Y519299D01*
X1261102Y519336D01*
X1261101Y519376D01*
X1261109Y519430D01*
X1261109Y521970D01*
X1261098Y522035D01*
X1261096Y522101D01*
X1261078Y522144D01*
X1261070Y522191D01*
X1261036Y522248D01*
X1261011Y522308D01*
X1260980Y522343D01*
X1260955Y522384D01*
X1260904Y522426D01*
X1260860Y522474D01*
X1260818Y522496D01*
X1260781Y522525D01*
X1260719Y522546D01*
X1260660Y522577D01*
X1260606Y522585D01*
X1260569Y522597D01*
X1260529Y522596D01*
X1260475Y522604D01*
X1256665Y522604D01*
X1256600Y522593D01*
X1256534Y522591D01*
X1256491Y522573D01*
X1256444Y522565D01*
X1256387Y522531D01*
X1256327Y522506D01*
X1256292Y522475D01*
X1256251Y522450D01*
X1256210Y522399D01*
X1256161Y522355D01*
X1256139Y522313D01*
X1256110Y522276D01*
X1256089Y522214D01*
X1256058Y522155D01*
X1256050Y522101D01*
X1256038Y522064D01*
X1256038Y522061D01*
X1256039Y522024D01*
X1256031Y521970D01*
X1256031Y519430D01*
X1256042Y519365D01*
X1256044Y519299D01*
X1256062Y519256D01*
X1256070Y519209D01*
X1256104Y519152D01*
X1256129Y519092D01*
X1256160Y519057D01*
X1256185Y519016D01*
X1256236Y518975D01*
X1256280Y518926D01*
X1256322Y518904D01*
X1256359Y518875D01*
X1256421Y518854D01*
X1256480Y518823D01*
X1256534Y518815D01*
X1256571Y518803D01*
X1256611Y518804D01*
X1256665Y518796D01*
X1260475Y518796D01*
X1260540Y518807D01*
G37*
G36*
X620460Y518807D02*
X620460Y518807D01*
X620526Y518809D01*
X620569Y518827D01*
X620616Y518835D01*
X620673Y518869D01*
X620733Y518894D01*
X620768Y518925D01*
X620809Y518950D01*
X620851Y519001D01*
X620899Y519045D01*
X620921Y519087D01*
X620950Y519124D01*
X620971Y519186D01*
X621002Y519245D01*
X621010Y519299D01*
X621022Y519336D01*
X621021Y519376D01*
X621029Y519430D01*
X621029Y521970D01*
X621018Y522035D01*
X621016Y522101D01*
X620998Y522144D01*
X620990Y522191D01*
X620956Y522248D01*
X620931Y522308D01*
X620900Y522343D01*
X620875Y522384D01*
X620824Y522426D01*
X620780Y522474D01*
X620738Y522496D01*
X620701Y522525D01*
X620639Y522546D01*
X620580Y522577D01*
X620526Y522585D01*
X620489Y522597D01*
X620449Y522596D01*
X620395Y522604D01*
X616585Y522604D01*
X616520Y522593D01*
X616454Y522591D01*
X616411Y522573D01*
X616364Y522565D01*
X616307Y522531D01*
X616247Y522506D01*
X616212Y522475D01*
X616171Y522450D01*
X616130Y522399D01*
X616081Y522355D01*
X616059Y522313D01*
X616030Y522276D01*
X616009Y522214D01*
X615978Y522155D01*
X615970Y522101D01*
X615958Y522064D01*
X615958Y522061D01*
X615959Y522024D01*
X615951Y521970D01*
X615951Y519430D01*
X615962Y519365D01*
X615964Y519299D01*
X615982Y519256D01*
X615990Y519209D01*
X616024Y519152D01*
X616049Y519092D01*
X616080Y519057D01*
X616105Y519016D01*
X616156Y518975D01*
X616200Y518926D01*
X616242Y518904D01*
X616279Y518875D01*
X616341Y518854D01*
X616400Y518823D01*
X616454Y518815D01*
X616491Y518803D01*
X616531Y518804D01*
X616585Y518796D01*
X620395Y518796D01*
X620460Y518807D01*
G37*
G36*
X1017970Y493407D02*
X1017970Y493407D01*
X1018036Y493409D01*
X1018079Y493427D01*
X1018126Y493435D01*
X1018183Y493469D01*
X1018243Y493494D01*
X1018278Y493525D01*
X1018319Y493550D01*
X1018361Y493601D01*
X1018409Y493645D01*
X1018431Y493687D01*
X1018460Y493724D01*
X1018481Y493786D01*
X1018512Y493845D01*
X1018520Y493899D01*
X1018532Y493936D01*
X1018531Y493976D01*
X1018539Y494030D01*
X1018539Y496570D01*
X1018528Y496635D01*
X1018526Y496701D01*
X1018508Y496744D01*
X1018500Y496791D01*
X1018466Y496848D01*
X1018441Y496908D01*
X1018410Y496943D01*
X1018385Y496984D01*
X1018334Y497026D01*
X1018290Y497074D01*
X1018248Y497096D01*
X1018211Y497125D01*
X1018149Y497146D01*
X1018090Y497177D01*
X1018036Y497185D01*
X1017999Y497197D01*
X1017959Y497196D01*
X1017905Y497204D01*
X1014095Y497204D01*
X1014030Y497193D01*
X1013964Y497191D01*
X1013921Y497173D01*
X1013874Y497165D01*
X1013817Y497131D01*
X1013757Y497106D01*
X1013722Y497075D01*
X1013681Y497050D01*
X1013640Y496999D01*
X1013591Y496955D01*
X1013569Y496913D01*
X1013540Y496876D01*
X1013519Y496814D01*
X1013488Y496755D01*
X1013480Y496701D01*
X1013468Y496664D01*
X1013468Y496661D01*
X1013469Y496624D01*
X1013461Y496570D01*
X1013461Y494030D01*
X1013472Y493965D01*
X1013474Y493899D01*
X1013492Y493856D01*
X1013500Y493809D01*
X1013534Y493752D01*
X1013559Y493692D01*
X1013590Y493657D01*
X1013615Y493616D01*
X1013666Y493575D01*
X1013710Y493526D01*
X1013752Y493504D01*
X1013789Y493475D01*
X1013851Y493454D01*
X1013910Y493423D01*
X1013964Y493415D01*
X1014001Y493403D01*
X1014041Y493404D01*
X1014095Y493396D01*
X1017905Y493396D01*
X1017970Y493407D01*
G37*
G36*
X377890Y493407D02*
X377890Y493407D01*
X377956Y493409D01*
X377999Y493427D01*
X378046Y493435D01*
X378103Y493469D01*
X378163Y493494D01*
X378198Y493525D01*
X378239Y493550D01*
X378281Y493601D01*
X378329Y493645D01*
X378351Y493687D01*
X378380Y493724D01*
X378401Y493786D01*
X378432Y493845D01*
X378440Y493899D01*
X378452Y493936D01*
X378451Y493976D01*
X378459Y494030D01*
X378459Y496570D01*
X378448Y496635D01*
X378446Y496701D01*
X378428Y496744D01*
X378420Y496791D01*
X378386Y496848D01*
X378361Y496908D01*
X378330Y496943D01*
X378305Y496984D01*
X378254Y497026D01*
X378210Y497074D01*
X378168Y497096D01*
X378131Y497125D01*
X378069Y497146D01*
X378010Y497177D01*
X377956Y497185D01*
X377919Y497197D01*
X377879Y497196D01*
X377825Y497204D01*
X374015Y497204D01*
X373950Y497193D01*
X373884Y497191D01*
X373841Y497173D01*
X373794Y497165D01*
X373737Y497131D01*
X373677Y497106D01*
X373642Y497075D01*
X373601Y497050D01*
X373560Y496999D01*
X373511Y496955D01*
X373489Y496913D01*
X373460Y496876D01*
X373439Y496814D01*
X373408Y496755D01*
X373400Y496701D01*
X373388Y496664D01*
X373388Y496661D01*
X373389Y496624D01*
X373381Y496570D01*
X373381Y494030D01*
X373392Y493965D01*
X373394Y493899D01*
X373412Y493856D01*
X373420Y493809D01*
X373454Y493752D01*
X373479Y493692D01*
X373510Y493657D01*
X373535Y493616D01*
X373586Y493575D01*
X373630Y493526D01*
X373672Y493504D01*
X373709Y493475D01*
X373771Y493454D01*
X373830Y493423D01*
X373884Y493415D01*
X373921Y493403D01*
X373961Y493404D01*
X374015Y493396D01*
X377825Y493396D01*
X377890Y493407D01*
G37*
G36*
X1017970Y468007D02*
X1017970Y468007D01*
X1018036Y468009D01*
X1018079Y468027D01*
X1018126Y468035D01*
X1018183Y468069D01*
X1018243Y468094D01*
X1018278Y468125D01*
X1018319Y468150D01*
X1018361Y468201D01*
X1018409Y468245D01*
X1018431Y468287D01*
X1018460Y468324D01*
X1018481Y468386D01*
X1018512Y468445D01*
X1018520Y468499D01*
X1018532Y468536D01*
X1018531Y468576D01*
X1018539Y468630D01*
X1018539Y471170D01*
X1018528Y471235D01*
X1018526Y471301D01*
X1018508Y471344D01*
X1018500Y471391D01*
X1018466Y471448D01*
X1018441Y471508D01*
X1018410Y471543D01*
X1018385Y471584D01*
X1018334Y471626D01*
X1018290Y471674D01*
X1018248Y471696D01*
X1018211Y471725D01*
X1018149Y471746D01*
X1018090Y471777D01*
X1018036Y471785D01*
X1017999Y471797D01*
X1017959Y471796D01*
X1017905Y471804D01*
X1014095Y471804D01*
X1014030Y471793D01*
X1013964Y471791D01*
X1013921Y471773D01*
X1013874Y471765D01*
X1013817Y471731D01*
X1013757Y471706D01*
X1013722Y471675D01*
X1013681Y471650D01*
X1013640Y471599D01*
X1013591Y471555D01*
X1013569Y471513D01*
X1013540Y471476D01*
X1013519Y471414D01*
X1013488Y471355D01*
X1013480Y471301D01*
X1013468Y471264D01*
X1013468Y471261D01*
X1013469Y471224D01*
X1013461Y471170D01*
X1013461Y468630D01*
X1013472Y468565D01*
X1013474Y468499D01*
X1013492Y468456D01*
X1013500Y468409D01*
X1013534Y468352D01*
X1013559Y468292D01*
X1013590Y468257D01*
X1013615Y468216D01*
X1013666Y468175D01*
X1013710Y468126D01*
X1013752Y468104D01*
X1013789Y468075D01*
X1013851Y468054D01*
X1013910Y468023D01*
X1013964Y468015D01*
X1014001Y468003D01*
X1014041Y468004D01*
X1014095Y467996D01*
X1017905Y467996D01*
X1017970Y468007D01*
G37*
G36*
X377890Y468007D02*
X377890Y468007D01*
X377956Y468009D01*
X377999Y468027D01*
X378046Y468035D01*
X378103Y468069D01*
X378163Y468094D01*
X378198Y468125D01*
X378239Y468150D01*
X378281Y468201D01*
X378329Y468245D01*
X378351Y468287D01*
X378380Y468324D01*
X378401Y468386D01*
X378432Y468445D01*
X378440Y468499D01*
X378452Y468536D01*
X378451Y468576D01*
X378459Y468630D01*
X378459Y471170D01*
X378448Y471235D01*
X378446Y471301D01*
X378428Y471344D01*
X378420Y471391D01*
X378386Y471448D01*
X378361Y471508D01*
X378330Y471543D01*
X378305Y471584D01*
X378254Y471626D01*
X378210Y471674D01*
X378168Y471696D01*
X378131Y471725D01*
X378069Y471746D01*
X378010Y471777D01*
X377956Y471785D01*
X377919Y471797D01*
X377879Y471796D01*
X377825Y471804D01*
X374015Y471804D01*
X373950Y471793D01*
X373884Y471791D01*
X373841Y471773D01*
X373794Y471765D01*
X373737Y471731D01*
X373677Y471706D01*
X373642Y471675D01*
X373601Y471650D01*
X373560Y471599D01*
X373511Y471555D01*
X373489Y471513D01*
X373460Y471476D01*
X373439Y471414D01*
X373408Y471355D01*
X373400Y471301D01*
X373388Y471264D01*
X373388Y471261D01*
X373389Y471224D01*
X373381Y471170D01*
X373381Y468630D01*
X373392Y468565D01*
X373394Y468499D01*
X373412Y468456D01*
X373420Y468409D01*
X373454Y468352D01*
X373479Y468292D01*
X373510Y468257D01*
X373535Y468216D01*
X373586Y468175D01*
X373630Y468126D01*
X373672Y468104D01*
X373709Y468075D01*
X373771Y468054D01*
X373830Y468023D01*
X373884Y468015D01*
X373921Y468003D01*
X373961Y468004D01*
X374015Y467996D01*
X377825Y467996D01*
X377890Y468007D01*
G37*
G36*
X377890Y442607D02*
X377890Y442607D01*
X377956Y442609D01*
X377999Y442627D01*
X378046Y442635D01*
X378103Y442669D01*
X378163Y442694D01*
X378198Y442725D01*
X378239Y442750D01*
X378281Y442801D01*
X378329Y442845D01*
X378351Y442887D01*
X378380Y442924D01*
X378401Y442986D01*
X378432Y443045D01*
X378440Y443099D01*
X378452Y443136D01*
X378451Y443176D01*
X378459Y443230D01*
X378459Y445770D01*
X378448Y445835D01*
X378446Y445901D01*
X378428Y445944D01*
X378420Y445991D01*
X378386Y446048D01*
X378361Y446108D01*
X378330Y446143D01*
X378305Y446184D01*
X378254Y446226D01*
X378210Y446274D01*
X378168Y446296D01*
X378131Y446325D01*
X378069Y446346D01*
X378010Y446377D01*
X377956Y446385D01*
X377919Y446397D01*
X377879Y446396D01*
X377825Y446404D01*
X374015Y446404D01*
X373950Y446393D01*
X373884Y446391D01*
X373841Y446373D01*
X373794Y446365D01*
X373737Y446331D01*
X373677Y446306D01*
X373642Y446275D01*
X373601Y446250D01*
X373560Y446199D01*
X373511Y446155D01*
X373489Y446113D01*
X373460Y446076D01*
X373439Y446014D01*
X373408Y445955D01*
X373400Y445901D01*
X373388Y445864D01*
X373388Y445861D01*
X373389Y445824D01*
X373381Y445770D01*
X373381Y443230D01*
X373392Y443165D01*
X373394Y443099D01*
X373412Y443056D01*
X373420Y443009D01*
X373454Y442952D01*
X373479Y442892D01*
X373510Y442857D01*
X373535Y442816D01*
X373586Y442775D01*
X373630Y442726D01*
X373672Y442704D01*
X373709Y442675D01*
X373771Y442654D01*
X373830Y442623D01*
X373884Y442615D01*
X373921Y442603D01*
X373961Y442604D01*
X374015Y442596D01*
X377825Y442596D01*
X377890Y442607D01*
G37*
G36*
X377890Y1880247D02*
X377890Y1880247D01*
X377956Y1880249D01*
X377999Y1880267D01*
X378046Y1880275D01*
X378103Y1880309D01*
X378163Y1880334D01*
X378198Y1880365D01*
X378239Y1880390D01*
X378281Y1880441D01*
X378329Y1880485D01*
X378351Y1880527D01*
X378380Y1880564D01*
X378401Y1880626D01*
X378432Y1880685D01*
X378440Y1880739D01*
X378452Y1880776D01*
X378451Y1880816D01*
X378459Y1880870D01*
X378459Y1883410D01*
X378448Y1883475D01*
X378446Y1883541D01*
X378428Y1883584D01*
X378420Y1883631D01*
X378386Y1883688D01*
X378361Y1883748D01*
X378330Y1883783D01*
X378305Y1883824D01*
X378254Y1883866D01*
X378210Y1883914D01*
X378168Y1883936D01*
X378131Y1883965D01*
X378069Y1883986D01*
X378010Y1884017D01*
X377956Y1884025D01*
X377919Y1884037D01*
X377879Y1884036D01*
X377825Y1884044D01*
X374015Y1884044D01*
X373950Y1884033D01*
X373884Y1884031D01*
X373841Y1884013D01*
X373794Y1884005D01*
X373737Y1883971D01*
X373677Y1883946D01*
X373642Y1883915D01*
X373601Y1883890D01*
X373560Y1883839D01*
X373511Y1883795D01*
X373489Y1883753D01*
X373460Y1883716D01*
X373439Y1883654D01*
X373408Y1883595D01*
X373400Y1883541D01*
X373388Y1883504D01*
X373388Y1883501D01*
X373389Y1883464D01*
X373381Y1883410D01*
X373381Y1880870D01*
X373392Y1880805D01*
X373394Y1880739D01*
X373412Y1880696D01*
X373420Y1880649D01*
X373454Y1880592D01*
X373479Y1880532D01*
X373510Y1880497D01*
X373535Y1880456D01*
X373586Y1880415D01*
X373630Y1880366D01*
X373672Y1880344D01*
X373709Y1880315D01*
X373771Y1880294D01*
X373830Y1880263D01*
X373884Y1880255D01*
X373921Y1880243D01*
X373961Y1880244D01*
X374015Y1880236D01*
X377825Y1880236D01*
X377890Y1880247D01*
G37*
G36*
X377890Y417207D02*
X377890Y417207D01*
X377956Y417209D01*
X377999Y417227D01*
X378046Y417235D01*
X378103Y417269D01*
X378163Y417294D01*
X378198Y417325D01*
X378239Y417350D01*
X378281Y417401D01*
X378329Y417445D01*
X378351Y417487D01*
X378380Y417524D01*
X378401Y417586D01*
X378432Y417645D01*
X378440Y417699D01*
X378452Y417736D01*
X378451Y417776D01*
X378459Y417830D01*
X378459Y420370D01*
X378448Y420435D01*
X378446Y420501D01*
X378428Y420544D01*
X378420Y420591D01*
X378386Y420648D01*
X378361Y420708D01*
X378330Y420743D01*
X378305Y420784D01*
X378254Y420826D01*
X378210Y420874D01*
X378168Y420896D01*
X378131Y420925D01*
X378069Y420946D01*
X378010Y420977D01*
X377956Y420985D01*
X377919Y420997D01*
X377879Y420996D01*
X377825Y421004D01*
X374015Y421004D01*
X373950Y420993D01*
X373884Y420991D01*
X373841Y420973D01*
X373794Y420965D01*
X373737Y420931D01*
X373677Y420906D01*
X373642Y420875D01*
X373601Y420850D01*
X373560Y420799D01*
X373511Y420755D01*
X373489Y420713D01*
X373460Y420676D01*
X373439Y420614D01*
X373408Y420555D01*
X373400Y420501D01*
X373388Y420464D01*
X373388Y420461D01*
X373389Y420424D01*
X373381Y420370D01*
X373381Y417830D01*
X373392Y417765D01*
X373394Y417699D01*
X373412Y417656D01*
X373420Y417609D01*
X373454Y417552D01*
X373479Y417492D01*
X373510Y417457D01*
X373535Y417416D01*
X373586Y417375D01*
X373630Y417326D01*
X373672Y417304D01*
X373709Y417275D01*
X373771Y417254D01*
X373830Y417223D01*
X373884Y417215D01*
X373921Y417203D01*
X373961Y417204D01*
X374015Y417196D01*
X377825Y417196D01*
X377890Y417207D01*
G37*
G36*
X1017970Y417207D02*
X1017970Y417207D01*
X1018036Y417209D01*
X1018079Y417227D01*
X1018126Y417235D01*
X1018183Y417269D01*
X1018243Y417294D01*
X1018278Y417325D01*
X1018319Y417350D01*
X1018361Y417401D01*
X1018409Y417445D01*
X1018431Y417487D01*
X1018460Y417524D01*
X1018481Y417586D01*
X1018512Y417645D01*
X1018520Y417699D01*
X1018532Y417736D01*
X1018531Y417776D01*
X1018539Y417830D01*
X1018539Y420370D01*
X1018528Y420435D01*
X1018526Y420501D01*
X1018508Y420544D01*
X1018500Y420591D01*
X1018466Y420648D01*
X1018441Y420708D01*
X1018410Y420743D01*
X1018385Y420784D01*
X1018334Y420826D01*
X1018290Y420874D01*
X1018248Y420896D01*
X1018211Y420925D01*
X1018149Y420946D01*
X1018090Y420977D01*
X1018036Y420985D01*
X1017999Y420997D01*
X1017959Y420996D01*
X1017905Y421004D01*
X1014095Y421004D01*
X1014030Y420993D01*
X1013964Y420991D01*
X1013921Y420973D01*
X1013874Y420965D01*
X1013817Y420931D01*
X1013757Y420906D01*
X1013722Y420875D01*
X1013681Y420850D01*
X1013640Y420799D01*
X1013591Y420755D01*
X1013569Y420713D01*
X1013540Y420676D01*
X1013519Y420614D01*
X1013488Y420555D01*
X1013480Y420501D01*
X1013468Y420464D01*
X1013468Y420461D01*
X1013469Y420424D01*
X1013461Y420370D01*
X1013461Y417830D01*
X1013472Y417765D01*
X1013474Y417699D01*
X1013492Y417656D01*
X1013500Y417609D01*
X1013534Y417552D01*
X1013559Y417492D01*
X1013590Y417457D01*
X1013615Y417416D01*
X1013666Y417375D01*
X1013710Y417326D01*
X1013752Y417304D01*
X1013789Y417275D01*
X1013851Y417254D01*
X1013910Y417223D01*
X1013964Y417215D01*
X1014001Y417203D01*
X1014041Y417204D01*
X1014095Y417196D01*
X1017905Y417196D01*
X1017970Y417207D01*
G37*
G36*
X1017970Y391807D02*
X1017970Y391807D01*
X1018036Y391809D01*
X1018079Y391827D01*
X1018126Y391835D01*
X1018183Y391869D01*
X1018243Y391894D01*
X1018278Y391925D01*
X1018319Y391950D01*
X1018361Y392001D01*
X1018409Y392045D01*
X1018431Y392087D01*
X1018460Y392124D01*
X1018481Y392186D01*
X1018512Y392245D01*
X1018520Y392299D01*
X1018532Y392336D01*
X1018531Y392376D01*
X1018539Y392430D01*
X1018539Y394970D01*
X1018528Y395035D01*
X1018526Y395101D01*
X1018508Y395144D01*
X1018500Y395191D01*
X1018466Y395248D01*
X1018441Y395308D01*
X1018410Y395343D01*
X1018385Y395384D01*
X1018334Y395426D01*
X1018290Y395474D01*
X1018248Y395496D01*
X1018211Y395525D01*
X1018149Y395546D01*
X1018090Y395577D01*
X1018036Y395585D01*
X1017999Y395597D01*
X1017959Y395596D01*
X1017905Y395604D01*
X1014095Y395604D01*
X1014030Y395593D01*
X1013964Y395591D01*
X1013921Y395573D01*
X1013874Y395565D01*
X1013817Y395531D01*
X1013757Y395506D01*
X1013722Y395475D01*
X1013681Y395450D01*
X1013640Y395399D01*
X1013591Y395355D01*
X1013569Y395313D01*
X1013540Y395276D01*
X1013519Y395214D01*
X1013488Y395155D01*
X1013480Y395101D01*
X1013468Y395064D01*
X1013468Y395061D01*
X1013469Y395024D01*
X1013461Y394970D01*
X1013461Y392430D01*
X1013472Y392365D01*
X1013474Y392299D01*
X1013492Y392256D01*
X1013500Y392209D01*
X1013534Y392152D01*
X1013559Y392092D01*
X1013590Y392057D01*
X1013615Y392016D01*
X1013666Y391975D01*
X1013710Y391926D01*
X1013752Y391904D01*
X1013789Y391875D01*
X1013851Y391854D01*
X1013910Y391823D01*
X1013964Y391815D01*
X1014001Y391803D01*
X1014041Y391804D01*
X1014095Y391796D01*
X1017905Y391796D01*
X1017970Y391807D01*
G37*
G36*
X377890Y391807D02*
X377890Y391807D01*
X377956Y391809D01*
X377999Y391827D01*
X378046Y391835D01*
X378103Y391869D01*
X378163Y391894D01*
X378198Y391925D01*
X378239Y391950D01*
X378281Y392001D01*
X378329Y392045D01*
X378351Y392087D01*
X378380Y392124D01*
X378401Y392186D01*
X378432Y392245D01*
X378440Y392299D01*
X378452Y392336D01*
X378451Y392376D01*
X378459Y392430D01*
X378459Y394970D01*
X378448Y395035D01*
X378446Y395101D01*
X378428Y395144D01*
X378420Y395191D01*
X378386Y395248D01*
X378361Y395308D01*
X378330Y395343D01*
X378305Y395384D01*
X378254Y395426D01*
X378210Y395474D01*
X378168Y395496D01*
X378131Y395525D01*
X378069Y395546D01*
X378010Y395577D01*
X377956Y395585D01*
X377919Y395597D01*
X377879Y395596D01*
X377825Y395604D01*
X374015Y395604D01*
X373950Y395593D01*
X373884Y395591D01*
X373841Y395573D01*
X373794Y395565D01*
X373737Y395531D01*
X373677Y395506D01*
X373642Y395475D01*
X373601Y395450D01*
X373560Y395399D01*
X373511Y395355D01*
X373489Y395313D01*
X373460Y395276D01*
X373439Y395214D01*
X373408Y395155D01*
X373400Y395101D01*
X373388Y395064D01*
X373388Y395061D01*
X373389Y395024D01*
X373381Y394970D01*
X373381Y392430D01*
X373392Y392365D01*
X373394Y392299D01*
X373412Y392256D01*
X373420Y392209D01*
X373454Y392152D01*
X373479Y392092D01*
X373510Y392057D01*
X373535Y392016D01*
X373586Y391975D01*
X373630Y391926D01*
X373672Y391904D01*
X373709Y391875D01*
X373771Y391854D01*
X373830Y391823D01*
X373884Y391815D01*
X373921Y391803D01*
X373961Y391804D01*
X374015Y391796D01*
X377825Y391796D01*
X377890Y391807D01*
G37*
G36*
X1017970Y1880247D02*
X1017970Y1880247D01*
X1018036Y1880249D01*
X1018079Y1880267D01*
X1018126Y1880275D01*
X1018183Y1880309D01*
X1018243Y1880334D01*
X1018278Y1880365D01*
X1018319Y1880390D01*
X1018361Y1880441D01*
X1018409Y1880485D01*
X1018431Y1880527D01*
X1018460Y1880564D01*
X1018481Y1880626D01*
X1018512Y1880685D01*
X1018520Y1880739D01*
X1018532Y1880776D01*
X1018531Y1880816D01*
X1018539Y1880870D01*
X1018539Y1883410D01*
X1018528Y1883475D01*
X1018526Y1883541D01*
X1018508Y1883584D01*
X1018500Y1883631D01*
X1018466Y1883688D01*
X1018441Y1883748D01*
X1018410Y1883783D01*
X1018385Y1883824D01*
X1018334Y1883866D01*
X1018290Y1883914D01*
X1018248Y1883936D01*
X1018211Y1883965D01*
X1018149Y1883986D01*
X1018090Y1884017D01*
X1018036Y1884025D01*
X1017999Y1884037D01*
X1017959Y1884036D01*
X1017905Y1884044D01*
X1014095Y1884044D01*
X1014030Y1884033D01*
X1013964Y1884031D01*
X1013921Y1884013D01*
X1013874Y1884005D01*
X1013817Y1883971D01*
X1013757Y1883946D01*
X1013722Y1883915D01*
X1013681Y1883890D01*
X1013640Y1883839D01*
X1013591Y1883795D01*
X1013569Y1883753D01*
X1013540Y1883716D01*
X1013519Y1883654D01*
X1013488Y1883595D01*
X1013480Y1883541D01*
X1013468Y1883504D01*
X1013468Y1883501D01*
X1013469Y1883464D01*
X1013461Y1883410D01*
X1013461Y1880870D01*
X1013472Y1880805D01*
X1013474Y1880739D01*
X1013492Y1880696D01*
X1013500Y1880649D01*
X1013534Y1880592D01*
X1013559Y1880532D01*
X1013590Y1880497D01*
X1013615Y1880456D01*
X1013666Y1880415D01*
X1013710Y1880366D01*
X1013752Y1880344D01*
X1013789Y1880315D01*
X1013851Y1880294D01*
X1013910Y1880263D01*
X1013964Y1880255D01*
X1014001Y1880243D01*
X1014041Y1880244D01*
X1014095Y1880236D01*
X1017905Y1880236D01*
X1017970Y1880247D01*
G37*
G36*
X1017970Y1854847D02*
X1017970Y1854847D01*
X1018036Y1854849D01*
X1018079Y1854867D01*
X1018126Y1854875D01*
X1018183Y1854909D01*
X1018243Y1854934D01*
X1018278Y1854965D01*
X1018319Y1854990D01*
X1018361Y1855041D01*
X1018409Y1855085D01*
X1018431Y1855127D01*
X1018460Y1855164D01*
X1018481Y1855226D01*
X1018512Y1855285D01*
X1018520Y1855339D01*
X1018532Y1855376D01*
X1018531Y1855416D01*
X1018539Y1855470D01*
X1018539Y1858010D01*
X1018528Y1858075D01*
X1018526Y1858141D01*
X1018508Y1858184D01*
X1018500Y1858231D01*
X1018466Y1858288D01*
X1018441Y1858348D01*
X1018410Y1858383D01*
X1018385Y1858424D01*
X1018334Y1858466D01*
X1018290Y1858514D01*
X1018248Y1858536D01*
X1018211Y1858565D01*
X1018149Y1858586D01*
X1018090Y1858617D01*
X1018036Y1858625D01*
X1017999Y1858637D01*
X1017959Y1858636D01*
X1017905Y1858644D01*
X1014095Y1858644D01*
X1014030Y1858633D01*
X1013964Y1858631D01*
X1013921Y1858613D01*
X1013874Y1858605D01*
X1013817Y1858571D01*
X1013757Y1858546D01*
X1013722Y1858515D01*
X1013681Y1858490D01*
X1013640Y1858439D01*
X1013591Y1858395D01*
X1013569Y1858353D01*
X1013540Y1858316D01*
X1013519Y1858254D01*
X1013488Y1858195D01*
X1013480Y1858141D01*
X1013468Y1858104D01*
X1013468Y1858101D01*
X1013469Y1858064D01*
X1013461Y1858010D01*
X1013461Y1855470D01*
X1013472Y1855405D01*
X1013474Y1855339D01*
X1013492Y1855296D01*
X1013500Y1855249D01*
X1013534Y1855192D01*
X1013559Y1855132D01*
X1013590Y1855097D01*
X1013615Y1855056D01*
X1013666Y1855015D01*
X1013710Y1854966D01*
X1013752Y1854944D01*
X1013789Y1854915D01*
X1013851Y1854894D01*
X1013910Y1854863D01*
X1013964Y1854855D01*
X1014001Y1854843D01*
X1014041Y1854844D01*
X1014095Y1854836D01*
X1017905Y1854836D01*
X1017970Y1854847D01*
G37*
G36*
X377890Y1854847D02*
X377890Y1854847D01*
X377956Y1854849D01*
X377999Y1854867D01*
X378046Y1854875D01*
X378103Y1854909D01*
X378163Y1854934D01*
X378198Y1854965D01*
X378239Y1854990D01*
X378281Y1855041D01*
X378329Y1855085D01*
X378351Y1855127D01*
X378380Y1855164D01*
X378401Y1855226D01*
X378432Y1855285D01*
X378440Y1855339D01*
X378452Y1855376D01*
X378451Y1855416D01*
X378459Y1855470D01*
X378459Y1858010D01*
X378448Y1858075D01*
X378446Y1858141D01*
X378428Y1858184D01*
X378420Y1858231D01*
X378386Y1858288D01*
X378361Y1858348D01*
X378330Y1858383D01*
X378305Y1858424D01*
X378254Y1858466D01*
X378210Y1858514D01*
X378168Y1858536D01*
X378131Y1858565D01*
X378069Y1858586D01*
X378010Y1858617D01*
X377956Y1858625D01*
X377919Y1858637D01*
X377879Y1858636D01*
X377825Y1858644D01*
X374015Y1858644D01*
X373950Y1858633D01*
X373884Y1858631D01*
X373841Y1858613D01*
X373794Y1858605D01*
X373737Y1858571D01*
X373677Y1858546D01*
X373642Y1858515D01*
X373601Y1858490D01*
X373560Y1858439D01*
X373511Y1858395D01*
X373489Y1858353D01*
X373460Y1858316D01*
X373439Y1858254D01*
X373408Y1858195D01*
X373400Y1858141D01*
X373388Y1858104D01*
X373388Y1858101D01*
X373389Y1858064D01*
X373381Y1858010D01*
X373381Y1855470D01*
X373392Y1855405D01*
X373394Y1855339D01*
X373412Y1855296D01*
X373420Y1855249D01*
X373454Y1855192D01*
X373479Y1855132D01*
X373510Y1855097D01*
X373535Y1855056D01*
X373586Y1855015D01*
X373630Y1854966D01*
X373672Y1854944D01*
X373709Y1854915D01*
X373771Y1854894D01*
X373830Y1854863D01*
X373884Y1854855D01*
X373921Y1854843D01*
X373961Y1854844D01*
X374015Y1854836D01*
X377825Y1854836D01*
X377890Y1854847D01*
G37*
G36*
X377890Y1829447D02*
X377890Y1829447D01*
X377956Y1829449D01*
X377999Y1829467D01*
X378046Y1829475D01*
X378103Y1829509D01*
X378163Y1829534D01*
X378198Y1829565D01*
X378239Y1829590D01*
X378281Y1829641D01*
X378329Y1829685D01*
X378351Y1829727D01*
X378380Y1829764D01*
X378401Y1829826D01*
X378432Y1829885D01*
X378440Y1829939D01*
X378452Y1829976D01*
X378451Y1830016D01*
X378459Y1830070D01*
X378459Y1832610D01*
X378448Y1832675D01*
X378446Y1832741D01*
X378428Y1832784D01*
X378420Y1832831D01*
X378386Y1832888D01*
X378361Y1832948D01*
X378330Y1832983D01*
X378305Y1833024D01*
X378254Y1833066D01*
X378210Y1833114D01*
X378168Y1833136D01*
X378131Y1833165D01*
X378069Y1833186D01*
X378010Y1833217D01*
X377956Y1833225D01*
X377919Y1833237D01*
X377879Y1833236D01*
X377825Y1833244D01*
X374015Y1833244D01*
X373950Y1833233D01*
X373884Y1833231D01*
X373841Y1833213D01*
X373794Y1833205D01*
X373737Y1833171D01*
X373677Y1833146D01*
X373642Y1833115D01*
X373601Y1833090D01*
X373560Y1833039D01*
X373511Y1832995D01*
X373489Y1832953D01*
X373460Y1832916D01*
X373439Y1832854D01*
X373408Y1832795D01*
X373400Y1832741D01*
X373388Y1832704D01*
X373388Y1832701D01*
X373389Y1832664D01*
X373381Y1832610D01*
X373381Y1830070D01*
X373392Y1830005D01*
X373394Y1829939D01*
X373412Y1829896D01*
X373420Y1829849D01*
X373454Y1829792D01*
X373479Y1829732D01*
X373510Y1829697D01*
X373535Y1829656D01*
X373586Y1829615D01*
X373630Y1829566D01*
X373672Y1829544D01*
X373709Y1829515D01*
X373771Y1829494D01*
X373830Y1829463D01*
X373884Y1829455D01*
X373921Y1829443D01*
X373961Y1829444D01*
X374015Y1829436D01*
X377825Y1829436D01*
X377890Y1829447D01*
G37*
G36*
X1017970Y442607D02*
X1017970Y442607D01*
X1018036Y442609D01*
X1018079Y442627D01*
X1018126Y442635D01*
X1018183Y442669D01*
X1018243Y442694D01*
X1018278Y442725D01*
X1018319Y442750D01*
X1018361Y442801D01*
X1018409Y442845D01*
X1018431Y442887D01*
X1018460Y442924D01*
X1018481Y442986D01*
X1018512Y443045D01*
X1018520Y443099D01*
X1018532Y443136D01*
X1018531Y443176D01*
X1018539Y443230D01*
X1018539Y445770D01*
X1018528Y445835D01*
X1018526Y445901D01*
X1018508Y445944D01*
X1018500Y445991D01*
X1018466Y446048D01*
X1018441Y446108D01*
X1018410Y446143D01*
X1018385Y446184D01*
X1018334Y446226D01*
X1018290Y446274D01*
X1018248Y446296D01*
X1018211Y446325D01*
X1018149Y446346D01*
X1018090Y446377D01*
X1018036Y446385D01*
X1017999Y446397D01*
X1017959Y446396D01*
X1017905Y446404D01*
X1014095Y446404D01*
X1014030Y446393D01*
X1013964Y446391D01*
X1013921Y446373D01*
X1013874Y446365D01*
X1013817Y446331D01*
X1013757Y446306D01*
X1013722Y446275D01*
X1013681Y446250D01*
X1013640Y446199D01*
X1013591Y446155D01*
X1013569Y446113D01*
X1013540Y446076D01*
X1013519Y446014D01*
X1013488Y445955D01*
X1013480Y445901D01*
X1013468Y445864D01*
X1013468Y445861D01*
X1013469Y445824D01*
X1013461Y445770D01*
X1013461Y443230D01*
X1013472Y443165D01*
X1013474Y443099D01*
X1013492Y443056D01*
X1013500Y443009D01*
X1013534Y442952D01*
X1013559Y442892D01*
X1013590Y442857D01*
X1013615Y442816D01*
X1013666Y442775D01*
X1013710Y442726D01*
X1013752Y442704D01*
X1013789Y442675D01*
X1013851Y442654D01*
X1013910Y442623D01*
X1013964Y442615D01*
X1014001Y442603D01*
X1014041Y442604D01*
X1014095Y442596D01*
X1017905Y442596D01*
X1017970Y442607D01*
G37*
G36*
X598870Y315607D02*
X598870Y315607D01*
X598936Y315609D01*
X598979Y315627D01*
X599026Y315635D01*
X599083Y315669D01*
X599143Y315694D01*
X599178Y315725D01*
X599219Y315750D01*
X599261Y315801D01*
X599309Y315845D01*
X599331Y315887D01*
X599360Y315924D01*
X599381Y315986D01*
X599412Y316045D01*
X599420Y316099D01*
X599432Y316136D01*
X599431Y316176D01*
X599439Y316230D01*
X599439Y318770D01*
X599428Y318835D01*
X599426Y318901D01*
X599408Y318944D01*
X599400Y318991D01*
X599366Y319048D01*
X599341Y319108D01*
X599310Y319143D01*
X599285Y319184D01*
X599234Y319226D01*
X599190Y319274D01*
X599148Y319296D01*
X599111Y319325D01*
X599049Y319346D01*
X598990Y319377D01*
X598936Y319385D01*
X598899Y319397D01*
X598859Y319396D01*
X598805Y319404D01*
X594995Y319404D01*
X594930Y319393D01*
X594864Y319391D01*
X594821Y319373D01*
X594774Y319365D01*
X594717Y319331D01*
X594657Y319306D01*
X594622Y319275D01*
X594581Y319250D01*
X594540Y319199D01*
X594491Y319155D01*
X594469Y319113D01*
X594440Y319076D01*
X594419Y319014D01*
X594388Y318955D01*
X594380Y318901D01*
X594368Y318864D01*
X594368Y318861D01*
X594369Y318824D01*
X594361Y318770D01*
X594361Y316230D01*
X594372Y316165D01*
X594374Y316099D01*
X594392Y316056D01*
X594400Y316009D01*
X594434Y315952D01*
X594459Y315892D01*
X594490Y315857D01*
X594515Y315816D01*
X594566Y315775D01*
X594610Y315726D01*
X594652Y315704D01*
X594689Y315675D01*
X594751Y315654D01*
X594810Y315623D01*
X594864Y315615D01*
X594901Y315603D01*
X594941Y315604D01*
X594995Y315596D01*
X598805Y315596D01*
X598870Y315607D01*
G37*
G36*
X794450Y175907D02*
X794450Y175907D01*
X794516Y175909D01*
X794559Y175927D01*
X794606Y175935D01*
X794663Y175969D01*
X794723Y175994D01*
X794758Y176025D01*
X794799Y176050D01*
X794841Y176101D01*
X794889Y176145D01*
X794911Y176187D01*
X794940Y176224D01*
X794961Y176286D01*
X794992Y176345D01*
X795000Y176399D01*
X795012Y176436D01*
X795011Y176476D01*
X795019Y176530D01*
X795019Y179070D01*
X795008Y179135D01*
X795006Y179201D01*
X794988Y179244D01*
X794980Y179291D01*
X794946Y179348D01*
X794921Y179408D01*
X794890Y179443D01*
X794865Y179484D01*
X794814Y179526D01*
X794770Y179574D01*
X794728Y179596D01*
X794691Y179625D01*
X794629Y179646D01*
X794570Y179677D01*
X794516Y179685D01*
X794479Y179697D01*
X794439Y179696D01*
X794385Y179704D01*
X790575Y179704D01*
X790510Y179693D01*
X790444Y179691D01*
X790401Y179673D01*
X790354Y179665D01*
X790297Y179631D01*
X790237Y179606D01*
X790202Y179575D01*
X790161Y179550D01*
X790120Y179499D01*
X790071Y179455D01*
X790049Y179413D01*
X790020Y179376D01*
X789999Y179314D01*
X789968Y179255D01*
X789960Y179201D01*
X789948Y179164D01*
X789948Y179161D01*
X789949Y179124D01*
X789941Y179070D01*
X789941Y176530D01*
X789952Y176465D01*
X789954Y176399D01*
X789972Y176356D01*
X789980Y176309D01*
X790014Y176252D01*
X790039Y176192D01*
X790070Y176157D01*
X790095Y176116D01*
X790146Y176075D01*
X790190Y176026D01*
X790232Y176004D01*
X790269Y175975D01*
X790331Y175954D01*
X790390Y175923D01*
X790444Y175915D01*
X790481Y175903D01*
X790521Y175904D01*
X790575Y175896D01*
X794385Y175896D01*
X794450Y175907D01*
G37*
G36*
X154370Y175907D02*
X154370Y175907D01*
X154436Y175909D01*
X154479Y175927D01*
X154526Y175935D01*
X154583Y175969D01*
X154643Y175994D01*
X154678Y176025D01*
X154719Y176050D01*
X154761Y176101D01*
X154809Y176145D01*
X154831Y176187D01*
X154860Y176224D01*
X154881Y176286D01*
X154912Y176345D01*
X154920Y176399D01*
X154932Y176436D01*
X154931Y176476D01*
X154939Y176530D01*
X154939Y179070D01*
X154928Y179135D01*
X154926Y179201D01*
X154908Y179244D01*
X154900Y179291D01*
X154866Y179348D01*
X154841Y179408D01*
X154810Y179443D01*
X154785Y179484D01*
X154734Y179526D01*
X154690Y179574D01*
X154648Y179596D01*
X154611Y179625D01*
X154549Y179646D01*
X154490Y179677D01*
X154436Y179685D01*
X154399Y179697D01*
X154359Y179696D01*
X154305Y179704D01*
X150495Y179704D01*
X150430Y179693D01*
X150364Y179691D01*
X150321Y179673D01*
X150274Y179665D01*
X150217Y179631D01*
X150157Y179606D01*
X150122Y179575D01*
X150081Y179550D01*
X150040Y179499D01*
X149991Y179455D01*
X149969Y179413D01*
X149940Y179376D01*
X149919Y179314D01*
X149888Y179255D01*
X149880Y179201D01*
X149868Y179164D01*
X149868Y179161D01*
X149869Y179124D01*
X149861Y179070D01*
X149861Y176530D01*
X149872Y176465D01*
X149874Y176399D01*
X149892Y176356D01*
X149900Y176309D01*
X149934Y176252D01*
X149959Y176192D01*
X149990Y176157D01*
X150015Y176116D01*
X150066Y176075D01*
X150110Y176026D01*
X150152Y176004D01*
X150189Y175975D01*
X150251Y175954D01*
X150310Y175923D01*
X150364Y175915D01*
X150401Y175903D01*
X150441Y175904D01*
X150495Y175896D01*
X154305Y175896D01*
X154370Y175907D01*
G37*
G36*
X1183070Y150507D02*
X1183070Y150507D01*
X1183136Y150509D01*
X1183179Y150527D01*
X1183226Y150535D01*
X1183283Y150569D01*
X1183343Y150594D01*
X1183378Y150625D01*
X1183419Y150650D01*
X1183461Y150701D01*
X1183509Y150745D01*
X1183531Y150787D01*
X1183560Y150824D01*
X1183581Y150886D01*
X1183612Y150945D01*
X1183620Y150999D01*
X1183632Y151036D01*
X1183631Y151076D01*
X1183639Y151130D01*
X1183639Y153670D01*
X1183628Y153735D01*
X1183626Y153801D01*
X1183608Y153844D01*
X1183600Y153891D01*
X1183566Y153948D01*
X1183541Y154008D01*
X1183510Y154043D01*
X1183485Y154084D01*
X1183434Y154126D01*
X1183390Y154174D01*
X1183348Y154196D01*
X1183311Y154225D01*
X1183249Y154246D01*
X1183190Y154277D01*
X1183136Y154285D01*
X1183099Y154297D01*
X1183059Y154296D01*
X1183005Y154304D01*
X1179195Y154304D01*
X1179130Y154293D01*
X1179064Y154291D01*
X1179021Y154273D01*
X1178974Y154265D01*
X1178917Y154231D01*
X1178857Y154206D01*
X1178822Y154175D01*
X1178781Y154150D01*
X1178740Y154099D01*
X1178691Y154055D01*
X1178669Y154013D01*
X1178640Y153976D01*
X1178619Y153914D01*
X1178588Y153855D01*
X1178580Y153801D01*
X1178568Y153764D01*
X1178568Y153761D01*
X1178569Y153724D01*
X1178561Y153670D01*
X1178561Y151130D01*
X1178572Y151065D01*
X1178574Y150999D01*
X1178592Y150956D01*
X1178600Y150909D01*
X1178634Y150852D01*
X1178659Y150792D01*
X1178690Y150757D01*
X1178715Y150716D01*
X1178766Y150675D01*
X1178810Y150626D01*
X1178852Y150604D01*
X1178889Y150575D01*
X1178951Y150554D01*
X1179010Y150523D01*
X1179064Y150515D01*
X1179101Y150503D01*
X1179141Y150504D01*
X1179195Y150496D01*
X1183005Y150496D01*
X1183070Y150507D01*
G37*
G36*
X1193230Y150507D02*
X1193230Y150507D01*
X1193296Y150509D01*
X1193339Y150527D01*
X1193386Y150535D01*
X1193443Y150569D01*
X1193503Y150594D01*
X1193538Y150625D01*
X1193579Y150650D01*
X1193621Y150701D01*
X1193669Y150745D01*
X1193691Y150787D01*
X1193720Y150824D01*
X1193741Y150886D01*
X1193772Y150945D01*
X1193780Y150999D01*
X1193792Y151036D01*
X1193791Y151076D01*
X1193799Y151130D01*
X1193799Y153670D01*
X1193788Y153735D01*
X1193786Y153801D01*
X1193768Y153844D01*
X1193760Y153891D01*
X1193726Y153948D01*
X1193701Y154008D01*
X1193670Y154043D01*
X1193645Y154084D01*
X1193594Y154126D01*
X1193550Y154174D01*
X1193508Y154196D01*
X1193471Y154225D01*
X1193409Y154246D01*
X1193350Y154277D01*
X1193296Y154285D01*
X1193259Y154297D01*
X1193219Y154296D01*
X1193165Y154304D01*
X1189355Y154304D01*
X1189290Y154293D01*
X1189224Y154291D01*
X1189181Y154273D01*
X1189134Y154265D01*
X1189077Y154231D01*
X1189017Y154206D01*
X1188982Y154175D01*
X1188941Y154150D01*
X1188900Y154099D01*
X1188851Y154055D01*
X1188829Y154013D01*
X1188800Y153976D01*
X1188779Y153914D01*
X1188748Y153855D01*
X1188740Y153801D01*
X1188728Y153764D01*
X1188728Y153761D01*
X1188729Y153724D01*
X1188721Y153670D01*
X1188721Y151130D01*
X1188732Y151065D01*
X1188734Y150999D01*
X1188752Y150956D01*
X1188760Y150909D01*
X1188794Y150852D01*
X1188819Y150792D01*
X1188850Y150757D01*
X1188875Y150716D01*
X1188926Y150675D01*
X1188970Y150626D01*
X1189012Y150604D01*
X1189049Y150575D01*
X1189111Y150554D01*
X1189170Y150523D01*
X1189224Y150515D01*
X1189261Y150503D01*
X1189301Y150504D01*
X1189355Y150496D01*
X1193165Y150496D01*
X1193230Y150507D01*
G37*
G36*
X542990Y150507D02*
X542990Y150507D01*
X543056Y150509D01*
X543099Y150527D01*
X543146Y150535D01*
X543203Y150569D01*
X543263Y150594D01*
X543298Y150625D01*
X543339Y150650D01*
X543381Y150701D01*
X543429Y150745D01*
X543451Y150787D01*
X543480Y150824D01*
X543501Y150886D01*
X543532Y150945D01*
X543540Y150999D01*
X543552Y151036D01*
X543551Y151076D01*
X543559Y151130D01*
X543559Y153670D01*
X543548Y153735D01*
X543546Y153801D01*
X543528Y153844D01*
X543520Y153891D01*
X543486Y153948D01*
X543461Y154008D01*
X543430Y154043D01*
X543405Y154084D01*
X543354Y154126D01*
X543310Y154174D01*
X543268Y154196D01*
X543231Y154225D01*
X543169Y154246D01*
X543110Y154277D01*
X543056Y154285D01*
X543019Y154297D01*
X542979Y154296D01*
X542925Y154304D01*
X539115Y154304D01*
X539050Y154293D01*
X538984Y154291D01*
X538941Y154273D01*
X538894Y154265D01*
X538837Y154231D01*
X538777Y154206D01*
X538742Y154175D01*
X538701Y154150D01*
X538660Y154099D01*
X538611Y154055D01*
X538589Y154013D01*
X538560Y153976D01*
X538539Y153914D01*
X538508Y153855D01*
X538500Y153801D01*
X538488Y153764D01*
X538488Y153761D01*
X538489Y153724D01*
X538481Y153670D01*
X538481Y151130D01*
X538492Y151065D01*
X538494Y150999D01*
X538512Y150956D01*
X538520Y150909D01*
X538554Y150852D01*
X538579Y150792D01*
X538610Y150757D01*
X538635Y150716D01*
X538686Y150675D01*
X538730Y150626D01*
X538772Y150604D01*
X538809Y150575D01*
X538871Y150554D01*
X538930Y150523D01*
X538984Y150515D01*
X539021Y150503D01*
X539061Y150504D01*
X539115Y150496D01*
X542925Y150496D01*
X542990Y150507D01*
G37*
G36*
X553150Y150507D02*
X553150Y150507D01*
X553216Y150509D01*
X553259Y150527D01*
X553306Y150535D01*
X553363Y150569D01*
X553423Y150594D01*
X553458Y150625D01*
X553499Y150650D01*
X553541Y150701D01*
X553589Y150745D01*
X553611Y150787D01*
X553640Y150824D01*
X553661Y150886D01*
X553692Y150945D01*
X553700Y150999D01*
X553712Y151036D01*
X553711Y151076D01*
X553719Y151130D01*
X553719Y153670D01*
X553708Y153735D01*
X553706Y153801D01*
X553688Y153844D01*
X553680Y153891D01*
X553646Y153948D01*
X553621Y154008D01*
X553590Y154043D01*
X553565Y154084D01*
X553514Y154126D01*
X553470Y154174D01*
X553428Y154196D01*
X553391Y154225D01*
X553329Y154246D01*
X553270Y154277D01*
X553216Y154285D01*
X553179Y154297D01*
X553139Y154296D01*
X553085Y154304D01*
X549275Y154304D01*
X549210Y154293D01*
X549144Y154291D01*
X549101Y154273D01*
X549054Y154265D01*
X548997Y154231D01*
X548937Y154206D01*
X548902Y154175D01*
X548861Y154150D01*
X548820Y154099D01*
X548771Y154055D01*
X548749Y154013D01*
X548720Y153976D01*
X548699Y153914D01*
X548668Y153855D01*
X548660Y153801D01*
X548648Y153764D01*
X548648Y153761D01*
X548649Y153724D01*
X548641Y153670D01*
X548641Y151130D01*
X548652Y151065D01*
X548654Y150999D01*
X548672Y150956D01*
X548680Y150909D01*
X548714Y150852D01*
X548739Y150792D01*
X548770Y150757D01*
X548795Y150716D01*
X548846Y150675D01*
X548890Y150626D01*
X548932Y150604D01*
X548969Y150575D01*
X549031Y150554D01*
X549090Y150523D01*
X549144Y150515D01*
X549181Y150503D01*
X549221Y150504D01*
X549275Y150496D01*
X553085Y150496D01*
X553150Y150507D01*
G37*
G36*
X1017970Y1829447D02*
X1017970Y1829447D01*
X1018036Y1829449D01*
X1018079Y1829467D01*
X1018126Y1829475D01*
X1018183Y1829509D01*
X1018243Y1829534D01*
X1018278Y1829565D01*
X1018319Y1829590D01*
X1018361Y1829641D01*
X1018409Y1829685D01*
X1018431Y1829727D01*
X1018460Y1829764D01*
X1018481Y1829826D01*
X1018512Y1829885D01*
X1018520Y1829939D01*
X1018532Y1829976D01*
X1018531Y1830016D01*
X1018539Y1830070D01*
X1018539Y1832610D01*
X1018528Y1832675D01*
X1018526Y1832741D01*
X1018508Y1832784D01*
X1018500Y1832831D01*
X1018466Y1832888D01*
X1018441Y1832948D01*
X1018410Y1832983D01*
X1018385Y1833024D01*
X1018334Y1833066D01*
X1018290Y1833114D01*
X1018248Y1833136D01*
X1018211Y1833165D01*
X1018149Y1833186D01*
X1018090Y1833217D01*
X1018036Y1833225D01*
X1017999Y1833237D01*
X1017959Y1833236D01*
X1017905Y1833244D01*
X1014095Y1833244D01*
X1014030Y1833233D01*
X1013964Y1833231D01*
X1013921Y1833213D01*
X1013874Y1833205D01*
X1013817Y1833171D01*
X1013757Y1833146D01*
X1013722Y1833115D01*
X1013681Y1833090D01*
X1013640Y1833039D01*
X1013591Y1832995D01*
X1013569Y1832953D01*
X1013540Y1832916D01*
X1013519Y1832854D01*
X1013488Y1832795D01*
X1013480Y1832741D01*
X1013468Y1832704D01*
X1013468Y1832701D01*
X1013469Y1832664D01*
X1013461Y1832610D01*
X1013461Y1830070D01*
X1013472Y1830005D01*
X1013474Y1829939D01*
X1013492Y1829896D01*
X1013500Y1829849D01*
X1013534Y1829792D01*
X1013559Y1829732D01*
X1013590Y1829697D01*
X1013615Y1829656D01*
X1013666Y1829615D01*
X1013710Y1829566D01*
X1013752Y1829544D01*
X1013789Y1829515D01*
X1013851Y1829494D01*
X1013910Y1829463D01*
X1013964Y1829455D01*
X1014001Y1829443D01*
X1014041Y1829444D01*
X1014095Y1829436D01*
X1017905Y1829436D01*
X1017970Y1829447D01*
G37*
G36*
X1238950Y315607D02*
X1238950Y315607D01*
X1239016Y315609D01*
X1239059Y315627D01*
X1239106Y315635D01*
X1239163Y315669D01*
X1239223Y315694D01*
X1239258Y315725D01*
X1239299Y315750D01*
X1239341Y315801D01*
X1239389Y315845D01*
X1239411Y315887D01*
X1239440Y315924D01*
X1239461Y315986D01*
X1239492Y316045D01*
X1239500Y316099D01*
X1239512Y316136D01*
X1239511Y316176D01*
X1239519Y316230D01*
X1239519Y318770D01*
X1239508Y318835D01*
X1239506Y318901D01*
X1239488Y318944D01*
X1239480Y318991D01*
X1239446Y319048D01*
X1239421Y319108D01*
X1239390Y319143D01*
X1239365Y319184D01*
X1239314Y319226D01*
X1239270Y319274D01*
X1239228Y319296D01*
X1239191Y319325D01*
X1239129Y319346D01*
X1239070Y319377D01*
X1239016Y319385D01*
X1238979Y319397D01*
X1238939Y319396D01*
X1238885Y319404D01*
X1235075Y319404D01*
X1235010Y319393D01*
X1234944Y319391D01*
X1234901Y319373D01*
X1234854Y319365D01*
X1234797Y319331D01*
X1234737Y319306D01*
X1234702Y319275D01*
X1234661Y319250D01*
X1234620Y319199D01*
X1234571Y319155D01*
X1234549Y319113D01*
X1234520Y319076D01*
X1234499Y319014D01*
X1234468Y318955D01*
X1234460Y318901D01*
X1234448Y318864D01*
X1234448Y318861D01*
X1234449Y318824D01*
X1234441Y318770D01*
X1234441Y316230D01*
X1234452Y316165D01*
X1234454Y316099D01*
X1234472Y316056D01*
X1234480Y316009D01*
X1234514Y315952D01*
X1234539Y315892D01*
X1234570Y315857D01*
X1234595Y315816D01*
X1234646Y315775D01*
X1234690Y315726D01*
X1234732Y315704D01*
X1234769Y315675D01*
X1234831Y315654D01*
X1234890Y315623D01*
X1234944Y315615D01*
X1234981Y315603D01*
X1235021Y315604D01*
X1235075Y315596D01*
X1238885Y315596D01*
X1238950Y315607D01*
G37*
D10*
X609600Y25400D03*
X25400Y25400D03*
X25400Y609600D03*
X609600Y609600D03*
D11*
X25400Y50800D03*
X609600Y584200D03*
D12*
X566900Y491800D03*
X566900Y549600D03*
D13*
X620901Y526544D02*
X626493Y526544D01*
X626493Y514856D01*
X620901Y514856D01*
X620901Y526544D01*
X620901Y517025D02*
X626493Y517025D01*
X626493Y519194D02*
X620901Y519194D01*
X620901Y521363D02*
X626493Y521363D01*
X626493Y523532D02*
X620901Y523532D01*
X620901Y525701D02*
X626493Y525701D01*
X616079Y526544D02*
X610487Y526544D01*
X616079Y526544D02*
X616079Y514856D01*
X610487Y514856D01*
X610487Y526544D01*
X610487Y517025D02*
X616079Y517025D01*
X616079Y519194D02*
X610487Y519194D01*
X610487Y521363D02*
X616079Y521363D01*
X616079Y523532D02*
X610487Y523532D01*
X610487Y525701D02*
X616079Y525701D01*
D14*
X541147Y323342D02*
X535813Y323342D01*
X541147Y323342D02*
X541147Y311658D01*
X535813Y311658D01*
X535813Y323342D01*
X535813Y313830D02*
X541147Y313830D01*
X541147Y316002D02*
X535813Y316002D01*
X535813Y318174D02*
X541147Y318174D01*
X541147Y320346D02*
X535813Y320346D01*
X535813Y322518D02*
X541147Y322518D01*
X530987Y323342D02*
X525653Y323342D01*
X530987Y323342D02*
X530987Y311658D01*
X525653Y311658D01*
X525653Y323342D01*
X525653Y313830D02*
X530987Y313830D01*
X530987Y316002D02*
X525653Y316002D01*
X525653Y318174D02*
X530987Y318174D01*
X530987Y320346D02*
X525653Y320346D01*
X525653Y322518D02*
X530987Y322518D01*
D15*
X546100Y317500D03*
X520700Y317500D03*
D13*
X588897Y311656D02*
X594489Y311656D01*
X588897Y311656D02*
X588897Y323344D01*
X594489Y323344D01*
X594489Y311656D01*
X594489Y313825D02*
X588897Y313825D01*
X588897Y315994D02*
X594489Y315994D01*
X594489Y318163D02*
X588897Y318163D01*
X588897Y320332D02*
X594489Y320332D01*
X594489Y322501D02*
X588897Y322501D01*
X599311Y311656D02*
X604903Y311656D01*
X599311Y311656D02*
X599311Y323344D01*
X604903Y323344D01*
X604903Y311656D01*
X604903Y313825D02*
X599311Y313825D01*
X599311Y315994D02*
X604903Y315994D01*
X604903Y318163D02*
X599311Y318163D01*
X599311Y320332D02*
X604903Y320332D01*
X604903Y322501D02*
X599311Y322501D01*
X450344Y315089D02*
X450344Y309497D01*
X438656Y309497D01*
X438656Y315089D01*
X450344Y315089D01*
X450344Y311666D02*
X438656Y311666D01*
X438656Y313835D02*
X450344Y313835D01*
X450344Y319911D02*
X450344Y325503D01*
X450344Y319911D02*
X438656Y319911D01*
X438656Y325503D01*
X450344Y325503D01*
X450344Y322080D02*
X438656Y322080D01*
X438656Y324249D02*
X450344Y324249D01*
X532890Y146556D02*
X538482Y146556D01*
X532890Y146556D02*
X532890Y158244D01*
X538482Y158244D01*
X538482Y146556D01*
X538482Y148725D02*
X532890Y148725D01*
X532890Y150894D02*
X538482Y150894D01*
X538482Y153063D02*
X532890Y153063D01*
X532890Y155232D02*
X538482Y155232D01*
X538482Y157401D02*
X532890Y157401D01*
X543304Y146556D02*
X548896Y146556D01*
X543304Y146556D02*
X543304Y158244D01*
X548896Y158244D01*
X548896Y146556D01*
X548896Y148725D02*
X543304Y148725D01*
X543304Y150894D02*
X548896Y150894D01*
X548896Y153063D02*
X543304Y153063D01*
X543304Y155232D02*
X548896Y155232D01*
X548896Y157401D02*
X543304Y157401D01*
X553718Y146556D02*
X559310Y146556D01*
X553718Y146556D02*
X553718Y158244D01*
X559310Y158244D01*
X559310Y146556D01*
X559310Y148725D02*
X553718Y148725D01*
X553718Y150894D02*
X559310Y150894D01*
X559310Y153063D02*
X553718Y153063D01*
X553718Y155232D02*
X559310Y155232D01*
X559310Y157401D02*
X553718Y157401D01*
X43944Y105539D02*
X43944Y99947D01*
X32256Y99947D01*
X32256Y105539D01*
X43944Y105539D01*
X43944Y102116D02*
X32256Y102116D01*
X32256Y104285D02*
X43944Y104285D01*
X43944Y110361D02*
X43944Y115953D01*
X43944Y110361D02*
X32256Y110361D01*
X32256Y115953D01*
X43944Y115953D01*
X43944Y112530D02*
X32256Y112530D01*
X32256Y114699D02*
X43944Y114699D01*
D14*
X318897Y170942D02*
X324231Y170942D01*
X324231Y159258D01*
X318897Y159258D01*
X318897Y170942D01*
X318897Y161430D02*
X324231Y161430D01*
X324231Y163602D02*
X318897Y163602D01*
X318897Y165774D02*
X324231Y165774D01*
X324231Y167946D02*
X318897Y167946D01*
X318897Y170118D02*
X324231Y170118D01*
X316103Y170942D02*
X310769Y170942D01*
X316103Y170942D02*
X316103Y159258D01*
X310769Y159258D01*
X310769Y170942D01*
X310769Y161430D02*
X316103Y161430D01*
X316103Y163602D02*
X310769Y163602D01*
X310769Y165774D02*
X316103Y165774D01*
X316103Y167946D02*
X310769Y167946D01*
X310769Y170118D02*
X316103Y170118D01*
D13*
X388618Y399544D02*
X394210Y399544D01*
X394210Y387856D01*
X388618Y387856D01*
X388618Y399544D01*
X388618Y390025D02*
X394210Y390025D01*
X394210Y392194D02*
X388618Y392194D01*
X388618Y394363D02*
X394210Y394363D01*
X394210Y396532D02*
X388618Y396532D01*
X388618Y398701D02*
X394210Y398701D01*
X383796Y399544D02*
X378204Y399544D01*
X383796Y399544D02*
X383796Y387856D01*
X378204Y387856D01*
X378204Y399544D01*
X378204Y390025D02*
X383796Y390025D01*
X383796Y392194D02*
X378204Y392194D01*
X378204Y394363D02*
X383796Y394363D01*
X383796Y396532D02*
X378204Y396532D01*
X378204Y398701D02*
X383796Y398701D01*
X373382Y399544D02*
X367790Y399544D01*
X373382Y399544D02*
X373382Y387856D01*
X367790Y387856D01*
X367790Y399544D01*
X367790Y390025D02*
X373382Y390025D01*
X373382Y392194D02*
X367790Y392194D01*
X367790Y394363D02*
X373382Y394363D01*
X373382Y396532D02*
X367790Y396532D01*
X367790Y398701D02*
X373382Y398701D01*
D14*
X267208Y349631D02*
X267208Y344297D01*
X267208Y349631D02*
X278892Y349631D01*
X278892Y344297D01*
X267208Y344297D01*
X267208Y346469D02*
X278892Y346469D01*
X278892Y348641D02*
X267208Y348641D01*
X267208Y341503D02*
X267208Y336169D01*
X267208Y341503D02*
X278892Y341503D01*
X278892Y336169D01*
X267208Y336169D01*
X267208Y338341D02*
X278892Y338341D01*
X278892Y340513D02*
X267208Y340513D01*
D13*
X388618Y424944D02*
X394210Y424944D01*
X394210Y413256D01*
X388618Y413256D01*
X388618Y424944D01*
X388618Y415425D02*
X394210Y415425D01*
X394210Y417594D02*
X388618Y417594D01*
X388618Y419763D02*
X394210Y419763D01*
X394210Y421932D02*
X388618Y421932D01*
X388618Y424101D02*
X394210Y424101D01*
X383796Y424944D02*
X378204Y424944D01*
X383796Y424944D02*
X383796Y413256D01*
X378204Y413256D01*
X378204Y424944D01*
X378204Y415425D02*
X383796Y415425D01*
X383796Y417594D02*
X378204Y417594D01*
X378204Y419763D02*
X383796Y419763D01*
X383796Y421932D02*
X378204Y421932D01*
X378204Y424101D02*
X383796Y424101D01*
X373382Y424944D02*
X367790Y424944D01*
X373382Y424944D02*
X373382Y413256D01*
X367790Y413256D01*
X367790Y424944D01*
X367790Y415425D02*
X373382Y415425D01*
X373382Y417594D02*
X367790Y417594D01*
X367790Y419763D02*
X373382Y419763D01*
X373382Y421932D02*
X367790Y421932D01*
X367790Y424101D02*
X373382Y424101D01*
X388618Y450344D02*
X394210Y450344D01*
X394210Y438656D01*
X388618Y438656D01*
X388618Y450344D01*
X388618Y440825D02*
X394210Y440825D01*
X394210Y442994D02*
X388618Y442994D01*
X388618Y445163D02*
X394210Y445163D01*
X394210Y447332D02*
X388618Y447332D01*
X388618Y449501D02*
X394210Y449501D01*
X383796Y450344D02*
X378204Y450344D01*
X383796Y450344D02*
X383796Y438656D01*
X378204Y438656D01*
X378204Y450344D01*
X378204Y440825D02*
X383796Y440825D01*
X383796Y442994D02*
X378204Y442994D01*
X378204Y445163D02*
X383796Y445163D01*
X383796Y447332D02*
X378204Y447332D01*
X378204Y449501D02*
X383796Y449501D01*
X373382Y450344D02*
X367790Y450344D01*
X373382Y450344D02*
X373382Y438656D01*
X367790Y438656D01*
X367790Y450344D01*
X367790Y440825D02*
X373382Y440825D01*
X373382Y442994D02*
X367790Y442994D01*
X367790Y445163D02*
X373382Y445163D01*
X373382Y447332D02*
X367790Y447332D01*
X367790Y449501D02*
X373382Y449501D01*
X388618Y475744D02*
X394210Y475744D01*
X394210Y464056D01*
X388618Y464056D01*
X388618Y475744D01*
X388618Y466225D02*
X394210Y466225D01*
X394210Y468394D02*
X388618Y468394D01*
X388618Y470563D02*
X394210Y470563D01*
X394210Y472732D02*
X388618Y472732D01*
X388618Y474901D02*
X394210Y474901D01*
X383796Y475744D02*
X378204Y475744D01*
X383796Y475744D02*
X383796Y464056D01*
X378204Y464056D01*
X378204Y475744D01*
X378204Y466225D02*
X383796Y466225D01*
X383796Y468394D02*
X378204Y468394D01*
X378204Y470563D02*
X383796Y470563D01*
X383796Y472732D02*
X378204Y472732D01*
X378204Y474901D02*
X383796Y474901D01*
X373382Y475744D02*
X367790Y475744D01*
X373382Y475744D02*
X373382Y464056D01*
X367790Y464056D01*
X367790Y475744D01*
X367790Y466225D02*
X373382Y466225D01*
X373382Y468394D02*
X367790Y468394D01*
X367790Y470563D02*
X373382Y470563D01*
X373382Y472732D02*
X367790Y472732D01*
X367790Y474901D02*
X373382Y474901D01*
X160403Y183644D02*
X154811Y183644D01*
X160403Y183644D02*
X160403Y171956D01*
X154811Y171956D01*
X154811Y183644D01*
X154811Y174125D02*
X160403Y174125D01*
X160403Y176294D02*
X154811Y176294D01*
X154811Y178463D02*
X160403Y178463D01*
X160403Y180632D02*
X154811Y180632D01*
X154811Y182801D02*
X160403Y182801D01*
X149989Y183644D02*
X144397Y183644D01*
X149989Y183644D02*
X149989Y171956D01*
X144397Y171956D01*
X144397Y183644D01*
X144397Y174125D02*
X149989Y174125D01*
X149989Y176294D02*
X144397Y176294D01*
X144397Y178463D02*
X149989Y178463D01*
X149989Y180632D02*
X144397Y180632D01*
X144397Y182801D02*
X149989Y182801D01*
X388618Y501144D02*
X394210Y501144D01*
X394210Y489456D01*
X388618Y489456D01*
X388618Y501144D01*
X388618Y491625D02*
X394210Y491625D01*
X394210Y493794D02*
X388618Y493794D01*
X388618Y495963D02*
X394210Y495963D01*
X394210Y498132D02*
X388618Y498132D01*
X388618Y500301D02*
X394210Y500301D01*
X383796Y501144D02*
X378204Y501144D01*
X383796Y501144D02*
X383796Y489456D01*
X378204Y489456D01*
X378204Y501144D01*
X378204Y491625D02*
X383796Y491625D01*
X383796Y493794D02*
X378204Y493794D01*
X378204Y495963D02*
X383796Y495963D01*
X383796Y498132D02*
X378204Y498132D01*
X378204Y500301D02*
X383796Y500301D01*
X373382Y501144D02*
X367790Y501144D01*
X373382Y501144D02*
X373382Y489456D01*
X367790Y489456D01*
X367790Y501144D01*
X367790Y491625D02*
X373382Y491625D01*
X373382Y493794D02*
X367790Y493794D01*
X367790Y495963D02*
X373382Y495963D01*
X373382Y498132D02*
X367790Y498132D01*
X367790Y500301D02*
X373382Y500301D01*
D15*
X520700Y406400D03*
X520700Y431800D03*
X196850Y114300D03*
X184150Y88900D03*
X171450Y114300D03*
X146050Y114300D03*
X120650Y114300D03*
X158750Y88900D03*
X133350Y88900D03*
D16*
X107950Y88900D03*
D17*
X95250Y25400D03*
X209550Y25400D03*
D15*
X361950Y114300D03*
X349250Y88900D03*
X336550Y114300D03*
X311150Y114300D03*
X285750Y114300D03*
X323850Y88900D03*
X298450Y88900D03*
D16*
X273050Y88900D03*
D17*
X260350Y25400D03*
X374650Y25400D03*
D15*
X527050Y114300D03*
X514350Y88900D03*
X501650Y114300D03*
X476250Y114300D03*
X450850Y114300D03*
X488950Y88900D03*
X463550Y88900D03*
D16*
X438150Y88900D03*
D17*
X425450Y25400D03*
X539750Y25400D03*
D15*
X622300Y139700D03*
X622300Y114300D03*
X622300Y88900D03*
X622300Y63500D03*
X622300Y254000D03*
X622300Y279400D03*
D18*
X317500Y241300D03*
D10*
X1249680Y25400D03*
X665480Y25400D03*
X665480Y609600D03*
X1249680Y609600D03*
D11*
X665480Y50800D03*
X1249680Y584200D03*
D12*
X1206980Y491800D03*
X1206980Y549600D03*
D13*
X1260981Y526544D02*
X1266573Y526544D01*
X1266573Y514856D01*
X1260981Y514856D01*
X1260981Y526544D01*
X1260981Y517025D02*
X1266573Y517025D01*
X1266573Y519194D02*
X1260981Y519194D01*
X1260981Y521363D02*
X1266573Y521363D01*
X1266573Y523532D02*
X1260981Y523532D01*
X1260981Y525701D02*
X1266573Y525701D01*
X1256159Y526544D02*
X1250567Y526544D01*
X1256159Y526544D02*
X1256159Y514856D01*
X1250567Y514856D01*
X1250567Y526544D01*
X1250567Y517025D02*
X1256159Y517025D01*
X1256159Y519194D02*
X1250567Y519194D01*
X1250567Y521363D02*
X1256159Y521363D01*
X1256159Y523532D02*
X1250567Y523532D01*
X1250567Y525701D02*
X1256159Y525701D01*
D14*
X1181227Y323342D02*
X1175893Y323342D01*
X1181227Y323342D02*
X1181227Y311658D01*
X1175893Y311658D01*
X1175893Y323342D01*
X1175893Y313830D02*
X1181227Y313830D01*
X1181227Y316002D02*
X1175893Y316002D01*
X1175893Y318174D02*
X1181227Y318174D01*
X1181227Y320346D02*
X1175893Y320346D01*
X1175893Y322518D02*
X1181227Y322518D01*
X1171067Y323342D02*
X1165733Y323342D01*
X1171067Y323342D02*
X1171067Y311658D01*
X1165733Y311658D01*
X1165733Y323342D01*
X1165733Y313830D02*
X1171067Y313830D01*
X1171067Y316002D02*
X1165733Y316002D01*
X1165733Y318174D02*
X1171067Y318174D01*
X1171067Y320346D02*
X1165733Y320346D01*
X1165733Y322518D02*
X1171067Y322518D01*
D15*
X1186180Y317500D03*
X1160780Y317500D03*
D13*
X1228977Y311656D02*
X1234569Y311656D01*
X1228977Y311656D02*
X1228977Y323344D01*
X1234569Y323344D01*
X1234569Y311656D01*
X1234569Y313825D02*
X1228977Y313825D01*
X1228977Y315994D02*
X1234569Y315994D01*
X1234569Y318163D02*
X1228977Y318163D01*
X1228977Y320332D02*
X1234569Y320332D01*
X1234569Y322501D02*
X1228977Y322501D01*
X1239391Y311656D02*
X1244983Y311656D01*
X1239391Y311656D02*
X1239391Y323344D01*
X1244983Y323344D01*
X1244983Y311656D01*
X1244983Y313825D02*
X1239391Y313825D01*
X1239391Y315994D02*
X1244983Y315994D01*
X1244983Y318163D02*
X1239391Y318163D01*
X1239391Y320332D02*
X1244983Y320332D01*
X1244983Y322501D02*
X1239391Y322501D01*
X1090424Y315089D02*
X1090424Y309497D01*
X1078736Y309497D01*
X1078736Y315089D01*
X1090424Y315089D01*
X1090424Y311666D02*
X1078736Y311666D01*
X1078736Y313835D02*
X1090424Y313835D01*
X1090424Y319911D02*
X1090424Y325503D01*
X1090424Y319911D02*
X1078736Y319911D01*
X1078736Y325503D01*
X1090424Y325503D01*
X1090424Y322080D02*
X1078736Y322080D01*
X1078736Y324249D02*
X1090424Y324249D01*
X1172970Y146556D02*
X1178562Y146556D01*
X1172970Y146556D02*
X1172970Y158244D01*
X1178562Y158244D01*
X1178562Y146556D01*
X1178562Y148725D02*
X1172970Y148725D01*
X1172970Y150894D02*
X1178562Y150894D01*
X1178562Y153063D02*
X1172970Y153063D01*
X1172970Y155232D02*
X1178562Y155232D01*
X1178562Y157401D02*
X1172970Y157401D01*
X1183384Y146556D02*
X1188976Y146556D01*
X1183384Y146556D02*
X1183384Y158244D01*
X1188976Y158244D01*
X1188976Y146556D01*
X1188976Y148725D02*
X1183384Y148725D01*
X1183384Y150894D02*
X1188976Y150894D01*
X1188976Y153063D02*
X1183384Y153063D01*
X1183384Y155232D02*
X1188976Y155232D01*
X1188976Y157401D02*
X1183384Y157401D01*
X1193798Y146556D02*
X1199390Y146556D01*
X1193798Y146556D02*
X1193798Y158244D01*
X1199390Y158244D01*
X1199390Y146556D01*
X1199390Y148725D02*
X1193798Y148725D01*
X1193798Y150894D02*
X1199390Y150894D01*
X1199390Y153063D02*
X1193798Y153063D01*
X1193798Y155232D02*
X1199390Y155232D01*
X1199390Y157401D02*
X1193798Y157401D01*
X684024Y105539D02*
X684024Y99947D01*
X672336Y99947D01*
X672336Y105539D01*
X684024Y105539D01*
X684024Y102116D02*
X672336Y102116D01*
X672336Y104285D02*
X684024Y104285D01*
X684024Y110361D02*
X684024Y115953D01*
X684024Y110361D02*
X672336Y110361D01*
X672336Y115953D01*
X684024Y115953D01*
X684024Y112530D02*
X672336Y112530D01*
X672336Y114699D02*
X684024Y114699D01*
D14*
X958977Y170942D02*
X964311Y170942D01*
X964311Y159258D01*
X958977Y159258D01*
X958977Y170942D01*
X958977Y161430D02*
X964311Y161430D01*
X964311Y163602D02*
X958977Y163602D01*
X958977Y165774D02*
X964311Y165774D01*
X964311Y167946D02*
X958977Y167946D01*
X958977Y170118D02*
X964311Y170118D01*
X956183Y170942D02*
X950849Y170942D01*
X956183Y170942D02*
X956183Y159258D01*
X950849Y159258D01*
X950849Y170942D01*
X950849Y161430D02*
X956183Y161430D01*
X956183Y163602D02*
X950849Y163602D01*
X950849Y165774D02*
X956183Y165774D01*
X956183Y167946D02*
X950849Y167946D01*
X950849Y170118D02*
X956183Y170118D01*
D13*
X1028698Y399544D02*
X1034290Y399544D01*
X1034290Y387856D01*
X1028698Y387856D01*
X1028698Y399544D01*
X1028698Y390025D02*
X1034290Y390025D01*
X1034290Y392194D02*
X1028698Y392194D01*
X1028698Y394363D02*
X1034290Y394363D01*
X1034290Y396532D02*
X1028698Y396532D01*
X1028698Y398701D02*
X1034290Y398701D01*
X1023876Y399544D02*
X1018284Y399544D01*
X1023876Y399544D02*
X1023876Y387856D01*
X1018284Y387856D01*
X1018284Y399544D01*
X1018284Y390025D02*
X1023876Y390025D01*
X1023876Y392194D02*
X1018284Y392194D01*
X1018284Y394363D02*
X1023876Y394363D01*
X1023876Y396532D02*
X1018284Y396532D01*
X1018284Y398701D02*
X1023876Y398701D01*
X1013462Y399544D02*
X1007870Y399544D01*
X1013462Y399544D02*
X1013462Y387856D01*
X1007870Y387856D01*
X1007870Y399544D01*
X1007870Y390025D02*
X1013462Y390025D01*
X1013462Y392194D02*
X1007870Y392194D01*
X1007870Y394363D02*
X1013462Y394363D01*
X1013462Y396532D02*
X1007870Y396532D01*
X1007870Y398701D02*
X1013462Y398701D01*
D14*
X907288Y349631D02*
X907288Y344297D01*
X907288Y349631D02*
X918972Y349631D01*
X918972Y344297D01*
X907288Y344297D01*
X907288Y346469D02*
X918972Y346469D01*
X918972Y348641D02*
X907288Y348641D01*
X907288Y341503D02*
X907288Y336169D01*
X907288Y341503D02*
X918972Y341503D01*
X918972Y336169D01*
X907288Y336169D01*
X907288Y338341D02*
X918972Y338341D01*
X918972Y340513D02*
X907288Y340513D01*
D13*
X1028698Y424944D02*
X1034290Y424944D01*
X1034290Y413256D01*
X1028698Y413256D01*
X1028698Y424944D01*
X1028698Y415425D02*
X1034290Y415425D01*
X1034290Y417594D02*
X1028698Y417594D01*
X1028698Y419763D02*
X1034290Y419763D01*
X1034290Y421932D02*
X1028698Y421932D01*
X1028698Y424101D02*
X1034290Y424101D01*
X1023876Y424944D02*
X1018284Y424944D01*
X1023876Y424944D02*
X1023876Y413256D01*
X1018284Y413256D01*
X1018284Y424944D01*
X1018284Y415425D02*
X1023876Y415425D01*
X1023876Y417594D02*
X1018284Y417594D01*
X1018284Y419763D02*
X1023876Y419763D01*
X1023876Y421932D02*
X1018284Y421932D01*
X1018284Y424101D02*
X1023876Y424101D01*
X1013462Y424944D02*
X1007870Y424944D01*
X1013462Y424944D02*
X1013462Y413256D01*
X1007870Y413256D01*
X1007870Y424944D01*
X1007870Y415425D02*
X1013462Y415425D01*
X1013462Y417594D02*
X1007870Y417594D01*
X1007870Y419763D02*
X1013462Y419763D01*
X1013462Y421932D02*
X1007870Y421932D01*
X1007870Y424101D02*
X1013462Y424101D01*
X1028698Y450344D02*
X1034290Y450344D01*
X1034290Y438656D01*
X1028698Y438656D01*
X1028698Y450344D01*
X1028698Y440825D02*
X1034290Y440825D01*
X1034290Y442994D02*
X1028698Y442994D01*
X1028698Y445163D02*
X1034290Y445163D01*
X1034290Y447332D02*
X1028698Y447332D01*
X1028698Y449501D02*
X1034290Y449501D01*
X1023876Y450344D02*
X1018284Y450344D01*
X1023876Y450344D02*
X1023876Y438656D01*
X1018284Y438656D01*
X1018284Y450344D01*
X1018284Y440825D02*
X1023876Y440825D01*
X1023876Y442994D02*
X1018284Y442994D01*
X1018284Y445163D02*
X1023876Y445163D01*
X1023876Y447332D02*
X1018284Y447332D01*
X1018284Y449501D02*
X1023876Y449501D01*
X1013462Y450344D02*
X1007870Y450344D01*
X1013462Y450344D02*
X1013462Y438656D01*
X1007870Y438656D01*
X1007870Y450344D01*
X1007870Y440825D02*
X1013462Y440825D01*
X1013462Y442994D02*
X1007870Y442994D01*
X1007870Y445163D02*
X1013462Y445163D01*
X1013462Y447332D02*
X1007870Y447332D01*
X1007870Y449501D02*
X1013462Y449501D01*
X1028698Y475744D02*
X1034290Y475744D01*
X1034290Y464056D01*
X1028698Y464056D01*
X1028698Y475744D01*
X1028698Y466225D02*
X1034290Y466225D01*
X1034290Y468394D02*
X1028698Y468394D01*
X1028698Y470563D02*
X1034290Y470563D01*
X1034290Y472732D02*
X1028698Y472732D01*
X1028698Y474901D02*
X1034290Y474901D01*
X1023876Y475744D02*
X1018284Y475744D01*
X1023876Y475744D02*
X1023876Y464056D01*
X1018284Y464056D01*
X1018284Y475744D01*
X1018284Y466225D02*
X1023876Y466225D01*
X1023876Y468394D02*
X1018284Y468394D01*
X1018284Y470563D02*
X1023876Y470563D01*
X1023876Y472732D02*
X1018284Y472732D01*
X1018284Y474901D02*
X1023876Y474901D01*
X1013462Y475744D02*
X1007870Y475744D01*
X1013462Y475744D02*
X1013462Y464056D01*
X1007870Y464056D01*
X1007870Y475744D01*
X1007870Y466225D02*
X1013462Y466225D01*
X1013462Y468394D02*
X1007870Y468394D01*
X1007870Y470563D02*
X1013462Y470563D01*
X1013462Y472732D02*
X1007870Y472732D01*
X1007870Y474901D02*
X1013462Y474901D01*
X800483Y183644D02*
X794891Y183644D01*
X800483Y183644D02*
X800483Y171956D01*
X794891Y171956D01*
X794891Y183644D01*
X794891Y174125D02*
X800483Y174125D01*
X800483Y176294D02*
X794891Y176294D01*
X794891Y178463D02*
X800483Y178463D01*
X800483Y180632D02*
X794891Y180632D01*
X794891Y182801D02*
X800483Y182801D01*
X790069Y183644D02*
X784477Y183644D01*
X790069Y183644D02*
X790069Y171956D01*
X784477Y171956D01*
X784477Y183644D01*
X784477Y174125D02*
X790069Y174125D01*
X790069Y176294D02*
X784477Y176294D01*
X784477Y178463D02*
X790069Y178463D01*
X790069Y180632D02*
X784477Y180632D01*
X784477Y182801D02*
X790069Y182801D01*
X1028698Y501144D02*
X1034290Y501144D01*
X1034290Y489456D01*
X1028698Y489456D01*
X1028698Y501144D01*
X1028698Y491625D02*
X1034290Y491625D01*
X1034290Y493794D02*
X1028698Y493794D01*
X1028698Y495963D02*
X1034290Y495963D01*
X1034290Y498132D02*
X1028698Y498132D01*
X1028698Y500301D02*
X1034290Y500301D01*
X1023876Y501144D02*
X1018284Y501144D01*
X1023876Y501144D02*
X1023876Y489456D01*
X1018284Y489456D01*
X1018284Y501144D01*
X1018284Y491625D02*
X1023876Y491625D01*
X1023876Y493794D02*
X1018284Y493794D01*
X1018284Y495963D02*
X1023876Y495963D01*
X1023876Y498132D02*
X1018284Y498132D01*
X1018284Y500301D02*
X1023876Y500301D01*
X1013462Y501144D02*
X1007870Y501144D01*
X1013462Y501144D02*
X1013462Y489456D01*
X1007870Y489456D01*
X1007870Y501144D01*
X1007870Y491625D02*
X1013462Y491625D01*
X1013462Y493794D02*
X1007870Y493794D01*
X1007870Y495963D02*
X1013462Y495963D01*
X1013462Y498132D02*
X1007870Y498132D01*
X1007870Y500301D02*
X1013462Y500301D01*
D15*
X1160780Y406400D03*
X1160780Y431800D03*
X836930Y114300D03*
X824230Y88900D03*
X811530Y114300D03*
X786130Y114300D03*
X760730Y114300D03*
X798830Y88900D03*
X773430Y88900D03*
D16*
X748030Y88900D03*
D17*
X735330Y25400D03*
X849630Y25400D03*
D15*
X1002030Y114300D03*
X989330Y88900D03*
X976630Y114300D03*
X951230Y114300D03*
X925830Y114300D03*
X963930Y88900D03*
X938530Y88900D03*
D16*
X913130Y88900D03*
D17*
X900430Y25400D03*
X1014730Y25400D03*
D15*
X1167130Y114300D03*
X1154430Y88900D03*
X1141730Y114300D03*
X1116330Y114300D03*
X1090930Y114300D03*
X1129030Y88900D03*
X1103630Y88900D03*
D16*
X1078230Y88900D03*
D17*
X1065530Y25400D03*
X1179830Y25400D03*
D15*
X1262380Y139700D03*
X1262380Y114300D03*
X1262380Y88900D03*
X1262380Y63500D03*
X1262380Y254000D03*
X1262380Y279400D03*
D18*
X957580Y241300D03*
D10*
X609600Y744220D03*
X25400Y744220D03*
X25400Y1328420D03*
X609600Y1328420D03*
D11*
X25400Y769620D03*
X609600Y1303020D03*
D12*
X566900Y1210620D03*
X566900Y1268420D03*
D13*
X620901Y1245364D02*
X626493Y1245364D01*
X626493Y1233676D01*
X620901Y1233676D01*
X620901Y1245364D01*
X620901Y1235845D02*
X626493Y1235845D01*
X626493Y1238014D02*
X620901Y1238014D01*
X620901Y1240183D02*
X626493Y1240183D01*
X626493Y1242352D02*
X620901Y1242352D01*
X620901Y1244521D02*
X626493Y1244521D01*
X616079Y1245364D02*
X610487Y1245364D01*
X616079Y1245364D02*
X616079Y1233676D01*
X610487Y1233676D01*
X610487Y1245364D01*
X610487Y1235845D02*
X616079Y1235845D01*
X616079Y1238014D02*
X610487Y1238014D01*
X610487Y1240183D02*
X616079Y1240183D01*
X616079Y1242352D02*
X610487Y1242352D01*
X610487Y1244521D02*
X616079Y1244521D01*
D14*
X541147Y1042162D02*
X535813Y1042162D01*
X541147Y1042162D02*
X541147Y1030478D01*
X535813Y1030478D01*
X535813Y1042162D01*
X535813Y1032650D02*
X541147Y1032650D01*
X541147Y1034822D02*
X535813Y1034822D01*
X535813Y1036994D02*
X541147Y1036994D01*
X541147Y1039166D02*
X535813Y1039166D01*
X535813Y1041338D02*
X541147Y1041338D01*
X530987Y1042162D02*
X525653Y1042162D01*
X530987Y1042162D02*
X530987Y1030478D01*
X525653Y1030478D01*
X525653Y1042162D01*
X525653Y1032650D02*
X530987Y1032650D01*
X530987Y1034822D02*
X525653Y1034822D01*
X525653Y1036994D02*
X530987Y1036994D01*
X530987Y1039166D02*
X525653Y1039166D01*
X525653Y1041338D02*
X530987Y1041338D01*
D15*
X546100Y1036320D03*
X520700Y1036320D03*
D13*
X588897Y1030476D02*
X594489Y1030476D01*
X588897Y1030476D02*
X588897Y1042164D01*
X594489Y1042164D01*
X594489Y1030476D01*
X594489Y1032645D02*
X588897Y1032645D01*
X588897Y1034814D02*
X594489Y1034814D01*
X594489Y1036983D02*
X588897Y1036983D01*
X588897Y1039152D02*
X594489Y1039152D01*
X594489Y1041321D02*
X588897Y1041321D01*
X599311Y1030476D02*
X604903Y1030476D01*
X599311Y1030476D02*
X599311Y1042164D01*
X604903Y1042164D01*
X604903Y1030476D01*
X604903Y1032645D02*
X599311Y1032645D01*
X599311Y1034814D02*
X604903Y1034814D01*
X604903Y1036983D02*
X599311Y1036983D01*
X599311Y1039152D02*
X604903Y1039152D01*
X604903Y1041321D02*
X599311Y1041321D01*
X450344Y1033909D02*
X450344Y1028317D01*
X438656Y1028317D01*
X438656Y1033909D01*
X450344Y1033909D01*
X450344Y1030486D02*
X438656Y1030486D01*
X438656Y1032655D02*
X450344Y1032655D01*
X450344Y1038731D02*
X450344Y1044323D01*
X450344Y1038731D02*
X438656Y1038731D01*
X438656Y1044323D01*
X450344Y1044323D01*
X450344Y1040900D02*
X438656Y1040900D01*
X438656Y1043069D02*
X450344Y1043069D01*
X532890Y865376D02*
X538482Y865376D01*
X532890Y865376D02*
X532890Y877064D01*
X538482Y877064D01*
X538482Y865376D01*
X538482Y867545D02*
X532890Y867545D01*
X532890Y869714D02*
X538482Y869714D01*
X538482Y871883D02*
X532890Y871883D01*
X532890Y874052D02*
X538482Y874052D01*
X538482Y876221D02*
X532890Y876221D01*
X543304Y865376D02*
X548896Y865376D01*
X543304Y865376D02*
X543304Y877064D01*
X548896Y877064D01*
X548896Y865376D01*
X548896Y867545D02*
X543304Y867545D01*
X543304Y869714D02*
X548896Y869714D01*
X548896Y871883D02*
X543304Y871883D01*
X543304Y874052D02*
X548896Y874052D01*
X548896Y876221D02*
X543304Y876221D01*
X553718Y865376D02*
X559310Y865376D01*
X553718Y865376D02*
X553718Y877064D01*
X559310Y877064D01*
X559310Y865376D01*
X559310Y867545D02*
X553718Y867545D01*
X553718Y869714D02*
X559310Y869714D01*
X559310Y871883D02*
X553718Y871883D01*
X553718Y874052D02*
X559310Y874052D01*
X559310Y876221D02*
X553718Y876221D01*
X43944Y824359D02*
X43944Y818767D01*
X32256Y818767D01*
X32256Y824359D01*
X43944Y824359D01*
X43944Y820936D02*
X32256Y820936D01*
X32256Y823105D02*
X43944Y823105D01*
X43944Y829181D02*
X43944Y834773D01*
X43944Y829181D02*
X32256Y829181D01*
X32256Y834773D01*
X43944Y834773D01*
X43944Y831350D02*
X32256Y831350D01*
X32256Y833519D02*
X43944Y833519D01*
D14*
X318897Y889762D02*
X324231Y889762D01*
X324231Y878078D01*
X318897Y878078D01*
X318897Y889762D01*
X318897Y880250D02*
X324231Y880250D01*
X324231Y882422D02*
X318897Y882422D01*
X318897Y884594D02*
X324231Y884594D01*
X324231Y886766D02*
X318897Y886766D01*
X318897Y888938D02*
X324231Y888938D01*
X316103Y889762D02*
X310769Y889762D01*
X316103Y889762D02*
X316103Y878078D01*
X310769Y878078D01*
X310769Y889762D01*
X310769Y880250D02*
X316103Y880250D01*
X316103Y882422D02*
X310769Y882422D01*
X310769Y884594D02*
X316103Y884594D01*
X316103Y886766D02*
X310769Y886766D01*
X310769Y888938D02*
X316103Y888938D01*
D13*
X388618Y1118364D02*
X394210Y1118364D01*
X394210Y1106676D01*
X388618Y1106676D01*
X388618Y1118364D01*
X388618Y1108845D02*
X394210Y1108845D01*
X394210Y1111014D02*
X388618Y1111014D01*
X388618Y1113183D02*
X394210Y1113183D01*
X394210Y1115352D02*
X388618Y1115352D01*
X388618Y1117521D02*
X394210Y1117521D01*
X383796Y1118364D02*
X378204Y1118364D01*
X383796Y1118364D02*
X383796Y1106676D01*
X378204Y1106676D01*
X378204Y1118364D01*
X378204Y1108845D02*
X383796Y1108845D01*
X383796Y1111014D02*
X378204Y1111014D01*
X378204Y1113183D02*
X383796Y1113183D01*
X383796Y1115352D02*
X378204Y1115352D01*
X378204Y1117521D02*
X383796Y1117521D01*
X373382Y1118364D02*
X367790Y1118364D01*
X373382Y1118364D02*
X373382Y1106676D01*
X367790Y1106676D01*
X367790Y1118364D01*
X367790Y1108845D02*
X373382Y1108845D01*
X373382Y1111014D02*
X367790Y1111014D01*
X367790Y1113183D02*
X373382Y1113183D01*
X373382Y1115352D02*
X367790Y1115352D01*
X367790Y1117521D02*
X373382Y1117521D01*
D14*
X267208Y1068451D02*
X267208Y1063117D01*
X267208Y1068451D02*
X278892Y1068451D01*
X278892Y1063117D01*
X267208Y1063117D01*
X267208Y1065289D02*
X278892Y1065289D01*
X278892Y1067461D02*
X267208Y1067461D01*
X267208Y1060323D02*
X267208Y1054989D01*
X267208Y1060323D02*
X278892Y1060323D01*
X278892Y1054989D01*
X267208Y1054989D01*
X267208Y1057161D02*
X278892Y1057161D01*
X278892Y1059333D02*
X267208Y1059333D01*
D13*
X388618Y1143764D02*
X394210Y1143764D01*
X394210Y1132076D01*
X388618Y1132076D01*
X388618Y1143764D01*
X388618Y1134245D02*
X394210Y1134245D01*
X394210Y1136414D02*
X388618Y1136414D01*
X388618Y1138583D02*
X394210Y1138583D01*
X394210Y1140752D02*
X388618Y1140752D01*
X388618Y1142921D02*
X394210Y1142921D01*
X383796Y1143764D02*
X378204Y1143764D01*
X383796Y1143764D02*
X383796Y1132076D01*
X378204Y1132076D01*
X378204Y1143764D01*
X378204Y1134245D02*
X383796Y1134245D01*
X383796Y1136414D02*
X378204Y1136414D01*
X378204Y1138583D02*
X383796Y1138583D01*
X383796Y1140752D02*
X378204Y1140752D01*
X378204Y1142921D02*
X383796Y1142921D01*
X373382Y1143764D02*
X367790Y1143764D01*
X373382Y1143764D02*
X373382Y1132076D01*
X367790Y1132076D01*
X367790Y1143764D01*
X367790Y1134245D02*
X373382Y1134245D01*
X373382Y1136414D02*
X367790Y1136414D01*
X367790Y1138583D02*
X373382Y1138583D01*
X373382Y1140752D02*
X367790Y1140752D01*
X367790Y1142921D02*
X373382Y1142921D01*
X388618Y1169164D02*
X394210Y1169164D01*
X394210Y1157476D01*
X388618Y1157476D01*
X388618Y1169164D01*
X388618Y1159645D02*
X394210Y1159645D01*
X394210Y1161814D02*
X388618Y1161814D01*
X388618Y1163983D02*
X394210Y1163983D01*
X394210Y1166152D02*
X388618Y1166152D01*
X388618Y1168321D02*
X394210Y1168321D01*
X383796Y1169164D02*
X378204Y1169164D01*
X383796Y1169164D02*
X383796Y1157476D01*
X378204Y1157476D01*
X378204Y1169164D01*
X378204Y1159645D02*
X383796Y1159645D01*
X383796Y1161814D02*
X378204Y1161814D01*
X378204Y1163983D02*
X383796Y1163983D01*
X383796Y1166152D02*
X378204Y1166152D01*
X378204Y1168321D02*
X383796Y1168321D01*
X373382Y1169164D02*
X367790Y1169164D01*
X373382Y1169164D02*
X373382Y1157476D01*
X367790Y1157476D01*
X367790Y1169164D01*
X367790Y1159645D02*
X373382Y1159645D01*
X373382Y1161814D02*
X367790Y1161814D01*
X367790Y1163983D02*
X373382Y1163983D01*
X373382Y1166152D02*
X367790Y1166152D01*
X367790Y1168321D02*
X373382Y1168321D01*
X388618Y1194564D02*
X394210Y1194564D01*
X394210Y1182876D01*
X388618Y1182876D01*
X388618Y1194564D01*
X388618Y1185045D02*
X394210Y1185045D01*
X394210Y1187214D02*
X388618Y1187214D01*
X388618Y1189383D02*
X394210Y1189383D01*
X394210Y1191552D02*
X388618Y1191552D01*
X388618Y1193721D02*
X394210Y1193721D01*
X383796Y1194564D02*
X378204Y1194564D01*
X383796Y1194564D02*
X383796Y1182876D01*
X378204Y1182876D01*
X378204Y1194564D01*
X378204Y1185045D02*
X383796Y1185045D01*
X383796Y1187214D02*
X378204Y1187214D01*
X378204Y1189383D02*
X383796Y1189383D01*
X383796Y1191552D02*
X378204Y1191552D01*
X378204Y1193721D02*
X383796Y1193721D01*
X373382Y1194564D02*
X367790Y1194564D01*
X373382Y1194564D02*
X373382Y1182876D01*
X367790Y1182876D01*
X367790Y1194564D01*
X367790Y1185045D02*
X373382Y1185045D01*
X373382Y1187214D02*
X367790Y1187214D01*
X367790Y1189383D02*
X373382Y1189383D01*
X373382Y1191552D02*
X367790Y1191552D01*
X367790Y1193721D02*
X373382Y1193721D01*
X160403Y902464D02*
X154811Y902464D01*
X160403Y902464D02*
X160403Y890776D01*
X154811Y890776D01*
X154811Y902464D01*
X154811Y892945D02*
X160403Y892945D01*
X160403Y895114D02*
X154811Y895114D01*
X154811Y897283D02*
X160403Y897283D01*
X160403Y899452D02*
X154811Y899452D01*
X154811Y901621D02*
X160403Y901621D01*
X149989Y902464D02*
X144397Y902464D01*
X149989Y902464D02*
X149989Y890776D01*
X144397Y890776D01*
X144397Y902464D01*
X144397Y892945D02*
X149989Y892945D01*
X149989Y895114D02*
X144397Y895114D01*
X144397Y897283D02*
X149989Y897283D01*
X149989Y899452D02*
X144397Y899452D01*
X144397Y901621D02*
X149989Y901621D01*
X388618Y1219964D02*
X394210Y1219964D01*
X394210Y1208276D01*
X388618Y1208276D01*
X388618Y1219964D01*
X388618Y1210445D02*
X394210Y1210445D01*
X394210Y1212614D02*
X388618Y1212614D01*
X388618Y1214783D02*
X394210Y1214783D01*
X394210Y1216952D02*
X388618Y1216952D01*
X388618Y1219121D02*
X394210Y1219121D01*
X383796Y1219964D02*
X378204Y1219964D01*
X383796Y1219964D02*
X383796Y1208276D01*
X378204Y1208276D01*
X378204Y1219964D01*
X378204Y1210445D02*
X383796Y1210445D01*
X383796Y1212614D02*
X378204Y1212614D01*
X378204Y1214783D02*
X383796Y1214783D01*
X383796Y1216952D02*
X378204Y1216952D01*
X378204Y1219121D02*
X383796Y1219121D01*
X373382Y1219964D02*
X367790Y1219964D01*
X373382Y1219964D02*
X373382Y1208276D01*
X367790Y1208276D01*
X367790Y1219964D01*
X367790Y1210445D02*
X373382Y1210445D01*
X373382Y1212614D02*
X367790Y1212614D01*
X367790Y1214783D02*
X373382Y1214783D01*
X373382Y1216952D02*
X367790Y1216952D01*
X367790Y1219121D02*
X373382Y1219121D01*
D15*
X520700Y1125220D03*
X520700Y1150620D03*
X196850Y833120D03*
X184150Y807720D03*
X171450Y833120D03*
X146050Y833120D03*
X120650Y833120D03*
X158750Y807720D03*
X133350Y807720D03*
D16*
X107950Y807720D03*
D17*
X95250Y744220D03*
X209550Y744220D03*
D15*
X361950Y833120D03*
X349250Y807720D03*
X336550Y833120D03*
X311150Y833120D03*
X285750Y833120D03*
X323850Y807720D03*
X298450Y807720D03*
D16*
X273050Y807720D03*
D17*
X260350Y744220D03*
X374650Y744220D03*
D15*
X527050Y833120D03*
X514350Y807720D03*
X501650Y833120D03*
X476250Y833120D03*
X450850Y833120D03*
X488950Y807720D03*
X463550Y807720D03*
D16*
X438150Y807720D03*
D17*
X425450Y744220D03*
X539750Y744220D03*
D15*
X622300Y858520D03*
X622300Y833120D03*
X622300Y807720D03*
X622300Y782320D03*
X622300Y972820D03*
X622300Y998220D03*
D18*
X317500Y960120D03*
D10*
X1249680Y744220D03*
X665480Y744220D03*
X665480Y1328420D03*
X1249680Y1328420D03*
D11*
X665480Y769620D03*
X1249680Y1303020D03*
D12*
X1206980Y1210620D03*
X1206980Y1268420D03*
D13*
X1260981Y1245364D02*
X1266573Y1245364D01*
X1266573Y1233676D01*
X1260981Y1233676D01*
X1260981Y1245364D01*
X1260981Y1235845D02*
X1266573Y1235845D01*
X1266573Y1238014D02*
X1260981Y1238014D01*
X1260981Y1240183D02*
X1266573Y1240183D01*
X1266573Y1242352D02*
X1260981Y1242352D01*
X1260981Y1244521D02*
X1266573Y1244521D01*
X1256159Y1245364D02*
X1250567Y1245364D01*
X1256159Y1245364D02*
X1256159Y1233676D01*
X1250567Y1233676D01*
X1250567Y1245364D01*
X1250567Y1235845D02*
X1256159Y1235845D01*
X1256159Y1238014D02*
X1250567Y1238014D01*
X1250567Y1240183D02*
X1256159Y1240183D01*
X1256159Y1242352D02*
X1250567Y1242352D01*
X1250567Y1244521D02*
X1256159Y1244521D01*
D14*
X1181227Y1042162D02*
X1175893Y1042162D01*
X1181227Y1042162D02*
X1181227Y1030478D01*
X1175893Y1030478D01*
X1175893Y1042162D01*
X1175893Y1032650D02*
X1181227Y1032650D01*
X1181227Y1034822D02*
X1175893Y1034822D01*
X1175893Y1036994D02*
X1181227Y1036994D01*
X1181227Y1039166D02*
X1175893Y1039166D01*
X1175893Y1041338D02*
X1181227Y1041338D01*
X1171067Y1042162D02*
X1165733Y1042162D01*
X1171067Y1042162D02*
X1171067Y1030478D01*
X1165733Y1030478D01*
X1165733Y1042162D01*
X1165733Y1032650D02*
X1171067Y1032650D01*
X1171067Y1034822D02*
X1165733Y1034822D01*
X1165733Y1036994D02*
X1171067Y1036994D01*
X1171067Y1039166D02*
X1165733Y1039166D01*
X1165733Y1041338D02*
X1171067Y1041338D01*
D15*
X1186180Y1036320D03*
X1160780Y1036320D03*
D13*
X1228977Y1030476D02*
X1234569Y1030476D01*
X1228977Y1030476D02*
X1228977Y1042164D01*
X1234569Y1042164D01*
X1234569Y1030476D01*
X1234569Y1032645D02*
X1228977Y1032645D01*
X1228977Y1034814D02*
X1234569Y1034814D01*
X1234569Y1036983D02*
X1228977Y1036983D01*
X1228977Y1039152D02*
X1234569Y1039152D01*
X1234569Y1041321D02*
X1228977Y1041321D01*
X1239391Y1030476D02*
X1244983Y1030476D01*
X1239391Y1030476D02*
X1239391Y1042164D01*
X1244983Y1042164D01*
X1244983Y1030476D01*
X1244983Y1032645D02*
X1239391Y1032645D01*
X1239391Y1034814D02*
X1244983Y1034814D01*
X1244983Y1036983D02*
X1239391Y1036983D01*
X1239391Y1039152D02*
X1244983Y1039152D01*
X1244983Y1041321D02*
X1239391Y1041321D01*
X1090424Y1033909D02*
X1090424Y1028317D01*
X1078736Y1028317D01*
X1078736Y1033909D01*
X1090424Y1033909D01*
X1090424Y1030486D02*
X1078736Y1030486D01*
X1078736Y1032655D02*
X1090424Y1032655D01*
X1090424Y1038731D02*
X1090424Y1044323D01*
X1090424Y1038731D02*
X1078736Y1038731D01*
X1078736Y1044323D01*
X1090424Y1044323D01*
X1090424Y1040900D02*
X1078736Y1040900D01*
X1078736Y1043069D02*
X1090424Y1043069D01*
X1172970Y865376D02*
X1178562Y865376D01*
X1172970Y865376D02*
X1172970Y877064D01*
X1178562Y877064D01*
X1178562Y865376D01*
X1178562Y867545D02*
X1172970Y867545D01*
X1172970Y869714D02*
X1178562Y869714D01*
X1178562Y871883D02*
X1172970Y871883D01*
X1172970Y874052D02*
X1178562Y874052D01*
X1178562Y876221D02*
X1172970Y876221D01*
X1183384Y865376D02*
X1188976Y865376D01*
X1183384Y865376D02*
X1183384Y877064D01*
X1188976Y877064D01*
X1188976Y865376D01*
X1188976Y867545D02*
X1183384Y867545D01*
X1183384Y869714D02*
X1188976Y869714D01*
X1188976Y871883D02*
X1183384Y871883D01*
X1183384Y874052D02*
X1188976Y874052D01*
X1188976Y876221D02*
X1183384Y876221D01*
X1193798Y865376D02*
X1199390Y865376D01*
X1193798Y865376D02*
X1193798Y877064D01*
X1199390Y877064D01*
X1199390Y865376D01*
X1199390Y867545D02*
X1193798Y867545D01*
X1193798Y869714D02*
X1199390Y869714D01*
X1199390Y871883D02*
X1193798Y871883D01*
X1193798Y874052D02*
X1199390Y874052D01*
X1199390Y876221D02*
X1193798Y876221D01*
X684024Y824359D02*
X684024Y818767D01*
X672336Y818767D01*
X672336Y824359D01*
X684024Y824359D01*
X684024Y820936D02*
X672336Y820936D01*
X672336Y823105D02*
X684024Y823105D01*
X684024Y829181D02*
X684024Y834773D01*
X684024Y829181D02*
X672336Y829181D01*
X672336Y834773D01*
X684024Y834773D01*
X684024Y831350D02*
X672336Y831350D01*
X672336Y833519D02*
X684024Y833519D01*
D14*
X958977Y889762D02*
X964311Y889762D01*
X964311Y878078D01*
X958977Y878078D01*
X958977Y889762D01*
X958977Y880250D02*
X964311Y880250D01*
X964311Y882422D02*
X958977Y882422D01*
X958977Y884594D02*
X964311Y884594D01*
X964311Y886766D02*
X958977Y886766D01*
X958977Y888938D02*
X964311Y888938D01*
X956183Y889762D02*
X950849Y889762D01*
X956183Y889762D02*
X956183Y878078D01*
X950849Y878078D01*
X950849Y889762D01*
X950849Y880250D02*
X956183Y880250D01*
X956183Y882422D02*
X950849Y882422D01*
X950849Y884594D02*
X956183Y884594D01*
X956183Y886766D02*
X950849Y886766D01*
X950849Y888938D02*
X956183Y888938D01*
D13*
X1028698Y1118364D02*
X1034290Y1118364D01*
X1034290Y1106676D01*
X1028698Y1106676D01*
X1028698Y1118364D01*
X1028698Y1108845D02*
X1034290Y1108845D01*
X1034290Y1111014D02*
X1028698Y1111014D01*
X1028698Y1113183D02*
X1034290Y1113183D01*
X1034290Y1115352D02*
X1028698Y1115352D01*
X1028698Y1117521D02*
X1034290Y1117521D01*
X1023876Y1118364D02*
X1018284Y1118364D01*
X1023876Y1118364D02*
X1023876Y1106676D01*
X1018284Y1106676D01*
X1018284Y1118364D01*
X1018284Y1108845D02*
X1023876Y1108845D01*
X1023876Y1111014D02*
X1018284Y1111014D01*
X1018284Y1113183D02*
X1023876Y1113183D01*
X1023876Y1115352D02*
X1018284Y1115352D01*
X1018284Y1117521D02*
X1023876Y1117521D01*
X1013462Y1118364D02*
X1007870Y1118364D01*
X1013462Y1118364D02*
X1013462Y1106676D01*
X1007870Y1106676D01*
X1007870Y1118364D01*
X1007870Y1108845D02*
X1013462Y1108845D01*
X1013462Y1111014D02*
X1007870Y1111014D01*
X1007870Y1113183D02*
X1013462Y1113183D01*
X1013462Y1115352D02*
X1007870Y1115352D01*
X1007870Y1117521D02*
X1013462Y1117521D01*
D14*
X907288Y1068451D02*
X907288Y1063117D01*
X907288Y1068451D02*
X918972Y1068451D01*
X918972Y1063117D01*
X907288Y1063117D01*
X907288Y1065289D02*
X918972Y1065289D01*
X918972Y1067461D02*
X907288Y1067461D01*
X907288Y1060323D02*
X907288Y1054989D01*
X907288Y1060323D02*
X918972Y1060323D01*
X918972Y1054989D01*
X907288Y1054989D01*
X907288Y1057161D02*
X918972Y1057161D01*
X918972Y1059333D02*
X907288Y1059333D01*
D13*
X1028698Y1143764D02*
X1034290Y1143764D01*
X1034290Y1132076D01*
X1028698Y1132076D01*
X1028698Y1143764D01*
X1028698Y1134245D02*
X1034290Y1134245D01*
X1034290Y1136414D02*
X1028698Y1136414D01*
X1028698Y1138583D02*
X1034290Y1138583D01*
X1034290Y1140752D02*
X1028698Y1140752D01*
X1028698Y1142921D02*
X1034290Y1142921D01*
X1023876Y1143764D02*
X1018284Y1143764D01*
X1023876Y1143764D02*
X1023876Y1132076D01*
X1018284Y1132076D01*
X1018284Y1143764D01*
X1018284Y1134245D02*
X1023876Y1134245D01*
X1023876Y1136414D02*
X1018284Y1136414D01*
X1018284Y1138583D02*
X1023876Y1138583D01*
X1023876Y1140752D02*
X1018284Y1140752D01*
X1018284Y1142921D02*
X1023876Y1142921D01*
X1013462Y1143764D02*
X1007870Y1143764D01*
X1013462Y1143764D02*
X1013462Y1132076D01*
X1007870Y1132076D01*
X1007870Y1143764D01*
X1007870Y1134245D02*
X1013462Y1134245D01*
X1013462Y1136414D02*
X1007870Y1136414D01*
X1007870Y1138583D02*
X1013462Y1138583D01*
X1013462Y1140752D02*
X1007870Y1140752D01*
X1007870Y1142921D02*
X1013462Y1142921D01*
X1028698Y1169164D02*
X1034290Y1169164D01*
X1034290Y1157476D01*
X1028698Y1157476D01*
X1028698Y1169164D01*
X1028698Y1159645D02*
X1034290Y1159645D01*
X1034290Y1161814D02*
X1028698Y1161814D01*
X1028698Y1163983D02*
X1034290Y1163983D01*
X1034290Y1166152D02*
X1028698Y1166152D01*
X1028698Y1168321D02*
X1034290Y1168321D01*
X1023876Y1169164D02*
X1018284Y1169164D01*
X1023876Y1169164D02*
X1023876Y1157476D01*
X1018284Y1157476D01*
X1018284Y1169164D01*
X1018284Y1159645D02*
X1023876Y1159645D01*
X1023876Y1161814D02*
X1018284Y1161814D01*
X1018284Y1163983D02*
X1023876Y1163983D01*
X1023876Y1166152D02*
X1018284Y1166152D01*
X1018284Y1168321D02*
X1023876Y1168321D01*
X1013462Y1169164D02*
X1007870Y1169164D01*
X1013462Y1169164D02*
X1013462Y1157476D01*
X1007870Y1157476D01*
X1007870Y1169164D01*
X1007870Y1159645D02*
X1013462Y1159645D01*
X1013462Y1161814D02*
X1007870Y1161814D01*
X1007870Y1163983D02*
X1013462Y1163983D01*
X1013462Y1166152D02*
X1007870Y1166152D01*
X1007870Y1168321D02*
X1013462Y1168321D01*
X1028698Y1194564D02*
X1034290Y1194564D01*
X1034290Y1182876D01*
X1028698Y1182876D01*
X1028698Y1194564D01*
X1028698Y1185045D02*
X1034290Y1185045D01*
X1034290Y1187214D02*
X1028698Y1187214D01*
X1028698Y1189383D02*
X1034290Y1189383D01*
X1034290Y1191552D02*
X1028698Y1191552D01*
X1028698Y1193721D02*
X1034290Y1193721D01*
X1023876Y1194564D02*
X1018284Y1194564D01*
X1023876Y1194564D02*
X1023876Y1182876D01*
X1018284Y1182876D01*
X1018284Y1194564D01*
X1018284Y1185045D02*
X1023876Y1185045D01*
X1023876Y1187214D02*
X1018284Y1187214D01*
X1018284Y1189383D02*
X1023876Y1189383D01*
X1023876Y1191552D02*
X1018284Y1191552D01*
X1018284Y1193721D02*
X1023876Y1193721D01*
X1013462Y1194564D02*
X1007870Y1194564D01*
X1013462Y1194564D02*
X1013462Y1182876D01*
X1007870Y1182876D01*
X1007870Y1194564D01*
X1007870Y1185045D02*
X1013462Y1185045D01*
X1013462Y1187214D02*
X1007870Y1187214D01*
X1007870Y1189383D02*
X1013462Y1189383D01*
X1013462Y1191552D02*
X1007870Y1191552D01*
X1007870Y1193721D02*
X1013462Y1193721D01*
X800483Y902464D02*
X794891Y902464D01*
X800483Y902464D02*
X800483Y890776D01*
X794891Y890776D01*
X794891Y902464D01*
X794891Y892945D02*
X800483Y892945D01*
X800483Y895114D02*
X794891Y895114D01*
X794891Y897283D02*
X800483Y897283D01*
X800483Y899452D02*
X794891Y899452D01*
X794891Y901621D02*
X800483Y901621D01*
X790069Y902464D02*
X784477Y902464D01*
X790069Y902464D02*
X790069Y890776D01*
X784477Y890776D01*
X784477Y902464D01*
X784477Y892945D02*
X790069Y892945D01*
X790069Y895114D02*
X784477Y895114D01*
X784477Y897283D02*
X790069Y897283D01*
X790069Y899452D02*
X784477Y899452D01*
X784477Y901621D02*
X790069Y901621D01*
X1028698Y1219964D02*
X1034290Y1219964D01*
X1034290Y1208276D01*
X1028698Y1208276D01*
X1028698Y1219964D01*
X1028698Y1210445D02*
X1034290Y1210445D01*
X1034290Y1212614D02*
X1028698Y1212614D01*
X1028698Y1214783D02*
X1034290Y1214783D01*
X1034290Y1216952D02*
X1028698Y1216952D01*
X1028698Y1219121D02*
X1034290Y1219121D01*
X1023876Y1219964D02*
X1018284Y1219964D01*
X1023876Y1219964D02*
X1023876Y1208276D01*
X1018284Y1208276D01*
X1018284Y1219964D01*
X1018284Y1210445D02*
X1023876Y1210445D01*
X1023876Y1212614D02*
X1018284Y1212614D01*
X1018284Y1214783D02*
X1023876Y1214783D01*
X1023876Y1216952D02*
X1018284Y1216952D01*
X1018284Y1219121D02*
X1023876Y1219121D01*
X1013462Y1219964D02*
X1007870Y1219964D01*
X1013462Y1219964D02*
X1013462Y1208276D01*
X1007870Y1208276D01*
X1007870Y1219964D01*
X1007870Y1210445D02*
X1013462Y1210445D01*
X1013462Y1212614D02*
X1007870Y1212614D01*
X1007870Y1214783D02*
X1013462Y1214783D01*
X1013462Y1216952D02*
X1007870Y1216952D01*
X1007870Y1219121D02*
X1013462Y1219121D01*
D15*
X1160780Y1125220D03*
X1160780Y1150620D03*
X836930Y833120D03*
X824230Y807720D03*
X811530Y833120D03*
X786130Y833120D03*
X760730Y833120D03*
X798830Y807720D03*
X773430Y807720D03*
D16*
X748030Y807720D03*
D17*
X735330Y744220D03*
X849630Y744220D03*
D15*
X1002030Y833120D03*
X989330Y807720D03*
X976630Y833120D03*
X951230Y833120D03*
X925830Y833120D03*
X963930Y807720D03*
X938530Y807720D03*
D16*
X913130Y807720D03*
D17*
X900430Y744220D03*
X1014730Y744220D03*
D15*
X1167130Y833120D03*
X1154430Y807720D03*
X1141730Y833120D03*
X1116330Y833120D03*
X1090930Y833120D03*
X1129030Y807720D03*
X1103630Y807720D03*
D16*
X1078230Y807720D03*
D17*
X1065530Y744220D03*
X1179830Y744220D03*
D15*
X1262380Y858520D03*
X1262380Y833120D03*
X1262380Y807720D03*
X1262380Y782320D03*
X1262380Y972820D03*
X1262380Y998220D03*
D18*
X957580Y960120D03*
D10*
X609600Y1463040D03*
X25400Y1463040D03*
X25400Y2047240D03*
X609600Y2047240D03*
D11*
X25400Y1488440D03*
X609600Y2021840D03*
D12*
X566900Y1929440D03*
X566900Y1987240D03*
D13*
X620901Y1964184D02*
X626493Y1964184D01*
X626493Y1952496D01*
X620901Y1952496D01*
X620901Y1964184D01*
X620901Y1954665D02*
X626493Y1954665D01*
X626493Y1956834D02*
X620901Y1956834D01*
X620901Y1959003D02*
X626493Y1959003D01*
X626493Y1961172D02*
X620901Y1961172D01*
X620901Y1963341D02*
X626493Y1963341D01*
X616079Y1964184D02*
X610487Y1964184D01*
X616079Y1964184D02*
X616079Y1952496D01*
X610487Y1952496D01*
X610487Y1964184D01*
X610487Y1954665D02*
X616079Y1954665D01*
X616079Y1956834D02*
X610487Y1956834D01*
X610487Y1959003D02*
X616079Y1959003D01*
X616079Y1961172D02*
X610487Y1961172D01*
X610487Y1963341D02*
X616079Y1963341D01*
D14*
X541147Y1760982D02*
X535813Y1760982D01*
X541147Y1760982D02*
X541147Y1749298D01*
X535813Y1749298D01*
X535813Y1760982D01*
X535813Y1751470D02*
X541147Y1751470D01*
X541147Y1753642D02*
X535813Y1753642D01*
X535813Y1755814D02*
X541147Y1755814D01*
X541147Y1757986D02*
X535813Y1757986D01*
X535813Y1760158D02*
X541147Y1760158D01*
X530987Y1760982D02*
X525653Y1760982D01*
X530987Y1760982D02*
X530987Y1749298D01*
X525653Y1749298D01*
X525653Y1760982D01*
X525653Y1751470D02*
X530987Y1751470D01*
X530987Y1753642D02*
X525653Y1753642D01*
X525653Y1755814D02*
X530987Y1755814D01*
X530987Y1757986D02*
X525653Y1757986D01*
X525653Y1760158D02*
X530987Y1760158D01*
D15*
X546100Y1755140D03*
X520700Y1755140D03*
D13*
X588897Y1749296D02*
X594489Y1749296D01*
X588897Y1749296D02*
X588897Y1760984D01*
X594489Y1760984D01*
X594489Y1749296D01*
X594489Y1751465D02*
X588897Y1751465D01*
X588897Y1753634D02*
X594489Y1753634D01*
X594489Y1755803D02*
X588897Y1755803D01*
X588897Y1757972D02*
X594489Y1757972D01*
X594489Y1760141D02*
X588897Y1760141D01*
X599311Y1749296D02*
X604903Y1749296D01*
X599311Y1749296D02*
X599311Y1760984D01*
X604903Y1760984D01*
X604903Y1749296D01*
X604903Y1751465D02*
X599311Y1751465D01*
X599311Y1753634D02*
X604903Y1753634D01*
X604903Y1755803D02*
X599311Y1755803D01*
X599311Y1757972D02*
X604903Y1757972D01*
X604903Y1760141D02*
X599311Y1760141D01*
X450344Y1752729D02*
X450344Y1747137D01*
X438656Y1747137D01*
X438656Y1752729D01*
X450344Y1752729D01*
X450344Y1749306D02*
X438656Y1749306D01*
X438656Y1751475D02*
X450344Y1751475D01*
X450344Y1757551D02*
X450344Y1763143D01*
X450344Y1757551D02*
X438656Y1757551D01*
X438656Y1763143D01*
X450344Y1763143D01*
X450344Y1759720D02*
X438656Y1759720D01*
X438656Y1761889D02*
X450344Y1761889D01*
X532890Y1584196D02*
X538482Y1584196D01*
X532890Y1584196D02*
X532890Y1595884D01*
X538482Y1595884D01*
X538482Y1584196D01*
X538482Y1586365D02*
X532890Y1586365D01*
X532890Y1588534D02*
X538482Y1588534D01*
X538482Y1590703D02*
X532890Y1590703D01*
X532890Y1592872D02*
X538482Y1592872D01*
X538482Y1595041D02*
X532890Y1595041D01*
X543304Y1584196D02*
X548896Y1584196D01*
X543304Y1584196D02*
X543304Y1595884D01*
X548896Y1595884D01*
X548896Y1584196D01*
X548896Y1586365D02*
X543304Y1586365D01*
X543304Y1588534D02*
X548896Y1588534D01*
X548896Y1590703D02*
X543304Y1590703D01*
X543304Y1592872D02*
X548896Y1592872D01*
X548896Y1595041D02*
X543304Y1595041D01*
X553718Y1584196D02*
X559310Y1584196D01*
X553718Y1584196D02*
X553718Y1595884D01*
X559310Y1595884D01*
X559310Y1584196D01*
X559310Y1586365D02*
X553718Y1586365D01*
X553718Y1588534D02*
X559310Y1588534D01*
X559310Y1590703D02*
X553718Y1590703D01*
X553718Y1592872D02*
X559310Y1592872D01*
X559310Y1595041D02*
X553718Y1595041D01*
X43944Y1543179D02*
X43944Y1537587D01*
X32256Y1537587D01*
X32256Y1543179D01*
X43944Y1543179D01*
X43944Y1539756D02*
X32256Y1539756D01*
X32256Y1541925D02*
X43944Y1541925D01*
X43944Y1548001D02*
X43944Y1553593D01*
X43944Y1548001D02*
X32256Y1548001D01*
X32256Y1553593D01*
X43944Y1553593D01*
X43944Y1550170D02*
X32256Y1550170D01*
X32256Y1552339D02*
X43944Y1552339D01*
D14*
X318897Y1608582D02*
X324231Y1608582D01*
X324231Y1596898D01*
X318897Y1596898D01*
X318897Y1608582D01*
X318897Y1599070D02*
X324231Y1599070D01*
X324231Y1601242D02*
X318897Y1601242D01*
X318897Y1603414D02*
X324231Y1603414D01*
X324231Y1605586D02*
X318897Y1605586D01*
X318897Y1607758D02*
X324231Y1607758D01*
X316103Y1608582D02*
X310769Y1608582D01*
X316103Y1608582D02*
X316103Y1596898D01*
X310769Y1596898D01*
X310769Y1608582D01*
X310769Y1599070D02*
X316103Y1599070D01*
X316103Y1601242D02*
X310769Y1601242D01*
X310769Y1603414D02*
X316103Y1603414D01*
X316103Y1605586D02*
X310769Y1605586D01*
X310769Y1607758D02*
X316103Y1607758D01*
D13*
X388618Y1837184D02*
X394210Y1837184D01*
X394210Y1825496D01*
X388618Y1825496D01*
X388618Y1837184D01*
X388618Y1827665D02*
X394210Y1827665D01*
X394210Y1829834D02*
X388618Y1829834D01*
X388618Y1832003D02*
X394210Y1832003D01*
X394210Y1834172D02*
X388618Y1834172D01*
X388618Y1836341D02*
X394210Y1836341D01*
X383796Y1837184D02*
X378204Y1837184D01*
X383796Y1837184D02*
X383796Y1825496D01*
X378204Y1825496D01*
X378204Y1837184D01*
X378204Y1827665D02*
X383796Y1827665D01*
X383796Y1829834D02*
X378204Y1829834D01*
X378204Y1832003D02*
X383796Y1832003D01*
X383796Y1834172D02*
X378204Y1834172D01*
X378204Y1836341D02*
X383796Y1836341D01*
X373382Y1837184D02*
X367790Y1837184D01*
X373382Y1837184D02*
X373382Y1825496D01*
X367790Y1825496D01*
X367790Y1837184D01*
X367790Y1827665D02*
X373382Y1827665D01*
X373382Y1829834D02*
X367790Y1829834D01*
X367790Y1832003D02*
X373382Y1832003D01*
X373382Y1834172D02*
X367790Y1834172D01*
X367790Y1836341D02*
X373382Y1836341D01*
D14*
X267208Y1787271D02*
X267208Y1781937D01*
X267208Y1787271D02*
X278892Y1787271D01*
X278892Y1781937D01*
X267208Y1781937D01*
X267208Y1784109D02*
X278892Y1784109D01*
X278892Y1786281D02*
X267208Y1786281D01*
X267208Y1779143D02*
X267208Y1773809D01*
X267208Y1779143D02*
X278892Y1779143D01*
X278892Y1773809D01*
X267208Y1773809D01*
X267208Y1775981D02*
X278892Y1775981D01*
X278892Y1778153D02*
X267208Y1778153D01*
D13*
X388618Y1862584D02*
X394210Y1862584D01*
X394210Y1850896D01*
X388618Y1850896D01*
X388618Y1862584D01*
X388618Y1853065D02*
X394210Y1853065D01*
X394210Y1855234D02*
X388618Y1855234D01*
X388618Y1857403D02*
X394210Y1857403D01*
X394210Y1859572D02*
X388618Y1859572D01*
X388618Y1861741D02*
X394210Y1861741D01*
X383796Y1862584D02*
X378204Y1862584D01*
X383796Y1862584D02*
X383796Y1850896D01*
X378204Y1850896D01*
X378204Y1862584D01*
X378204Y1853065D02*
X383796Y1853065D01*
X383796Y1855234D02*
X378204Y1855234D01*
X378204Y1857403D02*
X383796Y1857403D01*
X383796Y1859572D02*
X378204Y1859572D01*
X378204Y1861741D02*
X383796Y1861741D01*
X373382Y1862584D02*
X367790Y1862584D01*
X373382Y1862584D02*
X373382Y1850896D01*
X367790Y1850896D01*
X367790Y1862584D01*
X367790Y1853065D02*
X373382Y1853065D01*
X373382Y1855234D02*
X367790Y1855234D01*
X367790Y1857403D02*
X373382Y1857403D01*
X373382Y1859572D02*
X367790Y1859572D01*
X367790Y1861741D02*
X373382Y1861741D01*
X388618Y1887984D02*
X394210Y1887984D01*
X394210Y1876296D01*
X388618Y1876296D01*
X388618Y1887984D01*
X388618Y1878465D02*
X394210Y1878465D01*
X394210Y1880634D02*
X388618Y1880634D01*
X388618Y1882803D02*
X394210Y1882803D01*
X394210Y1884972D02*
X388618Y1884972D01*
X388618Y1887141D02*
X394210Y1887141D01*
X383796Y1887984D02*
X378204Y1887984D01*
X383796Y1887984D02*
X383796Y1876296D01*
X378204Y1876296D01*
X378204Y1887984D01*
X378204Y1878465D02*
X383796Y1878465D01*
X383796Y1880634D02*
X378204Y1880634D01*
X378204Y1882803D02*
X383796Y1882803D01*
X383796Y1884972D02*
X378204Y1884972D01*
X378204Y1887141D02*
X383796Y1887141D01*
X373382Y1887984D02*
X367790Y1887984D01*
X373382Y1887984D02*
X373382Y1876296D01*
X367790Y1876296D01*
X367790Y1887984D01*
X367790Y1878465D02*
X373382Y1878465D01*
X373382Y1880634D02*
X367790Y1880634D01*
X367790Y1882803D02*
X373382Y1882803D01*
X373382Y1884972D02*
X367790Y1884972D01*
X367790Y1887141D02*
X373382Y1887141D01*
X388618Y1913384D02*
X394210Y1913384D01*
X394210Y1901696D01*
X388618Y1901696D01*
X388618Y1913384D01*
X388618Y1903865D02*
X394210Y1903865D01*
X394210Y1906034D02*
X388618Y1906034D01*
X388618Y1908203D02*
X394210Y1908203D01*
X394210Y1910372D02*
X388618Y1910372D01*
X388618Y1912541D02*
X394210Y1912541D01*
X383796Y1913384D02*
X378204Y1913384D01*
X383796Y1913384D02*
X383796Y1901696D01*
X378204Y1901696D01*
X378204Y1913384D01*
X378204Y1903865D02*
X383796Y1903865D01*
X383796Y1906034D02*
X378204Y1906034D01*
X378204Y1908203D02*
X383796Y1908203D01*
X383796Y1910372D02*
X378204Y1910372D01*
X378204Y1912541D02*
X383796Y1912541D01*
X373382Y1913384D02*
X367790Y1913384D01*
X373382Y1913384D02*
X373382Y1901696D01*
X367790Y1901696D01*
X367790Y1913384D01*
X367790Y1903865D02*
X373382Y1903865D01*
X373382Y1906034D02*
X367790Y1906034D01*
X367790Y1908203D02*
X373382Y1908203D01*
X373382Y1910372D02*
X367790Y1910372D01*
X367790Y1912541D02*
X373382Y1912541D01*
X160403Y1621284D02*
X154811Y1621284D01*
X160403Y1621284D02*
X160403Y1609596D01*
X154811Y1609596D01*
X154811Y1621284D01*
X154811Y1611765D02*
X160403Y1611765D01*
X160403Y1613934D02*
X154811Y1613934D01*
X154811Y1616103D02*
X160403Y1616103D01*
X160403Y1618272D02*
X154811Y1618272D01*
X154811Y1620441D02*
X160403Y1620441D01*
X149989Y1621284D02*
X144397Y1621284D01*
X149989Y1621284D02*
X149989Y1609596D01*
X144397Y1609596D01*
X144397Y1621284D01*
X144397Y1611765D02*
X149989Y1611765D01*
X149989Y1613934D02*
X144397Y1613934D01*
X144397Y1616103D02*
X149989Y1616103D01*
X149989Y1618272D02*
X144397Y1618272D01*
X144397Y1620441D02*
X149989Y1620441D01*
X388618Y1938784D02*
X394210Y1938784D01*
X394210Y1927096D01*
X388618Y1927096D01*
X388618Y1938784D01*
X388618Y1929265D02*
X394210Y1929265D01*
X394210Y1931434D02*
X388618Y1931434D01*
X388618Y1933603D02*
X394210Y1933603D01*
X394210Y1935772D02*
X388618Y1935772D01*
X388618Y1937941D02*
X394210Y1937941D01*
X383796Y1938784D02*
X378204Y1938784D01*
X383796Y1938784D02*
X383796Y1927096D01*
X378204Y1927096D01*
X378204Y1938784D01*
X378204Y1929265D02*
X383796Y1929265D01*
X383796Y1931434D02*
X378204Y1931434D01*
X378204Y1933603D02*
X383796Y1933603D01*
X383796Y1935772D02*
X378204Y1935772D01*
X378204Y1937941D02*
X383796Y1937941D01*
X373382Y1938784D02*
X367790Y1938784D01*
X373382Y1938784D02*
X373382Y1927096D01*
X367790Y1927096D01*
X367790Y1938784D01*
X367790Y1929265D02*
X373382Y1929265D01*
X373382Y1931434D02*
X367790Y1931434D01*
X367790Y1933603D02*
X373382Y1933603D01*
X373382Y1935772D02*
X367790Y1935772D01*
X367790Y1937941D02*
X373382Y1937941D01*
D15*
X520700Y1844040D03*
X520700Y1869440D03*
X196850Y1551940D03*
X184150Y1526540D03*
X171450Y1551940D03*
X146050Y1551940D03*
X120650Y1551940D03*
X158750Y1526540D03*
X133350Y1526540D03*
D16*
X107950Y1526540D03*
D17*
X95250Y1463040D03*
X209550Y1463040D03*
D15*
X361950Y1551940D03*
X349250Y1526540D03*
X336550Y1551940D03*
X311150Y1551940D03*
X285750Y1551940D03*
X323850Y1526540D03*
X298450Y1526540D03*
D16*
X273050Y1526540D03*
D17*
X260350Y1463040D03*
X374650Y1463040D03*
D15*
X527050Y1551940D03*
X514350Y1526540D03*
X501650Y1551940D03*
X476250Y1551940D03*
X450850Y1551940D03*
X488950Y1526540D03*
X463550Y1526540D03*
D16*
X438150Y1526540D03*
D17*
X425450Y1463040D03*
X539750Y1463040D03*
D15*
X622300Y1577340D03*
X622300Y1551940D03*
X622300Y1526540D03*
X622300Y1501140D03*
X622300Y1691640D03*
X622300Y1717040D03*
D18*
X317500Y1678940D03*
D10*
X1249680Y1463040D03*
X665480Y1463040D03*
X665480Y2047240D03*
X1249680Y2047240D03*
D11*
X665480Y1488440D03*
X1249680Y2021840D03*
D12*
X1206980Y1929440D03*
X1206980Y1987240D03*
D13*
X1260981Y1964184D02*
X1266573Y1964184D01*
X1266573Y1952496D01*
X1260981Y1952496D01*
X1260981Y1964184D01*
X1260981Y1954665D02*
X1266573Y1954665D01*
X1266573Y1956834D02*
X1260981Y1956834D01*
X1260981Y1959003D02*
X1266573Y1959003D01*
X1266573Y1961172D02*
X1260981Y1961172D01*
X1260981Y1963341D02*
X1266573Y1963341D01*
X1256159Y1964184D02*
X1250567Y1964184D01*
X1256159Y1964184D02*
X1256159Y1952496D01*
X1250567Y1952496D01*
X1250567Y1964184D01*
X1250567Y1954665D02*
X1256159Y1954665D01*
X1256159Y1956834D02*
X1250567Y1956834D01*
X1250567Y1959003D02*
X1256159Y1959003D01*
X1256159Y1961172D02*
X1250567Y1961172D01*
X1250567Y1963341D02*
X1256159Y1963341D01*
D14*
X1181227Y1760982D02*
X1175893Y1760982D01*
X1181227Y1760982D02*
X1181227Y1749298D01*
X1175893Y1749298D01*
X1175893Y1760982D01*
X1175893Y1751470D02*
X1181227Y1751470D01*
X1181227Y1753642D02*
X1175893Y1753642D01*
X1175893Y1755814D02*
X1181227Y1755814D01*
X1181227Y1757986D02*
X1175893Y1757986D01*
X1175893Y1760158D02*
X1181227Y1760158D01*
X1171067Y1760982D02*
X1165733Y1760982D01*
X1171067Y1760982D02*
X1171067Y1749298D01*
X1165733Y1749298D01*
X1165733Y1760982D01*
X1165733Y1751470D02*
X1171067Y1751470D01*
X1171067Y1753642D02*
X1165733Y1753642D01*
X1165733Y1755814D02*
X1171067Y1755814D01*
X1171067Y1757986D02*
X1165733Y1757986D01*
X1165733Y1760158D02*
X1171067Y1760158D01*
D15*
X1186180Y1755140D03*
X1160780Y1755140D03*
D13*
X1228977Y1749296D02*
X1234569Y1749296D01*
X1228977Y1749296D02*
X1228977Y1760984D01*
X1234569Y1760984D01*
X1234569Y1749296D01*
X1234569Y1751465D02*
X1228977Y1751465D01*
X1228977Y1753634D02*
X1234569Y1753634D01*
X1234569Y1755803D02*
X1228977Y1755803D01*
X1228977Y1757972D02*
X1234569Y1757972D01*
X1234569Y1760141D02*
X1228977Y1760141D01*
X1239391Y1749296D02*
X1244983Y1749296D01*
X1239391Y1749296D02*
X1239391Y1760984D01*
X1244983Y1760984D01*
X1244983Y1749296D01*
X1244983Y1751465D02*
X1239391Y1751465D01*
X1239391Y1753634D02*
X1244983Y1753634D01*
X1244983Y1755803D02*
X1239391Y1755803D01*
X1239391Y1757972D02*
X1244983Y1757972D01*
X1244983Y1760141D02*
X1239391Y1760141D01*
X1090424Y1752729D02*
X1090424Y1747137D01*
X1078736Y1747137D01*
X1078736Y1752729D01*
X1090424Y1752729D01*
X1090424Y1749306D02*
X1078736Y1749306D01*
X1078736Y1751475D02*
X1090424Y1751475D01*
X1090424Y1757551D02*
X1090424Y1763143D01*
X1090424Y1757551D02*
X1078736Y1757551D01*
X1078736Y1763143D01*
X1090424Y1763143D01*
X1090424Y1759720D02*
X1078736Y1759720D01*
X1078736Y1761889D02*
X1090424Y1761889D01*
X1172970Y1584196D02*
X1178562Y1584196D01*
X1172970Y1584196D02*
X1172970Y1595884D01*
X1178562Y1595884D01*
X1178562Y1584196D01*
X1178562Y1586365D02*
X1172970Y1586365D01*
X1172970Y1588534D02*
X1178562Y1588534D01*
X1178562Y1590703D02*
X1172970Y1590703D01*
X1172970Y1592872D02*
X1178562Y1592872D01*
X1178562Y1595041D02*
X1172970Y1595041D01*
X1183384Y1584196D02*
X1188976Y1584196D01*
X1183384Y1584196D02*
X1183384Y1595884D01*
X1188976Y1595884D01*
X1188976Y1584196D01*
X1188976Y1586365D02*
X1183384Y1586365D01*
X1183384Y1588534D02*
X1188976Y1588534D01*
X1188976Y1590703D02*
X1183384Y1590703D01*
X1183384Y1592872D02*
X1188976Y1592872D01*
X1188976Y1595041D02*
X1183384Y1595041D01*
X1193798Y1584196D02*
X1199390Y1584196D01*
X1193798Y1584196D02*
X1193798Y1595884D01*
X1199390Y1595884D01*
X1199390Y1584196D01*
X1199390Y1586365D02*
X1193798Y1586365D01*
X1193798Y1588534D02*
X1199390Y1588534D01*
X1199390Y1590703D02*
X1193798Y1590703D01*
X1193798Y1592872D02*
X1199390Y1592872D01*
X1199390Y1595041D02*
X1193798Y1595041D01*
X684024Y1543179D02*
X684024Y1537587D01*
X672336Y1537587D01*
X672336Y1543179D01*
X684024Y1543179D01*
X684024Y1539756D02*
X672336Y1539756D01*
X672336Y1541925D02*
X684024Y1541925D01*
X684024Y1548001D02*
X684024Y1553593D01*
X684024Y1548001D02*
X672336Y1548001D01*
X672336Y1553593D01*
X684024Y1553593D01*
X684024Y1550170D02*
X672336Y1550170D01*
X672336Y1552339D02*
X684024Y1552339D01*
D14*
X958977Y1608582D02*
X964311Y1608582D01*
X964311Y1596898D01*
X958977Y1596898D01*
X958977Y1608582D01*
X958977Y1599070D02*
X964311Y1599070D01*
X964311Y1601242D02*
X958977Y1601242D01*
X958977Y1603414D02*
X964311Y1603414D01*
X964311Y1605586D02*
X958977Y1605586D01*
X958977Y1607758D02*
X964311Y1607758D01*
X956183Y1608582D02*
X950849Y1608582D01*
X956183Y1608582D02*
X956183Y1596898D01*
X950849Y1596898D01*
X950849Y1608582D01*
X950849Y1599070D02*
X956183Y1599070D01*
X956183Y1601242D02*
X950849Y1601242D01*
X950849Y1603414D02*
X956183Y1603414D01*
X956183Y1605586D02*
X950849Y1605586D01*
X950849Y1607758D02*
X956183Y1607758D01*
D13*
X1028698Y1837184D02*
X1034290Y1837184D01*
X1034290Y1825496D01*
X1028698Y1825496D01*
X1028698Y1837184D01*
X1028698Y1827665D02*
X1034290Y1827665D01*
X1034290Y1829834D02*
X1028698Y1829834D01*
X1028698Y1832003D02*
X1034290Y1832003D01*
X1034290Y1834172D02*
X1028698Y1834172D01*
X1028698Y1836341D02*
X1034290Y1836341D01*
X1023876Y1837184D02*
X1018284Y1837184D01*
X1023876Y1837184D02*
X1023876Y1825496D01*
X1018284Y1825496D01*
X1018284Y1837184D01*
X1018284Y1827665D02*
X1023876Y1827665D01*
X1023876Y1829834D02*
X1018284Y1829834D01*
X1018284Y1832003D02*
X1023876Y1832003D01*
X1023876Y1834172D02*
X1018284Y1834172D01*
X1018284Y1836341D02*
X1023876Y1836341D01*
X1013462Y1837184D02*
X1007870Y1837184D01*
X1013462Y1837184D02*
X1013462Y1825496D01*
X1007870Y1825496D01*
X1007870Y1837184D01*
X1007870Y1827665D02*
X1013462Y1827665D01*
X1013462Y1829834D02*
X1007870Y1829834D01*
X1007870Y1832003D02*
X1013462Y1832003D01*
X1013462Y1834172D02*
X1007870Y1834172D01*
X1007870Y1836341D02*
X1013462Y1836341D01*
D14*
X907288Y1787271D02*
X907288Y1781937D01*
X907288Y1787271D02*
X918972Y1787271D01*
X918972Y1781937D01*
X907288Y1781937D01*
X907288Y1784109D02*
X918972Y1784109D01*
X918972Y1786281D02*
X907288Y1786281D01*
X907288Y1779143D02*
X907288Y1773809D01*
X907288Y1779143D02*
X918972Y1779143D01*
X918972Y1773809D01*
X907288Y1773809D01*
X907288Y1775981D02*
X918972Y1775981D01*
X918972Y1778153D02*
X907288Y1778153D01*
D13*
X1028698Y1862584D02*
X1034290Y1862584D01*
X1034290Y1850896D01*
X1028698Y1850896D01*
X1028698Y1862584D01*
X1028698Y1853065D02*
X1034290Y1853065D01*
X1034290Y1855234D02*
X1028698Y1855234D01*
X1028698Y1857403D02*
X1034290Y1857403D01*
X1034290Y1859572D02*
X1028698Y1859572D01*
X1028698Y1861741D02*
X1034290Y1861741D01*
X1023876Y1862584D02*
X1018284Y1862584D01*
X1023876Y1862584D02*
X1023876Y1850896D01*
X1018284Y1850896D01*
X1018284Y1862584D01*
X1018284Y1853065D02*
X1023876Y1853065D01*
X1023876Y1855234D02*
X1018284Y1855234D01*
X1018284Y1857403D02*
X1023876Y1857403D01*
X1023876Y1859572D02*
X1018284Y1859572D01*
X1018284Y1861741D02*
X1023876Y1861741D01*
X1013462Y1862584D02*
X1007870Y1862584D01*
X1013462Y1862584D02*
X1013462Y1850896D01*
X1007870Y1850896D01*
X1007870Y1862584D01*
X1007870Y1853065D02*
X1013462Y1853065D01*
X1013462Y1855234D02*
X1007870Y1855234D01*
X1007870Y1857403D02*
X1013462Y1857403D01*
X1013462Y1859572D02*
X1007870Y1859572D01*
X1007870Y1861741D02*
X1013462Y1861741D01*
X1028698Y1887984D02*
X1034290Y1887984D01*
X1034290Y1876296D01*
X1028698Y1876296D01*
X1028698Y1887984D01*
X1028698Y1878465D02*
X1034290Y1878465D01*
X1034290Y1880634D02*
X1028698Y1880634D01*
X1028698Y1882803D02*
X1034290Y1882803D01*
X1034290Y1884972D02*
X1028698Y1884972D01*
X1028698Y1887141D02*
X1034290Y1887141D01*
X1023876Y1887984D02*
X1018284Y1887984D01*
X1023876Y1887984D02*
X1023876Y1876296D01*
X1018284Y1876296D01*
X1018284Y1887984D01*
X1018284Y1878465D02*
X1023876Y1878465D01*
X1023876Y1880634D02*
X1018284Y1880634D01*
X1018284Y1882803D02*
X1023876Y1882803D01*
X1023876Y1884972D02*
X1018284Y1884972D01*
X1018284Y1887141D02*
X1023876Y1887141D01*
X1013462Y1887984D02*
X1007870Y1887984D01*
X1013462Y1887984D02*
X1013462Y1876296D01*
X1007870Y1876296D01*
X1007870Y1887984D01*
X1007870Y1878465D02*
X1013462Y1878465D01*
X1013462Y1880634D02*
X1007870Y1880634D01*
X1007870Y1882803D02*
X1013462Y1882803D01*
X1013462Y1884972D02*
X1007870Y1884972D01*
X1007870Y1887141D02*
X1013462Y1887141D01*
X1028698Y1913384D02*
X1034290Y1913384D01*
X1034290Y1901696D01*
X1028698Y1901696D01*
X1028698Y1913384D01*
X1028698Y1903865D02*
X1034290Y1903865D01*
X1034290Y1906034D02*
X1028698Y1906034D01*
X1028698Y1908203D02*
X1034290Y1908203D01*
X1034290Y1910372D02*
X1028698Y1910372D01*
X1028698Y1912541D02*
X1034290Y1912541D01*
X1023876Y1913384D02*
X1018284Y1913384D01*
X1023876Y1913384D02*
X1023876Y1901696D01*
X1018284Y1901696D01*
X1018284Y1913384D01*
X1018284Y1903865D02*
X1023876Y1903865D01*
X1023876Y1906034D02*
X1018284Y1906034D01*
X1018284Y1908203D02*
X1023876Y1908203D01*
X1023876Y1910372D02*
X1018284Y1910372D01*
X1018284Y1912541D02*
X1023876Y1912541D01*
X1013462Y1913384D02*
X1007870Y1913384D01*
X1013462Y1913384D02*
X1013462Y1901696D01*
X1007870Y1901696D01*
X1007870Y1913384D01*
X1007870Y1903865D02*
X1013462Y1903865D01*
X1013462Y1906034D02*
X1007870Y1906034D01*
X1007870Y1908203D02*
X1013462Y1908203D01*
X1013462Y1910372D02*
X1007870Y1910372D01*
X1007870Y1912541D02*
X1013462Y1912541D01*
X800483Y1621284D02*
X794891Y1621284D01*
X800483Y1621284D02*
X800483Y1609596D01*
X794891Y1609596D01*
X794891Y1621284D01*
X794891Y1611765D02*
X800483Y1611765D01*
X800483Y1613934D02*
X794891Y1613934D01*
X794891Y1616103D02*
X800483Y1616103D01*
X800483Y1618272D02*
X794891Y1618272D01*
X794891Y1620441D02*
X800483Y1620441D01*
X790069Y1621284D02*
X784477Y1621284D01*
X790069Y1621284D02*
X790069Y1609596D01*
X784477Y1609596D01*
X784477Y1621284D01*
X784477Y1611765D02*
X790069Y1611765D01*
X790069Y1613934D02*
X784477Y1613934D01*
X784477Y1616103D02*
X790069Y1616103D01*
X790069Y1618272D02*
X784477Y1618272D01*
X784477Y1620441D02*
X790069Y1620441D01*
X1028698Y1938784D02*
X1034290Y1938784D01*
X1034290Y1927096D01*
X1028698Y1927096D01*
X1028698Y1938784D01*
X1028698Y1929265D02*
X1034290Y1929265D01*
X1034290Y1931434D02*
X1028698Y1931434D01*
X1028698Y1933603D02*
X1034290Y1933603D01*
X1034290Y1935772D02*
X1028698Y1935772D01*
X1028698Y1937941D02*
X1034290Y1937941D01*
X1023876Y1938784D02*
X1018284Y1938784D01*
X1023876Y1938784D02*
X1023876Y1927096D01*
X1018284Y1927096D01*
X1018284Y1938784D01*
X1018284Y1929265D02*
X1023876Y1929265D01*
X1023876Y1931434D02*
X1018284Y1931434D01*
X1018284Y1933603D02*
X1023876Y1933603D01*
X1023876Y1935772D02*
X1018284Y1935772D01*
X1018284Y1937941D02*
X1023876Y1937941D01*
X1013462Y1938784D02*
X1007870Y1938784D01*
X1013462Y1938784D02*
X1013462Y1927096D01*
X1007870Y1927096D01*
X1007870Y1938784D01*
X1007870Y1929265D02*
X1013462Y1929265D01*
X1013462Y1931434D02*
X1007870Y1931434D01*
X1007870Y1933603D02*
X1013462Y1933603D01*
X1013462Y1935772D02*
X1007870Y1935772D01*
X1007870Y1937941D02*
X1013462Y1937941D01*
D15*
X1160780Y1844040D03*
X1160780Y1869440D03*
X836930Y1551940D03*
X824230Y1526540D03*
X811530Y1551940D03*
X786130Y1551940D03*
X760730Y1551940D03*
X798830Y1526540D03*
X773430Y1526540D03*
D16*
X748030Y1526540D03*
D17*
X735330Y1463040D03*
X849630Y1463040D03*
D15*
X1002030Y1551940D03*
X989330Y1526540D03*
X976630Y1551940D03*
X951230Y1551940D03*
X925830Y1551940D03*
X963930Y1526540D03*
X938530Y1526540D03*
D16*
X913130Y1526540D03*
D17*
X900430Y1463040D03*
X1014730Y1463040D03*
D15*
X1167130Y1551940D03*
X1154430Y1526540D03*
X1141730Y1551940D03*
X1116330Y1551940D03*
X1090930Y1551940D03*
X1129030Y1526540D03*
X1103630Y1526540D03*
D16*
X1078230Y1526540D03*
D17*
X1065530Y1463040D03*
X1179830Y1463040D03*
D15*
X1262380Y1577340D03*
X1262380Y1551940D03*
X1262380Y1526540D03*
X1262380Y1501140D03*
X1262380Y1691640D03*
X1262380Y1717040D03*
D18*
X957580Y1678940D03*
D11*
X-26238Y2124710D03*
X1301318Y2124710D03*
D19*
X-35293Y63500D02*
X-35290Y63722D01*
X-35282Y63944D01*
X-35268Y64166D01*
X-35249Y64388D01*
X-35225Y64608D01*
X-35195Y64829D01*
X-35160Y65048D01*
X-35119Y65267D01*
X-35073Y65484D01*
X-35022Y65700D01*
X-34965Y65915D01*
X-34903Y66129D01*
X-34836Y66340D01*
X-34764Y66551D01*
X-34686Y66759D01*
X-34604Y66965D01*
X-34516Y67169D01*
X-34424Y67372D01*
X-34326Y67571D01*
X-34224Y67768D01*
X-34117Y67963D01*
X-34005Y68155D01*
X-33888Y68344D01*
X-33767Y68531D01*
X-33641Y68714D01*
X-33511Y68894D01*
X-33376Y69071D01*
X-33238Y69244D01*
X-33095Y69414D01*
X-32947Y69581D01*
X-32796Y69744D01*
X-32641Y69903D01*
X-32482Y70058D01*
X-32319Y70209D01*
X-32152Y70357D01*
X-31982Y70500D01*
X-31809Y70638D01*
X-31632Y70773D01*
X-31452Y70903D01*
X-31269Y71029D01*
X-31082Y71150D01*
X-30893Y71267D01*
X-30701Y71379D01*
X-30506Y71486D01*
X-30309Y71588D01*
X-30110Y71686D01*
X-29907Y71778D01*
X-29703Y71866D01*
X-29497Y71948D01*
X-29289Y72026D01*
X-29078Y72098D01*
X-28867Y72165D01*
X-28653Y72227D01*
X-28438Y72284D01*
X-28222Y72335D01*
X-28005Y72381D01*
X-27786Y72422D01*
X-27567Y72457D01*
X-27346Y72487D01*
X-27126Y72511D01*
X-26904Y72530D01*
X-26682Y72544D01*
X-26460Y72552D01*
X-26238Y72555D01*
X-26016Y72552D01*
X-25794Y72544D01*
X-25572Y72530D01*
X-25350Y72511D01*
X-25130Y72487D01*
X-24909Y72457D01*
X-24690Y72422D01*
X-24471Y72381D01*
X-24254Y72335D01*
X-24038Y72284D01*
X-23823Y72227D01*
X-23609Y72165D01*
X-23398Y72098D01*
X-23187Y72026D01*
X-22979Y71948D01*
X-22773Y71866D01*
X-22569Y71778D01*
X-22366Y71686D01*
X-22167Y71588D01*
X-21970Y71486D01*
X-21775Y71379D01*
X-21583Y71267D01*
X-21394Y71150D01*
X-21207Y71029D01*
X-21024Y70903D01*
X-20844Y70773D01*
X-20667Y70638D01*
X-20494Y70500D01*
X-20324Y70357D01*
X-20157Y70209D01*
X-19994Y70058D01*
X-19835Y69903D01*
X-19680Y69744D01*
X-19529Y69581D01*
X-19381Y69414D01*
X-19238Y69244D01*
X-19100Y69071D01*
X-18965Y68894D01*
X-18835Y68714D01*
X-18709Y68531D01*
X-18588Y68344D01*
X-18471Y68155D01*
X-18359Y67963D01*
X-18252Y67768D01*
X-18150Y67571D01*
X-18052Y67372D01*
X-17960Y67169D01*
X-17872Y66965D01*
X-17790Y66759D01*
X-17712Y66551D01*
X-17640Y66340D01*
X-17573Y66129D01*
X-17511Y65915D01*
X-17454Y65700D01*
X-17403Y65484D01*
X-17357Y65267D01*
X-17316Y65048D01*
X-17281Y64829D01*
X-17251Y64608D01*
X-17227Y64388D01*
X-17208Y64166D01*
X-17194Y63944D01*
X-17186Y63722D01*
X-17183Y63500D01*
X-17186Y63278D01*
X-17194Y63056D01*
X-17208Y62834D01*
X-17227Y62612D01*
X-17251Y62392D01*
X-17281Y62171D01*
X-17316Y61952D01*
X-17357Y61733D01*
X-17403Y61516D01*
X-17454Y61300D01*
X-17511Y61085D01*
X-17573Y60871D01*
X-17640Y60660D01*
X-17712Y60449D01*
X-17790Y60241D01*
X-17872Y60035D01*
X-17960Y59831D01*
X-18052Y59628D01*
X-18150Y59429D01*
X-18252Y59232D01*
X-18359Y59037D01*
X-18471Y58845D01*
X-18588Y58656D01*
X-18709Y58469D01*
X-18835Y58286D01*
X-18965Y58106D01*
X-19100Y57929D01*
X-19238Y57756D01*
X-19381Y57586D01*
X-19529Y57419D01*
X-19680Y57256D01*
X-19835Y57097D01*
X-19994Y56942D01*
X-20157Y56791D01*
X-20324Y56643D01*
X-20494Y56500D01*
X-20667Y56362D01*
X-20844Y56227D01*
X-21024Y56097D01*
X-21207Y55971D01*
X-21394Y55850D01*
X-21583Y55733D01*
X-21775Y55621D01*
X-21970Y55514D01*
X-22167Y55412D01*
X-22366Y55314D01*
X-22569Y55222D01*
X-22773Y55134D01*
X-22979Y55052D01*
X-23187Y54974D01*
X-23398Y54902D01*
X-23609Y54835D01*
X-23823Y54773D01*
X-24038Y54716D01*
X-24254Y54665D01*
X-24471Y54619D01*
X-24690Y54578D01*
X-24909Y54543D01*
X-25130Y54513D01*
X-25350Y54489D01*
X-25572Y54470D01*
X-25794Y54456D01*
X-26016Y54448D01*
X-26238Y54445D01*
X-26460Y54448D01*
X-26682Y54456D01*
X-26904Y54470D01*
X-27126Y54489D01*
X-27346Y54513D01*
X-27567Y54543D01*
X-27786Y54578D01*
X-28005Y54619D01*
X-28222Y54665D01*
X-28438Y54716D01*
X-28653Y54773D01*
X-28867Y54835D01*
X-29078Y54902D01*
X-29289Y54974D01*
X-29497Y55052D01*
X-29703Y55134D01*
X-29907Y55222D01*
X-30110Y55314D01*
X-30309Y55412D01*
X-30506Y55514D01*
X-30701Y55621D01*
X-30893Y55733D01*
X-31082Y55850D01*
X-31269Y55971D01*
X-31452Y56097D01*
X-31632Y56227D01*
X-31809Y56362D01*
X-31982Y56500D01*
X-32152Y56643D01*
X-32319Y56791D01*
X-32482Y56942D01*
X-32641Y57097D01*
X-32796Y57256D01*
X-32947Y57419D01*
X-33095Y57586D01*
X-33238Y57756D01*
X-33376Y57929D01*
X-33511Y58106D01*
X-33641Y58286D01*
X-33767Y58469D01*
X-33888Y58656D01*
X-34005Y58845D01*
X-34117Y59037D01*
X-34224Y59232D01*
X-34326Y59429D01*
X-34424Y59628D01*
X-34516Y59831D01*
X-34604Y60035D01*
X-34686Y60241D01*
X-34764Y60449D01*
X-34836Y60660D01*
X-34903Y60871D01*
X-34965Y61085D01*
X-35022Y61300D01*
X-35073Y61516D01*
X-35119Y61733D01*
X-35160Y61952D01*
X-35195Y62171D01*
X-35225Y62392D01*
X-35249Y62612D01*
X-35268Y62834D01*
X-35282Y63056D01*
X-35290Y63278D01*
X-35293Y63500D01*
D20*
X-26238Y63500D03*
M02*
