G04 EAGLE Gerber RS-274X export*
G75*
%MOMM*%
%FSLAX34Y34*%
%LPD*%
%INSoldermask Top*%
%IPPOS*%
%AMOC8*
5,1,8,0,0,1.08239X$1,22.5*%
G01*
%ADD10C,0.225938*%
%ADD11C,0.233119*%
%ADD12C,3.429000*%
%ADD13C,1.127000*%
%ADD14C,0.230578*%
%ADD15C,0.225369*%
%ADD16C,0.777000*%
%ADD17C,0.225400*%
%ADD18C,0.223409*%
%ADD19C,0.228600*%
%ADD20C,2.006600*%
%ADD21C,0.231750*%
%ADD22C,0.227100*%
%ADD23C,0.428259*%
%ADD24C,0.224509*%
%ADD25C,0.225588*%
%ADD26C,0.226609*%
%ADD27C,0.229969*%
%ADD28R,0.104000X0.453000*%
%ADD29R,0.453000X0.104000*%
%ADD30C,0.228928*%
%ADD31C,0.350137*%
%ADD32C,0.236319*%
%ADD33C,0.224709*%
%ADD34R,2.006600X2.006600*%
%ADD35C,3.327000*%
%ADD36C,1.270000*%
%ADD37C,1.627000*%

G36*
X567655Y557854D02*
X567655Y557854D01*
X567658Y557851D01*
X568925Y558056D01*
X568931Y558062D01*
X568936Y558059D01*
X570125Y558541D01*
X570129Y558548D01*
X570135Y558546D01*
X571188Y559280D01*
X571190Y559288D01*
X571196Y559287D01*
X572059Y560237D01*
X572060Y560246D01*
X572065Y560246D01*
X572695Y561365D01*
X572694Y561373D01*
X572700Y561375D01*
X573065Y562605D01*
X573062Y562612D01*
X573066Y562615D01*
X573065Y562615D01*
X573067Y562616D01*
X573149Y563897D01*
X573147Y563901D01*
X573149Y563903D01*
X573067Y565184D01*
X573061Y565190D01*
X573065Y565195D01*
X572700Y566425D01*
X572693Y566430D01*
X572695Y566435D01*
X572065Y567554D01*
X572058Y567557D01*
X572059Y567563D01*
X571196Y568513D01*
X571188Y568514D01*
X571188Y568520D01*
X570135Y569254D01*
X570127Y569254D01*
X570125Y569259D01*
X568936Y569741D01*
X568928Y569739D01*
X568925Y569744D01*
X567658Y569949D01*
X567653Y569946D01*
X567650Y569949D01*
X555650Y569949D01*
X555646Y569946D01*
X555643Y569949D01*
X554521Y569794D01*
X554516Y569789D01*
X554512Y569792D01*
X553441Y569421D01*
X553437Y569415D01*
X553432Y569417D01*
X552455Y568844D01*
X552452Y568838D01*
X552447Y568839D01*
X551600Y568086D01*
X551598Y568079D01*
X551593Y568079D01*
X550909Y567176D01*
X550909Y567169D01*
X550904Y567168D01*
X550409Y566149D01*
X550411Y566142D01*
X550409Y566141D01*
X550406Y566140D01*
X550119Y565043D01*
X550122Y565037D01*
X550118Y565034D01*
X550051Y563903D01*
X550053Y563899D01*
X550051Y563897D01*
X550118Y562766D01*
X550123Y562761D01*
X550119Y562757D01*
X550406Y561660D01*
X550412Y561656D01*
X550409Y561651D01*
X550904Y560632D01*
X550910Y560629D01*
X550909Y560624D01*
X551593Y559721D01*
X551600Y559719D01*
X551600Y559714D01*
X552447Y558961D01*
X552454Y558961D01*
X552455Y558956D01*
X553432Y558383D01*
X553439Y558384D01*
X553441Y558379D01*
X554512Y558008D01*
X554518Y558011D01*
X554521Y558006D01*
X555643Y557851D01*
X555648Y557854D01*
X555650Y557851D01*
X567650Y557851D01*
X567655Y557854D01*
G37*
G36*
X567655Y471454D02*
X567655Y471454D01*
X567658Y471451D01*
X568925Y471656D01*
X568931Y471662D01*
X568936Y471659D01*
X570125Y472141D01*
X570129Y472148D01*
X570135Y472146D01*
X571188Y472880D01*
X571190Y472888D01*
X571196Y472887D01*
X572059Y473837D01*
X572060Y473846D01*
X572065Y473846D01*
X572695Y474965D01*
X572694Y474973D01*
X572700Y474975D01*
X573065Y476205D01*
X573062Y476212D01*
X573066Y476215D01*
X573065Y476215D01*
X573067Y476216D01*
X573149Y477497D01*
X573147Y477501D01*
X573149Y477503D01*
X573067Y478784D01*
X573061Y478790D01*
X573065Y478795D01*
X572700Y480025D01*
X572693Y480030D01*
X572695Y480035D01*
X572065Y481154D01*
X572058Y481157D01*
X572059Y481163D01*
X571196Y482113D01*
X571188Y482114D01*
X571188Y482120D01*
X570135Y482854D01*
X570127Y482854D01*
X570125Y482859D01*
X568936Y483341D01*
X568928Y483339D01*
X568925Y483344D01*
X567658Y483549D01*
X567653Y483546D01*
X567650Y483549D01*
X555650Y483549D01*
X555646Y483546D01*
X555643Y483549D01*
X554521Y483394D01*
X554516Y483389D01*
X554512Y483392D01*
X553441Y483021D01*
X553437Y483015D01*
X553432Y483017D01*
X552455Y482444D01*
X552452Y482438D01*
X552447Y482439D01*
X551600Y481686D01*
X551598Y481679D01*
X551593Y481679D01*
X550909Y480776D01*
X550909Y480769D01*
X550904Y480768D01*
X550409Y479749D01*
X550411Y479742D01*
X550409Y479741D01*
X550406Y479740D01*
X550119Y478643D01*
X550122Y478637D01*
X550118Y478634D01*
X550051Y477503D01*
X550053Y477499D01*
X550051Y477497D01*
X550118Y476366D01*
X550123Y476361D01*
X550119Y476357D01*
X550406Y475260D01*
X550412Y475256D01*
X550409Y475251D01*
X550904Y474232D01*
X550910Y474229D01*
X550909Y474224D01*
X551593Y473321D01*
X551600Y473319D01*
X551600Y473314D01*
X552447Y472561D01*
X552454Y472561D01*
X552455Y472556D01*
X553432Y471983D01*
X553439Y471984D01*
X553441Y471979D01*
X554512Y471608D01*
X554518Y471611D01*
X554521Y471606D01*
X555643Y471451D01*
X555648Y471454D01*
X555650Y471451D01*
X567650Y471451D01*
X567655Y471454D01*
G37*
G36*
X606454Y557853D02*
X606454Y557853D01*
X606456Y557851D01*
X607785Y558006D01*
X607791Y558012D01*
X607795Y558009D01*
X609056Y558456D01*
X609061Y558463D01*
X609066Y558461D01*
X610196Y559178D01*
X610199Y559185D01*
X610205Y559184D01*
X611147Y560135D01*
X611148Y560143D01*
X611154Y560143D01*
X611861Y561279D01*
X611861Y561284D01*
X611862Y561285D01*
X611861Y561287D01*
X611866Y561289D01*
X612302Y562554D01*
X612300Y562562D01*
X612305Y562565D01*
X612449Y563895D01*
X612445Y563901D01*
X612449Y563905D01*
X612339Y565071D01*
X612334Y565076D01*
X612337Y565080D01*
X612002Y566203D01*
X611996Y566207D01*
X611998Y566211D01*
X611450Y567247D01*
X611444Y567250D01*
X611445Y567255D01*
X610706Y568163D01*
X610699Y568165D01*
X610699Y568170D01*
X609797Y568917D01*
X609790Y568917D01*
X609789Y568923D01*
X608758Y569479D01*
X608751Y569478D01*
X608749Y569483D01*
X607630Y569827D01*
X607623Y569825D01*
X607620Y569829D01*
X606455Y569949D01*
X606452Y569947D01*
X606450Y569949D01*
X600450Y569949D01*
X600447Y569947D01*
X600445Y569949D01*
X599269Y569838D01*
X599264Y569833D01*
X599260Y569836D01*
X598128Y569498D01*
X598124Y569492D01*
X598119Y569494D01*
X597075Y568942D01*
X597072Y568935D01*
X597067Y568937D01*
X596151Y568191D01*
X596150Y568184D01*
X596144Y568184D01*
X595391Y567275D01*
X595391Y567267D01*
X595386Y567267D01*
X594825Y566227D01*
X594826Y566220D01*
X594821Y566218D01*
X594474Y565089D01*
X594476Y565083D01*
X594472Y565080D01*
X594351Y563905D01*
X594355Y563898D01*
X594351Y563894D01*
X594508Y562554D01*
X594513Y562548D01*
X594510Y562543D01*
X594961Y561272D01*
X594968Y561267D01*
X594966Y561262D01*
X595688Y560123D01*
X595696Y560120D01*
X595695Y560114D01*
X596653Y559164D01*
X596661Y559163D01*
X596662Y559157D01*
X597807Y558444D01*
X597816Y558445D01*
X597817Y558439D01*
X599093Y557999D01*
X599100Y558001D01*
X599102Y557999D01*
X599103Y557997D01*
X600445Y557851D01*
X600448Y557853D01*
X600450Y557851D01*
X606450Y557851D01*
X606454Y557853D01*
G37*
G36*
X606454Y471453D02*
X606454Y471453D01*
X606456Y471451D01*
X607785Y471606D01*
X607791Y471612D01*
X607795Y471609D01*
X609056Y472056D01*
X609061Y472063D01*
X609066Y472061D01*
X610196Y472778D01*
X610199Y472785D01*
X610205Y472784D01*
X611147Y473735D01*
X611148Y473743D01*
X611154Y473743D01*
X611861Y474879D01*
X611861Y474884D01*
X611862Y474885D01*
X611861Y474887D01*
X611866Y474889D01*
X612302Y476154D01*
X612300Y476162D01*
X612305Y476165D01*
X612449Y477495D01*
X612445Y477501D01*
X612449Y477505D01*
X612339Y478671D01*
X612334Y478676D01*
X612337Y478680D01*
X612002Y479803D01*
X611996Y479807D01*
X611998Y479811D01*
X611450Y480847D01*
X611444Y480850D01*
X611445Y480855D01*
X610706Y481763D01*
X610699Y481765D01*
X610699Y481770D01*
X609797Y482517D01*
X609790Y482517D01*
X609789Y482523D01*
X608758Y483079D01*
X608751Y483078D01*
X608749Y483083D01*
X607630Y483427D01*
X607623Y483425D01*
X607620Y483429D01*
X606455Y483549D01*
X606452Y483547D01*
X606450Y483549D01*
X600450Y483549D01*
X600447Y483547D01*
X600445Y483549D01*
X599269Y483438D01*
X599264Y483433D01*
X599260Y483436D01*
X598128Y483098D01*
X598124Y483092D01*
X598119Y483094D01*
X597075Y482542D01*
X597072Y482535D01*
X597067Y482537D01*
X596151Y481791D01*
X596150Y481784D01*
X596144Y481784D01*
X595391Y480875D01*
X595391Y480867D01*
X595386Y480867D01*
X594825Y479827D01*
X594826Y479820D01*
X594821Y479818D01*
X594474Y478689D01*
X594476Y478683D01*
X594472Y478680D01*
X594351Y477505D01*
X594355Y477498D01*
X594351Y477494D01*
X594508Y476154D01*
X594513Y476148D01*
X594510Y476143D01*
X594961Y474872D01*
X594968Y474867D01*
X594966Y474862D01*
X595688Y473723D01*
X595696Y473720D01*
X595695Y473714D01*
X596653Y472764D01*
X596661Y472763D01*
X596662Y472757D01*
X597807Y472044D01*
X597816Y472045D01*
X597817Y472039D01*
X599093Y471599D01*
X599100Y471601D01*
X599102Y471599D01*
X599103Y471597D01*
X600445Y471451D01*
X600448Y471453D01*
X600450Y471451D01*
X606450Y471451D01*
X606454Y471453D01*
G37*
D10*
X234506Y563606D02*
X234506Y555594D01*
X220494Y555594D01*
X220494Y563606D01*
X234506Y563606D01*
X234506Y557740D02*
X220494Y557740D01*
X220494Y559886D02*
X234506Y559886D01*
X234506Y562032D02*
X220494Y562032D01*
X234506Y550906D02*
X234506Y542894D01*
X220494Y542894D01*
X220494Y550906D01*
X234506Y550906D01*
X234506Y545040D02*
X220494Y545040D01*
X220494Y547186D02*
X234506Y547186D01*
X234506Y549332D02*
X220494Y549332D01*
X234506Y538206D02*
X234506Y530194D01*
X220494Y530194D01*
X220494Y538206D01*
X234506Y538206D01*
X234506Y532340D02*
X220494Y532340D01*
X220494Y534486D02*
X234506Y534486D01*
X234506Y536632D02*
X220494Y536632D01*
X234506Y525506D02*
X234506Y517494D01*
X220494Y517494D01*
X220494Y525506D01*
X234506Y525506D01*
X234506Y519640D02*
X220494Y519640D01*
X220494Y521786D02*
X234506Y521786D01*
X234506Y523932D02*
X220494Y523932D01*
X234506Y512806D02*
X234506Y504794D01*
X220494Y504794D01*
X220494Y512806D01*
X234506Y512806D01*
X234506Y506940D02*
X220494Y506940D01*
X220494Y509086D02*
X234506Y509086D01*
X234506Y511232D02*
X220494Y511232D01*
X234506Y500106D02*
X234506Y492094D01*
X220494Y492094D01*
X220494Y500106D01*
X234506Y500106D01*
X234506Y494240D02*
X220494Y494240D01*
X220494Y496386D02*
X234506Y496386D01*
X234506Y498532D02*
X220494Y498532D01*
X234506Y487406D02*
X234506Y479394D01*
X220494Y479394D01*
X220494Y487406D01*
X234506Y487406D01*
X234506Y481540D02*
X220494Y481540D01*
X220494Y483686D02*
X234506Y483686D01*
X234506Y485832D02*
X220494Y485832D01*
X234506Y474706D02*
X234506Y466694D01*
X220494Y466694D01*
X220494Y474706D01*
X234506Y474706D01*
X234506Y468840D02*
X220494Y468840D01*
X220494Y470986D02*
X234506Y470986D01*
X234506Y473132D02*
X220494Y473132D01*
X234506Y462006D02*
X234506Y453994D01*
X220494Y453994D01*
X220494Y462006D01*
X234506Y462006D01*
X234506Y456140D02*
X220494Y456140D01*
X220494Y458286D02*
X234506Y458286D01*
X234506Y460432D02*
X220494Y460432D01*
X234506Y449306D02*
X234506Y441294D01*
X220494Y441294D01*
X220494Y449306D01*
X234506Y449306D01*
X234506Y443440D02*
X220494Y443440D01*
X220494Y445586D02*
X234506Y445586D01*
X234506Y447732D02*
X220494Y447732D01*
X234506Y436606D02*
X234506Y428594D01*
X220494Y428594D01*
X220494Y436606D01*
X234506Y436606D01*
X234506Y430740D02*
X220494Y430740D01*
X220494Y432886D02*
X234506Y432886D01*
X234506Y435032D02*
X220494Y435032D01*
X234506Y423906D02*
X234506Y415894D01*
X220494Y415894D01*
X220494Y423906D01*
X234506Y423906D01*
X234506Y418040D02*
X220494Y418040D01*
X220494Y420186D02*
X234506Y420186D01*
X234506Y422332D02*
X220494Y422332D01*
X234506Y411206D02*
X234506Y403194D01*
X220494Y403194D01*
X220494Y411206D01*
X234506Y411206D01*
X234506Y405340D02*
X220494Y405340D01*
X220494Y407486D02*
X234506Y407486D01*
X234506Y409632D02*
X220494Y409632D01*
X234506Y398506D02*
X234506Y390494D01*
X220494Y390494D01*
X220494Y398506D01*
X234506Y398506D01*
X234506Y392640D02*
X220494Y392640D01*
X220494Y394786D02*
X234506Y394786D01*
X234506Y396932D02*
X220494Y396932D01*
X256344Y386606D02*
X264356Y386606D01*
X264356Y372594D01*
X256344Y372594D01*
X256344Y386606D01*
X256344Y374740D02*
X264356Y374740D01*
X264356Y376886D02*
X256344Y376886D01*
X256344Y379032D02*
X264356Y379032D01*
X264356Y381178D02*
X256344Y381178D01*
X256344Y383324D02*
X264356Y383324D01*
X264356Y385470D02*
X256344Y385470D01*
X269044Y386606D02*
X277056Y386606D01*
X277056Y372594D01*
X269044Y372594D01*
X269044Y386606D01*
X269044Y374740D02*
X277056Y374740D01*
X277056Y376886D02*
X269044Y376886D01*
X269044Y379032D02*
X277056Y379032D01*
X277056Y381178D02*
X269044Y381178D01*
X269044Y383324D02*
X277056Y383324D01*
X277056Y385470D02*
X269044Y385470D01*
X281744Y386606D02*
X289756Y386606D01*
X289756Y372594D01*
X281744Y372594D01*
X281744Y386606D01*
X281744Y374740D02*
X289756Y374740D01*
X289756Y376886D02*
X281744Y376886D01*
X281744Y379032D02*
X289756Y379032D01*
X289756Y381178D02*
X281744Y381178D01*
X281744Y383324D02*
X289756Y383324D01*
X289756Y385470D02*
X281744Y385470D01*
X294444Y386606D02*
X302456Y386606D01*
X302456Y372594D01*
X294444Y372594D01*
X294444Y386606D01*
X294444Y374740D02*
X302456Y374740D01*
X302456Y376886D02*
X294444Y376886D01*
X294444Y379032D02*
X302456Y379032D01*
X302456Y381178D02*
X294444Y381178D01*
X294444Y383324D02*
X302456Y383324D01*
X302456Y385470D02*
X294444Y385470D01*
X307144Y386606D02*
X315156Y386606D01*
X315156Y372594D01*
X307144Y372594D01*
X307144Y386606D01*
X307144Y374740D02*
X315156Y374740D01*
X315156Y376886D02*
X307144Y376886D01*
X307144Y379032D02*
X315156Y379032D01*
X315156Y381178D02*
X307144Y381178D01*
X307144Y383324D02*
X315156Y383324D01*
X315156Y385470D02*
X307144Y385470D01*
X319844Y386606D02*
X327856Y386606D01*
X327856Y372594D01*
X319844Y372594D01*
X319844Y386606D01*
X319844Y374740D02*
X327856Y374740D01*
X327856Y376886D02*
X319844Y376886D01*
X319844Y379032D02*
X327856Y379032D01*
X327856Y381178D02*
X319844Y381178D01*
X319844Y383324D02*
X327856Y383324D01*
X327856Y385470D02*
X319844Y385470D01*
X332544Y386606D02*
X340556Y386606D01*
X340556Y372594D01*
X332544Y372594D01*
X332544Y386606D01*
X332544Y374740D02*
X340556Y374740D01*
X340556Y376886D02*
X332544Y376886D01*
X332544Y379032D02*
X340556Y379032D01*
X340556Y381178D02*
X332544Y381178D01*
X332544Y383324D02*
X340556Y383324D01*
X340556Y385470D02*
X332544Y385470D01*
X345244Y386606D02*
X353256Y386606D01*
X353256Y372594D01*
X345244Y372594D01*
X345244Y386606D01*
X345244Y374740D02*
X353256Y374740D01*
X353256Y376886D02*
X345244Y376886D01*
X345244Y379032D02*
X353256Y379032D01*
X353256Y381178D02*
X345244Y381178D01*
X345244Y383324D02*
X353256Y383324D01*
X353256Y385470D02*
X345244Y385470D01*
X357944Y386606D02*
X365956Y386606D01*
X365956Y372594D01*
X357944Y372594D01*
X357944Y386606D01*
X357944Y374740D02*
X365956Y374740D01*
X365956Y376886D02*
X357944Y376886D01*
X357944Y379032D02*
X365956Y379032D01*
X365956Y381178D02*
X357944Y381178D01*
X357944Y383324D02*
X365956Y383324D01*
X365956Y385470D02*
X357944Y385470D01*
X370644Y386606D02*
X378656Y386606D01*
X378656Y372594D01*
X370644Y372594D01*
X370644Y386606D01*
X370644Y374740D02*
X378656Y374740D01*
X378656Y376886D02*
X370644Y376886D01*
X370644Y379032D02*
X378656Y379032D01*
X378656Y381178D02*
X370644Y381178D01*
X370644Y383324D02*
X378656Y383324D01*
X378656Y385470D02*
X370644Y385470D01*
X414506Y390494D02*
X414506Y398506D01*
X414506Y390494D02*
X400494Y390494D01*
X400494Y398506D01*
X414506Y398506D01*
X414506Y392640D02*
X400494Y392640D01*
X400494Y394786D02*
X414506Y394786D01*
X414506Y396932D02*
X400494Y396932D01*
X414506Y403194D02*
X414506Y411206D01*
X414506Y403194D02*
X400494Y403194D01*
X400494Y411206D01*
X414506Y411206D01*
X414506Y405340D02*
X400494Y405340D01*
X400494Y407486D02*
X414506Y407486D01*
X414506Y409632D02*
X400494Y409632D01*
X414506Y415894D02*
X414506Y423906D01*
X414506Y415894D02*
X400494Y415894D01*
X400494Y423906D01*
X414506Y423906D01*
X414506Y418040D02*
X400494Y418040D01*
X400494Y420186D02*
X414506Y420186D01*
X414506Y422332D02*
X400494Y422332D01*
X414506Y428594D02*
X414506Y436606D01*
X414506Y428594D02*
X400494Y428594D01*
X400494Y436606D01*
X414506Y436606D01*
X414506Y430740D02*
X400494Y430740D01*
X400494Y432886D02*
X414506Y432886D01*
X414506Y435032D02*
X400494Y435032D01*
X414506Y441294D02*
X414506Y449306D01*
X414506Y441294D02*
X400494Y441294D01*
X400494Y449306D01*
X414506Y449306D01*
X414506Y443440D02*
X400494Y443440D01*
X400494Y445586D02*
X414506Y445586D01*
X414506Y447732D02*
X400494Y447732D01*
X414506Y453994D02*
X414506Y462006D01*
X414506Y453994D02*
X400494Y453994D01*
X400494Y462006D01*
X414506Y462006D01*
X414506Y456140D02*
X400494Y456140D01*
X400494Y458286D02*
X414506Y458286D01*
X414506Y460432D02*
X400494Y460432D01*
X414506Y466694D02*
X414506Y474706D01*
X414506Y466694D02*
X400494Y466694D01*
X400494Y474706D01*
X414506Y474706D01*
X414506Y468840D02*
X400494Y468840D01*
X400494Y470986D02*
X414506Y470986D01*
X414506Y473132D02*
X400494Y473132D01*
X414506Y479394D02*
X414506Y487406D01*
X414506Y479394D02*
X400494Y479394D01*
X400494Y487406D01*
X414506Y487406D01*
X414506Y481540D02*
X400494Y481540D01*
X400494Y483686D02*
X414506Y483686D01*
X414506Y485832D02*
X400494Y485832D01*
X414506Y492094D02*
X414506Y500106D01*
X414506Y492094D02*
X400494Y492094D01*
X400494Y500106D01*
X414506Y500106D01*
X414506Y494240D02*
X400494Y494240D01*
X400494Y496386D02*
X414506Y496386D01*
X414506Y498532D02*
X400494Y498532D01*
X414506Y504794D02*
X414506Y512806D01*
X414506Y504794D02*
X400494Y504794D01*
X400494Y512806D01*
X414506Y512806D01*
X414506Y506940D02*
X400494Y506940D01*
X400494Y509086D02*
X414506Y509086D01*
X414506Y511232D02*
X400494Y511232D01*
X414506Y517494D02*
X414506Y525506D01*
X414506Y517494D02*
X400494Y517494D01*
X400494Y525506D01*
X414506Y525506D01*
X414506Y519640D02*
X400494Y519640D01*
X400494Y521786D02*
X414506Y521786D01*
X414506Y523932D02*
X400494Y523932D01*
X414506Y530194D02*
X414506Y538206D01*
X414506Y530194D02*
X400494Y530194D01*
X400494Y538206D01*
X414506Y538206D01*
X414506Y532340D02*
X400494Y532340D01*
X400494Y534486D02*
X414506Y534486D01*
X414506Y536632D02*
X400494Y536632D01*
X414506Y542894D02*
X414506Y550906D01*
X414506Y542894D02*
X400494Y542894D01*
X400494Y550906D01*
X414506Y550906D01*
X414506Y545040D02*
X400494Y545040D01*
X400494Y547186D02*
X414506Y547186D01*
X414506Y549332D02*
X400494Y549332D01*
X414506Y555594D02*
X414506Y563606D01*
X414506Y555594D02*
X400494Y555594D01*
X400494Y563606D01*
X414506Y563606D01*
X414506Y557740D02*
X400494Y557740D01*
X400494Y559886D02*
X414506Y559886D01*
X414506Y562032D02*
X400494Y562032D01*
D11*
X308310Y492300D02*
X308310Y480060D01*
X296070Y480060D01*
X296070Y492300D01*
X308310Y492300D01*
X308310Y482274D02*
X296070Y482274D01*
X296070Y484488D02*
X308310Y484488D01*
X308310Y486702D02*
X296070Y486702D01*
X296070Y488916D02*
X308310Y488916D01*
X308310Y491130D02*
X296070Y491130D01*
X326760Y498270D02*
X326760Y510510D01*
X326760Y498270D02*
X314520Y498270D01*
X314520Y510510D01*
X326760Y510510D01*
X326760Y500484D02*
X314520Y500484D01*
X314520Y502698D02*
X326760Y502698D01*
X326760Y504912D02*
X314520Y504912D01*
X314520Y507126D02*
X326760Y507126D01*
X326760Y509340D02*
X314520Y509340D01*
X308460Y510510D02*
X308460Y498270D01*
X296220Y498270D01*
X296220Y510510D01*
X308460Y510510D01*
X308460Y500484D02*
X296220Y500484D01*
X296220Y502698D02*
X308460Y502698D01*
X308460Y504912D02*
X296220Y504912D01*
X296220Y507126D02*
X308460Y507126D01*
X308460Y509340D02*
X296220Y509340D01*
X290160Y510510D02*
X290160Y498270D01*
X277920Y498270D01*
X277920Y510510D01*
X290160Y510510D01*
X290160Y500484D02*
X277920Y500484D01*
X277920Y502698D02*
X290160Y502698D01*
X290160Y504912D02*
X277920Y504912D01*
X277920Y507126D02*
X290160Y507126D01*
X290160Y509340D02*
X277920Y509340D01*
X290160Y492210D02*
X290160Y479970D01*
X277920Y479970D01*
X277920Y492210D01*
X290160Y492210D01*
X290160Y482184D02*
X277920Y482184D01*
X277920Y484398D02*
X290160Y484398D01*
X290160Y486612D02*
X277920Y486612D01*
X277920Y488826D02*
X290160Y488826D01*
X290160Y491040D02*
X277920Y491040D01*
X326860Y492510D02*
X326860Y480270D01*
X314620Y480270D01*
X314620Y492510D01*
X326860Y492510D01*
X326860Y482484D02*
X314620Y482484D01*
X314620Y484698D02*
X326860Y484698D01*
X326860Y486912D02*
X314620Y486912D01*
X314620Y489126D02*
X326860Y489126D01*
X326860Y491340D02*
X314620Y491340D01*
X326760Y473910D02*
X326760Y461670D01*
X314520Y461670D01*
X314520Y473910D01*
X326760Y473910D01*
X326760Y463884D02*
X314520Y463884D01*
X314520Y466098D02*
X326760Y466098D01*
X326760Y468312D02*
X314520Y468312D01*
X314520Y470526D02*
X326760Y470526D01*
X326760Y472740D02*
X314520Y472740D01*
X308460Y473810D02*
X308460Y461570D01*
X296220Y461570D01*
X296220Y473810D01*
X308460Y473810D01*
X308460Y463784D02*
X296220Y463784D01*
X296220Y465998D02*
X308460Y465998D01*
X308460Y468212D02*
X296220Y468212D01*
X296220Y470426D02*
X308460Y470426D01*
X308460Y472640D02*
X296220Y472640D01*
X290160Y473910D02*
X290160Y461670D01*
X277920Y461670D01*
X277920Y473910D01*
X290160Y473910D01*
X290160Y463884D02*
X277920Y463884D01*
X277920Y466098D02*
X290160Y466098D01*
X290160Y468312D02*
X277920Y468312D01*
X277920Y470526D02*
X290160Y470526D01*
X290160Y472740D02*
X277920Y472740D01*
D12*
X609600Y25400D03*
X25400Y25400D03*
X25400Y609600D03*
X609600Y609600D03*
D13*
X63500Y12700D03*
X590550Y590550D03*
D14*
X560332Y529182D02*
X560332Y527218D01*
X551368Y527218D01*
X551368Y529182D01*
X560332Y529182D01*
X560332Y524182D02*
X560332Y522218D01*
X551368Y522218D01*
X551368Y524182D01*
X560332Y524182D01*
D15*
X560358Y550442D02*
X560358Y555458D01*
X560358Y550442D02*
X551342Y550442D01*
X551342Y555458D01*
X560358Y555458D01*
X560358Y552583D02*
X551342Y552583D01*
X551342Y554724D02*
X560358Y554724D01*
X560358Y547708D02*
X560358Y542692D01*
X551342Y542692D01*
X551342Y547708D01*
X560358Y547708D01*
X560358Y544833D02*
X551342Y544833D01*
X551342Y546974D02*
X560358Y546974D01*
D14*
X560332Y539182D02*
X560332Y537218D01*
X551368Y537218D01*
X551368Y539182D01*
X560332Y539182D01*
X560332Y534182D02*
X560332Y532218D01*
X551368Y532218D01*
X551368Y534182D01*
X560332Y534182D01*
X551368Y514182D02*
X551368Y512218D01*
X551368Y514182D02*
X560332Y514182D01*
X560332Y512218D01*
X551368Y512218D01*
X551368Y517218D02*
X551368Y519182D01*
X560332Y519182D01*
X560332Y517218D01*
X551368Y517218D01*
D15*
X551342Y490958D02*
X551342Y485942D01*
X551342Y490958D02*
X560358Y490958D01*
X560358Y485942D01*
X551342Y485942D01*
X551342Y488083D02*
X560358Y488083D01*
X560358Y490224D02*
X551342Y490224D01*
X551342Y493692D02*
X551342Y498708D01*
X560358Y498708D01*
X560358Y493692D01*
X551342Y493692D01*
X551342Y495833D02*
X560358Y495833D01*
X560358Y497974D02*
X551342Y497974D01*
D14*
X551368Y502218D02*
X551368Y504182D01*
X560332Y504182D01*
X560332Y502218D01*
X551368Y502218D01*
X551368Y507218D02*
X551368Y509182D01*
X560332Y509182D01*
X560332Y507218D01*
X551368Y507218D01*
D16*
X566900Y491800D03*
X566900Y549600D03*
D17*
X478092Y458008D02*
X478092Y447992D01*
X478092Y458008D02*
X487108Y458008D01*
X487108Y447992D01*
X478092Y447992D01*
X478092Y450133D02*
X487108Y450133D01*
X487108Y452274D02*
X478092Y452274D01*
X478092Y454415D02*
X487108Y454415D01*
X487108Y456556D02*
X478092Y456556D01*
X478092Y441008D02*
X478092Y430992D01*
X478092Y441008D02*
X487108Y441008D01*
X487108Y430992D01*
X478092Y430992D01*
X478092Y433133D02*
X487108Y433133D01*
X487108Y435274D02*
X478092Y435274D01*
X478092Y437415D02*
X487108Y437415D01*
X487108Y439556D02*
X478092Y439556D01*
X487108Y402908D02*
X487108Y392892D01*
X478092Y392892D01*
X478092Y402908D01*
X487108Y402908D01*
X487108Y395033D02*
X478092Y395033D01*
X478092Y397174D02*
X487108Y397174D01*
X487108Y399315D02*
X478092Y399315D01*
X478092Y401456D02*
X487108Y401456D01*
X487108Y409892D02*
X487108Y419908D01*
X487108Y409892D02*
X478092Y409892D01*
X478092Y419908D01*
X487108Y419908D01*
X487108Y412033D02*
X478092Y412033D01*
X478092Y414174D02*
X487108Y414174D01*
X487108Y416315D02*
X478092Y416315D01*
X478092Y418456D02*
X487108Y418456D01*
D18*
X508932Y260881D02*
X513468Y260881D01*
X508932Y260881D02*
X508932Y271917D01*
X513468Y271917D01*
X513468Y260881D01*
X513468Y263003D02*
X508932Y263003D01*
X508932Y265125D02*
X513468Y265125D01*
X513468Y267247D02*
X508932Y267247D01*
X508932Y269369D02*
X513468Y269369D01*
X513468Y271491D02*
X508932Y271491D01*
X518432Y260881D02*
X522968Y260881D01*
X518432Y260881D02*
X518432Y271917D01*
X522968Y271917D01*
X522968Y260881D01*
X522968Y263003D02*
X518432Y263003D01*
X518432Y265125D02*
X522968Y265125D01*
X522968Y267247D02*
X518432Y267247D01*
X518432Y269369D02*
X522968Y269369D01*
X522968Y271491D02*
X518432Y271491D01*
X527932Y260881D02*
X532468Y260881D01*
X527932Y260881D02*
X527932Y271917D01*
X532468Y271917D01*
X532468Y260881D01*
X532468Y263003D02*
X527932Y263003D01*
X527932Y265125D02*
X532468Y265125D01*
X532468Y267247D02*
X527932Y267247D01*
X527932Y269369D02*
X532468Y269369D01*
X532468Y271491D02*
X527932Y271491D01*
X527932Y286883D02*
X532468Y286883D01*
X527932Y286883D02*
X527932Y297919D01*
X532468Y297919D01*
X532468Y286883D01*
X532468Y289005D02*
X527932Y289005D01*
X527932Y291127D02*
X532468Y291127D01*
X532468Y293249D02*
X527932Y293249D01*
X527932Y295371D02*
X532468Y295371D01*
X532468Y297493D02*
X527932Y297493D01*
X513468Y286883D02*
X508932Y286883D01*
X508932Y297919D01*
X513468Y297919D01*
X513468Y286883D01*
X513468Y289005D02*
X508932Y289005D01*
X508932Y291127D02*
X513468Y291127D01*
X513468Y293249D02*
X508932Y293249D01*
X508932Y295371D02*
X513468Y295371D01*
X513468Y297493D02*
X508932Y297493D01*
D19*
X517525Y248539D02*
X517525Y208661D01*
X517525Y248539D02*
X527939Y248539D01*
X527939Y208661D01*
X517525Y208661D01*
X517525Y210833D02*
X527939Y210833D01*
X527939Y213005D02*
X517525Y213005D01*
X517525Y215177D02*
X527939Y215177D01*
X527939Y217349D02*
X517525Y217349D01*
X517525Y219521D02*
X527939Y219521D01*
X527939Y221693D02*
X517525Y221693D01*
X517525Y223865D02*
X527939Y223865D01*
X527939Y226037D02*
X517525Y226037D01*
X517525Y228209D02*
X527939Y228209D01*
X527939Y230381D02*
X517525Y230381D01*
X517525Y232553D02*
X527939Y232553D01*
X527939Y234725D02*
X517525Y234725D01*
X517525Y236897D02*
X527939Y236897D01*
X527939Y239069D02*
X517525Y239069D01*
X517525Y241241D02*
X527939Y241241D01*
X527939Y243413D02*
X517525Y243413D01*
X517525Y245585D02*
X527939Y245585D01*
X527939Y247757D02*
X517525Y247757D01*
X488061Y248539D02*
X488061Y208661D01*
X488061Y248539D02*
X498475Y248539D01*
X498475Y208661D01*
X488061Y208661D01*
X488061Y210833D02*
X498475Y210833D01*
X498475Y213005D02*
X488061Y213005D01*
X488061Y215177D02*
X498475Y215177D01*
X498475Y217349D02*
X488061Y217349D01*
X488061Y219521D02*
X498475Y219521D01*
X498475Y221693D02*
X488061Y221693D01*
X488061Y223865D02*
X498475Y223865D01*
X498475Y226037D02*
X488061Y226037D01*
X488061Y228209D02*
X498475Y228209D01*
X498475Y230381D02*
X488061Y230381D01*
X488061Y232553D02*
X498475Y232553D01*
X498475Y234725D02*
X488061Y234725D01*
X488061Y236897D02*
X498475Y236897D01*
X498475Y239069D02*
X488061Y239069D01*
X488061Y241241D02*
X498475Y241241D01*
X498475Y243413D02*
X488061Y243413D01*
X488061Y245585D02*
X498475Y245585D01*
X498475Y247757D02*
X488061Y247757D01*
D20*
X546100Y317500D03*
X520700Y317500D03*
D21*
X520424Y354324D02*
X527376Y354324D01*
X520424Y354324D02*
X520424Y362276D01*
X527376Y362276D01*
X527376Y354324D01*
X527376Y356526D02*
X520424Y356526D01*
X520424Y358728D02*
X527376Y358728D01*
X527376Y360930D02*
X520424Y360930D01*
X539424Y354324D02*
X546376Y354324D01*
X539424Y354324D02*
X539424Y362276D01*
X546376Y362276D01*
X546376Y354324D01*
X546376Y356526D02*
X539424Y356526D01*
X539424Y358728D02*
X546376Y358728D01*
X546376Y360930D02*
X539424Y360930D01*
X536876Y375324D02*
X529924Y375324D01*
X529924Y383276D01*
X536876Y383276D01*
X536876Y375324D01*
X536876Y377526D02*
X529924Y377526D01*
X529924Y379728D02*
X536876Y379728D01*
X536876Y381930D02*
X529924Y381930D01*
D22*
X542250Y346550D02*
X547550Y346550D01*
X547550Y339250D01*
X542250Y339250D01*
X542250Y346550D01*
X542250Y341407D02*
X547550Y341407D01*
X547550Y343564D02*
X542250Y343564D01*
X542250Y345721D02*
X547550Y345721D01*
X524550Y346550D02*
X519250Y346550D01*
X524550Y346550D02*
X524550Y339250D01*
X519250Y339250D01*
X519250Y346550D01*
X519250Y341407D02*
X524550Y341407D01*
X524550Y343564D02*
X519250Y343564D01*
X519250Y345721D02*
X524550Y345721D01*
D17*
X491808Y338392D02*
X481792Y338392D01*
X481792Y347408D01*
X491808Y347408D01*
X491808Y338392D01*
X491808Y340533D02*
X481792Y340533D01*
X481792Y342674D02*
X491808Y342674D01*
X491808Y344815D02*
X481792Y344815D01*
X481792Y346956D02*
X491808Y346956D01*
X498792Y338392D02*
X508808Y338392D01*
X498792Y338392D02*
X498792Y347408D01*
X508808Y347408D01*
X508808Y338392D01*
X508808Y340533D02*
X498792Y340533D01*
X498792Y342674D02*
X508808Y342674D01*
X508808Y344815D02*
X498792Y344815D01*
X498792Y346956D02*
X508808Y346956D01*
X490792Y331008D02*
X490792Y320992D01*
X490792Y331008D02*
X499808Y331008D01*
X499808Y320992D01*
X490792Y320992D01*
X490792Y323133D02*
X499808Y323133D01*
X499808Y325274D02*
X490792Y325274D01*
X490792Y327415D02*
X499808Y327415D01*
X499808Y329556D02*
X490792Y329556D01*
X490792Y314008D02*
X490792Y303992D01*
X490792Y314008D02*
X499808Y314008D01*
X499808Y303992D01*
X490792Y303992D01*
X490792Y306133D02*
X499808Y306133D01*
X499808Y308274D02*
X490792Y308274D01*
X490792Y310415D02*
X499808Y310415D01*
X499808Y312556D02*
X490792Y312556D01*
D21*
X540624Y291876D02*
X540624Y284924D01*
X540624Y291876D02*
X551576Y291876D01*
X551576Y284924D01*
X540624Y284924D01*
X540624Y287126D02*
X551576Y287126D01*
X551576Y289328D02*
X540624Y289328D01*
X540624Y291530D02*
X551576Y291530D01*
X540624Y273876D02*
X540624Y266924D01*
X540624Y273876D02*
X551576Y273876D01*
X551576Y266924D01*
X540624Y266924D01*
X540624Y269126D02*
X551576Y269126D01*
X551576Y271328D02*
X540624Y271328D01*
X540624Y273530D02*
X551576Y273530D01*
X464424Y253776D02*
X464424Y246824D01*
X464424Y253776D02*
X475376Y253776D01*
X475376Y246824D01*
X464424Y246824D01*
X464424Y249026D02*
X475376Y249026D01*
X475376Y251228D02*
X464424Y251228D01*
X464424Y253430D02*
X475376Y253430D01*
X464424Y235776D02*
X464424Y228824D01*
X464424Y235776D02*
X475376Y235776D01*
X475376Y228824D01*
X464424Y228824D01*
X464424Y231026D02*
X475376Y231026D01*
X475376Y233228D02*
X464424Y233228D01*
X464424Y235430D02*
X475376Y235430D01*
D17*
X465392Y282892D02*
X465392Y292908D01*
X474408Y292908D01*
X474408Y282892D01*
X465392Y282892D01*
X465392Y285033D02*
X474408Y285033D01*
X474408Y287174D02*
X465392Y287174D01*
X465392Y289315D02*
X474408Y289315D01*
X474408Y291456D02*
X465392Y291456D01*
X465392Y275908D02*
X465392Y265892D01*
X465392Y275908D02*
X474408Y275908D01*
X474408Y265892D01*
X465392Y265892D01*
X465392Y268033D02*
X474408Y268033D01*
X474408Y270174D02*
X465392Y270174D01*
X465392Y272315D02*
X474408Y272315D01*
X474408Y274456D02*
X465392Y274456D01*
X465392Y320992D02*
X465392Y331008D01*
X474408Y331008D01*
X474408Y320992D01*
X465392Y320992D01*
X465392Y323133D02*
X474408Y323133D01*
X474408Y325274D02*
X465392Y325274D01*
X465392Y327415D02*
X474408Y327415D01*
X474408Y329556D02*
X465392Y329556D01*
X465392Y314008D02*
X465392Y303992D01*
X465392Y314008D02*
X474408Y314008D01*
X474408Y303992D01*
X465392Y303992D01*
X465392Y306133D02*
X474408Y306133D01*
X474408Y308274D02*
X465392Y308274D01*
X465392Y310415D02*
X474408Y310415D01*
X474408Y312556D02*
X465392Y312556D01*
X490792Y292908D02*
X490792Y282892D01*
X490792Y292908D02*
X499808Y292908D01*
X499808Y282892D01*
X490792Y282892D01*
X490792Y285033D02*
X499808Y285033D01*
X499808Y287174D02*
X490792Y287174D01*
X490792Y289315D02*
X499808Y289315D01*
X499808Y291456D02*
X490792Y291456D01*
X490792Y275908D02*
X490792Y265892D01*
X490792Y275908D02*
X499808Y275908D01*
X499808Y265892D01*
X490792Y265892D01*
X490792Y268033D02*
X499808Y268033D01*
X499808Y270174D02*
X490792Y270174D01*
X490792Y272315D02*
X499808Y272315D01*
X499808Y274456D02*
X490792Y274456D01*
D18*
X585132Y330731D02*
X589668Y330731D01*
X585132Y330731D02*
X585132Y341767D01*
X589668Y341767D01*
X589668Y330731D01*
X589668Y332853D02*
X585132Y332853D01*
X585132Y334975D02*
X589668Y334975D01*
X589668Y337097D02*
X585132Y337097D01*
X585132Y339219D02*
X589668Y339219D01*
X589668Y341341D02*
X585132Y341341D01*
X594632Y330731D02*
X599168Y330731D01*
X594632Y330731D02*
X594632Y341767D01*
X599168Y341767D01*
X599168Y330731D01*
X599168Y332853D02*
X594632Y332853D01*
X594632Y334975D02*
X599168Y334975D01*
X599168Y337097D02*
X594632Y337097D01*
X594632Y339219D02*
X599168Y339219D01*
X599168Y341341D02*
X594632Y341341D01*
X604132Y330731D02*
X608668Y330731D01*
X604132Y330731D02*
X604132Y341767D01*
X608668Y341767D01*
X608668Y330731D01*
X608668Y332853D02*
X604132Y332853D01*
X604132Y334975D02*
X608668Y334975D01*
X608668Y337097D02*
X604132Y337097D01*
X604132Y339219D02*
X608668Y339219D01*
X608668Y341341D02*
X604132Y341341D01*
X604132Y356733D02*
X608668Y356733D01*
X604132Y356733D02*
X604132Y367769D01*
X608668Y367769D01*
X608668Y356733D01*
X608668Y358855D02*
X604132Y358855D01*
X604132Y360977D02*
X608668Y360977D01*
X608668Y363099D02*
X604132Y363099D01*
X604132Y365221D02*
X608668Y365221D01*
X608668Y367343D02*
X604132Y367343D01*
X589668Y356733D02*
X585132Y356733D01*
X585132Y367769D01*
X589668Y367769D01*
X589668Y356733D01*
X589668Y358855D02*
X585132Y358855D01*
X585132Y360977D02*
X589668Y360977D01*
X589668Y363099D02*
X585132Y363099D01*
X585132Y365221D02*
X589668Y365221D01*
X589668Y367343D02*
X585132Y367343D01*
D17*
X626808Y352108D02*
X626808Y342092D01*
X617792Y342092D01*
X617792Y352108D01*
X626808Y352108D01*
X626808Y344233D02*
X617792Y344233D01*
X617792Y346374D02*
X626808Y346374D01*
X626808Y348515D02*
X617792Y348515D01*
X617792Y350656D02*
X626808Y350656D01*
X626808Y359092D02*
X626808Y369108D01*
X626808Y359092D02*
X617792Y359092D01*
X617792Y369108D01*
X626808Y369108D01*
X626808Y361233D02*
X617792Y361233D01*
X617792Y363374D02*
X626808Y363374D01*
X626808Y365515D02*
X617792Y365515D01*
X617792Y367656D02*
X626808Y367656D01*
X576008Y314008D02*
X576008Y303992D01*
X566992Y303992D01*
X566992Y314008D01*
X576008Y314008D01*
X576008Y306133D02*
X566992Y306133D01*
X566992Y308274D02*
X576008Y308274D01*
X576008Y310415D02*
X566992Y310415D01*
X566992Y312556D02*
X576008Y312556D01*
X576008Y320992D02*
X576008Y331008D01*
X576008Y320992D02*
X566992Y320992D01*
X566992Y331008D01*
X576008Y331008D01*
X576008Y323133D02*
X566992Y323133D01*
X566992Y325274D02*
X576008Y325274D01*
X576008Y327415D02*
X566992Y327415D01*
X566992Y329556D02*
X576008Y329556D01*
D23*
X447994Y284676D02*
X441006Y284676D01*
X441006Y291664D01*
X447994Y291664D01*
X447994Y284676D01*
X447994Y288745D02*
X441006Y288745D01*
X441006Y267136D02*
X447994Y267136D01*
X441006Y267136D02*
X441006Y274124D01*
X447994Y274124D01*
X447994Y267136D01*
X447994Y271205D02*
X441006Y271205D01*
X591624Y314006D02*
X591624Y320994D01*
X591624Y314006D02*
X584636Y314006D01*
X584636Y320994D01*
X591624Y320994D01*
X591624Y318075D02*
X584636Y318075D01*
X609164Y320994D02*
X609164Y314006D01*
X602176Y314006D01*
X602176Y320994D01*
X609164Y320994D01*
X609164Y318075D02*
X602176Y318075D01*
D17*
X617792Y320992D02*
X617792Y331008D01*
X626808Y331008D01*
X626808Y320992D01*
X617792Y320992D01*
X617792Y323133D02*
X626808Y323133D01*
X626808Y325274D02*
X617792Y325274D01*
X617792Y327415D02*
X626808Y327415D01*
X626808Y329556D02*
X617792Y329556D01*
X617792Y314008D02*
X617792Y303992D01*
X617792Y314008D02*
X626808Y314008D01*
X626808Y303992D01*
X617792Y303992D01*
X617792Y306133D02*
X626808Y306133D01*
X626808Y308274D02*
X617792Y308274D01*
X617792Y310415D02*
X626808Y310415D01*
X626808Y312556D02*
X617792Y312556D01*
X537392Y424592D02*
X537392Y433608D01*
X582408Y433608D01*
X582408Y424592D01*
X537392Y424592D01*
X537392Y426733D02*
X582408Y426733D01*
X582408Y428874D02*
X537392Y428874D01*
X537392Y431015D02*
X582408Y431015D01*
X582408Y433156D02*
X537392Y433156D01*
X537392Y413608D02*
X537392Y404592D01*
X537392Y413608D02*
X582408Y413608D01*
X582408Y404592D01*
X537392Y404592D01*
X537392Y406733D02*
X582408Y406733D01*
X582408Y408874D02*
X537392Y408874D01*
X537392Y411015D02*
X582408Y411015D01*
X582408Y413156D02*
X537392Y413156D01*
D24*
X595387Y445587D02*
X628413Y445587D01*
X595387Y445587D02*
X595387Y460613D01*
X628413Y460613D01*
X628413Y445587D01*
X628413Y447720D02*
X595387Y447720D01*
X595387Y449853D02*
X628413Y449853D01*
X628413Y451986D02*
X595387Y451986D01*
X595387Y454119D02*
X628413Y454119D01*
X628413Y456252D02*
X595387Y456252D01*
X595387Y458385D02*
X628413Y458385D01*
X628413Y460518D02*
X595387Y460518D01*
X595387Y377587D02*
X628413Y377587D01*
X595387Y377587D02*
X595387Y392613D01*
X628413Y392613D01*
X628413Y377587D01*
X628413Y379720D02*
X595387Y379720D01*
X595387Y381853D02*
X628413Y381853D01*
X628413Y383986D02*
X595387Y383986D01*
X595387Y386119D02*
X628413Y386119D01*
X628413Y388252D02*
X595387Y388252D01*
X595387Y390385D02*
X628413Y390385D01*
X628413Y392518D02*
X595387Y392518D01*
D17*
X576008Y352108D02*
X576008Y342092D01*
X566992Y342092D01*
X566992Y352108D01*
X576008Y352108D01*
X576008Y344233D02*
X566992Y344233D01*
X566992Y346374D02*
X576008Y346374D01*
X576008Y348515D02*
X566992Y348515D01*
X566992Y350656D02*
X576008Y350656D01*
X576008Y359092D02*
X576008Y369108D01*
X576008Y359092D02*
X566992Y359092D01*
X566992Y369108D01*
X576008Y369108D01*
X576008Y361233D02*
X566992Y361233D01*
X566992Y363374D02*
X576008Y363374D01*
X576008Y365515D02*
X566992Y365515D01*
X566992Y367656D02*
X576008Y367656D01*
X439992Y331008D02*
X439992Y320992D01*
X439992Y331008D02*
X449008Y331008D01*
X449008Y320992D01*
X439992Y320992D01*
X439992Y323133D02*
X449008Y323133D01*
X449008Y325274D02*
X439992Y325274D01*
X439992Y327415D02*
X449008Y327415D01*
X449008Y329556D02*
X439992Y329556D01*
X439992Y314008D02*
X439992Y303992D01*
X439992Y314008D02*
X449008Y314008D01*
X449008Y303992D01*
X439992Y303992D01*
X439992Y306133D02*
X449008Y306133D01*
X449008Y308274D02*
X439992Y308274D01*
X439992Y310415D02*
X449008Y310415D01*
X449008Y312556D02*
X439992Y312556D01*
D25*
X630457Y180707D02*
X630457Y169693D01*
X611443Y169693D01*
X611443Y180707D01*
X630457Y180707D01*
X630457Y171836D02*
X611443Y171836D01*
X611443Y173979D02*
X630457Y173979D01*
X630457Y176122D02*
X611443Y176122D01*
X611443Y178265D02*
X630457Y178265D01*
X630457Y180408D02*
X611443Y180408D01*
X630457Y225693D02*
X630457Y236707D01*
X630457Y225693D02*
X611443Y225693D01*
X611443Y236707D01*
X630457Y236707D01*
X630457Y227836D02*
X611443Y227836D01*
X611443Y229979D02*
X630457Y229979D01*
X630457Y232122D02*
X611443Y232122D01*
X611443Y234265D02*
X630457Y234265D01*
X630457Y236408D02*
X611443Y236408D01*
D15*
X590458Y190708D02*
X590458Y185692D01*
X577942Y185692D01*
X577942Y190708D01*
X590458Y190708D01*
X590458Y187833D02*
X577942Y187833D01*
X577942Y189974D02*
X590458Y189974D01*
X590458Y195692D02*
X590458Y200708D01*
X590458Y195692D02*
X577942Y195692D01*
X577942Y200708D01*
X590458Y200708D01*
X590458Y197833D02*
X577942Y197833D01*
X577942Y199974D02*
X590458Y199974D01*
X590458Y205692D02*
X590458Y210708D01*
X590458Y205692D02*
X577942Y205692D01*
X577942Y210708D01*
X590458Y210708D01*
X590458Y207833D02*
X577942Y207833D01*
X577942Y209974D02*
X590458Y209974D01*
X590458Y215692D02*
X590458Y220708D01*
X590458Y215692D02*
X577942Y215692D01*
X577942Y220708D01*
X590458Y220708D01*
X590458Y217833D02*
X577942Y217833D01*
X577942Y219974D02*
X590458Y219974D01*
D17*
X554292Y165908D02*
X554292Y155892D01*
X554292Y165908D02*
X563308Y165908D01*
X563308Y155892D01*
X554292Y155892D01*
X554292Y158033D02*
X563308Y158033D01*
X563308Y160174D02*
X554292Y160174D01*
X554292Y162315D02*
X563308Y162315D01*
X563308Y164456D02*
X554292Y164456D01*
X554292Y148908D02*
X554292Y138892D01*
X554292Y148908D02*
X563308Y148908D01*
X563308Y138892D01*
X554292Y138892D01*
X554292Y141033D02*
X563308Y141033D01*
X563308Y143174D02*
X554292Y143174D01*
X554292Y145315D02*
X563308Y145315D01*
X563308Y147456D02*
X554292Y147456D01*
X528892Y155892D02*
X528892Y165908D01*
X537908Y165908D01*
X537908Y155892D01*
X528892Y155892D01*
X528892Y158033D02*
X537908Y158033D01*
X537908Y160174D02*
X528892Y160174D01*
X528892Y162315D02*
X537908Y162315D01*
X537908Y164456D02*
X528892Y164456D01*
X528892Y148908D02*
X528892Y138892D01*
X528892Y148908D02*
X537908Y148908D01*
X537908Y138892D01*
X528892Y138892D01*
X528892Y141033D02*
X537908Y141033D01*
X537908Y143174D02*
X528892Y143174D01*
X528892Y145315D02*
X537908Y145315D01*
X537908Y147456D02*
X528892Y147456D01*
D26*
X27602Y121452D02*
X27602Y118448D01*
X24598Y118448D01*
X24598Y121452D01*
X27602Y121452D01*
X27602Y120601D02*
X24598Y120601D01*
X35602Y121452D02*
X35602Y118448D01*
X32598Y118448D01*
X32598Y121452D01*
X35602Y121452D01*
X35602Y120601D02*
X32598Y120601D01*
X51602Y121452D02*
X51602Y118448D01*
X48598Y118448D01*
X48598Y121452D01*
X51602Y121452D01*
X51602Y120601D02*
X48598Y120601D01*
X51602Y97452D02*
X51602Y94448D01*
X48598Y94448D01*
X48598Y97452D01*
X51602Y97452D01*
X51602Y96601D02*
X48598Y96601D01*
X35602Y97452D02*
X35602Y94448D01*
X32598Y94448D01*
X32598Y97452D01*
X35602Y97452D01*
X35602Y96601D02*
X32598Y96601D01*
X27602Y97452D02*
X27602Y94448D01*
X24598Y94448D01*
X24598Y97452D01*
X27602Y97452D01*
X27602Y96601D02*
X24598Y96601D01*
X43602Y97452D02*
X43602Y94448D01*
X40598Y94448D01*
X40598Y97452D01*
X43602Y97452D01*
X43602Y96601D02*
X40598Y96601D01*
X43602Y118448D02*
X43602Y121452D01*
X43602Y118448D02*
X40598Y118448D01*
X40598Y121452D01*
X43602Y121452D01*
X43602Y120601D02*
X40598Y120601D01*
D17*
X43642Y65342D02*
X53658Y65342D01*
X43642Y65342D02*
X43642Y74358D01*
X53658Y74358D01*
X53658Y65342D01*
X53658Y67483D02*
X43642Y67483D01*
X43642Y69624D02*
X53658Y69624D01*
X53658Y71765D02*
X43642Y71765D01*
X43642Y73906D02*
X53658Y73906D01*
X60642Y65342D02*
X70658Y65342D01*
X60642Y65342D02*
X60642Y74358D01*
X70658Y74358D01*
X70658Y65342D01*
X70658Y67483D02*
X60642Y67483D01*
X60642Y69624D02*
X70658Y69624D01*
X70658Y71765D02*
X60642Y71765D01*
X60642Y73906D02*
X70658Y73906D01*
X32558Y74358D02*
X22542Y74358D01*
X32558Y74358D02*
X32558Y65342D01*
X22542Y65342D01*
X22542Y74358D01*
X22542Y67483D02*
X32558Y67483D01*
X32558Y69624D02*
X22542Y69624D01*
X22542Y71765D02*
X32558Y71765D01*
X32558Y73906D02*
X22542Y73906D01*
X15558Y74358D02*
X5542Y74358D01*
X15558Y74358D02*
X15558Y65342D01*
X5542Y65342D01*
X5542Y74358D01*
X5542Y67483D02*
X15558Y67483D01*
X15558Y69624D02*
X5542Y69624D01*
X5542Y71765D02*
X15558Y71765D01*
X15558Y73906D02*
X5542Y73906D01*
X41592Y163258D02*
X51608Y163258D01*
X51608Y154242D01*
X41592Y154242D01*
X41592Y163258D01*
X41592Y156383D02*
X51608Y156383D01*
X51608Y158524D02*
X41592Y158524D01*
X41592Y160665D02*
X51608Y160665D01*
X51608Y162806D02*
X41592Y162806D01*
X34608Y163258D02*
X24592Y163258D01*
X34608Y163258D02*
X34608Y154242D01*
X24592Y154242D01*
X24592Y163258D01*
X24592Y156383D02*
X34608Y156383D01*
X34608Y158524D02*
X24592Y158524D01*
X24592Y160665D02*
X34608Y160665D01*
X34608Y162806D02*
X24592Y162806D01*
D27*
X303935Y212465D02*
X303935Y213935D01*
X303935Y212465D02*
X300015Y212465D01*
X300015Y213935D01*
X303935Y213935D01*
X304985Y209935D02*
X304985Y208465D01*
X300015Y208465D01*
X300015Y209935D01*
X304985Y209935D01*
X304985Y205935D02*
X304985Y204465D01*
X300015Y204465D01*
X300015Y205935D01*
X304985Y205935D01*
X304985Y201935D02*
X304985Y200465D01*
X300015Y200465D01*
X300015Y201935D01*
X304985Y201935D01*
X304985Y197935D02*
X304985Y196465D01*
X300015Y196465D01*
X300015Y197935D01*
X304985Y197935D01*
X303935Y193935D02*
X303935Y192465D01*
X300015Y192465D01*
X300015Y193935D01*
X303935Y193935D01*
X306765Y189635D02*
X308235Y189635D01*
X308235Y185715D01*
X306765Y185715D01*
X306765Y189635D01*
X306765Y187900D02*
X308235Y187900D01*
X310765Y190685D02*
X312235Y190685D01*
X312235Y185715D01*
X310765Y185715D01*
X310765Y190685D01*
X310765Y187900D02*
X312235Y187900D01*
X312235Y190085D02*
X310765Y190085D01*
X314765Y190685D02*
X316235Y190685D01*
X316235Y185715D01*
X314765Y185715D01*
X314765Y190685D01*
X314765Y187900D02*
X316235Y187900D01*
X316235Y190085D02*
X314765Y190085D01*
X318765Y190685D02*
X320235Y190685D01*
X320235Y185715D01*
X318765Y185715D01*
X318765Y190685D01*
X318765Y187900D02*
X320235Y187900D01*
X320235Y190085D02*
X318765Y190085D01*
X322765Y190685D02*
X324235Y190685D01*
X324235Y185715D01*
X322765Y185715D01*
X322765Y190685D01*
X322765Y187900D02*
X324235Y187900D01*
X324235Y190085D02*
X322765Y190085D01*
X326765Y189635D02*
X328235Y189635D01*
X328235Y185715D01*
X326765Y185715D01*
X326765Y189635D01*
X326765Y187900D02*
X328235Y187900D01*
X331065Y192465D02*
X331065Y193935D01*
X334985Y193935D01*
X334985Y192465D01*
X331065Y192465D01*
X330015Y196465D02*
X330015Y197935D01*
X334985Y197935D01*
X334985Y196465D01*
X330015Y196465D01*
X330015Y200465D02*
X330015Y201935D01*
X334985Y201935D01*
X334985Y200465D01*
X330015Y200465D01*
X330015Y204465D02*
X330015Y205935D01*
X334985Y205935D01*
X334985Y204465D01*
X330015Y204465D01*
X330015Y208465D02*
X330015Y209935D01*
X334985Y209935D01*
X334985Y208465D01*
X330015Y208465D01*
X331065Y212465D02*
X331065Y213935D01*
X334985Y213935D01*
X334985Y212465D01*
X331065Y212465D01*
X328235Y216765D02*
X326765Y216765D01*
X326765Y220685D01*
X328235Y220685D01*
X328235Y216765D01*
X328235Y218950D02*
X326765Y218950D01*
X324235Y215715D02*
X322765Y215715D01*
X322765Y220685D01*
X324235Y220685D01*
X324235Y215715D01*
X324235Y217900D02*
X322765Y217900D01*
X322765Y220085D02*
X324235Y220085D01*
X320235Y215715D02*
X318765Y215715D01*
X318765Y220685D01*
X320235Y220685D01*
X320235Y215715D01*
X320235Y217900D02*
X318765Y217900D01*
X318765Y220085D02*
X320235Y220085D01*
X316235Y215715D02*
X314765Y215715D01*
X314765Y220685D01*
X316235Y220685D01*
X316235Y215715D01*
X316235Y217900D02*
X314765Y217900D01*
X314765Y220085D02*
X316235Y220085D01*
X312235Y215715D02*
X310765Y215715D01*
X310765Y220685D01*
X312235Y220685D01*
X312235Y215715D01*
X312235Y217900D02*
X310765Y217900D01*
X310765Y220085D02*
X312235Y220085D01*
X308235Y216765D02*
X306765Y216765D01*
X306765Y220685D01*
X308235Y220685D01*
X308235Y216765D01*
X308235Y218950D02*
X306765Y218950D01*
D28*
X305990Y213195D03*
D29*
X307505Y191690D03*
D28*
X329010Y193205D03*
D29*
X327495Y214710D03*
X307505Y214710D03*
D28*
X305990Y193205D03*
D29*
X327495Y191690D03*
D28*
X329010Y213195D03*
D26*
X329002Y245998D02*
X329002Y249002D01*
X329002Y245998D02*
X322498Y245998D01*
X322498Y249002D01*
X329002Y249002D01*
X329002Y248151D02*
X322498Y248151D01*
X329002Y252498D02*
X329002Y255502D01*
X329002Y252498D02*
X322498Y252498D01*
X322498Y255502D01*
X329002Y255502D01*
X329002Y254651D02*
X322498Y254651D01*
X329002Y258998D02*
X329002Y262002D01*
X329002Y258998D02*
X322498Y258998D01*
X322498Y262002D01*
X329002Y262002D01*
X329002Y261151D02*
X322498Y261151D01*
X312502Y262002D02*
X312502Y258998D01*
X305998Y258998D01*
X305998Y262002D01*
X312502Y262002D01*
X312502Y261151D02*
X305998Y261151D01*
X312502Y249002D02*
X312502Y245998D01*
X305998Y245998D01*
X305998Y249002D01*
X312502Y249002D01*
X312502Y248151D02*
X305998Y248151D01*
D17*
X347408Y250508D02*
X347408Y240492D01*
X338392Y240492D01*
X338392Y250508D01*
X347408Y250508D01*
X347408Y242633D02*
X338392Y242633D01*
X338392Y244774D02*
X347408Y244774D01*
X347408Y246915D02*
X338392Y246915D01*
X338392Y249056D02*
X347408Y249056D01*
X347408Y257492D02*
X347408Y267508D01*
X347408Y257492D02*
X338392Y257492D01*
X338392Y267508D01*
X347408Y267508D01*
X347408Y259633D02*
X338392Y259633D01*
X338392Y261774D02*
X347408Y261774D01*
X347408Y263915D02*
X338392Y263915D01*
X338392Y266056D02*
X347408Y266056D01*
X296608Y250508D02*
X296608Y240492D01*
X287592Y240492D01*
X287592Y250508D01*
X296608Y250508D01*
X296608Y242633D02*
X287592Y242633D01*
X287592Y244774D02*
X296608Y244774D01*
X296608Y246915D02*
X287592Y246915D01*
X287592Y249056D02*
X296608Y249056D01*
X296608Y257492D02*
X296608Y267508D01*
X296608Y257492D02*
X287592Y257492D01*
X287592Y267508D01*
X296608Y267508D01*
X296608Y259633D02*
X287592Y259633D01*
X287592Y261774D02*
X296608Y261774D01*
X296608Y263915D02*
X287592Y263915D01*
X287592Y266056D02*
X296608Y266056D01*
X343472Y165908D02*
X343472Y155892D01*
X343472Y165908D02*
X352488Y165908D01*
X352488Y155892D01*
X343472Y155892D01*
X343472Y158033D02*
X352488Y158033D01*
X352488Y160174D02*
X343472Y160174D01*
X343472Y162315D02*
X352488Y162315D01*
X352488Y164456D02*
X343472Y164456D01*
X343472Y148908D02*
X343472Y138892D01*
X343472Y148908D02*
X352488Y148908D01*
X352488Y138892D01*
X343472Y138892D01*
X343472Y141033D02*
X352488Y141033D01*
X352488Y143174D02*
X343472Y143174D01*
X343472Y145315D02*
X352488Y145315D01*
X352488Y147456D02*
X343472Y147456D01*
X282512Y155892D02*
X282512Y165908D01*
X291528Y165908D01*
X291528Y155892D01*
X282512Y155892D01*
X282512Y158033D02*
X291528Y158033D01*
X291528Y160174D02*
X282512Y160174D01*
X282512Y162315D02*
X291528Y162315D01*
X291528Y164456D02*
X282512Y164456D01*
X282512Y148908D02*
X282512Y138892D01*
X282512Y148908D02*
X291528Y148908D01*
X291528Y138892D01*
X282512Y138892D01*
X282512Y141033D02*
X291528Y141033D01*
X291528Y143174D02*
X282512Y143174D01*
X282512Y145315D02*
X291528Y145315D01*
X291528Y147456D02*
X282512Y147456D01*
X323152Y155892D02*
X323152Y165908D01*
X332168Y165908D01*
X332168Y155892D01*
X323152Y155892D01*
X323152Y158033D02*
X332168Y158033D01*
X332168Y160174D02*
X323152Y160174D01*
X323152Y162315D02*
X332168Y162315D01*
X332168Y164456D02*
X323152Y164456D01*
X323152Y148908D02*
X323152Y138892D01*
X323152Y148908D02*
X332168Y148908D01*
X332168Y138892D01*
X323152Y138892D01*
X323152Y141033D02*
X332168Y141033D01*
X332168Y143174D02*
X323152Y143174D01*
X323152Y145315D02*
X332168Y145315D01*
X332168Y147456D02*
X323152Y147456D01*
X302832Y155892D02*
X302832Y165908D01*
X311848Y165908D01*
X311848Y155892D01*
X302832Y155892D01*
X302832Y158033D02*
X311848Y158033D01*
X311848Y160174D02*
X302832Y160174D01*
X302832Y162315D02*
X311848Y162315D01*
X311848Y164456D02*
X302832Y164456D01*
X302832Y148908D02*
X302832Y138892D01*
X302832Y148908D02*
X311848Y148908D01*
X311848Y138892D01*
X302832Y138892D01*
X302832Y141033D02*
X311848Y141033D01*
X311848Y143174D02*
X302832Y143174D01*
X302832Y145315D02*
X311848Y145315D01*
X311848Y147456D02*
X302832Y147456D01*
D30*
X273491Y216941D02*
X269909Y216941D01*
X273491Y216941D02*
X273491Y211459D01*
X269909Y211459D01*
X269909Y216941D01*
X269909Y213634D02*
X273491Y213634D01*
X273491Y215809D02*
X269909Y215809D01*
X263491Y216941D02*
X259909Y216941D01*
X263491Y216941D02*
X263491Y211459D01*
X259909Y211459D01*
X259909Y216941D01*
X259909Y213634D02*
X263491Y213634D01*
X263491Y215809D02*
X259909Y215809D01*
X264909Y205441D02*
X268491Y205441D01*
X268491Y199959D01*
X264909Y199959D01*
X264909Y205441D01*
X264909Y202134D02*
X268491Y202134D01*
X268491Y204309D02*
X264909Y204309D01*
D17*
X263208Y224092D02*
X253192Y224092D01*
X253192Y233108D01*
X263208Y233108D01*
X263208Y224092D01*
X263208Y226233D02*
X253192Y226233D01*
X253192Y228374D02*
X263208Y228374D01*
X263208Y230515D02*
X253192Y230515D01*
X253192Y232656D02*
X263208Y232656D01*
X270192Y224092D02*
X280208Y224092D01*
X270192Y224092D02*
X270192Y233108D01*
X280208Y233108D01*
X280208Y224092D01*
X280208Y226233D02*
X270192Y226233D01*
X270192Y228374D02*
X280208Y228374D01*
X280208Y230515D02*
X270192Y230515D01*
X270192Y232656D02*
X280208Y232656D01*
D30*
X273491Y178841D02*
X269909Y178841D01*
X273491Y178841D02*
X273491Y173359D01*
X269909Y173359D01*
X269909Y178841D01*
X269909Y175534D02*
X273491Y175534D01*
X273491Y177709D02*
X269909Y177709D01*
X263491Y178841D02*
X259909Y178841D01*
X263491Y178841D02*
X263491Y173359D01*
X259909Y173359D01*
X259909Y178841D01*
X259909Y175534D02*
X263491Y175534D01*
X263491Y177709D02*
X259909Y177709D01*
X264909Y167341D02*
X268491Y167341D01*
X268491Y161859D01*
X264909Y161859D01*
X264909Y167341D01*
X264909Y164034D02*
X268491Y164034D01*
X268491Y166209D02*
X264909Y166209D01*
D17*
X263208Y185992D02*
X253192Y185992D01*
X253192Y195008D01*
X263208Y195008D01*
X263208Y185992D01*
X263208Y188133D02*
X253192Y188133D01*
X253192Y190274D02*
X263208Y190274D01*
X263208Y192415D02*
X253192Y192415D01*
X253192Y194556D02*
X263208Y194556D01*
X270192Y185992D02*
X280208Y185992D01*
X270192Y185992D02*
X270192Y195008D01*
X280208Y195008D01*
X280208Y185992D01*
X280208Y188133D02*
X270192Y188133D01*
X270192Y190274D02*
X280208Y190274D01*
X280208Y192415D02*
X270192Y192415D01*
X270192Y194556D02*
X280208Y194556D01*
D30*
X361509Y164059D02*
X365091Y164059D01*
X361509Y164059D02*
X361509Y169541D01*
X365091Y169541D01*
X365091Y164059D01*
X365091Y166234D02*
X361509Y166234D01*
X361509Y168409D02*
X365091Y168409D01*
X371509Y164059D02*
X375091Y164059D01*
X371509Y164059D02*
X371509Y169541D01*
X375091Y169541D01*
X375091Y164059D01*
X375091Y166234D02*
X371509Y166234D01*
X371509Y168409D02*
X375091Y168409D01*
X370091Y175559D02*
X366509Y175559D01*
X366509Y181041D01*
X370091Y181041D01*
X370091Y175559D01*
X370091Y177734D02*
X366509Y177734D01*
X366509Y179909D02*
X370091Y179909D01*
D17*
X364808Y211392D02*
X354792Y211392D01*
X354792Y220408D01*
X364808Y220408D01*
X364808Y211392D01*
X364808Y213533D02*
X354792Y213533D01*
X354792Y215674D02*
X364808Y215674D01*
X364808Y217815D02*
X354792Y217815D01*
X354792Y219956D02*
X364808Y219956D01*
X371792Y211392D02*
X381808Y211392D01*
X371792Y211392D02*
X371792Y220408D01*
X381808Y220408D01*
X381808Y211392D01*
X381808Y213533D02*
X371792Y213533D01*
X371792Y215674D02*
X381808Y215674D01*
X381808Y217815D02*
X371792Y217815D01*
X371792Y219956D02*
X381808Y219956D01*
X381808Y195008D02*
X371792Y195008D01*
X381808Y195008D02*
X381808Y185992D01*
X371792Y185992D01*
X371792Y195008D01*
X371792Y188133D02*
X381808Y188133D01*
X381808Y190274D02*
X371792Y190274D01*
X371792Y192415D02*
X381808Y192415D01*
X381808Y194556D02*
X371792Y194556D01*
X364808Y195008D02*
X354792Y195008D01*
X364808Y195008D02*
X364808Y185992D01*
X354792Y185992D01*
X354792Y195008D01*
X354792Y188133D02*
X364808Y188133D01*
X364808Y190274D02*
X354792Y190274D01*
X354792Y192415D02*
X364808Y192415D01*
X364808Y194556D02*
X354792Y194556D01*
D15*
X541508Y473742D02*
X541508Y478758D01*
X541508Y473742D02*
X530492Y473742D01*
X530492Y478758D01*
X541508Y478758D01*
X541508Y475883D02*
X530492Y475883D01*
X530492Y478024D02*
X541508Y478024D01*
X541508Y486442D02*
X541508Y491458D01*
X541508Y486442D02*
X530492Y486442D01*
X530492Y491458D01*
X541508Y491458D01*
X541508Y488583D02*
X530492Y488583D01*
X530492Y490724D02*
X541508Y490724D01*
X541508Y499142D02*
X541508Y504158D01*
X541508Y499142D02*
X530492Y499142D01*
X530492Y504158D01*
X541508Y504158D01*
X541508Y501283D02*
X530492Y501283D01*
X530492Y503424D02*
X541508Y503424D01*
X541508Y511842D02*
X541508Y516858D01*
X541508Y511842D02*
X530492Y511842D01*
X530492Y516858D01*
X541508Y516858D01*
X541508Y513983D02*
X530492Y513983D01*
X530492Y516124D02*
X541508Y516124D01*
X541508Y524542D02*
X541508Y529558D01*
X541508Y524542D02*
X530492Y524542D01*
X530492Y529558D01*
X541508Y529558D01*
X541508Y526683D02*
X530492Y526683D01*
X530492Y528824D02*
X541508Y528824D01*
X541508Y537242D02*
X541508Y542258D01*
X541508Y537242D02*
X530492Y537242D01*
X530492Y542258D01*
X541508Y542258D01*
X541508Y539383D02*
X530492Y539383D01*
X530492Y541524D02*
X541508Y541524D01*
X541508Y549942D02*
X541508Y554958D01*
X541508Y549942D02*
X530492Y549942D01*
X530492Y554958D01*
X541508Y554958D01*
X541508Y552083D02*
X530492Y552083D01*
X530492Y554224D02*
X541508Y554224D01*
X541508Y562642D02*
X541508Y567658D01*
X541508Y562642D02*
X530492Y562642D01*
X530492Y567658D01*
X541508Y567658D01*
X541508Y564783D02*
X530492Y564783D01*
X530492Y566924D02*
X541508Y566924D01*
X485508Y567658D02*
X485508Y562642D01*
X474492Y562642D01*
X474492Y567658D01*
X485508Y567658D01*
X485508Y564783D02*
X474492Y564783D01*
X474492Y566924D02*
X485508Y566924D01*
X485508Y554958D02*
X485508Y549942D01*
X474492Y549942D01*
X474492Y554958D01*
X485508Y554958D01*
X485508Y552083D02*
X474492Y552083D01*
X474492Y554224D02*
X485508Y554224D01*
X485508Y542258D02*
X485508Y537242D01*
X474492Y537242D01*
X474492Y542258D01*
X485508Y542258D01*
X485508Y539383D02*
X474492Y539383D01*
X474492Y541524D02*
X485508Y541524D01*
X485508Y529558D02*
X485508Y524542D01*
X474492Y524542D01*
X474492Y529558D01*
X485508Y529558D01*
X485508Y526683D02*
X474492Y526683D01*
X474492Y528824D02*
X485508Y528824D01*
X485508Y516858D02*
X485508Y511842D01*
X474492Y511842D01*
X474492Y516858D01*
X485508Y516858D01*
X485508Y513983D02*
X474492Y513983D01*
X474492Y516124D02*
X485508Y516124D01*
X485508Y504158D02*
X485508Y499142D01*
X474492Y499142D01*
X474492Y504158D01*
X485508Y504158D01*
X485508Y501283D02*
X474492Y501283D01*
X474492Y503424D02*
X485508Y503424D01*
X485508Y491458D02*
X485508Y486442D01*
X474492Y486442D01*
X474492Y491458D01*
X485508Y491458D01*
X485508Y488583D02*
X474492Y488583D01*
X474492Y490724D02*
X485508Y490724D01*
X485508Y478758D02*
X485508Y473742D01*
X474492Y473742D01*
X474492Y478758D01*
X485508Y478758D01*
X485508Y475883D02*
X474492Y475883D01*
X474492Y478024D02*
X485508Y478024D01*
D17*
X464358Y480758D02*
X454342Y480758D01*
X464358Y480758D02*
X464358Y471742D01*
X454342Y471742D01*
X454342Y480758D01*
X454342Y473883D02*
X464358Y473883D01*
X464358Y476024D02*
X454342Y476024D01*
X454342Y478165D02*
X464358Y478165D01*
X464358Y480306D02*
X454342Y480306D01*
X447358Y480758D02*
X437342Y480758D01*
X447358Y480758D02*
X447358Y471742D01*
X437342Y471742D01*
X437342Y480758D01*
X437342Y473883D02*
X447358Y473883D01*
X447358Y476024D02*
X437342Y476024D01*
X437342Y478165D02*
X447358Y478165D01*
X447358Y480306D02*
X437342Y480306D01*
D14*
X310982Y333157D02*
X310982Y329393D01*
X309018Y329393D01*
X309018Y333157D01*
X310982Y333157D01*
X310982Y331584D02*
X309018Y331584D01*
X315982Y333157D02*
X315982Y329393D01*
X314018Y329393D01*
X314018Y333157D01*
X315982Y333157D01*
X315982Y331584D02*
X314018Y331584D01*
X320982Y333157D02*
X320982Y329393D01*
X319018Y329393D01*
X319018Y333157D01*
X320982Y333157D01*
X320982Y331584D02*
X319018Y331584D01*
X325982Y333157D02*
X325982Y329393D01*
X324018Y329393D01*
X324018Y333157D01*
X325982Y333157D01*
X325982Y331584D02*
X324018Y331584D01*
X324018Y352643D02*
X324018Y356407D01*
X325982Y356407D01*
X325982Y352643D01*
X324018Y352643D01*
X324018Y354834D02*
X325982Y354834D01*
X319018Y356407D02*
X319018Y352643D01*
X319018Y356407D02*
X320982Y356407D01*
X320982Y352643D01*
X319018Y352643D01*
X319018Y354834D02*
X320982Y354834D01*
X314018Y356407D02*
X314018Y352643D01*
X314018Y356407D02*
X315982Y356407D01*
X315982Y352643D01*
X314018Y352643D01*
X314018Y354834D02*
X315982Y354834D01*
X309018Y356407D02*
X309018Y352643D01*
X309018Y356407D02*
X310982Y356407D01*
X310982Y352643D01*
X309018Y352643D01*
X309018Y354834D02*
X310982Y354834D01*
X329382Y338882D02*
X329382Y336918D01*
X325618Y336918D01*
X325618Y338882D01*
X329382Y338882D01*
X329382Y341918D02*
X329382Y343882D01*
X329382Y341918D02*
X325618Y341918D01*
X325618Y343882D01*
X329382Y343882D01*
X329382Y346918D02*
X329382Y348882D01*
X329382Y346918D02*
X325618Y346918D01*
X325618Y348882D01*
X329382Y348882D01*
X305618Y348882D02*
X305618Y346918D01*
X305618Y348882D02*
X309382Y348882D01*
X309382Y346918D01*
X305618Y346918D01*
X305618Y343882D02*
X305618Y341918D01*
X305618Y343882D02*
X309382Y343882D01*
X309382Y341918D01*
X305618Y341918D01*
X305618Y338882D02*
X305618Y336918D01*
X305618Y338882D02*
X309382Y338882D01*
X309382Y336918D01*
X305618Y336918D01*
D31*
X305655Y300025D02*
X299385Y300025D01*
X305655Y300025D02*
X305655Y299255D01*
X299385Y299255D01*
X299385Y300025D01*
X299385Y295025D02*
X305655Y295025D01*
X305655Y294255D01*
X299385Y294255D01*
X299385Y295025D01*
X299385Y290025D02*
X305655Y290025D01*
X305655Y289255D01*
X299385Y289255D01*
X299385Y290025D01*
X299385Y285025D02*
X305655Y285025D01*
X305655Y284255D01*
X299385Y284255D01*
X299385Y285025D01*
X310425Y280155D02*
X310425Y273885D01*
X309655Y273885D01*
X309655Y280155D01*
X310425Y280155D01*
X310425Y277211D02*
X309655Y277211D01*
X315425Y280155D02*
X315425Y273885D01*
X314655Y273885D01*
X314655Y280155D01*
X315425Y280155D01*
X315425Y277211D02*
X314655Y277211D01*
X320425Y280155D02*
X320425Y273885D01*
X319655Y273885D01*
X319655Y280155D01*
X320425Y280155D01*
X320425Y277211D02*
X319655Y277211D01*
X325425Y280155D02*
X325425Y273885D01*
X324655Y273885D01*
X324655Y280155D01*
X325425Y280155D01*
X325425Y277211D02*
X324655Y277211D01*
X329425Y284255D02*
X335695Y284255D01*
X329425Y284255D02*
X329425Y285025D01*
X335695Y285025D01*
X335695Y284255D01*
X335695Y289255D02*
X329425Y289255D01*
X329425Y290025D01*
X335695Y290025D01*
X335695Y289255D01*
X335695Y294255D02*
X329425Y294255D01*
X329425Y295025D01*
X335695Y295025D01*
X335695Y294255D01*
X335695Y299255D02*
X329425Y299255D01*
X329425Y300025D01*
X335695Y300025D01*
X335695Y299255D01*
X324755Y303925D02*
X324755Y310195D01*
X325525Y310195D01*
X325525Y303925D01*
X324755Y303925D01*
X324755Y307251D02*
X325525Y307251D01*
X319755Y310195D02*
X319755Y303925D01*
X319755Y310195D02*
X320525Y310195D01*
X320525Y303925D01*
X319755Y303925D01*
X319755Y307251D02*
X320525Y307251D01*
X314755Y310195D02*
X314755Y303925D01*
X314755Y310195D02*
X315525Y310195D01*
X315525Y303925D01*
X314755Y303925D01*
X314755Y307251D02*
X315525Y307251D01*
X309755Y310195D02*
X309755Y303925D01*
X309755Y310195D02*
X310525Y310195D01*
X310525Y303925D01*
X309755Y303925D01*
X309755Y307251D02*
X310525Y307251D01*
D17*
X342092Y351092D02*
X352108Y351092D01*
X342092Y351092D02*
X342092Y360108D01*
X352108Y360108D01*
X352108Y351092D01*
X352108Y353233D02*
X342092Y353233D01*
X342092Y355374D02*
X352108Y355374D01*
X352108Y357515D02*
X342092Y357515D01*
X342092Y359656D02*
X352108Y359656D01*
X359092Y351092D02*
X369108Y351092D01*
X359092Y351092D02*
X359092Y360108D01*
X369108Y360108D01*
X369108Y351092D01*
X369108Y353233D02*
X359092Y353233D01*
X359092Y355374D02*
X369108Y355374D01*
X369108Y357515D02*
X359092Y357515D01*
X359092Y359656D02*
X369108Y359656D01*
X352108Y325692D02*
X342092Y325692D01*
X342092Y334708D01*
X352108Y334708D01*
X352108Y325692D01*
X352108Y327833D02*
X342092Y327833D01*
X342092Y329974D02*
X352108Y329974D01*
X352108Y332115D02*
X342092Y332115D01*
X342092Y334256D02*
X352108Y334256D01*
X359092Y325692D02*
X369108Y325692D01*
X359092Y325692D02*
X359092Y334708D01*
X369108Y334708D01*
X369108Y325692D01*
X369108Y327833D02*
X359092Y327833D01*
X359092Y329974D02*
X369108Y329974D01*
X369108Y332115D02*
X359092Y332115D01*
X359092Y334256D02*
X369108Y334256D01*
X290258Y288608D02*
X290258Y278592D01*
X281242Y278592D01*
X281242Y288608D01*
X290258Y288608D01*
X290258Y280733D02*
X281242Y280733D01*
X281242Y282874D02*
X290258Y282874D01*
X290258Y285015D02*
X281242Y285015D01*
X281242Y287156D02*
X290258Y287156D01*
X290258Y295592D02*
X290258Y305608D01*
X290258Y295592D02*
X281242Y295592D01*
X281242Y305608D01*
X290258Y305608D01*
X290258Y297733D02*
X281242Y297733D01*
X281242Y299874D02*
X290258Y299874D01*
X290258Y302015D02*
X281242Y302015D01*
X281242Y304156D02*
X290258Y304156D01*
X353758Y288608D02*
X353758Y278592D01*
X344742Y278592D01*
X344742Y288608D01*
X353758Y288608D01*
X353758Y280733D02*
X344742Y280733D01*
X344742Y282874D02*
X353758Y282874D01*
X353758Y285015D02*
X344742Y285015D01*
X344742Y287156D02*
X353758Y287156D01*
X353758Y295592D02*
X353758Y305608D01*
X353758Y295592D02*
X344742Y295592D01*
X344742Y305608D01*
X353758Y305608D01*
X353758Y297733D02*
X344742Y297733D01*
X344742Y299874D02*
X353758Y299874D01*
X353758Y302015D02*
X344742Y302015D01*
X344742Y304156D02*
X353758Y304156D01*
X277558Y329392D02*
X277558Y339408D01*
X277558Y329392D02*
X268542Y329392D01*
X268542Y339408D01*
X277558Y339408D01*
X277558Y331533D02*
X268542Y331533D01*
X268542Y333674D02*
X277558Y333674D01*
X277558Y335815D02*
X268542Y335815D01*
X268542Y337956D02*
X277558Y337956D01*
X277558Y346392D02*
X277558Y356408D01*
X277558Y346392D02*
X268542Y346392D01*
X268542Y356408D01*
X277558Y356408D01*
X277558Y348533D02*
X268542Y348533D01*
X268542Y350674D02*
X277558Y350674D01*
X277558Y352815D02*
X268542Y352815D01*
X268542Y354956D02*
X277558Y354956D01*
D32*
X188804Y518804D02*
X172396Y518804D01*
X188804Y518804D02*
X188804Y506396D01*
X172396Y506396D01*
X172396Y518804D01*
X172396Y508641D02*
X188804Y508641D01*
X188804Y510886D02*
X172396Y510886D01*
X172396Y513131D02*
X188804Y513131D01*
X188804Y515376D02*
X172396Y515376D01*
X172396Y517621D02*
X188804Y517621D01*
X30804Y478804D02*
X14396Y478804D01*
X30804Y478804D02*
X30804Y466396D01*
X14396Y466396D01*
X14396Y478804D01*
X14396Y468641D02*
X30804Y468641D01*
X30804Y470886D02*
X14396Y470886D01*
X14396Y473131D02*
X30804Y473131D01*
X30804Y475376D02*
X14396Y475376D01*
X14396Y477621D02*
X30804Y477621D01*
X30804Y558804D02*
X14396Y558804D01*
X30804Y558804D02*
X30804Y546396D01*
X14396Y546396D01*
X14396Y558804D01*
X14396Y548641D02*
X30804Y548641D01*
X30804Y550886D02*
X14396Y550886D01*
X14396Y553131D02*
X30804Y553131D01*
X30804Y555376D02*
X14396Y555376D01*
X14396Y557621D02*
X30804Y557621D01*
X30804Y458804D02*
X14396Y458804D01*
X30804Y458804D02*
X30804Y446396D01*
X14396Y446396D01*
X14396Y458804D01*
X14396Y448641D02*
X30804Y448641D01*
X30804Y450886D02*
X14396Y450886D01*
X14396Y453131D02*
X30804Y453131D01*
X30804Y455376D02*
X14396Y455376D01*
X14396Y457621D02*
X30804Y457621D01*
X30804Y438804D02*
X14396Y438804D01*
X30804Y438804D02*
X30804Y426396D01*
X14396Y426396D01*
X14396Y438804D01*
X14396Y428641D02*
X30804Y428641D01*
X30804Y430886D02*
X14396Y430886D01*
X14396Y433131D02*
X30804Y433131D01*
X30804Y435376D02*
X14396Y435376D01*
X14396Y437621D02*
X30804Y437621D01*
X30804Y418804D02*
X14396Y418804D01*
X30804Y418804D02*
X30804Y406396D01*
X14396Y406396D01*
X14396Y418804D01*
X14396Y408641D02*
X30804Y408641D01*
X30804Y410886D02*
X14396Y410886D01*
X14396Y413131D02*
X30804Y413131D01*
X30804Y415376D02*
X14396Y415376D01*
X14396Y417621D02*
X30804Y417621D01*
X30804Y518804D02*
X14396Y518804D01*
X30804Y518804D02*
X30804Y506396D01*
X14396Y506396D01*
X14396Y518804D01*
X14396Y508641D02*
X30804Y508641D01*
X30804Y510886D02*
X14396Y510886D01*
X14396Y513131D02*
X30804Y513131D01*
X30804Y515376D02*
X14396Y515376D01*
X14396Y517621D02*
X30804Y517621D01*
X30804Y498804D02*
X14396Y498804D01*
X30804Y498804D02*
X30804Y486396D01*
X14396Y486396D01*
X14396Y498804D01*
X14396Y488641D02*
X30804Y488641D01*
X30804Y490886D02*
X14396Y490886D01*
X14396Y493131D02*
X30804Y493131D01*
X30804Y495376D02*
X14396Y495376D01*
X14396Y497621D02*
X30804Y497621D01*
X172396Y538804D02*
X188804Y538804D01*
X188804Y526396D01*
X172396Y526396D01*
X172396Y538804D01*
X172396Y528641D02*
X188804Y528641D01*
X188804Y530886D02*
X172396Y530886D01*
X172396Y533131D02*
X188804Y533131D01*
X188804Y535376D02*
X172396Y535376D01*
X172396Y537621D02*
X188804Y537621D01*
X188804Y418804D02*
X172396Y418804D01*
X188804Y418804D02*
X188804Y406396D01*
X172396Y406396D01*
X172396Y418804D01*
X172396Y408641D02*
X188804Y408641D01*
X188804Y410886D02*
X172396Y410886D01*
X172396Y413131D02*
X188804Y413131D01*
X188804Y415376D02*
X172396Y415376D01*
X172396Y417621D02*
X188804Y417621D01*
X188804Y558804D02*
X172396Y558804D01*
X188804Y558804D02*
X188804Y546396D01*
X172396Y546396D01*
X172396Y558804D01*
X172396Y548641D02*
X188804Y548641D01*
X188804Y550886D02*
X172396Y550886D01*
X172396Y553131D02*
X188804Y553131D01*
X188804Y555376D02*
X172396Y555376D01*
X172396Y557621D02*
X188804Y557621D01*
X30804Y538804D02*
X14396Y538804D01*
X30804Y538804D02*
X30804Y526396D01*
X14396Y526396D01*
X14396Y538804D01*
X14396Y528641D02*
X30804Y528641D01*
X30804Y530886D02*
X14396Y530886D01*
X14396Y533131D02*
X30804Y533131D01*
X30804Y535376D02*
X14396Y535376D01*
X14396Y537621D02*
X30804Y537621D01*
X172396Y438804D02*
X188804Y438804D01*
X188804Y426396D01*
X172396Y426396D01*
X172396Y438804D01*
X172396Y428641D02*
X188804Y428641D01*
X188804Y430886D02*
X172396Y430886D01*
X172396Y433131D02*
X188804Y433131D01*
X188804Y435376D02*
X172396Y435376D01*
X172396Y437621D02*
X188804Y437621D01*
X188804Y458804D02*
X172396Y458804D01*
X188804Y458804D02*
X188804Y446396D01*
X172396Y446396D01*
X172396Y458804D01*
X172396Y448641D02*
X188804Y448641D01*
X188804Y450886D02*
X172396Y450886D01*
X172396Y453131D02*
X188804Y453131D01*
X188804Y455376D02*
X172396Y455376D01*
X172396Y457621D02*
X188804Y457621D01*
X188804Y498804D02*
X172396Y498804D01*
X188804Y498804D02*
X188804Y486396D01*
X172396Y486396D01*
X172396Y498804D01*
X172396Y488641D02*
X188804Y488641D01*
X188804Y490886D02*
X172396Y490886D01*
X172396Y493131D02*
X188804Y493131D01*
X188804Y495376D02*
X172396Y495376D01*
X172396Y497621D02*
X188804Y497621D01*
X188804Y478804D02*
X172396Y478804D01*
X188804Y478804D02*
X188804Y466396D01*
X172396Y466396D01*
X172396Y478804D01*
X172396Y468641D02*
X188804Y468641D01*
X188804Y470886D02*
X172396Y470886D01*
X172396Y473131D02*
X188804Y473131D01*
X188804Y475376D02*
X172396Y475376D01*
X172396Y477621D02*
X188804Y477621D01*
D33*
X86712Y574212D02*
X65688Y574212D01*
X86712Y574212D02*
X86712Y566688D01*
X65688Y566688D01*
X65688Y574212D01*
X65688Y568823D02*
X86712Y568823D01*
X86712Y570958D02*
X65688Y570958D01*
X65688Y573093D02*
X86712Y573093D01*
X86712Y601712D02*
X65688Y601712D01*
X86712Y601712D02*
X86712Y594188D01*
X65688Y594188D01*
X65688Y601712D01*
X65688Y596323D02*
X86712Y596323D01*
X86712Y598458D02*
X65688Y598458D01*
X65688Y600593D02*
X86712Y600593D01*
D17*
X65708Y588708D02*
X56192Y588708D01*
X65708Y588708D02*
X65708Y579692D01*
X56192Y579692D01*
X56192Y588708D01*
X56192Y581833D02*
X65708Y581833D01*
X65708Y583974D02*
X56192Y583974D01*
X56192Y586115D02*
X65708Y586115D01*
X65708Y588256D02*
X56192Y588256D01*
X86692Y588708D02*
X96208Y588708D01*
X96208Y579692D01*
X86692Y579692D01*
X86692Y588708D01*
X86692Y581833D02*
X96208Y581833D01*
X96208Y583974D02*
X86692Y583974D01*
X86692Y586115D02*
X96208Y586115D01*
X96208Y588256D02*
X86692Y588256D01*
D15*
X105442Y182392D02*
X110458Y182392D01*
X105442Y182392D02*
X105442Y193408D01*
X110458Y193408D01*
X110458Y182392D01*
X110458Y184533D02*
X105442Y184533D01*
X105442Y186674D02*
X110458Y186674D01*
X110458Y188815D02*
X105442Y188815D01*
X105442Y190956D02*
X110458Y190956D01*
X110458Y193097D02*
X105442Y193097D01*
X118142Y182392D02*
X123158Y182392D01*
X118142Y182392D02*
X118142Y193408D01*
X123158Y193408D01*
X123158Y182392D01*
X123158Y184533D02*
X118142Y184533D01*
X118142Y186674D02*
X123158Y186674D01*
X123158Y188815D02*
X118142Y188815D01*
X118142Y190956D02*
X123158Y190956D01*
X123158Y193097D02*
X118142Y193097D01*
X130842Y182392D02*
X135858Y182392D01*
X130842Y182392D02*
X130842Y193408D01*
X135858Y193408D01*
X135858Y182392D01*
X135858Y184533D02*
X130842Y184533D01*
X130842Y186674D02*
X135858Y186674D01*
X135858Y188815D02*
X130842Y188815D01*
X130842Y190956D02*
X135858Y190956D01*
X135858Y193097D02*
X130842Y193097D01*
X143542Y182392D02*
X148558Y182392D01*
X143542Y182392D02*
X143542Y193408D01*
X148558Y193408D01*
X148558Y182392D01*
X148558Y184533D02*
X143542Y184533D01*
X143542Y186674D02*
X148558Y186674D01*
X148558Y188815D02*
X143542Y188815D01*
X143542Y190956D02*
X148558Y190956D01*
X148558Y193097D02*
X143542Y193097D01*
X156242Y182392D02*
X161258Y182392D01*
X156242Y182392D02*
X156242Y193408D01*
X161258Y193408D01*
X161258Y182392D01*
X161258Y184533D02*
X156242Y184533D01*
X156242Y186674D02*
X161258Y186674D01*
X161258Y188815D02*
X156242Y188815D01*
X156242Y190956D02*
X161258Y190956D01*
X161258Y193097D02*
X156242Y193097D01*
X168942Y182392D02*
X173958Y182392D01*
X168942Y182392D02*
X168942Y193408D01*
X173958Y193408D01*
X173958Y182392D01*
X173958Y184533D02*
X168942Y184533D01*
X168942Y186674D02*
X173958Y186674D01*
X173958Y188815D02*
X168942Y188815D01*
X168942Y190956D02*
X173958Y190956D01*
X173958Y193097D02*
X168942Y193097D01*
X181642Y182392D02*
X186658Y182392D01*
X181642Y182392D02*
X181642Y193408D01*
X186658Y193408D01*
X186658Y182392D01*
X186658Y184533D02*
X181642Y184533D01*
X181642Y186674D02*
X186658Y186674D01*
X186658Y188815D02*
X181642Y188815D01*
X181642Y190956D02*
X186658Y190956D01*
X186658Y193097D02*
X181642Y193097D01*
X194342Y182392D02*
X199358Y182392D01*
X194342Y182392D02*
X194342Y193408D01*
X199358Y193408D01*
X199358Y182392D01*
X199358Y184533D02*
X194342Y184533D01*
X194342Y186674D02*
X199358Y186674D01*
X199358Y188815D02*
X194342Y188815D01*
X194342Y190956D02*
X199358Y190956D01*
X199358Y193097D02*
X194342Y193097D01*
X194342Y238392D02*
X199358Y238392D01*
X194342Y238392D02*
X194342Y249408D01*
X199358Y249408D01*
X199358Y238392D01*
X199358Y240533D02*
X194342Y240533D01*
X194342Y242674D02*
X199358Y242674D01*
X199358Y244815D02*
X194342Y244815D01*
X194342Y246956D02*
X199358Y246956D01*
X199358Y249097D02*
X194342Y249097D01*
X186658Y238392D02*
X181642Y238392D01*
X181642Y249408D01*
X186658Y249408D01*
X186658Y238392D01*
X186658Y240533D02*
X181642Y240533D01*
X181642Y242674D02*
X186658Y242674D01*
X186658Y244815D02*
X181642Y244815D01*
X181642Y246956D02*
X186658Y246956D01*
X186658Y249097D02*
X181642Y249097D01*
X173958Y238392D02*
X168942Y238392D01*
X168942Y249408D01*
X173958Y249408D01*
X173958Y238392D01*
X173958Y240533D02*
X168942Y240533D01*
X168942Y242674D02*
X173958Y242674D01*
X173958Y244815D02*
X168942Y244815D01*
X168942Y246956D02*
X173958Y246956D01*
X173958Y249097D02*
X168942Y249097D01*
X161258Y238392D02*
X156242Y238392D01*
X156242Y249408D01*
X161258Y249408D01*
X161258Y238392D01*
X161258Y240533D02*
X156242Y240533D01*
X156242Y242674D02*
X161258Y242674D01*
X161258Y244815D02*
X156242Y244815D01*
X156242Y246956D02*
X161258Y246956D01*
X161258Y249097D02*
X156242Y249097D01*
X148558Y238392D02*
X143542Y238392D01*
X143542Y249408D01*
X148558Y249408D01*
X148558Y238392D01*
X148558Y240533D02*
X143542Y240533D01*
X143542Y242674D02*
X148558Y242674D01*
X148558Y244815D02*
X143542Y244815D01*
X143542Y246956D02*
X148558Y246956D01*
X148558Y249097D02*
X143542Y249097D01*
X135858Y238392D02*
X130842Y238392D01*
X130842Y249408D01*
X135858Y249408D01*
X135858Y238392D01*
X135858Y240533D02*
X130842Y240533D01*
X130842Y242674D02*
X135858Y242674D01*
X135858Y244815D02*
X130842Y244815D01*
X130842Y246956D02*
X135858Y246956D01*
X135858Y249097D02*
X130842Y249097D01*
X123158Y238392D02*
X118142Y238392D01*
X118142Y249408D01*
X123158Y249408D01*
X123158Y238392D01*
X123158Y240533D02*
X118142Y240533D01*
X118142Y242674D02*
X123158Y242674D01*
X123158Y244815D02*
X118142Y244815D01*
X118142Y246956D02*
X123158Y246956D01*
X123158Y249097D02*
X118142Y249097D01*
X110458Y238392D02*
X105442Y238392D01*
X105442Y249408D01*
X110458Y249408D01*
X110458Y238392D01*
X110458Y240533D02*
X105442Y240533D01*
X105442Y242674D02*
X110458Y242674D01*
X110458Y244815D02*
X105442Y244815D01*
X105442Y246956D02*
X110458Y246956D01*
X110458Y249097D02*
X105442Y249097D01*
D17*
X176992Y160592D02*
X187008Y160592D01*
X176992Y160592D02*
X176992Y169608D01*
X187008Y169608D01*
X187008Y160592D01*
X187008Y162733D02*
X176992Y162733D01*
X176992Y164874D02*
X187008Y164874D01*
X187008Y167015D02*
X176992Y167015D01*
X176992Y169156D02*
X187008Y169156D01*
X193992Y160592D02*
X204008Y160592D01*
X193992Y160592D02*
X193992Y169608D01*
X204008Y169608D01*
X204008Y160592D01*
X204008Y162733D02*
X193992Y162733D01*
X193992Y164874D02*
X204008Y164874D01*
X204008Y167015D02*
X193992Y167015D01*
X193992Y169156D02*
X204008Y169156D01*
X148908Y160592D02*
X138892Y160592D01*
X138892Y169608D01*
X148908Y169608D01*
X148908Y160592D01*
X148908Y162733D02*
X138892Y162733D01*
X138892Y164874D02*
X148908Y164874D01*
X148908Y167015D02*
X138892Y167015D01*
X138892Y169156D02*
X148908Y169156D01*
X155892Y160592D02*
X165908Y160592D01*
X155892Y160592D02*
X155892Y169608D01*
X165908Y169608D01*
X165908Y160592D01*
X165908Y162733D02*
X155892Y162733D01*
X155892Y164874D02*
X165908Y164874D01*
X165908Y167015D02*
X155892Y167015D01*
X155892Y169156D02*
X165908Y169156D01*
X127808Y150558D02*
X117792Y150558D01*
X127808Y150558D02*
X127808Y141542D01*
X117792Y141542D01*
X117792Y150558D01*
X117792Y143683D02*
X127808Y143683D01*
X127808Y145824D02*
X117792Y145824D01*
X117792Y147965D02*
X127808Y147965D01*
X127808Y150106D02*
X117792Y150106D01*
X110808Y150558D02*
X100792Y150558D01*
X110808Y150558D02*
X110808Y141542D01*
X100792Y141542D01*
X100792Y150558D01*
X100792Y143683D02*
X110808Y143683D01*
X110808Y145824D02*
X100792Y145824D01*
X100792Y147965D02*
X110808Y147965D01*
X110808Y150106D02*
X100792Y150106D01*
X138892Y141542D02*
X148908Y141542D01*
X138892Y141542D02*
X138892Y150558D01*
X148908Y150558D01*
X148908Y141542D01*
X148908Y143683D02*
X138892Y143683D01*
X138892Y145824D02*
X148908Y145824D01*
X148908Y147965D02*
X138892Y147965D01*
X138892Y150106D02*
X148908Y150106D01*
X155892Y141542D02*
X165908Y141542D01*
X155892Y141542D02*
X155892Y150558D01*
X165908Y150558D01*
X165908Y141542D01*
X165908Y143683D02*
X155892Y143683D01*
X155892Y145824D02*
X165908Y145824D01*
X165908Y147965D02*
X155892Y147965D01*
X155892Y150106D02*
X165908Y150106D01*
X176992Y141542D02*
X187008Y141542D01*
X176992Y141542D02*
X176992Y150558D01*
X187008Y150558D01*
X187008Y141542D01*
X187008Y143683D02*
X176992Y143683D01*
X176992Y145824D02*
X187008Y145824D01*
X187008Y147965D02*
X176992Y147965D01*
X176992Y150106D02*
X187008Y150106D01*
X193992Y141542D02*
X204008Y141542D01*
X193992Y141542D02*
X193992Y150558D01*
X204008Y150558D01*
X204008Y141542D01*
X204008Y143683D02*
X193992Y143683D01*
X193992Y145824D02*
X204008Y145824D01*
X204008Y147965D02*
X193992Y147965D01*
X193992Y150106D02*
X204008Y150106D01*
D14*
X444432Y507168D02*
X444432Y509132D01*
X444432Y507168D02*
X438868Y507168D01*
X438868Y509132D01*
X444432Y509132D01*
X457268Y502632D02*
X457268Y500668D01*
X457268Y502632D02*
X462832Y502632D01*
X462832Y500668D01*
X457268Y500668D01*
X457268Y496132D02*
X457268Y494168D01*
X457268Y496132D02*
X462832Y496132D01*
X462832Y494168D01*
X457268Y494168D01*
X457268Y507168D02*
X457268Y509132D01*
X462832Y509132D01*
X462832Y507168D01*
X457268Y507168D01*
X444432Y502632D02*
X444432Y500668D01*
X438868Y500668D01*
X438868Y502632D01*
X444432Y502632D01*
X444432Y496132D02*
X444432Y494168D01*
X438868Y494168D01*
X438868Y496132D01*
X444432Y496132D01*
D17*
X447358Y522542D02*
X437342Y522542D01*
X437342Y531558D01*
X447358Y531558D01*
X447358Y522542D01*
X447358Y524683D02*
X437342Y524683D01*
X437342Y526824D02*
X447358Y526824D01*
X447358Y528965D02*
X437342Y528965D01*
X437342Y531106D02*
X447358Y531106D01*
X454342Y522542D02*
X464358Y522542D01*
X454342Y522542D02*
X454342Y531558D01*
X464358Y531558D01*
X464358Y522542D01*
X464358Y524683D02*
X454342Y524683D01*
X454342Y526824D02*
X464358Y526824D01*
X464358Y528965D02*
X454342Y528965D01*
X454342Y531106D02*
X464358Y531106D01*
X464358Y550608D02*
X454342Y550608D01*
X464358Y550608D02*
X464358Y541592D01*
X454342Y541592D01*
X454342Y550608D01*
X454342Y543733D02*
X464358Y543733D01*
X464358Y545874D02*
X454342Y545874D01*
X454342Y548015D02*
X464358Y548015D01*
X464358Y550156D02*
X454342Y550156D01*
X447358Y550608D02*
X437342Y550608D01*
X447358Y550608D02*
X447358Y541592D01*
X437342Y541592D01*
X437342Y550608D01*
X437342Y543733D02*
X447358Y543733D01*
X447358Y545874D02*
X437342Y545874D01*
X437342Y548015D02*
X447358Y548015D01*
X447358Y550156D02*
X437342Y550156D01*
X84392Y229408D02*
X84392Y219392D01*
X84392Y229408D02*
X93408Y229408D01*
X93408Y219392D01*
X84392Y219392D01*
X84392Y221533D02*
X93408Y221533D01*
X93408Y223674D02*
X84392Y223674D01*
X84392Y225815D02*
X93408Y225815D01*
X93408Y227956D02*
X84392Y227956D01*
X84392Y212408D02*
X84392Y202392D01*
X84392Y212408D02*
X93408Y212408D01*
X93408Y202392D01*
X84392Y202392D01*
X84392Y204533D02*
X93408Y204533D01*
X93408Y206674D02*
X84392Y206674D01*
X84392Y208815D02*
X93408Y208815D01*
X93408Y210956D02*
X84392Y210956D01*
X117792Y169608D02*
X127808Y169608D01*
X127808Y160592D01*
X117792Y160592D01*
X117792Y169608D01*
X117792Y162733D02*
X127808Y162733D01*
X127808Y164874D02*
X117792Y164874D01*
X117792Y167015D02*
X127808Y167015D01*
X127808Y169156D02*
X117792Y169156D01*
X110808Y169608D02*
X100792Y169608D01*
X110808Y169608D02*
X110808Y160592D01*
X100792Y160592D01*
X100792Y169608D01*
X100792Y162733D02*
X110808Y162733D01*
X110808Y164874D02*
X100792Y164874D01*
X100792Y167015D02*
X110808Y167015D01*
X110808Y169156D02*
X100792Y169156D01*
D20*
X508000Y406400D03*
X508000Y431800D03*
D10*
X453706Y392806D02*
X453706Y384794D01*
X444694Y384794D01*
X444694Y392806D01*
X453706Y392806D01*
X453706Y386940D02*
X444694Y386940D01*
X444694Y389086D02*
X453706Y389086D01*
X453706Y391232D02*
X444694Y391232D01*
X469706Y392806D02*
X469706Y384794D01*
X460694Y384794D01*
X460694Y392806D01*
X469706Y392806D01*
X469706Y386940D02*
X460694Y386940D01*
X460694Y389086D02*
X469706Y389086D01*
X469706Y391232D02*
X460694Y391232D01*
X469706Y351806D02*
X469706Y343794D01*
X460694Y343794D01*
X460694Y351806D01*
X469706Y351806D01*
X469706Y345940D02*
X460694Y345940D01*
X460694Y348086D02*
X469706Y348086D01*
X469706Y350232D02*
X460694Y350232D01*
X453706Y351806D02*
X453706Y343794D01*
X444694Y343794D01*
X444694Y351806D01*
X453706Y351806D01*
X453706Y345940D02*
X444694Y345940D01*
X444694Y348086D02*
X453706Y348086D01*
X453706Y350232D02*
X444694Y350232D01*
X453706Y448294D02*
X453706Y456306D01*
X453706Y448294D02*
X444694Y448294D01*
X444694Y456306D01*
X453706Y456306D01*
X453706Y450440D02*
X444694Y450440D01*
X444694Y452586D02*
X453706Y452586D01*
X453706Y454732D02*
X444694Y454732D01*
X469706Y456306D02*
X469706Y448294D01*
X460694Y448294D01*
X460694Y456306D01*
X469706Y456306D01*
X469706Y450440D02*
X460694Y450440D01*
X460694Y452586D02*
X469706Y452586D01*
X469706Y454732D02*
X460694Y454732D01*
X469706Y415306D02*
X469706Y407294D01*
X460694Y407294D01*
X460694Y415306D01*
X469706Y415306D01*
X469706Y409440D02*
X460694Y409440D01*
X460694Y411586D02*
X469706Y411586D01*
X469706Y413732D02*
X460694Y413732D01*
X453706Y415306D02*
X453706Y407294D01*
X444694Y407294D01*
X444694Y415306D01*
X453706Y415306D01*
X453706Y409440D02*
X444694Y409440D01*
X444694Y411586D02*
X453706Y411586D01*
X453706Y413732D02*
X444694Y413732D01*
D21*
X439024Y253776D02*
X439024Y246824D01*
X439024Y253776D02*
X449976Y253776D01*
X449976Y246824D01*
X439024Y246824D01*
X439024Y249026D02*
X449976Y249026D01*
X449976Y251228D02*
X439024Y251228D01*
X439024Y253430D02*
X449976Y253430D01*
X439024Y235776D02*
X439024Y228824D01*
X439024Y235776D02*
X449976Y235776D01*
X449976Y228824D01*
X439024Y228824D01*
X439024Y231026D02*
X449976Y231026D01*
X449976Y233228D02*
X439024Y233228D01*
X439024Y235430D02*
X449976Y235430D01*
D23*
X398976Y352106D02*
X398976Y359094D01*
X405964Y359094D01*
X405964Y352106D01*
X398976Y352106D01*
X398976Y356175D02*
X405964Y356175D01*
X381436Y359094D02*
X381436Y352106D01*
X381436Y359094D02*
X388424Y359094D01*
X388424Y352106D01*
X381436Y352106D01*
X381436Y356175D02*
X388424Y356175D01*
D17*
X390208Y325692D02*
X380192Y325692D01*
X380192Y334708D01*
X390208Y334708D01*
X390208Y325692D01*
X390208Y327833D02*
X380192Y327833D01*
X380192Y329974D02*
X390208Y329974D01*
X390208Y332115D02*
X380192Y332115D01*
X380192Y334256D02*
X390208Y334256D01*
X397192Y325692D02*
X407208Y325692D01*
X397192Y325692D02*
X397192Y334708D01*
X407208Y334708D01*
X407208Y325692D01*
X407208Y327833D02*
X397192Y327833D01*
X397192Y329974D02*
X407208Y329974D01*
X407208Y332115D02*
X397192Y332115D01*
X397192Y334256D02*
X407208Y334256D01*
D20*
X196850Y114300D03*
X184150Y88900D03*
X171450Y114300D03*
X146050Y114300D03*
X120650Y114300D03*
X158750Y88900D03*
X133350Y88900D03*
D34*
X107950Y88900D03*
D35*
X95250Y25400D03*
X209550Y25400D03*
D20*
X361950Y114300D03*
X349250Y88900D03*
X336550Y114300D03*
X311150Y114300D03*
X285750Y114300D03*
X323850Y88900D03*
X298450Y88900D03*
D34*
X273050Y88900D03*
D35*
X260350Y25400D03*
X374650Y25400D03*
D20*
X527050Y114300D03*
X514350Y88900D03*
X501650Y114300D03*
X476250Y114300D03*
X450850Y114300D03*
X488950Y88900D03*
X463550Y88900D03*
D34*
X438150Y88900D03*
D35*
X425450Y25400D03*
X539750Y25400D03*
D25*
X4543Y225693D02*
X4543Y236707D01*
X23557Y236707D01*
X23557Y225693D01*
X4543Y225693D01*
X4543Y227836D02*
X23557Y227836D01*
X23557Y229979D02*
X4543Y229979D01*
X4543Y232122D02*
X23557Y232122D01*
X23557Y234265D02*
X4543Y234265D01*
X4543Y236408D02*
X23557Y236408D01*
X4543Y180707D02*
X4543Y169693D01*
X4543Y180707D02*
X23557Y180707D01*
X23557Y169693D01*
X4543Y169693D01*
X4543Y171836D02*
X23557Y171836D01*
X23557Y173979D02*
X4543Y173979D01*
X4543Y176122D02*
X23557Y176122D01*
X23557Y178265D02*
X4543Y178265D01*
X4543Y180408D02*
X23557Y180408D01*
D15*
X44542Y215692D02*
X44542Y220708D01*
X57058Y220708D01*
X57058Y215692D01*
X44542Y215692D01*
X44542Y217833D02*
X57058Y217833D01*
X57058Y219974D02*
X44542Y219974D01*
X44542Y210708D02*
X44542Y205692D01*
X44542Y210708D02*
X57058Y210708D01*
X57058Y205692D01*
X44542Y205692D01*
X44542Y207833D02*
X57058Y207833D01*
X57058Y209974D02*
X44542Y209974D01*
X44542Y200708D02*
X44542Y195692D01*
X44542Y200708D02*
X57058Y200708D01*
X57058Y195692D01*
X44542Y195692D01*
X44542Y197833D02*
X57058Y197833D01*
X57058Y199974D02*
X44542Y199974D01*
X44542Y190708D02*
X44542Y185692D01*
X44542Y190708D02*
X57058Y190708D01*
X57058Y185692D01*
X44542Y185692D01*
X44542Y187833D02*
X57058Y187833D01*
X57058Y189974D02*
X44542Y189974D01*
D17*
X498792Y366458D02*
X508808Y366458D01*
X508808Y357442D01*
X498792Y357442D01*
X498792Y366458D01*
X498792Y359583D02*
X508808Y359583D01*
X508808Y361724D02*
X498792Y361724D01*
X498792Y363865D02*
X508808Y363865D01*
X508808Y366006D02*
X498792Y366006D01*
X491808Y366458D02*
X481792Y366458D01*
X491808Y366458D02*
X491808Y357442D01*
X481792Y357442D01*
X481792Y366458D01*
X481792Y359583D02*
X491808Y359583D01*
X491808Y361724D02*
X481792Y361724D01*
X481792Y363865D02*
X491808Y363865D01*
X491808Y366006D02*
X481792Y366006D01*
X481792Y376492D02*
X491808Y376492D01*
X481792Y376492D02*
X481792Y385508D01*
X491808Y385508D01*
X491808Y376492D01*
X491808Y378633D02*
X481792Y378633D01*
X481792Y380774D02*
X491808Y380774D01*
X491808Y382915D02*
X481792Y382915D01*
X481792Y385056D02*
X491808Y385056D01*
X498792Y376492D02*
X508808Y376492D01*
X498792Y376492D02*
X498792Y385508D01*
X508808Y385508D01*
X508808Y376492D01*
X508808Y378633D02*
X498792Y378633D01*
X498792Y380774D02*
X508808Y380774D01*
X508808Y382915D02*
X498792Y382915D01*
X498792Y385056D02*
X508808Y385056D01*
D20*
X622300Y139700D03*
X622300Y114300D03*
X622300Y88900D03*
X622300Y63500D03*
X622300Y254000D03*
X622300Y279400D03*
D22*
X511850Y453550D02*
X506550Y453550D01*
X506550Y460850D01*
X511850Y460850D01*
X511850Y453550D01*
X511850Y455707D02*
X506550Y455707D01*
X506550Y457864D02*
X511850Y457864D01*
X511850Y460021D02*
X506550Y460021D01*
X529550Y453550D02*
X534850Y453550D01*
X529550Y453550D02*
X529550Y460850D01*
X534850Y460850D01*
X534850Y453550D01*
X534850Y455707D02*
X529550Y455707D01*
X529550Y457864D02*
X534850Y457864D01*
X534850Y460021D02*
X529550Y460021D01*
D17*
X545292Y579692D02*
X555308Y579692D01*
X545292Y579692D02*
X545292Y588708D01*
X555308Y588708D01*
X555308Y579692D01*
X555308Y581833D02*
X545292Y581833D01*
X545292Y583974D02*
X555308Y583974D01*
X555308Y586115D02*
X545292Y586115D01*
X545292Y588256D02*
X555308Y588256D01*
X562292Y579692D02*
X572308Y579692D01*
X562292Y579692D02*
X562292Y588708D01*
X572308Y588708D01*
X572308Y579692D01*
X572308Y581833D02*
X562292Y581833D01*
X562292Y583974D02*
X572308Y583974D01*
X572308Y586115D02*
X562292Y586115D01*
X562292Y588256D02*
X572308Y588256D01*
X207708Y529908D02*
X207708Y519892D01*
X198692Y519892D01*
X198692Y529908D01*
X207708Y529908D01*
X207708Y522033D02*
X198692Y522033D01*
X198692Y524174D02*
X207708Y524174D01*
X207708Y526315D02*
X198692Y526315D01*
X198692Y528456D02*
X207708Y528456D01*
X207708Y536892D02*
X207708Y546908D01*
X207708Y536892D02*
X198692Y536892D01*
X198692Y546908D01*
X207708Y546908D01*
X207708Y539033D02*
X198692Y539033D01*
X198692Y541174D02*
X207708Y541174D01*
X207708Y543315D02*
X198692Y543315D01*
X198692Y545456D02*
X207708Y545456D01*
D22*
X166550Y270350D02*
X161250Y270350D01*
X166550Y270350D02*
X166550Y263050D01*
X161250Y263050D01*
X161250Y270350D01*
X161250Y265207D02*
X166550Y265207D01*
X166550Y267364D02*
X161250Y267364D01*
X161250Y269521D02*
X166550Y269521D01*
X143550Y270350D02*
X138250Y270350D01*
X143550Y270350D02*
X143550Y263050D01*
X138250Y263050D01*
X138250Y270350D01*
X138250Y265207D02*
X143550Y265207D01*
X143550Y267364D02*
X138250Y267364D01*
X138250Y269521D02*
X143550Y269521D01*
D21*
X355324Y227324D02*
X362276Y227324D01*
X355324Y227324D02*
X355324Y235276D01*
X362276Y235276D01*
X362276Y227324D01*
X362276Y229526D02*
X355324Y229526D01*
X355324Y231728D02*
X362276Y231728D01*
X362276Y233930D02*
X355324Y233930D01*
X374324Y227324D02*
X381276Y227324D01*
X374324Y227324D02*
X374324Y235276D01*
X381276Y235276D01*
X381276Y227324D01*
X381276Y229526D02*
X374324Y229526D01*
X374324Y231728D02*
X381276Y231728D01*
X381276Y233930D02*
X374324Y233930D01*
X371776Y248324D02*
X364824Y248324D01*
X364824Y256276D01*
X371776Y256276D01*
X371776Y248324D01*
X371776Y250526D02*
X364824Y250526D01*
X364824Y252728D02*
X371776Y252728D01*
X371776Y254930D02*
X364824Y254930D01*
X387074Y132074D02*
X394026Y132074D01*
X387074Y132074D02*
X387074Y140026D01*
X394026Y140026D01*
X394026Y132074D01*
X394026Y134276D02*
X387074Y134276D01*
X387074Y136478D02*
X394026Y136478D01*
X394026Y138680D02*
X387074Y138680D01*
X406074Y132074D02*
X413026Y132074D01*
X406074Y132074D02*
X406074Y140026D01*
X413026Y140026D01*
X413026Y132074D01*
X413026Y134276D02*
X406074Y134276D01*
X406074Y136478D02*
X413026Y136478D01*
X413026Y138680D02*
X406074Y138680D01*
X403526Y153074D02*
X396574Y153074D01*
X396574Y161026D01*
X403526Y161026D01*
X403526Y153074D01*
X403526Y155276D02*
X396574Y155276D01*
X396574Y157478D02*
X403526Y157478D01*
X403526Y159680D02*
X396574Y159680D01*
D17*
X396558Y166942D02*
X386542Y166942D01*
X386542Y175958D01*
X396558Y175958D01*
X396558Y166942D01*
X396558Y169083D02*
X386542Y169083D01*
X386542Y171224D02*
X396558Y171224D01*
X396558Y173365D02*
X386542Y173365D01*
X386542Y175506D02*
X396558Y175506D01*
X403542Y166942D02*
X413558Y166942D01*
X403542Y166942D02*
X403542Y175958D01*
X413558Y175958D01*
X413558Y166942D01*
X413558Y169083D02*
X403542Y169083D01*
X403542Y171224D02*
X413558Y171224D01*
X413558Y173365D02*
X403542Y173365D01*
X403542Y175506D02*
X413558Y175506D01*
D13*
X-26238Y692150D03*
X661238Y692150D03*
D36*
X-35293Y63500D02*
X-35290Y63722D01*
X-35282Y63944D01*
X-35268Y64166D01*
X-35249Y64388D01*
X-35225Y64608D01*
X-35195Y64829D01*
X-35160Y65048D01*
X-35119Y65267D01*
X-35073Y65484D01*
X-35022Y65700D01*
X-34965Y65915D01*
X-34903Y66129D01*
X-34836Y66340D01*
X-34764Y66551D01*
X-34686Y66759D01*
X-34604Y66965D01*
X-34516Y67169D01*
X-34424Y67372D01*
X-34326Y67571D01*
X-34224Y67768D01*
X-34117Y67963D01*
X-34005Y68155D01*
X-33888Y68344D01*
X-33767Y68531D01*
X-33641Y68714D01*
X-33511Y68894D01*
X-33376Y69071D01*
X-33238Y69244D01*
X-33095Y69414D01*
X-32947Y69581D01*
X-32796Y69744D01*
X-32641Y69903D01*
X-32482Y70058D01*
X-32319Y70209D01*
X-32152Y70357D01*
X-31982Y70500D01*
X-31809Y70638D01*
X-31632Y70773D01*
X-31452Y70903D01*
X-31269Y71029D01*
X-31082Y71150D01*
X-30893Y71267D01*
X-30701Y71379D01*
X-30506Y71486D01*
X-30309Y71588D01*
X-30110Y71686D01*
X-29907Y71778D01*
X-29703Y71866D01*
X-29497Y71948D01*
X-29289Y72026D01*
X-29078Y72098D01*
X-28867Y72165D01*
X-28653Y72227D01*
X-28438Y72284D01*
X-28222Y72335D01*
X-28005Y72381D01*
X-27786Y72422D01*
X-27567Y72457D01*
X-27346Y72487D01*
X-27126Y72511D01*
X-26904Y72530D01*
X-26682Y72544D01*
X-26460Y72552D01*
X-26238Y72555D01*
X-26016Y72552D01*
X-25794Y72544D01*
X-25572Y72530D01*
X-25350Y72511D01*
X-25130Y72487D01*
X-24909Y72457D01*
X-24690Y72422D01*
X-24471Y72381D01*
X-24254Y72335D01*
X-24038Y72284D01*
X-23823Y72227D01*
X-23609Y72165D01*
X-23398Y72098D01*
X-23187Y72026D01*
X-22979Y71948D01*
X-22773Y71866D01*
X-22569Y71778D01*
X-22366Y71686D01*
X-22167Y71588D01*
X-21970Y71486D01*
X-21775Y71379D01*
X-21583Y71267D01*
X-21394Y71150D01*
X-21207Y71029D01*
X-21024Y70903D01*
X-20844Y70773D01*
X-20667Y70638D01*
X-20494Y70500D01*
X-20324Y70357D01*
X-20157Y70209D01*
X-19994Y70058D01*
X-19835Y69903D01*
X-19680Y69744D01*
X-19529Y69581D01*
X-19381Y69414D01*
X-19238Y69244D01*
X-19100Y69071D01*
X-18965Y68894D01*
X-18835Y68714D01*
X-18709Y68531D01*
X-18588Y68344D01*
X-18471Y68155D01*
X-18359Y67963D01*
X-18252Y67768D01*
X-18150Y67571D01*
X-18052Y67372D01*
X-17960Y67169D01*
X-17872Y66965D01*
X-17790Y66759D01*
X-17712Y66551D01*
X-17640Y66340D01*
X-17573Y66129D01*
X-17511Y65915D01*
X-17454Y65700D01*
X-17403Y65484D01*
X-17357Y65267D01*
X-17316Y65048D01*
X-17281Y64829D01*
X-17251Y64608D01*
X-17227Y64388D01*
X-17208Y64166D01*
X-17194Y63944D01*
X-17186Y63722D01*
X-17183Y63500D01*
X-17186Y63278D01*
X-17194Y63056D01*
X-17208Y62834D01*
X-17227Y62612D01*
X-17251Y62392D01*
X-17281Y62171D01*
X-17316Y61952D01*
X-17357Y61733D01*
X-17403Y61516D01*
X-17454Y61300D01*
X-17511Y61085D01*
X-17573Y60871D01*
X-17640Y60660D01*
X-17712Y60449D01*
X-17790Y60241D01*
X-17872Y60035D01*
X-17960Y59831D01*
X-18052Y59628D01*
X-18150Y59429D01*
X-18252Y59232D01*
X-18359Y59037D01*
X-18471Y58845D01*
X-18588Y58656D01*
X-18709Y58469D01*
X-18835Y58286D01*
X-18965Y58106D01*
X-19100Y57929D01*
X-19238Y57756D01*
X-19381Y57586D01*
X-19529Y57419D01*
X-19680Y57256D01*
X-19835Y57097D01*
X-19994Y56942D01*
X-20157Y56791D01*
X-20324Y56643D01*
X-20494Y56500D01*
X-20667Y56362D01*
X-20844Y56227D01*
X-21024Y56097D01*
X-21207Y55971D01*
X-21394Y55850D01*
X-21583Y55733D01*
X-21775Y55621D01*
X-21970Y55514D01*
X-22167Y55412D01*
X-22366Y55314D01*
X-22569Y55222D01*
X-22773Y55134D01*
X-22979Y55052D01*
X-23187Y54974D01*
X-23398Y54902D01*
X-23609Y54835D01*
X-23823Y54773D01*
X-24038Y54716D01*
X-24254Y54665D01*
X-24471Y54619D01*
X-24690Y54578D01*
X-24909Y54543D01*
X-25130Y54513D01*
X-25350Y54489D01*
X-25572Y54470D01*
X-25794Y54456D01*
X-26016Y54448D01*
X-26238Y54445D01*
X-26460Y54448D01*
X-26682Y54456D01*
X-26904Y54470D01*
X-27126Y54489D01*
X-27346Y54513D01*
X-27567Y54543D01*
X-27786Y54578D01*
X-28005Y54619D01*
X-28222Y54665D01*
X-28438Y54716D01*
X-28653Y54773D01*
X-28867Y54835D01*
X-29078Y54902D01*
X-29289Y54974D01*
X-29497Y55052D01*
X-29703Y55134D01*
X-29907Y55222D01*
X-30110Y55314D01*
X-30309Y55412D01*
X-30506Y55514D01*
X-30701Y55621D01*
X-30893Y55733D01*
X-31082Y55850D01*
X-31269Y55971D01*
X-31452Y56097D01*
X-31632Y56227D01*
X-31809Y56362D01*
X-31982Y56500D01*
X-32152Y56643D01*
X-32319Y56791D01*
X-32482Y56942D01*
X-32641Y57097D01*
X-32796Y57256D01*
X-32947Y57419D01*
X-33095Y57586D01*
X-33238Y57756D01*
X-33376Y57929D01*
X-33511Y58106D01*
X-33641Y58286D01*
X-33767Y58469D01*
X-33888Y58656D01*
X-34005Y58845D01*
X-34117Y59037D01*
X-34224Y59232D01*
X-34326Y59429D01*
X-34424Y59628D01*
X-34516Y59831D01*
X-34604Y60035D01*
X-34686Y60241D01*
X-34764Y60449D01*
X-34836Y60660D01*
X-34903Y60871D01*
X-34965Y61085D01*
X-35022Y61300D01*
X-35073Y61516D01*
X-35119Y61733D01*
X-35160Y61952D01*
X-35195Y62171D01*
X-35225Y62392D01*
X-35249Y62612D01*
X-35268Y62834D01*
X-35282Y63056D01*
X-35290Y63278D01*
X-35293Y63500D01*
D37*
X-26238Y63500D03*
M02*
