M48
;GenerationSoftware,Autodesk,EAGLE,9.6.2*%
;CreationDate,2023-01-17T22:11:35Z*%
FMAT,2
ICI,OFF
METRIC,TZ,000.000
T7C0.305
T6C0.400
T5C0.650
T4C1.000
T3C1.016
T2C3.200
T1C3.302
%
G90
M71
T1
X60960Y2540
X2540Y2540
X2540Y60960
X60960Y60960
T2
X53975Y2540
X9525Y2540
X20955Y2540
X26035Y2540
X37465Y2540
X42545Y2540
T3
X50800Y43180
X62230Y27940
X62230Y6350
X62230Y8890
X62230Y11430
X62230Y13970
X62230Y25400
X54610Y31750
X52070Y31750
X50800Y40640
T4
X46355Y8890
X19685Y11430
X18415Y8890
X17145Y11430
X14605Y11430
X12065Y11430
X15875Y8890
X13335Y8890
X10795Y8890
X36195Y11430
X34925Y8890
X33655Y11430
X31115Y11430
X28575Y11430
X32385Y8890
X29845Y8890
X27305Y8890
X51435Y8890
X50165Y11430
X47625Y11430
X45085Y11430
X48895Y8890
X52705Y11430
X43815Y8890
T5
X56690Y49180
X56690Y54960
T6
X56160Y56388
X60340Y56388
X60340Y47752
X56160Y47752
T7
X29210Y35433
X27305Y29845
X6350Y13970
X1270Y13970
X19431Y42672
X25400Y39370
X27305Y32385
X33147Y30607
X34925Y31115
X29591Y30480
X33655Y33020
X36830Y34290
X33655Y36195
X30226Y45593
X28448Y45593
X32004Y45593
X33274Y46863
X33274Y48641
X33274Y50419
X30226Y51689
X27178Y48641
X27178Y46863
X27178Y50419
X28448Y51689
X32004Y51689
X24765Y55880
X20955Y55880
X9525Y62865
X5715Y62865
X635Y59055
X635Y53340
X16510Y55372
X19685Y55372
X14605Y41275
X18034Y40005
X53340Y21590
X53340Y18415
X57150Y19050
X43180Y22860
X43180Y25400
X45720Y27940
X53340Y20320
X52070Y20320
X55245Y18415
X56515Y21336
X62865Y21590
X59055Y17780
X23495Y19685
X24765Y19304
X41910Y13970
X23495Y17145
X23495Y20955
X24765Y20955
X36195Y39116
X39116Y38227
X36195Y49784
X32385Y41275
X49530Y56515
X52070Y56515
X53975Y57785
X53975Y62865
X59055Y62865
X62865Y59055
X62865Y46736
X62230Y41910
X54610Y44450
X46990Y48260
X45720Y36830
X43815Y36830
X48260Y6985
X50800Y6985
X635Y4445
X4445Y635
X3810Y6350
X1270Y19050
X1270Y21590
X62865Y19050
X62865Y15875
X55880Y8890
X54610Y10160
X57150Y12700
X31750Y635
X48260Y635
X62865Y4445
X59055Y635
X62865Y29210
X15240Y635
X635Y40005
X6350Y48260
X5080Y49530
X11430Y53340
X10160Y54610
X16510Y53340
X10795Y44450
X10795Y40640
X12700Y49530
X635Y15875
X635Y8255
X7620Y11430
X27940Y24130
X30480Y25400
X32385Y26797
X35560Y25400
X36830Y31750
X39370Y26035
X45720Y19050
X49530Y15240
X39370Y23495
X41275Y18415
X10160Y17780
X26035Y34671
X24130Y48260
X27940Y41910
X26670Y54610
X24130Y52070
X19812Y51435
X46482Y43180
X27305Y15875
X36830Y15240
X34544Y45720
X30607Y36703
X41910Y51689
X42342Y49543
X39370Y55118
X36195Y52705
X37465Y53975
X49022Y50927
X49022Y52197
X25400Y49530
X47625Y9906
X50165Y9906
X45212Y9906
X17145Y9525
X21463Y43688
X38989Y51816
X43180Y30480
X42164Y41021
X32385Y12065
X51435Y13970
X55245Y13335
X1905Y56515
X3175Y57785
X4445Y59055
X5715Y57150
X4826Y56134
X3810Y55245
X5715Y59690
X9144Y59690
X9144Y57150
X7620Y55880
X7620Y60960
X635Y55245
X44323Y46609
X46355Y46355
X54610Y50800
X54610Y55880
X54610Y53340
X52070Y48260
X55753Y57404
X57785Y58420
X52324Y45720
X56261Y46609
X58420Y45720
X51435Y52070
X55880Y41910
X49530Y39370
X49911Y41910
X52070Y39370
X45466Y40005
X52070Y41910
X15240Y22860
X13970Y22225
X7112Y19304
X26670Y12700
X22860Y10160
X34925Y6985
X31750Y6985
X24130Y6985
X10795Y6985
X15240Y13589
X16510Y13589
X18415Y20320
X7874Y21590
X7620Y17780
X10795Y35560
X10795Y29845
X13335Y26035
X17780Y29210
X14605Y35560
X20320Y26670
X16510Y23495
X12700Y23495
X57785Y10795
X38100Y6985
X8890Y6350
X15240Y4445
X31750Y4445
X23495Y4445
X21590Y33020
X22860Y31750
X27305Y36195
X22225Y19685
X22225Y18415
X22225Y22225
X6985Y8255
X5080Y22860
X8890Y25400
X25400Y40640
X19050Y38735
X16637Y47498
X19050Y36195
X16256Y43815
X29845Y12065
X14605Y37465
X3810Y44450
X5080Y40640
X7620Y43180
X34925Y23495
X36195Y20320
X37465Y20320
X38100Y13970
X44450Y15240
X635Y34925
X635Y28575
X4445Y27305
X4445Y36195
X39370Y18415
X56515Y53340
X49301Y44450
X56515Y50800
X49428Y42545
X62230Y40640
X62230Y33655
X48260Y25400
X48260Y26670
X48260Y24130
X45720Y24130
X49530Y26035
X46990Y26035
X3810Y47244
X21590Y54610
X5080Y48260
X24130Y54610
X49911Y46736
X45720Y25400
X45720Y26670
X44450Y26035
X48260Y22860
X56515Y10795
X3048Y17780
X61214Y31750
X58674Y30480
X46203Y51689
X42545Y52959
X24130Y53340
X28575Y33782
X28575Y31115
X57150Y21971
X22860Y19050
X31750Y41910
X55245Y17145
X6604Y18669
X14605Y21590
X42545Y13335
X29972Y33757
X30480Y31750
X57150Y20701
X24130Y20320
X33655Y41275
X55880Y17780
X6604Y19939
X13335Y22860
X57785Y15875
X42545Y14605
X52070Y14605
X57150Y14605
X3810Y14605
X5080Y10795
X52070Y27940
X27940Y20320
X25400Y17780
X25400Y21590
X29210Y21590
X29718Y16129
X36830Y26670
X33655Y17780
X35560Y17780
X49022Y48895
X39624Y51435
X49022Y50165
X39624Y52705
X31750Y36195
X32639Y32385
X31496Y31750
X26035Y33655
X24130Y38735
X15240Y38100
X19685Y29845
X13335Y16510
X14605Y20066
X17145Y14605
X36195Y46990
X36195Y49022
X36195Y44450
X36195Y41910
X36195Y39878
X42164Y41910
X39055Y15875
X42164Y43180
X42164Y45720
X42164Y46990
X37973Y52705
X21336Y44450
X24765Y37465
X15240Y36830
X24384Y46990
X47625Y38100
X21336Y45720
X21336Y49530
X21336Y48260
X21336Y52070
X21336Y50800
X43180Y33020
X57150Y52705
X57150Y51435
X54610Y45720
X53975Y45720
X55880Y39370
X57150Y38100
X52705Y43815
X52705Y42545
X54991Y57404
X31750Y24130
X26035Y40005
X15875Y44450
X26670Y41224
X15875Y43180
X50800Y22860
X50800Y24130
X50800Y21590
X50800Y25400
X52070Y25400
X2540Y10795
X3810Y7620
X61214Y37211
X59690Y34925
X61468Y33655
X32385Y22606
X34036Y21336
X33655Y34798
X23495Y37465
X20955Y40513
X14605Y45085
X53340Y27940
X54610Y27940
X52260Y29210
X50419Y27940
X48260Y29845
X48260Y31750
X52260Y30226
X50546Y31750
X53975Y26035
X55245Y26035
X45720Y29845
X45720Y22860
X46990Y21590
X48260Y20320
X49530Y19050
X51435Y18415
X53340Y22860
X53340Y24130
X52705Y49530
X49530Y49530
X54610Y48260
X46990Y56642
X36195Y51562
X42545Y53848
X42672Y48260
X38735Y56642
X42545Y56642
X55245Y35560
X53340Y35560
X52070Y36830
X51435Y35306
X47625Y35306
X53975Y29845
X52578Y51435
M30