G04 EAGLE Gerber RS-274X export*
G75*
%MOMM*%
%FSLAX34Y34*%
%LPD*%
%INSoldermask Bottom*%
%IPPOS*%
%AMOC8*
5,1,8,0,0,1.08239X$1,22.5*%
G01*
%ADD10C,3.429000*%
%ADD11C,1.127000*%
%ADD12C,0.777000*%
%ADD13C,0.228344*%
%ADD14C,0.228600*%
%ADD15C,2.006600*%
%ADD16R,2.006600X2.006600*%
%ADD17C,3.327000*%
%ADD18C,1.143000*%
%ADD19C,1.270000*%
%ADD20C,1.627000*%

G36*
X535370Y310273D02*
X535370Y310273D01*
X535436Y310275D01*
X535479Y310293D01*
X535526Y310301D01*
X535583Y310335D01*
X535643Y310360D01*
X535678Y310391D01*
X535719Y310416D01*
X535761Y310467D01*
X535809Y310511D01*
X535831Y310553D01*
X535860Y310590D01*
X535881Y310652D01*
X535912Y310711D01*
X535920Y310765D01*
X535932Y310802D01*
X535931Y310842D01*
X535939Y310896D01*
X535939Y324104D01*
X535928Y324169D01*
X535926Y324235D01*
X535908Y324278D01*
X535900Y324325D01*
X535866Y324382D01*
X535841Y324442D01*
X535810Y324477D01*
X535785Y324518D01*
X535734Y324560D01*
X535690Y324608D01*
X535648Y324630D01*
X535611Y324659D01*
X535549Y324680D01*
X535490Y324711D01*
X535436Y324719D01*
X535399Y324731D01*
X535359Y324730D01*
X535305Y324738D01*
X531495Y324738D01*
X531430Y324727D01*
X531364Y324725D01*
X531321Y324707D01*
X531274Y324699D01*
X531217Y324665D01*
X531157Y324640D01*
X531122Y324609D01*
X531081Y324584D01*
X531040Y324533D01*
X530991Y324489D01*
X530969Y324447D01*
X530940Y324410D01*
X530919Y324348D01*
X530888Y324289D01*
X530880Y324235D01*
X530868Y324198D01*
X530869Y324158D01*
X530861Y324104D01*
X530861Y310896D01*
X530872Y310831D01*
X530874Y310765D01*
X530892Y310722D01*
X530900Y310675D01*
X530934Y310618D01*
X530959Y310558D01*
X530990Y310523D01*
X531015Y310482D01*
X531066Y310441D01*
X531110Y310392D01*
X531152Y310370D01*
X531189Y310341D01*
X531251Y310320D01*
X531310Y310289D01*
X531364Y310281D01*
X531401Y310269D01*
X531441Y310270D01*
X531495Y310262D01*
X535305Y310262D01*
X535370Y310273D01*
G37*
G36*
X445835Y314972D02*
X445835Y314972D01*
X445901Y314974D01*
X445944Y314992D01*
X445991Y315000D01*
X446048Y315034D01*
X446108Y315059D01*
X446143Y315090D01*
X446184Y315115D01*
X446226Y315166D01*
X446274Y315210D01*
X446296Y315252D01*
X446325Y315289D01*
X446346Y315351D01*
X446377Y315410D01*
X446385Y315464D01*
X446397Y315501D01*
X446396Y315541D01*
X446404Y315595D01*
X446404Y319405D01*
X446393Y319470D01*
X446391Y319536D01*
X446373Y319579D01*
X446365Y319626D01*
X446331Y319683D01*
X446306Y319743D01*
X446275Y319778D01*
X446250Y319819D01*
X446199Y319861D01*
X446155Y319909D01*
X446113Y319931D01*
X446076Y319960D01*
X446014Y319981D01*
X445955Y320012D01*
X445901Y320020D01*
X445864Y320032D01*
X445824Y320031D01*
X445770Y320039D01*
X443230Y320039D01*
X443165Y320028D01*
X443099Y320026D01*
X443056Y320008D01*
X443009Y320000D01*
X442952Y319966D01*
X442892Y319941D01*
X442857Y319910D01*
X442816Y319885D01*
X442775Y319834D01*
X442726Y319790D01*
X442704Y319748D01*
X442675Y319711D01*
X442654Y319649D01*
X442623Y319590D01*
X442615Y319536D01*
X442603Y319499D01*
X442603Y319495D01*
X442603Y319494D01*
X442604Y319459D01*
X442596Y319405D01*
X442596Y315595D01*
X442607Y315530D01*
X442609Y315464D01*
X442627Y315421D01*
X442635Y315374D01*
X442669Y315317D01*
X442694Y315257D01*
X442725Y315222D01*
X442750Y315181D01*
X442801Y315140D01*
X442845Y315091D01*
X442887Y315069D01*
X442924Y315040D01*
X442986Y315019D01*
X443045Y314988D01*
X443099Y314980D01*
X443136Y314968D01*
X443176Y314969D01*
X443230Y314961D01*
X445770Y314961D01*
X445835Y314972D01*
G37*
G36*
X620460Y518807D02*
X620460Y518807D01*
X620526Y518809D01*
X620569Y518827D01*
X620616Y518835D01*
X620673Y518869D01*
X620733Y518894D01*
X620768Y518925D01*
X620809Y518950D01*
X620851Y519001D01*
X620899Y519045D01*
X620921Y519087D01*
X620950Y519124D01*
X620971Y519186D01*
X621002Y519245D01*
X621010Y519299D01*
X621022Y519336D01*
X621021Y519376D01*
X621029Y519430D01*
X621029Y521970D01*
X621018Y522035D01*
X621016Y522101D01*
X620998Y522144D01*
X620990Y522191D01*
X620956Y522248D01*
X620931Y522308D01*
X620900Y522343D01*
X620875Y522384D01*
X620824Y522426D01*
X620780Y522474D01*
X620738Y522496D01*
X620701Y522525D01*
X620639Y522546D01*
X620580Y522577D01*
X620526Y522585D01*
X620489Y522597D01*
X620449Y522596D01*
X620395Y522604D01*
X616585Y522604D01*
X616520Y522593D01*
X616454Y522591D01*
X616411Y522573D01*
X616364Y522565D01*
X616307Y522531D01*
X616247Y522506D01*
X616212Y522475D01*
X616171Y522450D01*
X616130Y522399D01*
X616081Y522355D01*
X616059Y522313D01*
X616030Y522276D01*
X616009Y522214D01*
X615978Y522155D01*
X615970Y522101D01*
X615958Y522064D01*
X615958Y522061D01*
X615959Y522024D01*
X615951Y521970D01*
X615951Y519430D01*
X615962Y519365D01*
X615964Y519299D01*
X615982Y519256D01*
X615990Y519209D01*
X616024Y519152D01*
X616049Y519092D01*
X616080Y519057D01*
X616105Y519016D01*
X616156Y518975D01*
X616200Y518926D01*
X616242Y518904D01*
X616279Y518875D01*
X616341Y518854D01*
X616400Y518823D01*
X616454Y518815D01*
X616491Y518803D01*
X616531Y518804D01*
X616585Y518796D01*
X620395Y518796D01*
X620460Y518807D01*
G37*
G36*
X377890Y493407D02*
X377890Y493407D01*
X377956Y493409D01*
X377999Y493427D01*
X378046Y493435D01*
X378103Y493469D01*
X378163Y493494D01*
X378198Y493525D01*
X378239Y493550D01*
X378281Y493601D01*
X378329Y493645D01*
X378351Y493687D01*
X378380Y493724D01*
X378401Y493786D01*
X378432Y493845D01*
X378440Y493899D01*
X378452Y493936D01*
X378451Y493976D01*
X378459Y494030D01*
X378459Y496570D01*
X378448Y496635D01*
X378446Y496701D01*
X378428Y496744D01*
X378420Y496791D01*
X378386Y496848D01*
X378361Y496908D01*
X378330Y496943D01*
X378305Y496984D01*
X378254Y497026D01*
X378210Y497074D01*
X378168Y497096D01*
X378131Y497125D01*
X378069Y497146D01*
X378010Y497177D01*
X377956Y497185D01*
X377919Y497197D01*
X377879Y497196D01*
X377825Y497204D01*
X374015Y497204D01*
X373950Y497193D01*
X373884Y497191D01*
X373841Y497173D01*
X373794Y497165D01*
X373737Y497131D01*
X373677Y497106D01*
X373642Y497075D01*
X373601Y497050D01*
X373560Y496999D01*
X373511Y496955D01*
X373489Y496913D01*
X373460Y496876D01*
X373439Y496814D01*
X373408Y496755D01*
X373400Y496701D01*
X373388Y496664D01*
X373388Y496661D01*
X373389Y496624D01*
X373381Y496570D01*
X373381Y494030D01*
X373392Y493965D01*
X373394Y493899D01*
X373412Y493856D01*
X373420Y493809D01*
X373454Y493752D01*
X373479Y493692D01*
X373510Y493657D01*
X373535Y493616D01*
X373586Y493575D01*
X373630Y493526D01*
X373672Y493504D01*
X373709Y493475D01*
X373771Y493454D01*
X373830Y493423D01*
X373884Y493415D01*
X373921Y493403D01*
X373961Y493404D01*
X374015Y493396D01*
X377825Y493396D01*
X377890Y493407D01*
G37*
G36*
X377890Y468007D02*
X377890Y468007D01*
X377956Y468009D01*
X377999Y468027D01*
X378046Y468035D01*
X378103Y468069D01*
X378163Y468094D01*
X378198Y468125D01*
X378239Y468150D01*
X378281Y468201D01*
X378329Y468245D01*
X378351Y468287D01*
X378380Y468324D01*
X378401Y468386D01*
X378432Y468445D01*
X378440Y468499D01*
X378452Y468536D01*
X378451Y468576D01*
X378459Y468630D01*
X378459Y471170D01*
X378448Y471235D01*
X378446Y471301D01*
X378428Y471344D01*
X378420Y471391D01*
X378386Y471448D01*
X378361Y471508D01*
X378330Y471543D01*
X378305Y471584D01*
X378254Y471626D01*
X378210Y471674D01*
X378168Y471696D01*
X378131Y471725D01*
X378069Y471746D01*
X378010Y471777D01*
X377956Y471785D01*
X377919Y471797D01*
X377879Y471796D01*
X377825Y471804D01*
X374015Y471804D01*
X373950Y471793D01*
X373884Y471791D01*
X373841Y471773D01*
X373794Y471765D01*
X373737Y471731D01*
X373677Y471706D01*
X373642Y471675D01*
X373601Y471650D01*
X373560Y471599D01*
X373511Y471555D01*
X373489Y471513D01*
X373460Y471476D01*
X373439Y471414D01*
X373408Y471355D01*
X373400Y471301D01*
X373388Y471264D01*
X373388Y471261D01*
X373389Y471224D01*
X373381Y471170D01*
X373381Y468630D01*
X373392Y468565D01*
X373394Y468499D01*
X373412Y468456D01*
X373420Y468409D01*
X373454Y468352D01*
X373479Y468292D01*
X373510Y468257D01*
X373535Y468216D01*
X373586Y468175D01*
X373630Y468126D01*
X373672Y468104D01*
X373709Y468075D01*
X373771Y468054D01*
X373830Y468023D01*
X373884Y468015D01*
X373921Y468003D01*
X373961Y468004D01*
X374015Y467996D01*
X377825Y467996D01*
X377890Y468007D01*
G37*
G36*
X377890Y442607D02*
X377890Y442607D01*
X377956Y442609D01*
X377999Y442627D01*
X378046Y442635D01*
X378103Y442669D01*
X378163Y442694D01*
X378198Y442725D01*
X378239Y442750D01*
X378281Y442801D01*
X378329Y442845D01*
X378351Y442887D01*
X378380Y442924D01*
X378401Y442986D01*
X378432Y443045D01*
X378440Y443099D01*
X378452Y443136D01*
X378451Y443176D01*
X378459Y443230D01*
X378459Y445770D01*
X378448Y445835D01*
X378446Y445901D01*
X378428Y445944D01*
X378420Y445991D01*
X378386Y446048D01*
X378361Y446108D01*
X378330Y446143D01*
X378305Y446184D01*
X378254Y446226D01*
X378210Y446274D01*
X378168Y446296D01*
X378131Y446325D01*
X378069Y446346D01*
X378010Y446377D01*
X377956Y446385D01*
X377919Y446397D01*
X377879Y446396D01*
X377825Y446404D01*
X374015Y446404D01*
X373950Y446393D01*
X373884Y446391D01*
X373841Y446373D01*
X373794Y446365D01*
X373737Y446331D01*
X373677Y446306D01*
X373642Y446275D01*
X373601Y446250D01*
X373560Y446199D01*
X373511Y446155D01*
X373489Y446113D01*
X373460Y446076D01*
X373439Y446014D01*
X373408Y445955D01*
X373400Y445901D01*
X373388Y445864D01*
X373388Y445861D01*
X373389Y445824D01*
X373381Y445770D01*
X373381Y443230D01*
X373392Y443165D01*
X373394Y443099D01*
X373412Y443056D01*
X373420Y443009D01*
X373454Y442952D01*
X373479Y442892D01*
X373510Y442857D01*
X373535Y442816D01*
X373586Y442775D01*
X373630Y442726D01*
X373672Y442704D01*
X373709Y442675D01*
X373771Y442654D01*
X373830Y442623D01*
X373884Y442615D01*
X373921Y442603D01*
X373961Y442604D01*
X374015Y442596D01*
X377825Y442596D01*
X377890Y442607D01*
G37*
G36*
X377890Y417207D02*
X377890Y417207D01*
X377956Y417209D01*
X377999Y417227D01*
X378046Y417235D01*
X378103Y417269D01*
X378163Y417294D01*
X378198Y417325D01*
X378239Y417350D01*
X378281Y417401D01*
X378329Y417445D01*
X378351Y417487D01*
X378380Y417524D01*
X378401Y417586D01*
X378432Y417645D01*
X378440Y417699D01*
X378452Y417736D01*
X378451Y417776D01*
X378459Y417830D01*
X378459Y420370D01*
X378448Y420435D01*
X378446Y420501D01*
X378428Y420544D01*
X378420Y420591D01*
X378386Y420648D01*
X378361Y420708D01*
X378330Y420743D01*
X378305Y420784D01*
X378254Y420826D01*
X378210Y420874D01*
X378168Y420896D01*
X378131Y420925D01*
X378069Y420946D01*
X378010Y420977D01*
X377956Y420985D01*
X377919Y420997D01*
X377879Y420996D01*
X377825Y421004D01*
X374015Y421004D01*
X373950Y420993D01*
X373884Y420991D01*
X373841Y420973D01*
X373794Y420965D01*
X373737Y420931D01*
X373677Y420906D01*
X373642Y420875D01*
X373601Y420850D01*
X373560Y420799D01*
X373511Y420755D01*
X373489Y420713D01*
X373460Y420676D01*
X373439Y420614D01*
X373408Y420555D01*
X373400Y420501D01*
X373388Y420464D01*
X373388Y420461D01*
X373389Y420424D01*
X373381Y420370D01*
X373381Y417830D01*
X373392Y417765D01*
X373394Y417699D01*
X373412Y417656D01*
X373420Y417609D01*
X373454Y417552D01*
X373479Y417492D01*
X373510Y417457D01*
X373535Y417416D01*
X373586Y417375D01*
X373630Y417326D01*
X373672Y417304D01*
X373709Y417275D01*
X373771Y417254D01*
X373830Y417223D01*
X373884Y417215D01*
X373921Y417203D01*
X373961Y417204D01*
X374015Y417196D01*
X377825Y417196D01*
X377890Y417207D01*
G37*
G36*
X377890Y391807D02*
X377890Y391807D01*
X377956Y391809D01*
X377999Y391827D01*
X378046Y391835D01*
X378103Y391869D01*
X378163Y391894D01*
X378198Y391925D01*
X378239Y391950D01*
X378281Y392001D01*
X378329Y392045D01*
X378351Y392087D01*
X378380Y392124D01*
X378401Y392186D01*
X378432Y392245D01*
X378440Y392299D01*
X378452Y392336D01*
X378451Y392376D01*
X378459Y392430D01*
X378459Y394970D01*
X378448Y395035D01*
X378446Y395101D01*
X378428Y395144D01*
X378420Y395191D01*
X378386Y395248D01*
X378361Y395308D01*
X378330Y395343D01*
X378305Y395384D01*
X378254Y395426D01*
X378210Y395474D01*
X378168Y395496D01*
X378131Y395525D01*
X378069Y395546D01*
X378010Y395577D01*
X377956Y395585D01*
X377919Y395597D01*
X377879Y395596D01*
X377825Y395604D01*
X374015Y395604D01*
X373950Y395593D01*
X373884Y395591D01*
X373841Y395573D01*
X373794Y395565D01*
X373737Y395531D01*
X373677Y395506D01*
X373642Y395475D01*
X373601Y395450D01*
X373560Y395399D01*
X373511Y395355D01*
X373489Y395313D01*
X373460Y395276D01*
X373439Y395214D01*
X373408Y395155D01*
X373400Y395101D01*
X373388Y395064D01*
X373388Y395061D01*
X373389Y395024D01*
X373381Y394970D01*
X373381Y392430D01*
X373392Y392365D01*
X373394Y392299D01*
X373412Y392256D01*
X373420Y392209D01*
X373454Y392152D01*
X373479Y392092D01*
X373510Y392057D01*
X373535Y392016D01*
X373586Y391975D01*
X373630Y391926D01*
X373672Y391904D01*
X373709Y391875D01*
X373771Y391854D01*
X373830Y391823D01*
X373884Y391815D01*
X373921Y391803D01*
X373961Y391804D01*
X374015Y391796D01*
X377825Y391796D01*
X377890Y391807D01*
G37*
G36*
X598870Y315607D02*
X598870Y315607D01*
X598936Y315609D01*
X598979Y315627D01*
X599026Y315635D01*
X599083Y315669D01*
X599143Y315694D01*
X599178Y315725D01*
X599219Y315750D01*
X599261Y315801D01*
X599309Y315845D01*
X599331Y315887D01*
X599360Y315924D01*
X599381Y315986D01*
X599412Y316045D01*
X599420Y316099D01*
X599432Y316136D01*
X599431Y316176D01*
X599439Y316230D01*
X599439Y318770D01*
X599428Y318835D01*
X599426Y318901D01*
X599408Y318944D01*
X599400Y318991D01*
X599366Y319048D01*
X599341Y319108D01*
X599310Y319143D01*
X599285Y319184D01*
X599234Y319226D01*
X599190Y319274D01*
X599148Y319296D01*
X599111Y319325D01*
X599049Y319346D01*
X598990Y319377D01*
X598936Y319385D01*
X598899Y319397D01*
X598859Y319396D01*
X598805Y319404D01*
X594995Y319404D01*
X594930Y319393D01*
X594864Y319391D01*
X594821Y319373D01*
X594774Y319365D01*
X594717Y319331D01*
X594657Y319306D01*
X594622Y319275D01*
X594581Y319250D01*
X594540Y319199D01*
X594491Y319155D01*
X594469Y319113D01*
X594440Y319076D01*
X594419Y319014D01*
X594388Y318955D01*
X594380Y318901D01*
X594368Y318864D01*
X594368Y318861D01*
X594369Y318824D01*
X594361Y318770D01*
X594361Y316230D01*
X594372Y316165D01*
X594374Y316099D01*
X594392Y316056D01*
X594400Y316009D01*
X594434Y315952D01*
X594459Y315892D01*
X594490Y315857D01*
X594515Y315816D01*
X594566Y315775D01*
X594610Y315726D01*
X594652Y315704D01*
X594689Y315675D01*
X594751Y315654D01*
X594810Y315623D01*
X594864Y315615D01*
X594901Y315603D01*
X594941Y315604D01*
X594995Y315596D01*
X598805Y315596D01*
X598870Y315607D01*
G37*
G36*
X154370Y175907D02*
X154370Y175907D01*
X154436Y175909D01*
X154479Y175927D01*
X154526Y175935D01*
X154583Y175969D01*
X154643Y175994D01*
X154678Y176025D01*
X154719Y176050D01*
X154761Y176101D01*
X154809Y176145D01*
X154831Y176187D01*
X154860Y176224D01*
X154881Y176286D01*
X154912Y176345D01*
X154920Y176399D01*
X154932Y176436D01*
X154931Y176476D01*
X154939Y176530D01*
X154939Y179070D01*
X154928Y179135D01*
X154926Y179201D01*
X154908Y179244D01*
X154900Y179291D01*
X154866Y179348D01*
X154841Y179408D01*
X154810Y179443D01*
X154785Y179484D01*
X154734Y179526D01*
X154690Y179574D01*
X154648Y179596D01*
X154611Y179625D01*
X154549Y179646D01*
X154490Y179677D01*
X154436Y179685D01*
X154399Y179697D01*
X154359Y179696D01*
X154305Y179704D01*
X150495Y179704D01*
X150430Y179693D01*
X150364Y179691D01*
X150321Y179673D01*
X150274Y179665D01*
X150217Y179631D01*
X150157Y179606D01*
X150122Y179575D01*
X150081Y179550D01*
X150040Y179499D01*
X149991Y179455D01*
X149969Y179413D01*
X149940Y179376D01*
X149919Y179314D01*
X149888Y179255D01*
X149880Y179201D01*
X149868Y179164D01*
X149868Y179161D01*
X149869Y179124D01*
X149861Y179070D01*
X149861Y176530D01*
X149872Y176465D01*
X149874Y176399D01*
X149892Y176356D01*
X149900Y176309D01*
X149934Y176252D01*
X149959Y176192D01*
X149990Y176157D01*
X150015Y176116D01*
X150066Y176075D01*
X150110Y176026D01*
X150152Y176004D01*
X150189Y175975D01*
X150251Y175954D01*
X150310Y175923D01*
X150364Y175915D01*
X150401Y175903D01*
X150441Y175904D01*
X150495Y175896D01*
X154305Y175896D01*
X154370Y175907D01*
G37*
G36*
X542990Y150507D02*
X542990Y150507D01*
X543056Y150509D01*
X543099Y150527D01*
X543146Y150535D01*
X543203Y150569D01*
X543263Y150594D01*
X543298Y150625D01*
X543339Y150650D01*
X543381Y150701D01*
X543429Y150745D01*
X543451Y150787D01*
X543480Y150824D01*
X543501Y150886D01*
X543532Y150945D01*
X543540Y150999D01*
X543552Y151036D01*
X543551Y151076D01*
X543559Y151130D01*
X543559Y153670D01*
X543548Y153735D01*
X543546Y153801D01*
X543528Y153844D01*
X543520Y153891D01*
X543486Y153948D01*
X543461Y154008D01*
X543430Y154043D01*
X543405Y154084D01*
X543354Y154126D01*
X543310Y154174D01*
X543268Y154196D01*
X543231Y154225D01*
X543169Y154246D01*
X543110Y154277D01*
X543056Y154285D01*
X543019Y154297D01*
X542979Y154296D01*
X542925Y154304D01*
X539115Y154304D01*
X539050Y154293D01*
X538984Y154291D01*
X538941Y154273D01*
X538894Y154265D01*
X538837Y154231D01*
X538777Y154206D01*
X538742Y154175D01*
X538701Y154150D01*
X538660Y154099D01*
X538611Y154055D01*
X538589Y154013D01*
X538560Y153976D01*
X538539Y153914D01*
X538508Y153855D01*
X538500Y153801D01*
X538488Y153764D01*
X538488Y153761D01*
X538489Y153724D01*
X538481Y153670D01*
X538481Y151130D01*
X538492Y151065D01*
X538494Y150999D01*
X538512Y150956D01*
X538520Y150909D01*
X538554Y150852D01*
X538579Y150792D01*
X538610Y150757D01*
X538635Y150716D01*
X538686Y150675D01*
X538730Y150626D01*
X538772Y150604D01*
X538809Y150575D01*
X538871Y150554D01*
X538930Y150523D01*
X538984Y150515D01*
X539021Y150503D01*
X539061Y150504D01*
X539115Y150496D01*
X542925Y150496D01*
X542990Y150507D01*
G37*
G36*
X553150Y150507D02*
X553150Y150507D01*
X553216Y150509D01*
X553259Y150527D01*
X553306Y150535D01*
X553363Y150569D01*
X553423Y150594D01*
X553458Y150625D01*
X553499Y150650D01*
X553541Y150701D01*
X553589Y150745D01*
X553611Y150787D01*
X553640Y150824D01*
X553661Y150886D01*
X553692Y150945D01*
X553700Y150999D01*
X553712Y151036D01*
X553711Y151076D01*
X553719Y151130D01*
X553719Y153670D01*
X553708Y153735D01*
X553706Y153801D01*
X553688Y153844D01*
X553680Y153891D01*
X553646Y153948D01*
X553621Y154008D01*
X553590Y154043D01*
X553565Y154084D01*
X553514Y154126D01*
X553470Y154174D01*
X553428Y154196D01*
X553391Y154225D01*
X553329Y154246D01*
X553270Y154277D01*
X553216Y154285D01*
X553179Y154297D01*
X553139Y154296D01*
X553085Y154304D01*
X549275Y154304D01*
X549210Y154293D01*
X549144Y154291D01*
X549101Y154273D01*
X549054Y154265D01*
X548997Y154231D01*
X548937Y154206D01*
X548902Y154175D01*
X548861Y154150D01*
X548820Y154099D01*
X548771Y154055D01*
X548749Y154013D01*
X548720Y153976D01*
X548699Y153914D01*
X548668Y153855D01*
X548660Y153801D01*
X548648Y153764D01*
X548648Y153761D01*
X548649Y153724D01*
X548641Y153670D01*
X548641Y151130D01*
X548652Y151065D01*
X548654Y150999D01*
X548672Y150956D01*
X548680Y150909D01*
X548714Y150852D01*
X548739Y150792D01*
X548770Y150757D01*
X548795Y150716D01*
X548846Y150675D01*
X548890Y150626D01*
X548932Y150604D01*
X548969Y150575D01*
X549031Y150554D01*
X549090Y150523D01*
X549144Y150515D01*
X549181Y150503D01*
X549221Y150504D01*
X549275Y150496D01*
X553085Y150496D01*
X553150Y150507D01*
G37*
D10*
X609600Y25400D03*
X25400Y25400D03*
X25400Y609600D03*
X609600Y609600D03*
D11*
X63500Y12700D03*
X590550Y590550D03*
D12*
X566900Y491800D03*
X566900Y549600D03*
D13*
X620901Y526544D02*
X626493Y526544D01*
X626493Y514856D01*
X620901Y514856D01*
X620901Y526544D01*
X620901Y517025D02*
X626493Y517025D01*
X626493Y519194D02*
X620901Y519194D01*
X620901Y521363D02*
X626493Y521363D01*
X626493Y523532D02*
X620901Y523532D01*
X620901Y525701D02*
X626493Y525701D01*
X616079Y526544D02*
X610487Y526544D01*
X616079Y526544D02*
X616079Y514856D01*
X610487Y514856D01*
X610487Y526544D01*
X610487Y517025D02*
X616079Y517025D01*
X616079Y519194D02*
X610487Y519194D01*
X610487Y521363D02*
X616079Y521363D01*
X616079Y523532D02*
X610487Y523532D01*
X610487Y525701D02*
X616079Y525701D01*
D14*
X541147Y323342D02*
X535813Y323342D01*
X541147Y323342D02*
X541147Y311658D01*
X535813Y311658D01*
X535813Y323342D01*
X535813Y313830D02*
X541147Y313830D01*
X541147Y316002D02*
X535813Y316002D01*
X535813Y318174D02*
X541147Y318174D01*
X541147Y320346D02*
X535813Y320346D01*
X535813Y322518D02*
X541147Y322518D01*
X530987Y323342D02*
X525653Y323342D01*
X530987Y323342D02*
X530987Y311658D01*
X525653Y311658D01*
X525653Y323342D01*
X525653Y313830D02*
X530987Y313830D01*
X530987Y316002D02*
X525653Y316002D01*
X525653Y318174D02*
X530987Y318174D01*
X530987Y320346D02*
X525653Y320346D01*
X525653Y322518D02*
X530987Y322518D01*
D15*
X546100Y317500D03*
X520700Y317500D03*
D13*
X588897Y311656D02*
X594489Y311656D01*
X588897Y311656D02*
X588897Y323344D01*
X594489Y323344D01*
X594489Y311656D01*
X594489Y313825D02*
X588897Y313825D01*
X588897Y315994D02*
X594489Y315994D01*
X594489Y318163D02*
X588897Y318163D01*
X588897Y320332D02*
X594489Y320332D01*
X594489Y322501D02*
X588897Y322501D01*
X599311Y311656D02*
X604903Y311656D01*
X599311Y311656D02*
X599311Y323344D01*
X604903Y323344D01*
X604903Y311656D01*
X604903Y313825D02*
X599311Y313825D01*
X599311Y315994D02*
X604903Y315994D01*
X604903Y318163D02*
X599311Y318163D01*
X599311Y320332D02*
X604903Y320332D01*
X604903Y322501D02*
X599311Y322501D01*
X450344Y315089D02*
X450344Y309497D01*
X438656Y309497D01*
X438656Y315089D01*
X450344Y315089D01*
X450344Y311666D02*
X438656Y311666D01*
X438656Y313835D02*
X450344Y313835D01*
X450344Y319911D02*
X450344Y325503D01*
X450344Y319911D02*
X438656Y319911D01*
X438656Y325503D01*
X450344Y325503D01*
X450344Y322080D02*
X438656Y322080D01*
X438656Y324249D02*
X450344Y324249D01*
X532890Y146556D02*
X538482Y146556D01*
X532890Y146556D02*
X532890Y158244D01*
X538482Y158244D01*
X538482Y146556D01*
X538482Y148725D02*
X532890Y148725D01*
X532890Y150894D02*
X538482Y150894D01*
X538482Y153063D02*
X532890Y153063D01*
X532890Y155232D02*
X538482Y155232D01*
X538482Y157401D02*
X532890Y157401D01*
X543304Y146556D02*
X548896Y146556D01*
X543304Y146556D02*
X543304Y158244D01*
X548896Y158244D01*
X548896Y146556D01*
X548896Y148725D02*
X543304Y148725D01*
X543304Y150894D02*
X548896Y150894D01*
X548896Y153063D02*
X543304Y153063D01*
X543304Y155232D02*
X548896Y155232D01*
X548896Y157401D02*
X543304Y157401D01*
X553718Y146556D02*
X559310Y146556D01*
X553718Y146556D02*
X553718Y158244D01*
X559310Y158244D01*
X559310Y146556D01*
X559310Y148725D02*
X553718Y148725D01*
X553718Y150894D02*
X559310Y150894D01*
X559310Y153063D02*
X553718Y153063D01*
X553718Y155232D02*
X559310Y155232D01*
X559310Y157401D02*
X553718Y157401D01*
D14*
X43942Y106553D02*
X43942Y101219D01*
X32258Y101219D01*
X32258Y106553D01*
X43942Y106553D01*
X43942Y103391D02*
X32258Y103391D01*
X32258Y105563D02*
X43942Y105563D01*
X43942Y109347D02*
X43942Y114681D01*
X43942Y109347D02*
X32258Y109347D01*
X32258Y114681D01*
X43942Y114681D01*
X43942Y111519D02*
X32258Y111519D01*
X32258Y113691D02*
X43942Y113691D01*
X318897Y170942D02*
X324231Y170942D01*
X324231Y159258D01*
X318897Y159258D01*
X318897Y170942D01*
X318897Y161430D02*
X324231Y161430D01*
X324231Y163602D02*
X318897Y163602D01*
X318897Y165774D02*
X324231Y165774D01*
X324231Y167946D02*
X318897Y167946D01*
X318897Y170118D02*
X324231Y170118D01*
X316103Y170942D02*
X310769Y170942D01*
X316103Y170942D02*
X316103Y159258D01*
X310769Y159258D01*
X310769Y170942D01*
X310769Y161430D02*
X316103Y161430D01*
X316103Y163602D02*
X310769Y163602D01*
X310769Y165774D02*
X316103Y165774D01*
X316103Y167946D02*
X310769Y167946D01*
X310769Y170118D02*
X316103Y170118D01*
D13*
X388618Y399544D02*
X394210Y399544D01*
X394210Y387856D01*
X388618Y387856D01*
X388618Y399544D01*
X388618Y390025D02*
X394210Y390025D01*
X394210Y392194D02*
X388618Y392194D01*
X388618Y394363D02*
X394210Y394363D01*
X394210Y396532D02*
X388618Y396532D01*
X388618Y398701D02*
X394210Y398701D01*
X383796Y399544D02*
X378204Y399544D01*
X383796Y399544D02*
X383796Y387856D01*
X378204Y387856D01*
X378204Y399544D01*
X378204Y390025D02*
X383796Y390025D01*
X383796Y392194D02*
X378204Y392194D01*
X378204Y394363D02*
X383796Y394363D01*
X383796Y396532D02*
X378204Y396532D01*
X378204Y398701D02*
X383796Y398701D01*
X373382Y399544D02*
X367790Y399544D01*
X373382Y399544D02*
X373382Y387856D01*
X367790Y387856D01*
X367790Y399544D01*
X367790Y390025D02*
X373382Y390025D01*
X373382Y392194D02*
X367790Y392194D01*
X367790Y394363D02*
X373382Y394363D01*
X373382Y396532D02*
X367790Y396532D01*
X367790Y398701D02*
X373382Y398701D01*
D14*
X267208Y349631D02*
X267208Y344297D01*
X267208Y349631D02*
X278892Y349631D01*
X278892Y344297D01*
X267208Y344297D01*
X267208Y346469D02*
X278892Y346469D01*
X278892Y348641D02*
X267208Y348641D01*
X267208Y341503D02*
X267208Y336169D01*
X267208Y341503D02*
X278892Y341503D01*
X278892Y336169D01*
X267208Y336169D01*
X267208Y338341D02*
X278892Y338341D01*
X278892Y340513D02*
X267208Y340513D01*
D13*
X388618Y424944D02*
X394210Y424944D01*
X394210Y413256D01*
X388618Y413256D01*
X388618Y424944D01*
X388618Y415425D02*
X394210Y415425D01*
X394210Y417594D02*
X388618Y417594D01*
X388618Y419763D02*
X394210Y419763D01*
X394210Y421932D02*
X388618Y421932D01*
X388618Y424101D02*
X394210Y424101D01*
X383796Y424944D02*
X378204Y424944D01*
X383796Y424944D02*
X383796Y413256D01*
X378204Y413256D01*
X378204Y424944D01*
X378204Y415425D02*
X383796Y415425D01*
X383796Y417594D02*
X378204Y417594D01*
X378204Y419763D02*
X383796Y419763D01*
X383796Y421932D02*
X378204Y421932D01*
X378204Y424101D02*
X383796Y424101D01*
X373382Y424944D02*
X367790Y424944D01*
X373382Y424944D02*
X373382Y413256D01*
X367790Y413256D01*
X367790Y424944D01*
X367790Y415425D02*
X373382Y415425D01*
X373382Y417594D02*
X367790Y417594D01*
X367790Y419763D02*
X373382Y419763D01*
X373382Y421932D02*
X367790Y421932D01*
X367790Y424101D02*
X373382Y424101D01*
X388618Y450344D02*
X394210Y450344D01*
X394210Y438656D01*
X388618Y438656D01*
X388618Y450344D01*
X388618Y440825D02*
X394210Y440825D01*
X394210Y442994D02*
X388618Y442994D01*
X388618Y445163D02*
X394210Y445163D01*
X394210Y447332D02*
X388618Y447332D01*
X388618Y449501D02*
X394210Y449501D01*
X383796Y450344D02*
X378204Y450344D01*
X383796Y450344D02*
X383796Y438656D01*
X378204Y438656D01*
X378204Y450344D01*
X378204Y440825D02*
X383796Y440825D01*
X383796Y442994D02*
X378204Y442994D01*
X378204Y445163D02*
X383796Y445163D01*
X383796Y447332D02*
X378204Y447332D01*
X378204Y449501D02*
X383796Y449501D01*
X373382Y450344D02*
X367790Y450344D01*
X373382Y450344D02*
X373382Y438656D01*
X367790Y438656D01*
X367790Y450344D01*
X367790Y440825D02*
X373382Y440825D01*
X373382Y442994D02*
X367790Y442994D01*
X367790Y445163D02*
X373382Y445163D01*
X373382Y447332D02*
X367790Y447332D01*
X367790Y449501D02*
X373382Y449501D01*
X388618Y475744D02*
X394210Y475744D01*
X394210Y464056D01*
X388618Y464056D01*
X388618Y475744D01*
X388618Y466225D02*
X394210Y466225D01*
X394210Y468394D02*
X388618Y468394D01*
X388618Y470563D02*
X394210Y470563D01*
X394210Y472732D02*
X388618Y472732D01*
X388618Y474901D02*
X394210Y474901D01*
X383796Y475744D02*
X378204Y475744D01*
X383796Y475744D02*
X383796Y464056D01*
X378204Y464056D01*
X378204Y475744D01*
X378204Y466225D02*
X383796Y466225D01*
X383796Y468394D02*
X378204Y468394D01*
X378204Y470563D02*
X383796Y470563D01*
X383796Y472732D02*
X378204Y472732D01*
X378204Y474901D02*
X383796Y474901D01*
X373382Y475744D02*
X367790Y475744D01*
X373382Y475744D02*
X373382Y464056D01*
X367790Y464056D01*
X367790Y475744D01*
X367790Y466225D02*
X373382Y466225D01*
X373382Y468394D02*
X367790Y468394D01*
X367790Y470563D02*
X373382Y470563D01*
X373382Y472732D02*
X367790Y472732D01*
X367790Y474901D02*
X373382Y474901D01*
X160403Y183644D02*
X154811Y183644D01*
X160403Y183644D02*
X160403Y171956D01*
X154811Y171956D01*
X154811Y183644D01*
X154811Y174125D02*
X160403Y174125D01*
X160403Y176294D02*
X154811Y176294D01*
X154811Y178463D02*
X160403Y178463D01*
X160403Y180632D02*
X154811Y180632D01*
X154811Y182801D02*
X160403Y182801D01*
X149989Y183644D02*
X144397Y183644D01*
X149989Y183644D02*
X149989Y171956D01*
X144397Y171956D01*
X144397Y183644D01*
X144397Y174125D02*
X149989Y174125D01*
X149989Y176294D02*
X144397Y176294D01*
X144397Y178463D02*
X149989Y178463D01*
X149989Y180632D02*
X144397Y180632D01*
X144397Y182801D02*
X149989Y182801D01*
X388618Y501144D02*
X394210Y501144D01*
X394210Y489456D01*
X388618Y489456D01*
X388618Y501144D01*
X388618Y491625D02*
X394210Y491625D01*
X394210Y493794D02*
X388618Y493794D01*
X388618Y495963D02*
X394210Y495963D01*
X394210Y498132D02*
X388618Y498132D01*
X388618Y500301D02*
X394210Y500301D01*
X383796Y501144D02*
X378204Y501144D01*
X383796Y501144D02*
X383796Y489456D01*
X378204Y489456D01*
X378204Y501144D01*
X378204Y491625D02*
X383796Y491625D01*
X383796Y493794D02*
X378204Y493794D01*
X378204Y495963D02*
X383796Y495963D01*
X383796Y498132D02*
X378204Y498132D01*
X378204Y500301D02*
X383796Y500301D01*
X373382Y501144D02*
X367790Y501144D01*
X373382Y501144D02*
X373382Y489456D01*
X367790Y489456D01*
X367790Y501144D01*
X367790Y491625D02*
X373382Y491625D01*
X373382Y493794D02*
X367790Y493794D01*
X367790Y495963D02*
X373382Y495963D01*
X373382Y498132D02*
X367790Y498132D01*
X367790Y500301D02*
X373382Y500301D01*
D15*
X508000Y406400D03*
X508000Y431800D03*
X196850Y114300D03*
X184150Y88900D03*
X171450Y114300D03*
X146050Y114300D03*
X120650Y114300D03*
X158750Y88900D03*
X133350Y88900D03*
D16*
X107950Y88900D03*
D17*
X95250Y25400D03*
X209550Y25400D03*
D15*
X361950Y114300D03*
X349250Y88900D03*
X336550Y114300D03*
X311150Y114300D03*
X285750Y114300D03*
X323850Y88900D03*
X298450Y88900D03*
D16*
X273050Y88900D03*
D17*
X260350Y25400D03*
X374650Y25400D03*
D15*
X527050Y114300D03*
X514350Y88900D03*
X501650Y114300D03*
X476250Y114300D03*
X450850Y114300D03*
X488950Y88900D03*
X463550Y88900D03*
D16*
X438150Y88900D03*
D17*
X425450Y25400D03*
X539750Y25400D03*
D15*
X622300Y139700D03*
X622300Y114300D03*
X622300Y88900D03*
X622300Y63500D03*
X622300Y254000D03*
X622300Y279400D03*
D18*
X317500Y241300D03*
D11*
X-26238Y692150D03*
X661238Y692150D03*
D19*
X-35293Y63500D02*
X-35290Y63722D01*
X-35282Y63944D01*
X-35268Y64166D01*
X-35249Y64388D01*
X-35225Y64608D01*
X-35195Y64829D01*
X-35160Y65048D01*
X-35119Y65267D01*
X-35073Y65484D01*
X-35022Y65700D01*
X-34965Y65915D01*
X-34903Y66129D01*
X-34836Y66340D01*
X-34764Y66551D01*
X-34686Y66759D01*
X-34604Y66965D01*
X-34516Y67169D01*
X-34424Y67372D01*
X-34326Y67571D01*
X-34224Y67768D01*
X-34117Y67963D01*
X-34005Y68155D01*
X-33888Y68344D01*
X-33767Y68531D01*
X-33641Y68714D01*
X-33511Y68894D01*
X-33376Y69071D01*
X-33238Y69244D01*
X-33095Y69414D01*
X-32947Y69581D01*
X-32796Y69744D01*
X-32641Y69903D01*
X-32482Y70058D01*
X-32319Y70209D01*
X-32152Y70357D01*
X-31982Y70500D01*
X-31809Y70638D01*
X-31632Y70773D01*
X-31452Y70903D01*
X-31269Y71029D01*
X-31082Y71150D01*
X-30893Y71267D01*
X-30701Y71379D01*
X-30506Y71486D01*
X-30309Y71588D01*
X-30110Y71686D01*
X-29907Y71778D01*
X-29703Y71866D01*
X-29497Y71948D01*
X-29289Y72026D01*
X-29078Y72098D01*
X-28867Y72165D01*
X-28653Y72227D01*
X-28438Y72284D01*
X-28222Y72335D01*
X-28005Y72381D01*
X-27786Y72422D01*
X-27567Y72457D01*
X-27346Y72487D01*
X-27126Y72511D01*
X-26904Y72530D01*
X-26682Y72544D01*
X-26460Y72552D01*
X-26238Y72555D01*
X-26016Y72552D01*
X-25794Y72544D01*
X-25572Y72530D01*
X-25350Y72511D01*
X-25130Y72487D01*
X-24909Y72457D01*
X-24690Y72422D01*
X-24471Y72381D01*
X-24254Y72335D01*
X-24038Y72284D01*
X-23823Y72227D01*
X-23609Y72165D01*
X-23398Y72098D01*
X-23187Y72026D01*
X-22979Y71948D01*
X-22773Y71866D01*
X-22569Y71778D01*
X-22366Y71686D01*
X-22167Y71588D01*
X-21970Y71486D01*
X-21775Y71379D01*
X-21583Y71267D01*
X-21394Y71150D01*
X-21207Y71029D01*
X-21024Y70903D01*
X-20844Y70773D01*
X-20667Y70638D01*
X-20494Y70500D01*
X-20324Y70357D01*
X-20157Y70209D01*
X-19994Y70058D01*
X-19835Y69903D01*
X-19680Y69744D01*
X-19529Y69581D01*
X-19381Y69414D01*
X-19238Y69244D01*
X-19100Y69071D01*
X-18965Y68894D01*
X-18835Y68714D01*
X-18709Y68531D01*
X-18588Y68344D01*
X-18471Y68155D01*
X-18359Y67963D01*
X-18252Y67768D01*
X-18150Y67571D01*
X-18052Y67372D01*
X-17960Y67169D01*
X-17872Y66965D01*
X-17790Y66759D01*
X-17712Y66551D01*
X-17640Y66340D01*
X-17573Y66129D01*
X-17511Y65915D01*
X-17454Y65700D01*
X-17403Y65484D01*
X-17357Y65267D01*
X-17316Y65048D01*
X-17281Y64829D01*
X-17251Y64608D01*
X-17227Y64388D01*
X-17208Y64166D01*
X-17194Y63944D01*
X-17186Y63722D01*
X-17183Y63500D01*
X-17186Y63278D01*
X-17194Y63056D01*
X-17208Y62834D01*
X-17227Y62612D01*
X-17251Y62392D01*
X-17281Y62171D01*
X-17316Y61952D01*
X-17357Y61733D01*
X-17403Y61516D01*
X-17454Y61300D01*
X-17511Y61085D01*
X-17573Y60871D01*
X-17640Y60660D01*
X-17712Y60449D01*
X-17790Y60241D01*
X-17872Y60035D01*
X-17960Y59831D01*
X-18052Y59628D01*
X-18150Y59429D01*
X-18252Y59232D01*
X-18359Y59037D01*
X-18471Y58845D01*
X-18588Y58656D01*
X-18709Y58469D01*
X-18835Y58286D01*
X-18965Y58106D01*
X-19100Y57929D01*
X-19238Y57756D01*
X-19381Y57586D01*
X-19529Y57419D01*
X-19680Y57256D01*
X-19835Y57097D01*
X-19994Y56942D01*
X-20157Y56791D01*
X-20324Y56643D01*
X-20494Y56500D01*
X-20667Y56362D01*
X-20844Y56227D01*
X-21024Y56097D01*
X-21207Y55971D01*
X-21394Y55850D01*
X-21583Y55733D01*
X-21775Y55621D01*
X-21970Y55514D01*
X-22167Y55412D01*
X-22366Y55314D01*
X-22569Y55222D01*
X-22773Y55134D01*
X-22979Y55052D01*
X-23187Y54974D01*
X-23398Y54902D01*
X-23609Y54835D01*
X-23823Y54773D01*
X-24038Y54716D01*
X-24254Y54665D01*
X-24471Y54619D01*
X-24690Y54578D01*
X-24909Y54543D01*
X-25130Y54513D01*
X-25350Y54489D01*
X-25572Y54470D01*
X-25794Y54456D01*
X-26016Y54448D01*
X-26238Y54445D01*
X-26460Y54448D01*
X-26682Y54456D01*
X-26904Y54470D01*
X-27126Y54489D01*
X-27346Y54513D01*
X-27567Y54543D01*
X-27786Y54578D01*
X-28005Y54619D01*
X-28222Y54665D01*
X-28438Y54716D01*
X-28653Y54773D01*
X-28867Y54835D01*
X-29078Y54902D01*
X-29289Y54974D01*
X-29497Y55052D01*
X-29703Y55134D01*
X-29907Y55222D01*
X-30110Y55314D01*
X-30309Y55412D01*
X-30506Y55514D01*
X-30701Y55621D01*
X-30893Y55733D01*
X-31082Y55850D01*
X-31269Y55971D01*
X-31452Y56097D01*
X-31632Y56227D01*
X-31809Y56362D01*
X-31982Y56500D01*
X-32152Y56643D01*
X-32319Y56791D01*
X-32482Y56942D01*
X-32641Y57097D01*
X-32796Y57256D01*
X-32947Y57419D01*
X-33095Y57586D01*
X-33238Y57756D01*
X-33376Y57929D01*
X-33511Y58106D01*
X-33641Y58286D01*
X-33767Y58469D01*
X-33888Y58656D01*
X-34005Y58845D01*
X-34117Y59037D01*
X-34224Y59232D01*
X-34326Y59429D01*
X-34424Y59628D01*
X-34516Y59831D01*
X-34604Y60035D01*
X-34686Y60241D01*
X-34764Y60449D01*
X-34836Y60660D01*
X-34903Y60871D01*
X-34965Y61085D01*
X-35022Y61300D01*
X-35073Y61516D01*
X-35119Y61733D01*
X-35160Y61952D01*
X-35195Y62171D01*
X-35225Y62392D01*
X-35249Y62612D01*
X-35268Y62834D01*
X-35282Y63056D01*
X-35290Y63278D01*
X-35293Y63500D01*
D20*
X-26238Y63500D03*
M02*
