G04 EAGLE Gerber RS-274X export*
G75*
%MOMM*%
%FSLAX34Y34*%
%LPD*%
%INSolderpaste Top*%
%IPPOS*%
%AMOC8*
5,1,8,0,0,1.08239X$1,22.5*%
G01*
%ADD10C,0.099000*%
%ADD11C,0.106400*%
%ADD12C,0.102000*%
%ADD13C,0.100000*%
%ADD14C,0.102869*%
%ADD15C,0.104000*%
%ADD16C,0.100800*%
%ADD17C,0.300000*%
%ADD18C,0.096000*%
%ADD19R,0.450000X0.250000*%
%ADD20R,0.250000X0.450000*%
%ADD21R,0.750000X0.400000*%
%ADD22R,0.685800X0.330200*%
%ADD23C,0.101200*%
%ADD24C,0.225000*%
%ADD25C,0.108000*%

G36*
X568157Y558856D02*
X568157Y558856D01*
X568161Y558852D01*
X569105Y559071D01*
X569111Y559077D01*
X569116Y559075D01*
X569988Y559499D01*
X569991Y559506D01*
X569997Y559504D01*
X570753Y560111D01*
X570755Y560119D01*
X570761Y560119D01*
X571362Y560879D01*
X571362Y560888D01*
X571368Y560889D01*
X571786Y561764D01*
X571784Y561772D01*
X571789Y561774D01*
X572002Y562720D01*
X571999Y562726D01*
X572001Y562728D01*
X572000Y562729D01*
X572003Y562731D01*
X571999Y563700D01*
X571999Y563701D01*
X571980Y564769D01*
X571975Y564776D01*
X571979Y564780D01*
X571723Y565817D01*
X571716Y565822D01*
X571719Y565828D01*
X571238Y566782D01*
X571231Y566786D01*
X571232Y566791D01*
X570551Y567615D01*
X570543Y567616D01*
X570543Y567622D01*
X569696Y568273D01*
X569688Y568273D01*
X569687Y568279D01*
X568716Y568726D01*
X568708Y568724D01*
X568706Y568729D01*
X567660Y568948D01*
X567658Y568947D01*
X567652Y568947D01*
X567650Y568949D01*
X555650Y568949D01*
X555647Y568947D01*
X555644Y568947D01*
X555642Y568949D01*
X554547Y568769D01*
X554541Y568763D01*
X554536Y568766D01*
X553508Y568347D01*
X553504Y568340D01*
X553499Y568342D01*
X552590Y567705D01*
X552588Y567697D01*
X552582Y567697D01*
X551838Y566874D01*
X551837Y566866D01*
X551831Y566865D01*
X551289Y565897D01*
X551290Y565888D01*
X551284Y565886D01*
X550971Y564822D01*
X550974Y564814D01*
X550969Y564811D01*
X550901Y563703D01*
X550905Y563697D01*
X550901Y563693D01*
X551071Y562585D01*
X551077Y562579D01*
X551074Y562574D01*
X551486Y561532D01*
X551493Y561528D01*
X551491Y561523D01*
X552125Y560598D01*
X552133Y560596D01*
X552132Y560590D01*
X552956Y559830D01*
X552964Y559829D01*
X552964Y559823D01*
X553936Y559266D01*
X553944Y559267D01*
X553946Y559261D01*
X555018Y558934D01*
X555026Y558937D01*
X555029Y558932D01*
X556146Y558851D01*
X556149Y558852D01*
X556150Y558851D01*
X568150Y558851D01*
X568157Y558856D01*
G37*
G36*
X567655Y472454D02*
X567655Y472454D01*
X567658Y472451D01*
X568654Y472609D01*
X568660Y472615D01*
X568665Y472612D01*
X569601Y472987D01*
X569605Y472994D01*
X569611Y472992D01*
X570440Y473566D01*
X570443Y473574D01*
X570448Y473573D01*
X571129Y474317D01*
X571130Y474326D01*
X571136Y474326D01*
X571634Y475203D01*
X571633Y475212D01*
X571638Y475214D01*
X571751Y475589D01*
X571929Y476179D01*
X571929Y476180D01*
X571928Y476182D01*
X571926Y476187D01*
X571931Y476190D01*
X571999Y477197D01*
X571998Y477199D01*
X571999Y477200D01*
X571990Y478281D01*
X571985Y478288D01*
X571989Y478292D01*
X571740Y479344D01*
X571733Y479349D01*
X571736Y479354D01*
X571259Y480324D01*
X571251Y480327D01*
X571253Y480333D01*
X570572Y481172D01*
X570564Y481174D01*
X570564Y481180D01*
X569714Y481846D01*
X569705Y481847D01*
X569704Y481852D01*
X568727Y482313D01*
X568719Y482311D01*
X568716Y482317D01*
X567661Y482548D01*
X567658Y482547D01*
X567652Y482547D01*
X567650Y482549D01*
X555650Y482549D01*
X555647Y482547D01*
X555643Y482547D01*
X555642Y482549D01*
X554536Y482356D01*
X554531Y482350D01*
X554526Y482353D01*
X553491Y481920D01*
X553487Y481913D01*
X553482Y481915D01*
X552569Y481262D01*
X552567Y481254D01*
X552561Y481255D01*
X551817Y480416D01*
X551816Y480407D01*
X551811Y480407D01*
X551272Y479423D01*
X551273Y479415D01*
X551268Y479413D01*
X551252Y479359D01*
X551071Y478719D01*
X550961Y478334D01*
X550964Y478327D01*
X550961Y478325D01*
X550961Y478324D01*
X550959Y478323D01*
X550901Y477203D01*
X550904Y477198D01*
X550901Y477195D01*
X551019Y476149D01*
X551025Y476143D01*
X551021Y476138D01*
X551369Y475144D01*
X551376Y475140D01*
X551374Y475135D01*
X551934Y474243D01*
X551941Y474241D01*
X551941Y474235D01*
X552685Y473491D01*
X552693Y473489D01*
X552693Y473484D01*
X553585Y472924D01*
X553593Y472924D01*
X553594Y472919D01*
X554588Y472571D01*
X554596Y472574D01*
X554599Y472569D01*
X555645Y472451D01*
X555648Y472453D01*
X555650Y472451D01*
X567650Y472451D01*
X567655Y472454D01*
G37*
G36*
X606956Y558855D02*
X606956Y558855D01*
X606959Y558852D01*
X608040Y559064D01*
X608045Y559070D01*
X608050Y559067D01*
X609056Y559514D01*
X609060Y559521D01*
X609066Y559519D01*
X609947Y560179D01*
X609950Y560187D01*
X609955Y560187D01*
X610668Y561026D01*
X610668Y561034D01*
X610674Y561035D01*
X611182Y562012D01*
X611181Y562020D01*
X611186Y562022D01*
X611464Y563087D01*
X611461Y563095D01*
X611465Y563098D01*
X611499Y564199D01*
X611496Y564204D01*
X611499Y564207D01*
X611344Y565283D01*
X611338Y565288D01*
X611341Y565293D01*
X610951Y566307D01*
X610944Y566311D01*
X610946Y566317D01*
X610339Y567219D01*
X610331Y567221D01*
X610332Y567227D01*
X609540Y567971D01*
X609532Y567972D01*
X609532Y567978D01*
X608594Y568527D01*
X608586Y568526D01*
X608584Y568532D01*
X607548Y568859D01*
X607540Y568856D01*
X607537Y568861D01*
X606454Y568949D01*
X606451Y568947D01*
X606450Y568949D01*
X600450Y568949D01*
X600447Y568947D01*
X600445Y568947D01*
X600444Y568949D01*
X599311Y568799D01*
X599305Y568793D01*
X599300Y568796D01*
X598230Y568398D01*
X598226Y568391D01*
X598220Y568393D01*
X597265Y567766D01*
X597262Y567758D01*
X597257Y567759D01*
X596465Y566936D01*
X596464Y566928D01*
X596458Y566927D01*
X595869Y565948D01*
X595870Y565940D01*
X595865Y565938D01*
X595509Y564853D01*
X595512Y564845D01*
X595507Y564842D01*
X595401Y563705D01*
X595406Y563696D01*
X595402Y563691D01*
X595609Y562554D01*
X595615Y562548D01*
X595612Y562543D01*
X596067Y561481D01*
X596074Y561477D01*
X596072Y561471D01*
X596752Y560536D01*
X596760Y560534D01*
X596759Y560528D01*
X597630Y559768D01*
X597638Y559768D01*
X597639Y559762D01*
X598658Y559215D01*
X598666Y559216D01*
X598668Y559211D01*
X599782Y558904D01*
X599790Y558907D01*
X599793Y558902D01*
X600948Y558851D01*
X600949Y558852D01*
X600950Y558851D01*
X606950Y558851D01*
X606956Y558855D01*
G37*
G36*
X606454Y472454D02*
X606454Y472454D01*
X606456Y472451D01*
X607589Y472601D01*
X607595Y472607D01*
X607600Y472604D01*
X608670Y473002D01*
X608674Y473009D01*
X608680Y473007D01*
X609635Y473634D01*
X609638Y473642D01*
X609643Y473641D01*
X610435Y474464D01*
X610436Y474472D01*
X610442Y474473D01*
X611031Y475452D01*
X611030Y475460D01*
X611035Y475462D01*
X611391Y476547D01*
X611389Y476555D01*
X611393Y476558D01*
X611499Y477695D01*
X611495Y477702D01*
X611499Y477707D01*
X611354Y478794D01*
X611348Y478800D01*
X611351Y478805D01*
X610968Y479833D01*
X610961Y479838D01*
X610963Y479843D01*
X610360Y480760D01*
X610352Y480763D01*
X610353Y480769D01*
X609561Y481529D01*
X609553Y481530D01*
X609552Y481536D01*
X608611Y482100D01*
X608603Y482099D01*
X608601Y482105D01*
X607558Y482446D01*
X607550Y482444D01*
X607547Y482448D01*
X606455Y482549D01*
X606452Y482547D01*
X606450Y482549D01*
X600450Y482549D01*
X600447Y482547D01*
X600446Y482549D01*
X599353Y482448D01*
X599347Y482443D01*
X599342Y482446D01*
X598299Y482105D01*
X598294Y482098D01*
X598289Y482100D01*
X597348Y481536D01*
X597345Y481528D01*
X597339Y481529D01*
X596547Y480769D01*
X596546Y480761D01*
X596540Y480760D01*
X595938Y479843D01*
X595938Y479835D01*
X595933Y479833D01*
X595549Y478805D01*
X595551Y478797D01*
X595546Y478794D01*
X595401Y477707D01*
X595405Y477699D01*
X595401Y477695D01*
X595507Y476558D01*
X595512Y476552D01*
X595509Y476547D01*
X595865Y475462D01*
X595872Y475457D01*
X595869Y475452D01*
X596458Y474473D01*
X596466Y474470D01*
X596465Y474464D01*
X597257Y473641D01*
X597265Y473640D01*
X597265Y473634D01*
X598220Y473007D01*
X598228Y473008D01*
X598230Y473002D01*
X599300Y472604D01*
X599308Y472606D01*
X599311Y472601D01*
X600444Y472451D01*
X600448Y472454D01*
X600450Y472451D01*
X606450Y472451D01*
X606454Y472454D01*
G37*
D10*
X234505Y563605D02*
X234505Y555595D01*
X220495Y555595D01*
X220495Y563605D01*
X234505Y563605D01*
X234505Y556535D02*
X220495Y556535D01*
X220495Y557475D02*
X234505Y557475D01*
X234505Y558415D02*
X220495Y558415D01*
X220495Y559355D02*
X234505Y559355D01*
X234505Y560295D02*
X220495Y560295D01*
X220495Y561235D02*
X234505Y561235D01*
X234505Y562175D02*
X220495Y562175D01*
X220495Y563115D02*
X234505Y563115D01*
X234505Y550905D02*
X234505Y542895D01*
X220495Y542895D01*
X220495Y550905D01*
X234505Y550905D01*
X234505Y543835D02*
X220495Y543835D01*
X220495Y544775D02*
X234505Y544775D01*
X234505Y545715D02*
X220495Y545715D01*
X220495Y546655D02*
X234505Y546655D01*
X234505Y547595D02*
X220495Y547595D01*
X220495Y548535D02*
X234505Y548535D01*
X234505Y549475D02*
X220495Y549475D01*
X220495Y550415D02*
X234505Y550415D01*
X234505Y538205D02*
X234505Y530195D01*
X220495Y530195D01*
X220495Y538205D01*
X234505Y538205D01*
X234505Y531135D02*
X220495Y531135D01*
X220495Y532075D02*
X234505Y532075D01*
X234505Y533015D02*
X220495Y533015D01*
X220495Y533955D02*
X234505Y533955D01*
X234505Y534895D02*
X220495Y534895D01*
X220495Y535835D02*
X234505Y535835D01*
X234505Y536775D02*
X220495Y536775D01*
X220495Y537715D02*
X234505Y537715D01*
X234505Y525505D02*
X234505Y517495D01*
X220495Y517495D01*
X220495Y525505D01*
X234505Y525505D01*
X234505Y518435D02*
X220495Y518435D01*
X220495Y519375D02*
X234505Y519375D01*
X234505Y520315D02*
X220495Y520315D01*
X220495Y521255D02*
X234505Y521255D01*
X234505Y522195D02*
X220495Y522195D01*
X220495Y523135D02*
X234505Y523135D01*
X234505Y524075D02*
X220495Y524075D01*
X220495Y525015D02*
X234505Y525015D01*
X234505Y512805D02*
X234505Y504795D01*
X220495Y504795D01*
X220495Y512805D01*
X234505Y512805D01*
X234505Y505735D02*
X220495Y505735D01*
X220495Y506675D02*
X234505Y506675D01*
X234505Y507615D02*
X220495Y507615D01*
X220495Y508555D02*
X234505Y508555D01*
X234505Y509495D02*
X220495Y509495D01*
X220495Y510435D02*
X234505Y510435D01*
X234505Y511375D02*
X220495Y511375D01*
X220495Y512315D02*
X234505Y512315D01*
X234505Y500105D02*
X234505Y492095D01*
X220495Y492095D01*
X220495Y500105D01*
X234505Y500105D01*
X234505Y493035D02*
X220495Y493035D01*
X220495Y493975D02*
X234505Y493975D01*
X234505Y494915D02*
X220495Y494915D01*
X220495Y495855D02*
X234505Y495855D01*
X234505Y496795D02*
X220495Y496795D01*
X220495Y497735D02*
X234505Y497735D01*
X234505Y498675D02*
X220495Y498675D01*
X220495Y499615D02*
X234505Y499615D01*
X234505Y487405D02*
X234505Y479395D01*
X220495Y479395D01*
X220495Y487405D01*
X234505Y487405D01*
X234505Y480335D02*
X220495Y480335D01*
X220495Y481275D02*
X234505Y481275D01*
X234505Y482215D02*
X220495Y482215D01*
X220495Y483155D02*
X234505Y483155D01*
X234505Y484095D02*
X220495Y484095D01*
X220495Y485035D02*
X234505Y485035D01*
X234505Y485975D02*
X220495Y485975D01*
X220495Y486915D02*
X234505Y486915D01*
X234505Y474705D02*
X234505Y466695D01*
X220495Y466695D01*
X220495Y474705D01*
X234505Y474705D01*
X234505Y467635D02*
X220495Y467635D01*
X220495Y468575D02*
X234505Y468575D01*
X234505Y469515D02*
X220495Y469515D01*
X220495Y470455D02*
X234505Y470455D01*
X234505Y471395D02*
X220495Y471395D01*
X220495Y472335D02*
X234505Y472335D01*
X234505Y473275D02*
X220495Y473275D01*
X220495Y474215D02*
X234505Y474215D01*
X234505Y462005D02*
X234505Y453995D01*
X220495Y453995D01*
X220495Y462005D01*
X234505Y462005D01*
X234505Y454935D02*
X220495Y454935D01*
X220495Y455875D02*
X234505Y455875D01*
X234505Y456815D02*
X220495Y456815D01*
X220495Y457755D02*
X234505Y457755D01*
X234505Y458695D02*
X220495Y458695D01*
X220495Y459635D02*
X234505Y459635D01*
X234505Y460575D02*
X220495Y460575D01*
X220495Y461515D02*
X234505Y461515D01*
X234505Y449305D02*
X234505Y441295D01*
X220495Y441295D01*
X220495Y449305D01*
X234505Y449305D01*
X234505Y442235D02*
X220495Y442235D01*
X220495Y443175D02*
X234505Y443175D01*
X234505Y444115D02*
X220495Y444115D01*
X220495Y445055D02*
X234505Y445055D01*
X234505Y445995D02*
X220495Y445995D01*
X220495Y446935D02*
X234505Y446935D01*
X234505Y447875D02*
X220495Y447875D01*
X220495Y448815D02*
X234505Y448815D01*
X234505Y436605D02*
X234505Y428595D01*
X220495Y428595D01*
X220495Y436605D01*
X234505Y436605D01*
X234505Y429535D02*
X220495Y429535D01*
X220495Y430475D02*
X234505Y430475D01*
X234505Y431415D02*
X220495Y431415D01*
X220495Y432355D02*
X234505Y432355D01*
X234505Y433295D02*
X220495Y433295D01*
X220495Y434235D02*
X234505Y434235D01*
X234505Y435175D02*
X220495Y435175D01*
X220495Y436115D02*
X234505Y436115D01*
X234505Y423905D02*
X234505Y415895D01*
X220495Y415895D01*
X220495Y423905D01*
X234505Y423905D01*
X234505Y416835D02*
X220495Y416835D01*
X220495Y417775D02*
X234505Y417775D01*
X234505Y418715D02*
X220495Y418715D01*
X220495Y419655D02*
X234505Y419655D01*
X234505Y420595D02*
X220495Y420595D01*
X220495Y421535D02*
X234505Y421535D01*
X234505Y422475D02*
X220495Y422475D01*
X220495Y423415D02*
X234505Y423415D01*
X234505Y411205D02*
X234505Y403195D01*
X220495Y403195D01*
X220495Y411205D01*
X234505Y411205D01*
X234505Y404135D02*
X220495Y404135D01*
X220495Y405075D02*
X234505Y405075D01*
X234505Y406015D02*
X220495Y406015D01*
X220495Y406955D02*
X234505Y406955D01*
X234505Y407895D02*
X220495Y407895D01*
X220495Y408835D02*
X234505Y408835D01*
X234505Y409775D02*
X220495Y409775D01*
X220495Y410715D02*
X234505Y410715D01*
X234505Y398505D02*
X234505Y390495D01*
X220495Y390495D01*
X220495Y398505D01*
X234505Y398505D01*
X234505Y391435D02*
X220495Y391435D01*
X220495Y392375D02*
X234505Y392375D01*
X234505Y393315D02*
X220495Y393315D01*
X220495Y394255D02*
X234505Y394255D01*
X234505Y395195D02*
X220495Y395195D01*
X220495Y396135D02*
X234505Y396135D01*
X234505Y397075D02*
X220495Y397075D01*
X220495Y398015D02*
X234505Y398015D01*
X256345Y386605D02*
X264355Y386605D01*
X264355Y372595D01*
X256345Y372595D01*
X256345Y386605D01*
X256345Y373535D02*
X264355Y373535D01*
X264355Y374475D02*
X256345Y374475D01*
X256345Y375415D02*
X264355Y375415D01*
X264355Y376355D02*
X256345Y376355D01*
X256345Y377295D02*
X264355Y377295D01*
X264355Y378235D02*
X256345Y378235D01*
X256345Y379175D02*
X264355Y379175D01*
X264355Y380115D02*
X256345Y380115D01*
X256345Y381055D02*
X264355Y381055D01*
X264355Y381995D02*
X256345Y381995D01*
X256345Y382935D02*
X264355Y382935D01*
X264355Y383875D02*
X256345Y383875D01*
X256345Y384815D02*
X264355Y384815D01*
X264355Y385755D02*
X256345Y385755D01*
X269045Y386605D02*
X277055Y386605D01*
X277055Y372595D01*
X269045Y372595D01*
X269045Y386605D01*
X269045Y373535D02*
X277055Y373535D01*
X277055Y374475D02*
X269045Y374475D01*
X269045Y375415D02*
X277055Y375415D01*
X277055Y376355D02*
X269045Y376355D01*
X269045Y377295D02*
X277055Y377295D01*
X277055Y378235D02*
X269045Y378235D01*
X269045Y379175D02*
X277055Y379175D01*
X277055Y380115D02*
X269045Y380115D01*
X269045Y381055D02*
X277055Y381055D01*
X277055Y381995D02*
X269045Y381995D01*
X269045Y382935D02*
X277055Y382935D01*
X277055Y383875D02*
X269045Y383875D01*
X269045Y384815D02*
X277055Y384815D01*
X277055Y385755D02*
X269045Y385755D01*
X281745Y386605D02*
X289755Y386605D01*
X289755Y372595D01*
X281745Y372595D01*
X281745Y386605D01*
X281745Y373535D02*
X289755Y373535D01*
X289755Y374475D02*
X281745Y374475D01*
X281745Y375415D02*
X289755Y375415D01*
X289755Y376355D02*
X281745Y376355D01*
X281745Y377295D02*
X289755Y377295D01*
X289755Y378235D02*
X281745Y378235D01*
X281745Y379175D02*
X289755Y379175D01*
X289755Y380115D02*
X281745Y380115D01*
X281745Y381055D02*
X289755Y381055D01*
X289755Y381995D02*
X281745Y381995D01*
X281745Y382935D02*
X289755Y382935D01*
X289755Y383875D02*
X281745Y383875D01*
X281745Y384815D02*
X289755Y384815D01*
X289755Y385755D02*
X281745Y385755D01*
X294445Y386605D02*
X302455Y386605D01*
X302455Y372595D01*
X294445Y372595D01*
X294445Y386605D01*
X294445Y373535D02*
X302455Y373535D01*
X302455Y374475D02*
X294445Y374475D01*
X294445Y375415D02*
X302455Y375415D01*
X302455Y376355D02*
X294445Y376355D01*
X294445Y377295D02*
X302455Y377295D01*
X302455Y378235D02*
X294445Y378235D01*
X294445Y379175D02*
X302455Y379175D01*
X302455Y380115D02*
X294445Y380115D01*
X294445Y381055D02*
X302455Y381055D01*
X302455Y381995D02*
X294445Y381995D01*
X294445Y382935D02*
X302455Y382935D01*
X302455Y383875D02*
X294445Y383875D01*
X294445Y384815D02*
X302455Y384815D01*
X302455Y385755D02*
X294445Y385755D01*
X307145Y386605D02*
X315155Y386605D01*
X315155Y372595D01*
X307145Y372595D01*
X307145Y386605D01*
X307145Y373535D02*
X315155Y373535D01*
X315155Y374475D02*
X307145Y374475D01*
X307145Y375415D02*
X315155Y375415D01*
X315155Y376355D02*
X307145Y376355D01*
X307145Y377295D02*
X315155Y377295D01*
X315155Y378235D02*
X307145Y378235D01*
X307145Y379175D02*
X315155Y379175D01*
X315155Y380115D02*
X307145Y380115D01*
X307145Y381055D02*
X315155Y381055D01*
X315155Y381995D02*
X307145Y381995D01*
X307145Y382935D02*
X315155Y382935D01*
X315155Y383875D02*
X307145Y383875D01*
X307145Y384815D02*
X315155Y384815D01*
X315155Y385755D02*
X307145Y385755D01*
X319845Y386605D02*
X327855Y386605D01*
X327855Y372595D01*
X319845Y372595D01*
X319845Y386605D01*
X319845Y373535D02*
X327855Y373535D01*
X327855Y374475D02*
X319845Y374475D01*
X319845Y375415D02*
X327855Y375415D01*
X327855Y376355D02*
X319845Y376355D01*
X319845Y377295D02*
X327855Y377295D01*
X327855Y378235D02*
X319845Y378235D01*
X319845Y379175D02*
X327855Y379175D01*
X327855Y380115D02*
X319845Y380115D01*
X319845Y381055D02*
X327855Y381055D01*
X327855Y381995D02*
X319845Y381995D01*
X319845Y382935D02*
X327855Y382935D01*
X327855Y383875D02*
X319845Y383875D01*
X319845Y384815D02*
X327855Y384815D01*
X327855Y385755D02*
X319845Y385755D01*
X332545Y386605D02*
X340555Y386605D01*
X340555Y372595D01*
X332545Y372595D01*
X332545Y386605D01*
X332545Y373535D02*
X340555Y373535D01*
X340555Y374475D02*
X332545Y374475D01*
X332545Y375415D02*
X340555Y375415D01*
X340555Y376355D02*
X332545Y376355D01*
X332545Y377295D02*
X340555Y377295D01*
X340555Y378235D02*
X332545Y378235D01*
X332545Y379175D02*
X340555Y379175D01*
X340555Y380115D02*
X332545Y380115D01*
X332545Y381055D02*
X340555Y381055D01*
X340555Y381995D02*
X332545Y381995D01*
X332545Y382935D02*
X340555Y382935D01*
X340555Y383875D02*
X332545Y383875D01*
X332545Y384815D02*
X340555Y384815D01*
X340555Y385755D02*
X332545Y385755D01*
X345245Y386605D02*
X353255Y386605D01*
X353255Y372595D01*
X345245Y372595D01*
X345245Y386605D01*
X345245Y373535D02*
X353255Y373535D01*
X353255Y374475D02*
X345245Y374475D01*
X345245Y375415D02*
X353255Y375415D01*
X353255Y376355D02*
X345245Y376355D01*
X345245Y377295D02*
X353255Y377295D01*
X353255Y378235D02*
X345245Y378235D01*
X345245Y379175D02*
X353255Y379175D01*
X353255Y380115D02*
X345245Y380115D01*
X345245Y381055D02*
X353255Y381055D01*
X353255Y381995D02*
X345245Y381995D01*
X345245Y382935D02*
X353255Y382935D01*
X353255Y383875D02*
X345245Y383875D01*
X345245Y384815D02*
X353255Y384815D01*
X353255Y385755D02*
X345245Y385755D01*
X357945Y386605D02*
X365955Y386605D01*
X365955Y372595D01*
X357945Y372595D01*
X357945Y386605D01*
X357945Y373535D02*
X365955Y373535D01*
X365955Y374475D02*
X357945Y374475D01*
X357945Y375415D02*
X365955Y375415D01*
X365955Y376355D02*
X357945Y376355D01*
X357945Y377295D02*
X365955Y377295D01*
X365955Y378235D02*
X357945Y378235D01*
X357945Y379175D02*
X365955Y379175D01*
X365955Y380115D02*
X357945Y380115D01*
X357945Y381055D02*
X365955Y381055D01*
X365955Y381995D02*
X357945Y381995D01*
X357945Y382935D02*
X365955Y382935D01*
X365955Y383875D02*
X357945Y383875D01*
X357945Y384815D02*
X365955Y384815D01*
X365955Y385755D02*
X357945Y385755D01*
X370645Y386605D02*
X378655Y386605D01*
X378655Y372595D01*
X370645Y372595D01*
X370645Y386605D01*
X370645Y373535D02*
X378655Y373535D01*
X378655Y374475D02*
X370645Y374475D01*
X370645Y375415D02*
X378655Y375415D01*
X378655Y376355D02*
X370645Y376355D01*
X370645Y377295D02*
X378655Y377295D01*
X378655Y378235D02*
X370645Y378235D01*
X370645Y379175D02*
X378655Y379175D01*
X378655Y380115D02*
X370645Y380115D01*
X370645Y381055D02*
X378655Y381055D01*
X378655Y381995D02*
X370645Y381995D01*
X370645Y382935D02*
X378655Y382935D01*
X378655Y383875D02*
X370645Y383875D01*
X370645Y384815D02*
X378655Y384815D01*
X378655Y385755D02*
X370645Y385755D01*
X414505Y390495D02*
X414505Y398505D01*
X414505Y390495D02*
X400495Y390495D01*
X400495Y398505D01*
X414505Y398505D01*
X414505Y391435D02*
X400495Y391435D01*
X400495Y392375D02*
X414505Y392375D01*
X414505Y393315D02*
X400495Y393315D01*
X400495Y394255D02*
X414505Y394255D01*
X414505Y395195D02*
X400495Y395195D01*
X400495Y396135D02*
X414505Y396135D01*
X414505Y397075D02*
X400495Y397075D01*
X400495Y398015D02*
X414505Y398015D01*
X414505Y403195D02*
X414505Y411205D01*
X414505Y403195D02*
X400495Y403195D01*
X400495Y411205D01*
X414505Y411205D01*
X414505Y404135D02*
X400495Y404135D01*
X400495Y405075D02*
X414505Y405075D01*
X414505Y406015D02*
X400495Y406015D01*
X400495Y406955D02*
X414505Y406955D01*
X414505Y407895D02*
X400495Y407895D01*
X400495Y408835D02*
X414505Y408835D01*
X414505Y409775D02*
X400495Y409775D01*
X400495Y410715D02*
X414505Y410715D01*
X414505Y415895D02*
X414505Y423905D01*
X414505Y415895D02*
X400495Y415895D01*
X400495Y423905D01*
X414505Y423905D01*
X414505Y416835D02*
X400495Y416835D01*
X400495Y417775D02*
X414505Y417775D01*
X414505Y418715D02*
X400495Y418715D01*
X400495Y419655D02*
X414505Y419655D01*
X414505Y420595D02*
X400495Y420595D01*
X400495Y421535D02*
X414505Y421535D01*
X414505Y422475D02*
X400495Y422475D01*
X400495Y423415D02*
X414505Y423415D01*
X414505Y428595D02*
X414505Y436605D01*
X414505Y428595D02*
X400495Y428595D01*
X400495Y436605D01*
X414505Y436605D01*
X414505Y429535D02*
X400495Y429535D01*
X400495Y430475D02*
X414505Y430475D01*
X414505Y431415D02*
X400495Y431415D01*
X400495Y432355D02*
X414505Y432355D01*
X414505Y433295D02*
X400495Y433295D01*
X400495Y434235D02*
X414505Y434235D01*
X414505Y435175D02*
X400495Y435175D01*
X400495Y436115D02*
X414505Y436115D01*
X414505Y441295D02*
X414505Y449305D01*
X414505Y441295D02*
X400495Y441295D01*
X400495Y449305D01*
X414505Y449305D01*
X414505Y442235D02*
X400495Y442235D01*
X400495Y443175D02*
X414505Y443175D01*
X414505Y444115D02*
X400495Y444115D01*
X400495Y445055D02*
X414505Y445055D01*
X414505Y445995D02*
X400495Y445995D01*
X400495Y446935D02*
X414505Y446935D01*
X414505Y447875D02*
X400495Y447875D01*
X400495Y448815D02*
X414505Y448815D01*
X414505Y453995D02*
X414505Y462005D01*
X414505Y453995D02*
X400495Y453995D01*
X400495Y462005D01*
X414505Y462005D01*
X414505Y454935D02*
X400495Y454935D01*
X400495Y455875D02*
X414505Y455875D01*
X414505Y456815D02*
X400495Y456815D01*
X400495Y457755D02*
X414505Y457755D01*
X414505Y458695D02*
X400495Y458695D01*
X400495Y459635D02*
X414505Y459635D01*
X414505Y460575D02*
X400495Y460575D01*
X400495Y461515D02*
X414505Y461515D01*
X414505Y466695D02*
X414505Y474705D01*
X414505Y466695D02*
X400495Y466695D01*
X400495Y474705D01*
X414505Y474705D01*
X414505Y467635D02*
X400495Y467635D01*
X400495Y468575D02*
X414505Y468575D01*
X414505Y469515D02*
X400495Y469515D01*
X400495Y470455D02*
X414505Y470455D01*
X414505Y471395D02*
X400495Y471395D01*
X400495Y472335D02*
X414505Y472335D01*
X414505Y473275D02*
X400495Y473275D01*
X400495Y474215D02*
X414505Y474215D01*
X414505Y479395D02*
X414505Y487405D01*
X414505Y479395D02*
X400495Y479395D01*
X400495Y487405D01*
X414505Y487405D01*
X414505Y480335D02*
X400495Y480335D01*
X400495Y481275D02*
X414505Y481275D01*
X414505Y482215D02*
X400495Y482215D01*
X400495Y483155D02*
X414505Y483155D01*
X414505Y484095D02*
X400495Y484095D01*
X400495Y485035D02*
X414505Y485035D01*
X414505Y485975D02*
X400495Y485975D01*
X400495Y486915D02*
X414505Y486915D01*
X414505Y492095D02*
X414505Y500105D01*
X414505Y492095D02*
X400495Y492095D01*
X400495Y500105D01*
X414505Y500105D01*
X414505Y493035D02*
X400495Y493035D01*
X400495Y493975D02*
X414505Y493975D01*
X414505Y494915D02*
X400495Y494915D01*
X400495Y495855D02*
X414505Y495855D01*
X414505Y496795D02*
X400495Y496795D01*
X400495Y497735D02*
X414505Y497735D01*
X414505Y498675D02*
X400495Y498675D01*
X400495Y499615D02*
X414505Y499615D01*
X414505Y504795D02*
X414505Y512805D01*
X414505Y504795D02*
X400495Y504795D01*
X400495Y512805D01*
X414505Y512805D01*
X414505Y505735D02*
X400495Y505735D01*
X400495Y506675D02*
X414505Y506675D01*
X414505Y507615D02*
X400495Y507615D01*
X400495Y508555D02*
X414505Y508555D01*
X414505Y509495D02*
X400495Y509495D01*
X400495Y510435D02*
X414505Y510435D01*
X414505Y511375D02*
X400495Y511375D01*
X400495Y512315D02*
X414505Y512315D01*
X414505Y517495D02*
X414505Y525505D01*
X414505Y517495D02*
X400495Y517495D01*
X400495Y525505D01*
X414505Y525505D01*
X414505Y518435D02*
X400495Y518435D01*
X400495Y519375D02*
X414505Y519375D01*
X414505Y520315D02*
X400495Y520315D01*
X400495Y521255D02*
X414505Y521255D01*
X414505Y522195D02*
X400495Y522195D01*
X400495Y523135D02*
X414505Y523135D01*
X414505Y524075D02*
X400495Y524075D01*
X400495Y525015D02*
X414505Y525015D01*
X414505Y530195D02*
X414505Y538205D01*
X414505Y530195D02*
X400495Y530195D01*
X400495Y538205D01*
X414505Y538205D01*
X414505Y531135D02*
X400495Y531135D01*
X400495Y532075D02*
X414505Y532075D01*
X414505Y533015D02*
X400495Y533015D01*
X400495Y533955D02*
X414505Y533955D01*
X414505Y534895D02*
X400495Y534895D01*
X400495Y535835D02*
X414505Y535835D01*
X414505Y536775D02*
X400495Y536775D01*
X400495Y537715D02*
X414505Y537715D01*
X414505Y542895D02*
X414505Y550905D01*
X414505Y542895D02*
X400495Y542895D01*
X400495Y550905D01*
X414505Y550905D01*
X414505Y543835D02*
X400495Y543835D01*
X400495Y544775D02*
X414505Y544775D01*
X414505Y545715D02*
X400495Y545715D01*
X400495Y546655D02*
X414505Y546655D01*
X414505Y547595D02*
X400495Y547595D01*
X400495Y548535D02*
X414505Y548535D01*
X414505Y549475D02*
X400495Y549475D01*
X400495Y550415D02*
X414505Y550415D01*
X414505Y555595D02*
X414505Y563605D01*
X414505Y555595D02*
X400495Y555595D01*
X400495Y563605D01*
X414505Y563605D01*
X414505Y556535D02*
X400495Y556535D01*
X400495Y557475D02*
X414505Y557475D01*
X414505Y558415D02*
X400495Y558415D01*
X400495Y559355D02*
X414505Y559355D01*
X414505Y560295D02*
X400495Y560295D01*
X400495Y561235D02*
X414505Y561235D01*
X414505Y562175D02*
X400495Y562175D01*
X400495Y563115D02*
X414505Y563115D01*
D11*
X308308Y492298D02*
X308308Y480062D01*
X296072Y480062D01*
X296072Y492298D01*
X308308Y492298D01*
X308308Y481073D02*
X296072Y481073D01*
X296072Y482084D02*
X308308Y482084D01*
X308308Y483095D02*
X296072Y483095D01*
X296072Y484106D02*
X308308Y484106D01*
X308308Y485117D02*
X296072Y485117D01*
X296072Y486128D02*
X308308Y486128D01*
X308308Y487139D02*
X296072Y487139D01*
X296072Y488150D02*
X308308Y488150D01*
X308308Y489161D02*
X296072Y489161D01*
X296072Y490172D02*
X308308Y490172D01*
X308308Y491183D02*
X296072Y491183D01*
X296072Y492194D02*
X308308Y492194D01*
X326758Y498272D02*
X326758Y510508D01*
X326758Y498272D02*
X314522Y498272D01*
X314522Y510508D01*
X326758Y510508D01*
X326758Y499283D02*
X314522Y499283D01*
X314522Y500294D02*
X326758Y500294D01*
X326758Y501305D02*
X314522Y501305D01*
X314522Y502316D02*
X326758Y502316D01*
X326758Y503327D02*
X314522Y503327D01*
X314522Y504338D02*
X326758Y504338D01*
X326758Y505349D02*
X314522Y505349D01*
X314522Y506360D02*
X326758Y506360D01*
X326758Y507371D02*
X314522Y507371D01*
X314522Y508382D02*
X326758Y508382D01*
X326758Y509393D02*
X314522Y509393D01*
X314522Y510404D02*
X326758Y510404D01*
X308458Y510508D02*
X308458Y498272D01*
X296222Y498272D01*
X296222Y510508D01*
X308458Y510508D01*
X308458Y499283D02*
X296222Y499283D01*
X296222Y500294D02*
X308458Y500294D01*
X308458Y501305D02*
X296222Y501305D01*
X296222Y502316D02*
X308458Y502316D01*
X308458Y503327D02*
X296222Y503327D01*
X296222Y504338D02*
X308458Y504338D01*
X308458Y505349D02*
X296222Y505349D01*
X296222Y506360D02*
X308458Y506360D01*
X308458Y507371D02*
X296222Y507371D01*
X296222Y508382D02*
X308458Y508382D01*
X308458Y509393D02*
X296222Y509393D01*
X296222Y510404D02*
X308458Y510404D01*
X290158Y510508D02*
X290158Y498272D01*
X277922Y498272D01*
X277922Y510508D01*
X290158Y510508D01*
X290158Y499283D02*
X277922Y499283D01*
X277922Y500294D02*
X290158Y500294D01*
X290158Y501305D02*
X277922Y501305D01*
X277922Y502316D02*
X290158Y502316D01*
X290158Y503327D02*
X277922Y503327D01*
X277922Y504338D02*
X290158Y504338D01*
X290158Y505349D02*
X277922Y505349D01*
X277922Y506360D02*
X290158Y506360D01*
X290158Y507371D02*
X277922Y507371D01*
X277922Y508382D02*
X290158Y508382D01*
X290158Y509393D02*
X277922Y509393D01*
X277922Y510404D02*
X290158Y510404D01*
X290158Y492208D02*
X290158Y479972D01*
X277922Y479972D01*
X277922Y492208D01*
X290158Y492208D01*
X290158Y480983D02*
X277922Y480983D01*
X277922Y481994D02*
X290158Y481994D01*
X290158Y483005D02*
X277922Y483005D01*
X277922Y484016D02*
X290158Y484016D01*
X290158Y485027D02*
X277922Y485027D01*
X277922Y486038D02*
X290158Y486038D01*
X290158Y487049D02*
X277922Y487049D01*
X277922Y488060D02*
X290158Y488060D01*
X290158Y489071D02*
X277922Y489071D01*
X277922Y490082D02*
X290158Y490082D01*
X290158Y491093D02*
X277922Y491093D01*
X277922Y492104D02*
X290158Y492104D01*
X326858Y492508D02*
X326858Y480272D01*
X314622Y480272D01*
X314622Y492508D01*
X326858Y492508D01*
X326858Y481283D02*
X314622Y481283D01*
X314622Y482294D02*
X326858Y482294D01*
X326858Y483305D02*
X314622Y483305D01*
X314622Y484316D02*
X326858Y484316D01*
X326858Y485327D02*
X314622Y485327D01*
X314622Y486338D02*
X326858Y486338D01*
X326858Y487349D02*
X314622Y487349D01*
X314622Y488360D02*
X326858Y488360D01*
X326858Y489371D02*
X314622Y489371D01*
X314622Y490382D02*
X326858Y490382D01*
X326858Y491393D02*
X314622Y491393D01*
X314622Y492404D02*
X326858Y492404D01*
X326758Y473908D02*
X326758Y461672D01*
X314522Y461672D01*
X314522Y473908D01*
X326758Y473908D01*
X326758Y462683D02*
X314522Y462683D01*
X314522Y463694D02*
X326758Y463694D01*
X326758Y464705D02*
X314522Y464705D01*
X314522Y465716D02*
X326758Y465716D01*
X326758Y466727D02*
X314522Y466727D01*
X314522Y467738D02*
X326758Y467738D01*
X326758Y468749D02*
X314522Y468749D01*
X314522Y469760D02*
X326758Y469760D01*
X326758Y470771D02*
X314522Y470771D01*
X314522Y471782D02*
X326758Y471782D01*
X326758Y472793D02*
X314522Y472793D01*
X314522Y473804D02*
X326758Y473804D01*
X308458Y473808D02*
X308458Y461572D01*
X296222Y461572D01*
X296222Y473808D01*
X308458Y473808D01*
X308458Y462583D02*
X296222Y462583D01*
X296222Y463594D02*
X308458Y463594D01*
X308458Y464605D02*
X296222Y464605D01*
X296222Y465616D02*
X308458Y465616D01*
X308458Y466627D02*
X296222Y466627D01*
X296222Y467638D02*
X308458Y467638D01*
X308458Y468649D02*
X296222Y468649D01*
X296222Y469660D02*
X308458Y469660D01*
X308458Y470671D02*
X296222Y470671D01*
X296222Y471682D02*
X308458Y471682D01*
X308458Y472693D02*
X296222Y472693D01*
X296222Y473704D02*
X308458Y473704D01*
X290158Y473908D02*
X290158Y461672D01*
X277922Y461672D01*
X277922Y473908D01*
X290158Y473908D01*
X290158Y462683D02*
X277922Y462683D01*
X277922Y463694D02*
X290158Y463694D01*
X290158Y464705D02*
X277922Y464705D01*
X277922Y465716D02*
X290158Y465716D01*
X290158Y466727D02*
X277922Y466727D01*
X277922Y467738D02*
X290158Y467738D01*
X290158Y468749D02*
X277922Y468749D01*
X277922Y469760D02*
X290158Y469760D01*
X290158Y470771D02*
X277922Y470771D01*
X277922Y471782D02*
X290158Y471782D01*
X290158Y472793D02*
X277922Y472793D01*
X277922Y473804D02*
X290158Y473804D01*
D12*
X560340Y527210D02*
X560340Y529190D01*
X560340Y527210D02*
X551360Y527210D01*
X551360Y529190D01*
X560340Y529190D01*
X560340Y528179D02*
X551360Y528179D01*
X551360Y529148D02*
X560340Y529148D01*
X560340Y524190D02*
X560340Y522210D01*
X551360Y522210D01*
X551360Y524190D01*
X560340Y524190D01*
X560340Y523179D02*
X551360Y523179D01*
X551360Y524148D02*
X560340Y524148D01*
X560340Y550460D02*
X560340Y555440D01*
X560340Y550460D02*
X551360Y550460D01*
X551360Y555440D01*
X560340Y555440D01*
X560340Y551429D02*
X551360Y551429D01*
X551360Y552398D02*
X560340Y552398D01*
X560340Y553367D02*
X551360Y553367D01*
X551360Y554336D02*
X560340Y554336D01*
X560340Y555305D02*
X551360Y555305D01*
X560340Y547690D02*
X560340Y542710D01*
X551360Y542710D01*
X551360Y547690D01*
X560340Y547690D01*
X560340Y543679D02*
X551360Y543679D01*
X551360Y544648D02*
X560340Y544648D01*
X560340Y545617D02*
X551360Y545617D01*
X551360Y546586D02*
X560340Y546586D01*
X560340Y547555D02*
X551360Y547555D01*
X560340Y539190D02*
X560340Y537210D01*
X551360Y537210D01*
X551360Y539190D01*
X560340Y539190D01*
X560340Y538179D02*
X551360Y538179D01*
X551360Y539148D02*
X560340Y539148D01*
X560340Y534190D02*
X560340Y532210D01*
X551360Y532210D01*
X551360Y534190D01*
X560340Y534190D01*
X560340Y533179D02*
X551360Y533179D01*
X551360Y534148D02*
X560340Y534148D01*
X551360Y514190D02*
X551360Y512210D01*
X551360Y514190D02*
X560340Y514190D01*
X560340Y512210D01*
X551360Y512210D01*
X551360Y513179D02*
X560340Y513179D01*
X560340Y514148D02*
X551360Y514148D01*
X551360Y517210D02*
X551360Y519190D01*
X560340Y519190D01*
X560340Y517210D01*
X551360Y517210D01*
X551360Y518179D02*
X560340Y518179D01*
X560340Y519148D02*
X551360Y519148D01*
X551360Y490940D02*
X551360Y485960D01*
X551360Y490940D02*
X560340Y490940D01*
X560340Y485960D01*
X551360Y485960D01*
X551360Y486929D02*
X560340Y486929D01*
X560340Y487898D02*
X551360Y487898D01*
X551360Y488867D02*
X560340Y488867D01*
X560340Y489836D02*
X551360Y489836D01*
X551360Y490805D02*
X560340Y490805D01*
X551360Y493710D02*
X551360Y498690D01*
X560340Y498690D01*
X560340Y493710D01*
X551360Y493710D01*
X551360Y494679D02*
X560340Y494679D01*
X560340Y495648D02*
X551360Y495648D01*
X551360Y496617D02*
X560340Y496617D01*
X560340Y497586D02*
X551360Y497586D01*
X551360Y498555D02*
X560340Y498555D01*
X551360Y502210D02*
X551360Y504190D01*
X560340Y504190D01*
X560340Y502210D01*
X551360Y502210D01*
X551360Y503179D02*
X560340Y503179D01*
X560340Y504148D02*
X551360Y504148D01*
X551360Y507210D02*
X551360Y509190D01*
X560340Y509190D01*
X560340Y507210D01*
X551360Y507210D01*
X551360Y508179D02*
X560340Y508179D01*
X560340Y509148D02*
X551360Y509148D01*
D13*
X478100Y458000D02*
X478100Y448000D01*
X478100Y458000D02*
X487100Y458000D01*
X487100Y448000D01*
X478100Y448000D01*
X478100Y448950D02*
X487100Y448950D01*
X487100Y449900D02*
X478100Y449900D01*
X478100Y450850D02*
X487100Y450850D01*
X487100Y451800D02*
X478100Y451800D01*
X478100Y452750D02*
X487100Y452750D01*
X487100Y453700D02*
X478100Y453700D01*
X478100Y454650D02*
X487100Y454650D01*
X487100Y455600D02*
X478100Y455600D01*
X478100Y456550D02*
X487100Y456550D01*
X487100Y457500D02*
X478100Y457500D01*
X478100Y441000D02*
X478100Y431000D01*
X478100Y441000D02*
X487100Y441000D01*
X487100Y431000D01*
X478100Y431000D01*
X478100Y431950D02*
X487100Y431950D01*
X487100Y432900D02*
X478100Y432900D01*
X478100Y433850D02*
X487100Y433850D01*
X487100Y434800D02*
X478100Y434800D01*
X478100Y435750D02*
X487100Y435750D01*
X487100Y436700D02*
X478100Y436700D01*
X478100Y437650D02*
X487100Y437650D01*
X487100Y438600D02*
X478100Y438600D01*
X478100Y439550D02*
X487100Y439550D01*
X487100Y440500D02*
X478100Y440500D01*
X487100Y402900D02*
X487100Y392900D01*
X478100Y392900D01*
X478100Y402900D01*
X487100Y402900D01*
X487100Y393850D02*
X478100Y393850D01*
X478100Y394800D02*
X487100Y394800D01*
X487100Y395750D02*
X478100Y395750D01*
X478100Y396700D02*
X487100Y396700D01*
X487100Y397650D02*
X478100Y397650D01*
X478100Y398600D02*
X487100Y398600D01*
X487100Y399550D02*
X478100Y399550D01*
X478100Y400500D02*
X487100Y400500D01*
X487100Y401450D02*
X478100Y401450D01*
X478100Y402400D02*
X487100Y402400D01*
X487100Y409900D02*
X487100Y419900D01*
X487100Y409900D02*
X478100Y409900D01*
X478100Y419900D01*
X487100Y419900D01*
X487100Y410850D02*
X478100Y410850D01*
X478100Y411800D02*
X487100Y411800D01*
X487100Y412750D02*
X478100Y412750D01*
X478100Y413700D02*
X487100Y413700D01*
X487100Y414650D02*
X478100Y414650D01*
X478100Y415600D02*
X487100Y415600D01*
X487100Y416550D02*
X478100Y416550D01*
X478100Y417500D02*
X487100Y417500D01*
X487100Y418450D02*
X478100Y418450D01*
X478100Y419400D02*
X487100Y419400D01*
D10*
X508945Y260894D02*
X513455Y260894D01*
X508945Y260894D02*
X508945Y271904D01*
X513455Y271904D01*
X513455Y260894D01*
X513455Y261834D02*
X508945Y261834D01*
X508945Y262774D02*
X513455Y262774D01*
X513455Y263714D02*
X508945Y263714D01*
X508945Y264654D02*
X513455Y264654D01*
X513455Y265594D02*
X508945Y265594D01*
X508945Y266534D02*
X513455Y266534D01*
X513455Y267474D02*
X508945Y267474D01*
X508945Y268414D02*
X513455Y268414D01*
X513455Y269354D02*
X508945Y269354D01*
X508945Y270294D02*
X513455Y270294D01*
X513455Y271234D02*
X508945Y271234D01*
X518445Y260894D02*
X522955Y260894D01*
X518445Y260894D02*
X518445Y271904D01*
X522955Y271904D01*
X522955Y260894D01*
X522955Y261834D02*
X518445Y261834D01*
X518445Y262774D02*
X522955Y262774D01*
X522955Y263714D02*
X518445Y263714D01*
X518445Y264654D02*
X522955Y264654D01*
X522955Y265594D02*
X518445Y265594D01*
X518445Y266534D02*
X522955Y266534D01*
X522955Y267474D02*
X518445Y267474D01*
X518445Y268414D02*
X522955Y268414D01*
X522955Y269354D02*
X518445Y269354D01*
X518445Y270294D02*
X522955Y270294D01*
X522955Y271234D02*
X518445Y271234D01*
X527945Y260894D02*
X532455Y260894D01*
X527945Y260894D02*
X527945Y271904D01*
X532455Y271904D01*
X532455Y260894D01*
X532455Y261834D02*
X527945Y261834D01*
X527945Y262774D02*
X532455Y262774D01*
X532455Y263714D02*
X527945Y263714D01*
X527945Y264654D02*
X532455Y264654D01*
X532455Y265594D02*
X527945Y265594D01*
X527945Y266534D02*
X532455Y266534D01*
X532455Y267474D02*
X527945Y267474D01*
X527945Y268414D02*
X532455Y268414D01*
X532455Y269354D02*
X527945Y269354D01*
X527945Y270294D02*
X532455Y270294D01*
X532455Y271234D02*
X527945Y271234D01*
X527945Y286896D02*
X532455Y286896D01*
X527945Y286896D02*
X527945Y297906D01*
X532455Y297906D01*
X532455Y286896D01*
X532455Y287836D02*
X527945Y287836D01*
X527945Y288776D02*
X532455Y288776D01*
X532455Y289716D02*
X527945Y289716D01*
X527945Y290656D02*
X532455Y290656D01*
X532455Y291596D02*
X527945Y291596D01*
X527945Y292536D02*
X532455Y292536D01*
X532455Y293476D02*
X527945Y293476D01*
X527945Y294416D02*
X532455Y294416D01*
X532455Y295356D02*
X527945Y295356D01*
X527945Y296296D02*
X532455Y296296D01*
X532455Y297236D02*
X527945Y297236D01*
X513455Y286896D02*
X508945Y286896D01*
X508945Y297906D01*
X513455Y297906D01*
X513455Y286896D01*
X513455Y287836D02*
X508945Y287836D01*
X508945Y288776D02*
X513455Y288776D01*
X513455Y289716D02*
X508945Y289716D01*
X508945Y290656D02*
X513455Y290656D01*
X513455Y291596D02*
X508945Y291596D01*
X508945Y292536D02*
X513455Y292536D01*
X513455Y293476D02*
X508945Y293476D01*
X508945Y294416D02*
X513455Y294416D01*
X513455Y295356D02*
X508945Y295356D01*
X508945Y296296D02*
X513455Y296296D01*
X513455Y297236D02*
X508945Y297236D01*
D14*
X517531Y248533D02*
X517531Y208667D01*
X517531Y248533D02*
X527933Y248533D01*
X527933Y208667D01*
X517531Y208667D01*
X517531Y209645D02*
X527933Y209645D01*
X527933Y210623D02*
X517531Y210623D01*
X517531Y211601D02*
X527933Y211601D01*
X527933Y212579D02*
X517531Y212579D01*
X517531Y213557D02*
X527933Y213557D01*
X527933Y214535D02*
X517531Y214535D01*
X517531Y215513D02*
X527933Y215513D01*
X527933Y216491D02*
X517531Y216491D01*
X517531Y217469D02*
X527933Y217469D01*
X527933Y218447D02*
X517531Y218447D01*
X517531Y219425D02*
X527933Y219425D01*
X527933Y220403D02*
X517531Y220403D01*
X517531Y221381D02*
X527933Y221381D01*
X527933Y222359D02*
X517531Y222359D01*
X517531Y223337D02*
X527933Y223337D01*
X527933Y224315D02*
X517531Y224315D01*
X517531Y225293D02*
X527933Y225293D01*
X527933Y226271D02*
X517531Y226271D01*
X517531Y227249D02*
X527933Y227249D01*
X527933Y228227D02*
X517531Y228227D01*
X517531Y229205D02*
X527933Y229205D01*
X527933Y230183D02*
X517531Y230183D01*
X517531Y231161D02*
X527933Y231161D01*
X527933Y232139D02*
X517531Y232139D01*
X517531Y233117D02*
X527933Y233117D01*
X527933Y234095D02*
X517531Y234095D01*
X517531Y235073D02*
X527933Y235073D01*
X527933Y236051D02*
X517531Y236051D01*
X517531Y237029D02*
X527933Y237029D01*
X527933Y238007D02*
X517531Y238007D01*
X517531Y238985D02*
X527933Y238985D01*
X527933Y239963D02*
X517531Y239963D01*
X517531Y240941D02*
X527933Y240941D01*
X527933Y241919D02*
X517531Y241919D01*
X517531Y242897D02*
X527933Y242897D01*
X527933Y243875D02*
X517531Y243875D01*
X517531Y244853D02*
X527933Y244853D01*
X527933Y245831D02*
X517531Y245831D01*
X517531Y246809D02*
X527933Y246809D01*
X527933Y247787D02*
X517531Y247787D01*
X488067Y248533D02*
X488067Y208667D01*
X488067Y248533D02*
X498469Y248533D01*
X498469Y208667D01*
X488067Y208667D01*
X488067Y209645D02*
X498469Y209645D01*
X498469Y210623D02*
X488067Y210623D01*
X488067Y211601D02*
X498469Y211601D01*
X498469Y212579D02*
X488067Y212579D01*
X488067Y213557D02*
X498469Y213557D01*
X498469Y214535D02*
X488067Y214535D01*
X488067Y215513D02*
X498469Y215513D01*
X498469Y216491D02*
X488067Y216491D01*
X488067Y217469D02*
X498469Y217469D01*
X498469Y218447D02*
X488067Y218447D01*
X488067Y219425D02*
X498469Y219425D01*
X498469Y220403D02*
X488067Y220403D01*
X488067Y221381D02*
X498469Y221381D01*
X498469Y222359D02*
X488067Y222359D01*
X488067Y223337D02*
X498469Y223337D01*
X498469Y224315D02*
X488067Y224315D01*
X488067Y225293D02*
X498469Y225293D01*
X498469Y226271D02*
X488067Y226271D01*
X488067Y227249D02*
X498469Y227249D01*
X498469Y228227D02*
X488067Y228227D01*
X488067Y229205D02*
X498469Y229205D01*
X498469Y230183D02*
X488067Y230183D01*
X488067Y231161D02*
X498469Y231161D01*
X498469Y232139D02*
X488067Y232139D01*
X488067Y233117D02*
X498469Y233117D01*
X498469Y234095D02*
X488067Y234095D01*
X488067Y235073D02*
X498469Y235073D01*
X498469Y236051D02*
X488067Y236051D01*
X488067Y237029D02*
X498469Y237029D01*
X498469Y238007D02*
X488067Y238007D01*
X488067Y238985D02*
X498469Y238985D01*
X498469Y239963D02*
X488067Y239963D01*
X488067Y240941D02*
X498469Y240941D01*
X498469Y241919D02*
X488067Y241919D01*
X488067Y242897D02*
X498469Y242897D01*
X498469Y243875D02*
X488067Y243875D01*
X488067Y244853D02*
X498469Y244853D01*
X498469Y245831D02*
X488067Y245831D01*
X488067Y246809D02*
X498469Y246809D01*
X498469Y247787D02*
X488067Y247787D01*
D15*
X520420Y354320D02*
X527380Y354320D01*
X520420Y354320D02*
X520420Y362280D01*
X527380Y362280D01*
X527380Y354320D01*
X527380Y355308D02*
X520420Y355308D01*
X520420Y356296D02*
X527380Y356296D01*
X527380Y357284D02*
X520420Y357284D01*
X520420Y358272D02*
X527380Y358272D01*
X527380Y359260D02*
X520420Y359260D01*
X520420Y360248D02*
X527380Y360248D01*
X527380Y361236D02*
X520420Y361236D01*
X520420Y362224D02*
X527380Y362224D01*
X539420Y354320D02*
X546380Y354320D01*
X539420Y354320D02*
X539420Y362280D01*
X546380Y362280D01*
X546380Y354320D01*
X546380Y355308D02*
X539420Y355308D01*
X539420Y356296D02*
X546380Y356296D01*
X546380Y357284D02*
X539420Y357284D01*
X539420Y358272D02*
X546380Y358272D01*
X546380Y359260D02*
X539420Y359260D01*
X539420Y360248D02*
X546380Y360248D01*
X546380Y361236D02*
X539420Y361236D01*
X539420Y362224D02*
X546380Y362224D01*
X536880Y375320D02*
X529920Y375320D01*
X529920Y383280D01*
X536880Y383280D01*
X536880Y375320D01*
X536880Y376308D02*
X529920Y376308D01*
X529920Y377296D02*
X536880Y377296D01*
X536880Y378284D02*
X529920Y378284D01*
X529920Y379272D02*
X536880Y379272D01*
X536880Y380260D02*
X529920Y380260D01*
X529920Y381248D02*
X536880Y381248D01*
X536880Y382236D02*
X529920Y382236D01*
X529920Y383224D02*
X536880Y383224D01*
D16*
X542254Y346546D02*
X547546Y346546D01*
X547546Y339254D01*
X542254Y339254D01*
X542254Y346546D01*
X542254Y340212D02*
X547546Y340212D01*
X547546Y341170D02*
X542254Y341170D01*
X542254Y342128D02*
X547546Y342128D01*
X547546Y343086D02*
X542254Y343086D01*
X542254Y344044D02*
X547546Y344044D01*
X547546Y345002D02*
X542254Y345002D01*
X542254Y345960D02*
X547546Y345960D01*
X524546Y346546D02*
X519254Y346546D01*
X524546Y346546D02*
X524546Y339254D01*
X519254Y339254D01*
X519254Y346546D01*
X519254Y340212D02*
X524546Y340212D01*
X524546Y341170D02*
X519254Y341170D01*
X519254Y342128D02*
X524546Y342128D01*
X524546Y343086D02*
X519254Y343086D01*
X519254Y344044D02*
X524546Y344044D01*
X524546Y345002D02*
X519254Y345002D01*
X519254Y345960D02*
X524546Y345960D01*
D13*
X491800Y338400D02*
X481800Y338400D01*
X481800Y347400D01*
X491800Y347400D01*
X491800Y338400D01*
X491800Y339350D02*
X481800Y339350D01*
X481800Y340300D02*
X491800Y340300D01*
X491800Y341250D02*
X481800Y341250D01*
X481800Y342200D02*
X491800Y342200D01*
X491800Y343150D02*
X481800Y343150D01*
X481800Y344100D02*
X491800Y344100D01*
X491800Y345050D02*
X481800Y345050D01*
X481800Y346000D02*
X491800Y346000D01*
X491800Y346950D02*
X481800Y346950D01*
X498800Y338400D02*
X508800Y338400D01*
X498800Y338400D02*
X498800Y347400D01*
X508800Y347400D01*
X508800Y338400D01*
X508800Y339350D02*
X498800Y339350D01*
X498800Y340300D02*
X508800Y340300D01*
X508800Y341250D02*
X498800Y341250D01*
X498800Y342200D02*
X508800Y342200D01*
X508800Y343150D02*
X498800Y343150D01*
X498800Y344100D02*
X508800Y344100D01*
X508800Y345050D02*
X498800Y345050D01*
X498800Y346000D02*
X508800Y346000D01*
X508800Y346950D02*
X498800Y346950D01*
X490800Y331000D02*
X490800Y321000D01*
X490800Y331000D02*
X499800Y331000D01*
X499800Y321000D01*
X490800Y321000D01*
X490800Y321950D02*
X499800Y321950D01*
X499800Y322900D02*
X490800Y322900D01*
X490800Y323850D02*
X499800Y323850D01*
X499800Y324800D02*
X490800Y324800D01*
X490800Y325750D02*
X499800Y325750D01*
X499800Y326700D02*
X490800Y326700D01*
X490800Y327650D02*
X499800Y327650D01*
X499800Y328600D02*
X490800Y328600D01*
X490800Y329550D02*
X499800Y329550D01*
X499800Y330500D02*
X490800Y330500D01*
X490800Y314000D02*
X490800Y304000D01*
X490800Y314000D02*
X499800Y314000D01*
X499800Y304000D01*
X490800Y304000D01*
X490800Y304950D02*
X499800Y304950D01*
X499800Y305900D02*
X490800Y305900D01*
X490800Y306850D02*
X499800Y306850D01*
X499800Y307800D02*
X490800Y307800D01*
X490800Y308750D02*
X499800Y308750D01*
X499800Y309700D02*
X490800Y309700D01*
X490800Y310650D02*
X499800Y310650D01*
X499800Y311600D02*
X490800Y311600D01*
X490800Y312550D02*
X499800Y312550D01*
X499800Y313500D02*
X490800Y313500D01*
D15*
X540620Y291880D02*
X540620Y284920D01*
X540620Y291880D02*
X551580Y291880D01*
X551580Y284920D01*
X540620Y284920D01*
X540620Y285908D02*
X551580Y285908D01*
X551580Y286896D02*
X540620Y286896D01*
X540620Y287884D02*
X551580Y287884D01*
X551580Y288872D02*
X540620Y288872D01*
X540620Y289860D02*
X551580Y289860D01*
X551580Y290848D02*
X540620Y290848D01*
X540620Y291836D02*
X551580Y291836D01*
X540620Y273880D02*
X540620Y266920D01*
X540620Y273880D02*
X551580Y273880D01*
X551580Y266920D01*
X540620Y266920D01*
X540620Y267908D02*
X551580Y267908D01*
X551580Y268896D02*
X540620Y268896D01*
X540620Y269884D02*
X551580Y269884D01*
X551580Y270872D02*
X540620Y270872D01*
X540620Y271860D02*
X551580Y271860D01*
X551580Y272848D02*
X540620Y272848D01*
X540620Y273836D02*
X551580Y273836D01*
X464420Y253780D02*
X464420Y246820D01*
X464420Y253780D02*
X475380Y253780D01*
X475380Y246820D01*
X464420Y246820D01*
X464420Y247808D02*
X475380Y247808D01*
X475380Y248796D02*
X464420Y248796D01*
X464420Y249784D02*
X475380Y249784D01*
X475380Y250772D02*
X464420Y250772D01*
X464420Y251760D02*
X475380Y251760D01*
X475380Y252748D02*
X464420Y252748D01*
X464420Y253736D02*
X475380Y253736D01*
X464420Y235780D02*
X464420Y228820D01*
X464420Y235780D02*
X475380Y235780D01*
X475380Y228820D01*
X464420Y228820D01*
X464420Y229808D02*
X475380Y229808D01*
X475380Y230796D02*
X464420Y230796D01*
X464420Y231784D02*
X475380Y231784D01*
X475380Y232772D02*
X464420Y232772D01*
X464420Y233760D02*
X475380Y233760D01*
X475380Y234748D02*
X464420Y234748D01*
X464420Y235736D02*
X475380Y235736D01*
D13*
X465400Y282900D02*
X465400Y292900D01*
X474400Y292900D01*
X474400Y282900D01*
X465400Y282900D01*
X465400Y283850D02*
X474400Y283850D01*
X474400Y284800D02*
X465400Y284800D01*
X465400Y285750D02*
X474400Y285750D01*
X474400Y286700D02*
X465400Y286700D01*
X465400Y287650D02*
X474400Y287650D01*
X474400Y288600D02*
X465400Y288600D01*
X465400Y289550D02*
X474400Y289550D01*
X474400Y290500D02*
X465400Y290500D01*
X465400Y291450D02*
X474400Y291450D01*
X474400Y292400D02*
X465400Y292400D01*
X465400Y275900D02*
X465400Y265900D01*
X465400Y275900D02*
X474400Y275900D01*
X474400Y265900D01*
X465400Y265900D01*
X465400Y266850D02*
X474400Y266850D01*
X474400Y267800D02*
X465400Y267800D01*
X465400Y268750D02*
X474400Y268750D01*
X474400Y269700D02*
X465400Y269700D01*
X465400Y270650D02*
X474400Y270650D01*
X474400Y271600D02*
X465400Y271600D01*
X465400Y272550D02*
X474400Y272550D01*
X474400Y273500D02*
X465400Y273500D01*
X465400Y274450D02*
X474400Y274450D01*
X474400Y275400D02*
X465400Y275400D01*
X465400Y321000D02*
X465400Y331000D01*
X474400Y331000D01*
X474400Y321000D01*
X465400Y321000D01*
X465400Y321950D02*
X474400Y321950D01*
X474400Y322900D02*
X465400Y322900D01*
X465400Y323850D02*
X474400Y323850D01*
X474400Y324800D02*
X465400Y324800D01*
X465400Y325750D02*
X474400Y325750D01*
X474400Y326700D02*
X465400Y326700D01*
X465400Y327650D02*
X474400Y327650D01*
X474400Y328600D02*
X465400Y328600D01*
X465400Y329550D02*
X474400Y329550D01*
X474400Y330500D02*
X465400Y330500D01*
X465400Y314000D02*
X465400Y304000D01*
X465400Y314000D02*
X474400Y314000D01*
X474400Y304000D01*
X465400Y304000D01*
X465400Y304950D02*
X474400Y304950D01*
X474400Y305900D02*
X465400Y305900D01*
X465400Y306850D02*
X474400Y306850D01*
X474400Y307800D02*
X465400Y307800D01*
X465400Y308750D02*
X474400Y308750D01*
X474400Y309700D02*
X465400Y309700D01*
X465400Y310650D02*
X474400Y310650D01*
X474400Y311600D02*
X465400Y311600D01*
X465400Y312550D02*
X474400Y312550D01*
X474400Y313500D02*
X465400Y313500D01*
X490800Y292900D02*
X490800Y282900D01*
X490800Y292900D02*
X499800Y292900D01*
X499800Y282900D01*
X490800Y282900D01*
X490800Y283850D02*
X499800Y283850D01*
X499800Y284800D02*
X490800Y284800D01*
X490800Y285750D02*
X499800Y285750D01*
X499800Y286700D02*
X490800Y286700D01*
X490800Y287650D02*
X499800Y287650D01*
X499800Y288600D02*
X490800Y288600D01*
X490800Y289550D02*
X499800Y289550D01*
X499800Y290500D02*
X490800Y290500D01*
X490800Y291450D02*
X499800Y291450D01*
X499800Y292400D02*
X490800Y292400D01*
X490800Y275900D02*
X490800Y265900D01*
X490800Y275900D02*
X499800Y275900D01*
X499800Y265900D01*
X490800Y265900D01*
X490800Y266850D02*
X499800Y266850D01*
X499800Y267800D02*
X490800Y267800D01*
X490800Y268750D02*
X499800Y268750D01*
X499800Y269700D02*
X490800Y269700D01*
X490800Y270650D02*
X499800Y270650D01*
X499800Y271600D02*
X490800Y271600D01*
X490800Y272550D02*
X499800Y272550D01*
X499800Y273500D02*
X490800Y273500D01*
X490800Y274450D02*
X499800Y274450D01*
X499800Y275400D02*
X490800Y275400D01*
D10*
X585145Y330744D02*
X589655Y330744D01*
X585145Y330744D02*
X585145Y341754D01*
X589655Y341754D01*
X589655Y330744D01*
X589655Y331684D02*
X585145Y331684D01*
X585145Y332624D02*
X589655Y332624D01*
X589655Y333564D02*
X585145Y333564D01*
X585145Y334504D02*
X589655Y334504D01*
X589655Y335444D02*
X585145Y335444D01*
X585145Y336384D02*
X589655Y336384D01*
X589655Y337324D02*
X585145Y337324D01*
X585145Y338264D02*
X589655Y338264D01*
X589655Y339204D02*
X585145Y339204D01*
X585145Y340144D02*
X589655Y340144D01*
X589655Y341084D02*
X585145Y341084D01*
X594645Y330744D02*
X599155Y330744D01*
X594645Y330744D02*
X594645Y341754D01*
X599155Y341754D01*
X599155Y330744D01*
X599155Y331684D02*
X594645Y331684D01*
X594645Y332624D02*
X599155Y332624D01*
X599155Y333564D02*
X594645Y333564D01*
X594645Y334504D02*
X599155Y334504D01*
X599155Y335444D02*
X594645Y335444D01*
X594645Y336384D02*
X599155Y336384D01*
X599155Y337324D02*
X594645Y337324D01*
X594645Y338264D02*
X599155Y338264D01*
X599155Y339204D02*
X594645Y339204D01*
X594645Y340144D02*
X599155Y340144D01*
X599155Y341084D02*
X594645Y341084D01*
X604145Y330744D02*
X608655Y330744D01*
X604145Y330744D02*
X604145Y341754D01*
X608655Y341754D01*
X608655Y330744D01*
X608655Y331684D02*
X604145Y331684D01*
X604145Y332624D02*
X608655Y332624D01*
X608655Y333564D02*
X604145Y333564D01*
X604145Y334504D02*
X608655Y334504D01*
X608655Y335444D02*
X604145Y335444D01*
X604145Y336384D02*
X608655Y336384D01*
X608655Y337324D02*
X604145Y337324D01*
X604145Y338264D02*
X608655Y338264D01*
X608655Y339204D02*
X604145Y339204D01*
X604145Y340144D02*
X608655Y340144D01*
X608655Y341084D02*
X604145Y341084D01*
X604145Y356746D02*
X608655Y356746D01*
X604145Y356746D02*
X604145Y367756D01*
X608655Y367756D01*
X608655Y356746D01*
X608655Y357686D02*
X604145Y357686D01*
X604145Y358626D02*
X608655Y358626D01*
X608655Y359566D02*
X604145Y359566D01*
X604145Y360506D02*
X608655Y360506D01*
X608655Y361446D02*
X604145Y361446D01*
X604145Y362386D02*
X608655Y362386D01*
X608655Y363326D02*
X604145Y363326D01*
X604145Y364266D02*
X608655Y364266D01*
X608655Y365206D02*
X604145Y365206D01*
X604145Y366146D02*
X608655Y366146D01*
X608655Y367086D02*
X604145Y367086D01*
X589655Y356746D02*
X585145Y356746D01*
X585145Y367756D01*
X589655Y367756D01*
X589655Y356746D01*
X589655Y357686D02*
X585145Y357686D01*
X585145Y358626D02*
X589655Y358626D01*
X589655Y359566D02*
X585145Y359566D01*
X585145Y360506D02*
X589655Y360506D01*
X589655Y361446D02*
X585145Y361446D01*
X585145Y362386D02*
X589655Y362386D01*
X589655Y363326D02*
X585145Y363326D01*
X585145Y364266D02*
X589655Y364266D01*
X589655Y365206D02*
X585145Y365206D01*
X585145Y366146D02*
X589655Y366146D01*
X589655Y367086D02*
X585145Y367086D01*
D13*
X626800Y352100D02*
X626800Y342100D01*
X617800Y342100D01*
X617800Y352100D01*
X626800Y352100D01*
X626800Y343050D02*
X617800Y343050D01*
X617800Y344000D02*
X626800Y344000D01*
X626800Y344950D02*
X617800Y344950D01*
X617800Y345900D02*
X626800Y345900D01*
X626800Y346850D02*
X617800Y346850D01*
X617800Y347800D02*
X626800Y347800D01*
X626800Y348750D02*
X617800Y348750D01*
X617800Y349700D02*
X626800Y349700D01*
X626800Y350650D02*
X617800Y350650D01*
X617800Y351600D02*
X626800Y351600D01*
X626800Y359100D02*
X626800Y369100D01*
X626800Y359100D02*
X617800Y359100D01*
X617800Y369100D01*
X626800Y369100D01*
X626800Y360050D02*
X617800Y360050D01*
X617800Y361000D02*
X626800Y361000D01*
X626800Y361950D02*
X617800Y361950D01*
X617800Y362900D02*
X626800Y362900D01*
X626800Y363850D02*
X617800Y363850D01*
X617800Y364800D02*
X626800Y364800D01*
X626800Y365750D02*
X617800Y365750D01*
X617800Y366700D02*
X626800Y366700D01*
X626800Y367650D02*
X617800Y367650D01*
X617800Y368600D02*
X626800Y368600D01*
X576000Y314000D02*
X576000Y304000D01*
X567000Y304000D01*
X567000Y314000D01*
X576000Y314000D01*
X576000Y304950D02*
X567000Y304950D01*
X567000Y305900D02*
X576000Y305900D01*
X576000Y306850D02*
X567000Y306850D01*
X567000Y307800D02*
X576000Y307800D01*
X576000Y308750D02*
X567000Y308750D01*
X567000Y309700D02*
X576000Y309700D01*
X576000Y310650D02*
X567000Y310650D01*
X567000Y311600D02*
X576000Y311600D01*
X576000Y312550D02*
X567000Y312550D01*
X567000Y313500D02*
X576000Y313500D01*
X576000Y321000D02*
X576000Y331000D01*
X576000Y321000D02*
X567000Y321000D01*
X567000Y331000D01*
X576000Y331000D01*
X576000Y321950D02*
X567000Y321950D01*
X567000Y322900D02*
X576000Y322900D01*
X576000Y323850D02*
X567000Y323850D01*
X567000Y324800D02*
X576000Y324800D01*
X576000Y325750D02*
X567000Y325750D01*
X567000Y326700D02*
X576000Y326700D01*
X576000Y327650D02*
X567000Y327650D01*
X567000Y328600D02*
X576000Y328600D01*
X576000Y329550D02*
X567000Y329550D01*
X567000Y330500D02*
X576000Y330500D01*
D17*
X448000Y284670D02*
X441000Y284670D01*
X441000Y291670D01*
X448000Y291670D01*
X448000Y284670D01*
X448000Y287520D02*
X441000Y287520D01*
X441000Y290370D02*
X448000Y290370D01*
X448000Y267130D02*
X441000Y267130D01*
X441000Y274130D01*
X448000Y274130D01*
X448000Y267130D01*
X448000Y269980D02*
X441000Y269980D01*
X441000Y272830D02*
X448000Y272830D01*
X591630Y314000D02*
X591630Y321000D01*
X591630Y314000D02*
X584630Y314000D01*
X584630Y321000D01*
X591630Y321000D01*
X591630Y316850D02*
X584630Y316850D01*
X584630Y319700D02*
X591630Y319700D01*
X609170Y321000D02*
X609170Y314000D01*
X602170Y314000D01*
X602170Y321000D01*
X609170Y321000D01*
X609170Y316850D02*
X602170Y316850D01*
X602170Y319700D02*
X609170Y319700D01*
D13*
X617800Y321000D02*
X617800Y331000D01*
X626800Y331000D01*
X626800Y321000D01*
X617800Y321000D01*
X617800Y321950D02*
X626800Y321950D01*
X626800Y322900D02*
X617800Y322900D01*
X617800Y323850D02*
X626800Y323850D01*
X626800Y324800D02*
X617800Y324800D01*
X617800Y325750D02*
X626800Y325750D01*
X626800Y326700D02*
X617800Y326700D01*
X617800Y327650D02*
X626800Y327650D01*
X626800Y328600D02*
X617800Y328600D01*
X617800Y329550D02*
X626800Y329550D01*
X626800Y330500D02*
X617800Y330500D01*
X617800Y314000D02*
X617800Y304000D01*
X617800Y314000D02*
X626800Y314000D01*
X626800Y304000D01*
X617800Y304000D01*
X617800Y304950D02*
X626800Y304950D01*
X626800Y305900D02*
X617800Y305900D01*
X617800Y306850D02*
X626800Y306850D01*
X626800Y307800D02*
X617800Y307800D01*
X617800Y308750D02*
X626800Y308750D01*
X626800Y309700D02*
X617800Y309700D01*
X617800Y310650D02*
X626800Y310650D01*
X626800Y311600D02*
X617800Y311600D01*
X617800Y312550D02*
X626800Y312550D01*
X626800Y313500D02*
X617800Y313500D01*
X537400Y424600D02*
X537400Y433600D01*
X582400Y433600D01*
X582400Y424600D01*
X537400Y424600D01*
X537400Y425550D02*
X582400Y425550D01*
X582400Y426500D02*
X537400Y426500D01*
X537400Y427450D02*
X582400Y427450D01*
X582400Y428400D02*
X537400Y428400D01*
X537400Y429350D02*
X582400Y429350D01*
X582400Y430300D02*
X537400Y430300D01*
X537400Y431250D02*
X582400Y431250D01*
X582400Y432200D02*
X537400Y432200D01*
X537400Y433150D02*
X582400Y433150D01*
X537400Y413600D02*
X537400Y404600D01*
X537400Y413600D02*
X582400Y413600D01*
X582400Y404600D01*
X537400Y404600D01*
X537400Y405550D02*
X582400Y405550D01*
X582400Y406500D02*
X537400Y406500D01*
X537400Y407450D02*
X582400Y407450D01*
X582400Y408400D02*
X537400Y408400D01*
X537400Y409350D02*
X582400Y409350D01*
X582400Y410300D02*
X537400Y410300D01*
X537400Y411250D02*
X582400Y411250D01*
X582400Y412200D02*
X537400Y412200D01*
X537400Y413150D02*
X582400Y413150D01*
D18*
X595380Y445580D02*
X628420Y445580D01*
X595380Y445580D02*
X595380Y460620D01*
X628420Y460620D01*
X628420Y445580D01*
X628420Y446492D02*
X595380Y446492D01*
X595380Y447404D02*
X628420Y447404D01*
X628420Y448316D02*
X595380Y448316D01*
X595380Y449228D02*
X628420Y449228D01*
X628420Y450140D02*
X595380Y450140D01*
X595380Y451052D02*
X628420Y451052D01*
X628420Y451964D02*
X595380Y451964D01*
X595380Y452876D02*
X628420Y452876D01*
X628420Y453788D02*
X595380Y453788D01*
X595380Y454700D02*
X628420Y454700D01*
X628420Y455612D02*
X595380Y455612D01*
X595380Y456524D02*
X628420Y456524D01*
X628420Y457436D02*
X595380Y457436D01*
X595380Y458348D02*
X628420Y458348D01*
X628420Y459260D02*
X595380Y459260D01*
X595380Y460172D02*
X628420Y460172D01*
X628420Y377580D02*
X595380Y377580D01*
X595380Y392620D01*
X628420Y392620D01*
X628420Y377580D01*
X628420Y378492D02*
X595380Y378492D01*
X595380Y379404D02*
X628420Y379404D01*
X628420Y380316D02*
X595380Y380316D01*
X595380Y381228D02*
X628420Y381228D01*
X628420Y382140D02*
X595380Y382140D01*
X595380Y383052D02*
X628420Y383052D01*
X628420Y383964D02*
X595380Y383964D01*
X595380Y384876D02*
X628420Y384876D01*
X628420Y385788D02*
X595380Y385788D01*
X595380Y386700D02*
X628420Y386700D01*
X628420Y387612D02*
X595380Y387612D01*
X595380Y388524D02*
X628420Y388524D01*
X628420Y389436D02*
X595380Y389436D01*
X595380Y390348D02*
X628420Y390348D01*
X628420Y391260D02*
X595380Y391260D01*
X595380Y392172D02*
X628420Y392172D01*
D13*
X576000Y352100D02*
X576000Y342100D01*
X567000Y342100D01*
X567000Y352100D01*
X576000Y352100D01*
X576000Y343050D02*
X567000Y343050D01*
X567000Y344000D02*
X576000Y344000D01*
X576000Y344950D02*
X567000Y344950D01*
X567000Y345900D02*
X576000Y345900D01*
X576000Y346850D02*
X567000Y346850D01*
X567000Y347800D02*
X576000Y347800D01*
X576000Y348750D02*
X567000Y348750D01*
X567000Y349700D02*
X576000Y349700D01*
X576000Y350650D02*
X567000Y350650D01*
X567000Y351600D02*
X576000Y351600D01*
X576000Y359100D02*
X576000Y369100D01*
X576000Y359100D02*
X567000Y359100D01*
X567000Y369100D01*
X576000Y369100D01*
X576000Y360050D02*
X567000Y360050D01*
X567000Y361000D02*
X576000Y361000D01*
X576000Y361950D02*
X567000Y361950D01*
X567000Y362900D02*
X576000Y362900D01*
X576000Y363850D02*
X567000Y363850D01*
X567000Y364800D02*
X576000Y364800D01*
X576000Y365750D02*
X567000Y365750D01*
X567000Y366700D02*
X576000Y366700D01*
X576000Y367650D02*
X567000Y367650D01*
X567000Y368600D02*
X576000Y368600D01*
X440000Y331000D02*
X440000Y321000D01*
X440000Y331000D02*
X449000Y331000D01*
X449000Y321000D01*
X440000Y321000D01*
X440000Y321950D02*
X449000Y321950D01*
X449000Y322900D02*
X440000Y322900D01*
X440000Y323850D02*
X449000Y323850D01*
X449000Y324800D02*
X440000Y324800D01*
X440000Y325750D02*
X449000Y325750D01*
X449000Y326700D02*
X440000Y326700D01*
X440000Y327650D02*
X449000Y327650D01*
X449000Y328600D02*
X440000Y328600D01*
X440000Y329550D02*
X449000Y329550D01*
X449000Y330500D02*
X440000Y330500D01*
X440000Y314000D02*
X440000Y304000D01*
X440000Y314000D02*
X449000Y314000D01*
X449000Y304000D01*
X440000Y304000D01*
X440000Y304950D02*
X449000Y304950D01*
X449000Y305900D02*
X440000Y305900D01*
X440000Y306850D02*
X449000Y306850D01*
X449000Y307800D02*
X440000Y307800D01*
X440000Y308750D02*
X449000Y308750D01*
X449000Y309700D02*
X440000Y309700D01*
X440000Y310650D02*
X449000Y310650D01*
X449000Y311600D02*
X440000Y311600D01*
X440000Y312550D02*
X449000Y312550D01*
X449000Y313500D02*
X440000Y313500D01*
D18*
X630470Y180720D02*
X630470Y169680D01*
X611430Y169680D01*
X611430Y180720D01*
X630470Y180720D01*
X630470Y170592D02*
X611430Y170592D01*
X611430Y171504D02*
X630470Y171504D01*
X630470Y172416D02*
X611430Y172416D01*
X611430Y173328D02*
X630470Y173328D01*
X630470Y174240D02*
X611430Y174240D01*
X611430Y175152D02*
X630470Y175152D01*
X630470Y176064D02*
X611430Y176064D01*
X611430Y176976D02*
X630470Y176976D01*
X630470Y177888D02*
X611430Y177888D01*
X611430Y178800D02*
X630470Y178800D01*
X630470Y179712D02*
X611430Y179712D01*
X611430Y180624D02*
X630470Y180624D01*
X630470Y225680D02*
X630470Y236720D01*
X630470Y225680D02*
X611430Y225680D01*
X611430Y236720D01*
X630470Y236720D01*
X630470Y226592D02*
X611430Y226592D01*
X611430Y227504D02*
X630470Y227504D01*
X630470Y228416D02*
X611430Y228416D01*
X611430Y229328D02*
X630470Y229328D01*
X630470Y230240D02*
X611430Y230240D01*
X611430Y231152D02*
X630470Y231152D01*
X630470Y232064D02*
X611430Y232064D01*
X611430Y232976D02*
X630470Y232976D01*
X630470Y233888D02*
X611430Y233888D01*
X611430Y234800D02*
X630470Y234800D01*
X630470Y235712D02*
X611430Y235712D01*
X611430Y236624D02*
X630470Y236624D01*
D12*
X590440Y190690D02*
X590440Y185710D01*
X577960Y185710D01*
X577960Y190690D01*
X590440Y190690D01*
X590440Y186679D02*
X577960Y186679D01*
X577960Y187648D02*
X590440Y187648D01*
X590440Y188617D02*
X577960Y188617D01*
X577960Y189586D02*
X590440Y189586D01*
X590440Y190555D02*
X577960Y190555D01*
X590440Y195710D02*
X590440Y200690D01*
X590440Y195710D02*
X577960Y195710D01*
X577960Y200690D01*
X590440Y200690D01*
X590440Y196679D02*
X577960Y196679D01*
X577960Y197648D02*
X590440Y197648D01*
X590440Y198617D02*
X577960Y198617D01*
X577960Y199586D02*
X590440Y199586D01*
X590440Y200555D02*
X577960Y200555D01*
X590440Y205710D02*
X590440Y210690D01*
X590440Y205710D02*
X577960Y205710D01*
X577960Y210690D01*
X590440Y210690D01*
X590440Y206679D02*
X577960Y206679D01*
X577960Y207648D02*
X590440Y207648D01*
X590440Y208617D02*
X577960Y208617D01*
X577960Y209586D02*
X590440Y209586D01*
X590440Y210555D02*
X577960Y210555D01*
X590440Y215710D02*
X590440Y220690D01*
X590440Y215710D02*
X577960Y215710D01*
X577960Y220690D01*
X590440Y220690D01*
X590440Y216679D02*
X577960Y216679D01*
X577960Y217648D02*
X590440Y217648D01*
X590440Y218617D02*
X577960Y218617D01*
X577960Y219586D02*
X590440Y219586D01*
X590440Y220555D02*
X577960Y220555D01*
D13*
X554300Y165900D02*
X554300Y155900D01*
X554300Y165900D02*
X563300Y165900D01*
X563300Y155900D01*
X554300Y155900D01*
X554300Y156850D02*
X563300Y156850D01*
X563300Y157800D02*
X554300Y157800D01*
X554300Y158750D02*
X563300Y158750D01*
X563300Y159700D02*
X554300Y159700D01*
X554300Y160650D02*
X563300Y160650D01*
X563300Y161600D02*
X554300Y161600D01*
X554300Y162550D02*
X563300Y162550D01*
X563300Y163500D02*
X554300Y163500D01*
X554300Y164450D02*
X563300Y164450D01*
X563300Y165400D02*
X554300Y165400D01*
X554300Y148900D02*
X554300Y138900D01*
X554300Y148900D02*
X563300Y148900D01*
X563300Y138900D01*
X554300Y138900D01*
X554300Y139850D02*
X563300Y139850D01*
X563300Y140800D02*
X554300Y140800D01*
X554300Y141750D02*
X563300Y141750D01*
X563300Y142700D02*
X554300Y142700D01*
X554300Y143650D02*
X563300Y143650D01*
X563300Y144600D02*
X554300Y144600D01*
X554300Y145550D02*
X563300Y145550D01*
X563300Y146500D02*
X554300Y146500D01*
X554300Y147450D02*
X563300Y147450D01*
X563300Y148400D02*
X554300Y148400D01*
X528900Y155900D02*
X528900Y165900D01*
X537900Y165900D01*
X537900Y155900D01*
X528900Y155900D01*
X528900Y156850D02*
X537900Y156850D01*
X537900Y157800D02*
X528900Y157800D01*
X528900Y158750D02*
X537900Y158750D01*
X537900Y159700D02*
X528900Y159700D01*
X528900Y160650D02*
X537900Y160650D01*
X537900Y161600D02*
X528900Y161600D01*
X528900Y162550D02*
X537900Y162550D01*
X537900Y163500D02*
X528900Y163500D01*
X528900Y164450D02*
X537900Y164450D01*
X537900Y165400D02*
X528900Y165400D01*
X528900Y148900D02*
X528900Y138900D01*
X528900Y148900D02*
X537900Y148900D01*
X537900Y138900D01*
X528900Y138900D01*
X528900Y139850D02*
X537900Y139850D01*
X537900Y140800D02*
X528900Y140800D01*
X528900Y141750D02*
X537900Y141750D01*
X537900Y142700D02*
X528900Y142700D01*
X528900Y143650D02*
X537900Y143650D01*
X537900Y144600D02*
X528900Y144600D01*
X528900Y145550D02*
X537900Y145550D01*
X537900Y146500D02*
X528900Y146500D01*
X528900Y147450D02*
X537900Y147450D01*
X537900Y148400D02*
X528900Y148400D01*
X27600Y121450D02*
X27600Y118450D01*
X24600Y118450D01*
X24600Y121450D01*
X27600Y121450D01*
X27600Y119400D02*
X24600Y119400D01*
X24600Y120350D02*
X27600Y120350D01*
X27600Y121300D02*
X24600Y121300D01*
X35600Y121450D02*
X35600Y118450D01*
X32600Y118450D01*
X32600Y121450D01*
X35600Y121450D01*
X35600Y119400D02*
X32600Y119400D01*
X32600Y120350D02*
X35600Y120350D01*
X35600Y121300D02*
X32600Y121300D01*
X51600Y121450D02*
X51600Y118450D01*
X48600Y118450D01*
X48600Y121450D01*
X51600Y121450D01*
X51600Y119400D02*
X48600Y119400D01*
X48600Y120350D02*
X51600Y120350D01*
X51600Y121300D02*
X48600Y121300D01*
X51600Y97450D02*
X51600Y94450D01*
X48600Y94450D01*
X48600Y97450D01*
X51600Y97450D01*
X51600Y95400D02*
X48600Y95400D01*
X48600Y96350D02*
X51600Y96350D01*
X51600Y97300D02*
X48600Y97300D01*
X35600Y97450D02*
X35600Y94450D01*
X32600Y94450D01*
X32600Y97450D01*
X35600Y97450D01*
X35600Y95400D02*
X32600Y95400D01*
X32600Y96350D02*
X35600Y96350D01*
X35600Y97300D02*
X32600Y97300D01*
X27600Y97450D02*
X27600Y94450D01*
X24600Y94450D01*
X24600Y97450D01*
X27600Y97450D01*
X27600Y95400D02*
X24600Y95400D01*
X24600Y96350D02*
X27600Y96350D01*
X27600Y97300D02*
X24600Y97300D01*
X43600Y97450D02*
X43600Y94450D01*
X40600Y94450D01*
X40600Y97450D01*
X43600Y97450D01*
X43600Y95400D02*
X40600Y95400D01*
X40600Y96350D02*
X43600Y96350D01*
X43600Y97300D02*
X40600Y97300D01*
X43600Y118450D02*
X43600Y121450D01*
X43600Y118450D02*
X40600Y118450D01*
X40600Y121450D01*
X43600Y121450D01*
X43600Y119400D02*
X40600Y119400D01*
X40600Y120350D02*
X43600Y120350D01*
X43600Y121300D02*
X40600Y121300D01*
X43650Y65350D02*
X53650Y65350D01*
X43650Y65350D02*
X43650Y74350D01*
X53650Y74350D01*
X53650Y65350D01*
X53650Y66300D02*
X43650Y66300D01*
X43650Y67250D02*
X53650Y67250D01*
X53650Y68200D02*
X43650Y68200D01*
X43650Y69150D02*
X53650Y69150D01*
X53650Y70100D02*
X43650Y70100D01*
X43650Y71050D02*
X53650Y71050D01*
X53650Y72000D02*
X43650Y72000D01*
X43650Y72950D02*
X53650Y72950D01*
X53650Y73900D02*
X43650Y73900D01*
X60650Y65350D02*
X70650Y65350D01*
X60650Y65350D02*
X60650Y74350D01*
X70650Y74350D01*
X70650Y65350D01*
X70650Y66300D02*
X60650Y66300D01*
X60650Y67250D02*
X70650Y67250D01*
X70650Y68200D02*
X60650Y68200D01*
X60650Y69150D02*
X70650Y69150D01*
X70650Y70100D02*
X60650Y70100D01*
X60650Y71050D02*
X70650Y71050D01*
X70650Y72000D02*
X60650Y72000D01*
X60650Y72950D02*
X70650Y72950D01*
X70650Y73900D02*
X60650Y73900D01*
X32550Y74350D02*
X22550Y74350D01*
X32550Y74350D02*
X32550Y65350D01*
X22550Y65350D01*
X22550Y74350D01*
X22550Y66300D02*
X32550Y66300D01*
X32550Y67250D02*
X22550Y67250D01*
X22550Y68200D02*
X32550Y68200D01*
X32550Y69150D02*
X22550Y69150D01*
X22550Y70100D02*
X32550Y70100D01*
X32550Y71050D02*
X22550Y71050D01*
X22550Y72000D02*
X32550Y72000D01*
X32550Y72950D02*
X22550Y72950D01*
X22550Y73900D02*
X32550Y73900D01*
X15550Y74350D02*
X5550Y74350D01*
X15550Y74350D02*
X15550Y65350D01*
X5550Y65350D01*
X5550Y74350D01*
X5550Y66300D02*
X15550Y66300D01*
X15550Y67250D02*
X5550Y67250D01*
X5550Y68200D02*
X15550Y68200D01*
X15550Y69150D02*
X5550Y69150D01*
X5550Y70100D02*
X15550Y70100D01*
X15550Y71050D02*
X5550Y71050D01*
X5550Y72000D02*
X15550Y72000D01*
X15550Y72950D02*
X5550Y72950D01*
X5550Y73900D02*
X15550Y73900D01*
X41600Y163250D02*
X51600Y163250D01*
X51600Y154250D01*
X41600Y154250D01*
X41600Y163250D01*
X41600Y155200D02*
X51600Y155200D01*
X51600Y156150D02*
X41600Y156150D01*
X41600Y157100D02*
X51600Y157100D01*
X51600Y158050D02*
X41600Y158050D01*
X41600Y159000D02*
X51600Y159000D01*
X51600Y159950D02*
X41600Y159950D01*
X41600Y160900D02*
X51600Y160900D01*
X51600Y161850D02*
X41600Y161850D01*
X41600Y162800D02*
X51600Y162800D01*
X34600Y163250D02*
X24600Y163250D01*
X34600Y163250D02*
X34600Y154250D01*
X24600Y154250D01*
X24600Y163250D01*
X24600Y155200D02*
X34600Y155200D01*
X34600Y156150D02*
X24600Y156150D01*
X24600Y157100D02*
X34600Y157100D01*
X34600Y158050D02*
X24600Y158050D01*
X24600Y159000D02*
X34600Y159000D01*
X34600Y159950D02*
X24600Y159950D01*
X24600Y160900D02*
X34600Y160900D01*
X34600Y161850D02*
X24600Y161850D01*
X24600Y162800D02*
X34600Y162800D01*
D19*
X302500Y209200D03*
X302500Y213200D03*
X302500Y205200D03*
X302500Y201200D03*
X302500Y197200D03*
X302500Y193200D03*
D20*
X307500Y188200D03*
X311500Y188200D03*
X315500Y188200D03*
X319500Y188200D03*
X323500Y188200D03*
X327500Y188200D03*
D19*
X332500Y193200D03*
X332500Y197200D03*
X332500Y205200D03*
X332500Y201200D03*
X332500Y209200D03*
X332500Y213200D03*
D20*
X327500Y218200D03*
X323500Y218200D03*
X319500Y218200D03*
X315500Y218200D03*
X311500Y218200D03*
X307500Y218200D03*
D21*
X309250Y247500D03*
X309250Y260500D03*
D22*
X325755Y247269D03*
X325755Y254000D03*
X325755Y260731D03*
D13*
X347400Y250500D02*
X347400Y240500D01*
X338400Y240500D01*
X338400Y250500D01*
X347400Y250500D01*
X347400Y241450D02*
X338400Y241450D01*
X338400Y242400D02*
X347400Y242400D01*
X347400Y243350D02*
X338400Y243350D01*
X338400Y244300D02*
X347400Y244300D01*
X347400Y245250D02*
X338400Y245250D01*
X338400Y246200D02*
X347400Y246200D01*
X347400Y247150D02*
X338400Y247150D01*
X338400Y248100D02*
X347400Y248100D01*
X347400Y249050D02*
X338400Y249050D01*
X338400Y250000D02*
X347400Y250000D01*
X347400Y257500D02*
X347400Y267500D01*
X347400Y257500D02*
X338400Y257500D01*
X338400Y267500D01*
X347400Y267500D01*
X347400Y258450D02*
X338400Y258450D01*
X338400Y259400D02*
X347400Y259400D01*
X347400Y260350D02*
X338400Y260350D01*
X338400Y261300D02*
X347400Y261300D01*
X347400Y262250D02*
X338400Y262250D01*
X338400Y263200D02*
X347400Y263200D01*
X347400Y264150D02*
X338400Y264150D01*
X338400Y265100D02*
X347400Y265100D01*
X347400Y266050D02*
X338400Y266050D01*
X338400Y267000D02*
X347400Y267000D01*
X296600Y250500D02*
X296600Y240500D01*
X287600Y240500D01*
X287600Y250500D01*
X296600Y250500D01*
X296600Y241450D02*
X287600Y241450D01*
X287600Y242400D02*
X296600Y242400D01*
X296600Y243350D02*
X287600Y243350D01*
X287600Y244300D02*
X296600Y244300D01*
X296600Y245250D02*
X287600Y245250D01*
X287600Y246200D02*
X296600Y246200D01*
X296600Y247150D02*
X287600Y247150D01*
X287600Y248100D02*
X296600Y248100D01*
X296600Y249050D02*
X287600Y249050D01*
X287600Y250000D02*
X296600Y250000D01*
X296600Y257500D02*
X296600Y267500D01*
X296600Y257500D02*
X287600Y257500D01*
X287600Y267500D01*
X296600Y267500D01*
X296600Y258450D02*
X287600Y258450D01*
X287600Y259400D02*
X296600Y259400D01*
X296600Y260350D02*
X287600Y260350D01*
X287600Y261300D02*
X296600Y261300D01*
X296600Y262250D02*
X287600Y262250D01*
X287600Y263200D02*
X296600Y263200D01*
X296600Y264150D02*
X287600Y264150D01*
X287600Y265100D02*
X296600Y265100D01*
X296600Y266050D02*
X287600Y266050D01*
X287600Y267000D02*
X296600Y267000D01*
X343480Y165900D02*
X343480Y155900D01*
X343480Y165900D02*
X352480Y165900D01*
X352480Y155900D01*
X343480Y155900D01*
X343480Y156850D02*
X352480Y156850D01*
X352480Y157800D02*
X343480Y157800D01*
X343480Y158750D02*
X352480Y158750D01*
X352480Y159700D02*
X343480Y159700D01*
X343480Y160650D02*
X352480Y160650D01*
X352480Y161600D02*
X343480Y161600D01*
X343480Y162550D02*
X352480Y162550D01*
X352480Y163500D02*
X343480Y163500D01*
X343480Y164450D02*
X352480Y164450D01*
X352480Y165400D02*
X343480Y165400D01*
X343480Y148900D02*
X343480Y138900D01*
X343480Y148900D02*
X352480Y148900D01*
X352480Y138900D01*
X343480Y138900D01*
X343480Y139850D02*
X352480Y139850D01*
X352480Y140800D02*
X343480Y140800D01*
X343480Y141750D02*
X352480Y141750D01*
X352480Y142700D02*
X343480Y142700D01*
X343480Y143650D02*
X352480Y143650D01*
X352480Y144600D02*
X343480Y144600D01*
X343480Y145550D02*
X352480Y145550D01*
X352480Y146500D02*
X343480Y146500D01*
X343480Y147450D02*
X352480Y147450D01*
X352480Y148400D02*
X343480Y148400D01*
X282520Y155900D02*
X282520Y165900D01*
X291520Y165900D01*
X291520Y155900D01*
X282520Y155900D01*
X282520Y156850D02*
X291520Y156850D01*
X291520Y157800D02*
X282520Y157800D01*
X282520Y158750D02*
X291520Y158750D01*
X291520Y159700D02*
X282520Y159700D01*
X282520Y160650D02*
X291520Y160650D01*
X291520Y161600D02*
X282520Y161600D01*
X282520Y162550D02*
X291520Y162550D01*
X291520Y163500D02*
X282520Y163500D01*
X282520Y164450D02*
X291520Y164450D01*
X291520Y165400D02*
X282520Y165400D01*
X282520Y148900D02*
X282520Y138900D01*
X282520Y148900D02*
X291520Y148900D01*
X291520Y138900D01*
X282520Y138900D01*
X282520Y139850D02*
X291520Y139850D01*
X291520Y140800D02*
X282520Y140800D01*
X282520Y141750D02*
X291520Y141750D01*
X291520Y142700D02*
X282520Y142700D01*
X282520Y143650D02*
X291520Y143650D01*
X291520Y144600D02*
X282520Y144600D01*
X282520Y145550D02*
X291520Y145550D01*
X291520Y146500D02*
X282520Y146500D01*
X282520Y147450D02*
X291520Y147450D01*
X291520Y148400D02*
X282520Y148400D01*
X323160Y155900D02*
X323160Y165900D01*
X332160Y165900D01*
X332160Y155900D01*
X323160Y155900D01*
X323160Y156850D02*
X332160Y156850D01*
X332160Y157800D02*
X323160Y157800D01*
X323160Y158750D02*
X332160Y158750D01*
X332160Y159700D02*
X323160Y159700D01*
X323160Y160650D02*
X332160Y160650D01*
X332160Y161600D02*
X323160Y161600D01*
X323160Y162550D02*
X332160Y162550D01*
X332160Y163500D02*
X323160Y163500D01*
X323160Y164450D02*
X332160Y164450D01*
X332160Y165400D02*
X323160Y165400D01*
X323160Y148900D02*
X323160Y138900D01*
X323160Y148900D02*
X332160Y148900D01*
X332160Y138900D01*
X323160Y138900D01*
X323160Y139850D02*
X332160Y139850D01*
X332160Y140800D02*
X323160Y140800D01*
X323160Y141750D02*
X332160Y141750D01*
X332160Y142700D02*
X323160Y142700D01*
X323160Y143650D02*
X332160Y143650D01*
X332160Y144600D02*
X323160Y144600D01*
X323160Y145550D02*
X332160Y145550D01*
X332160Y146500D02*
X323160Y146500D01*
X323160Y147450D02*
X332160Y147450D01*
X332160Y148400D02*
X323160Y148400D01*
X302840Y155900D02*
X302840Y165900D01*
X311840Y165900D01*
X311840Y155900D01*
X302840Y155900D01*
X302840Y156850D02*
X311840Y156850D01*
X311840Y157800D02*
X302840Y157800D01*
X302840Y158750D02*
X311840Y158750D01*
X311840Y159700D02*
X302840Y159700D01*
X302840Y160650D02*
X311840Y160650D01*
X311840Y161600D02*
X302840Y161600D01*
X302840Y162550D02*
X311840Y162550D01*
X311840Y163500D02*
X302840Y163500D01*
X302840Y164450D02*
X311840Y164450D01*
X311840Y165400D02*
X302840Y165400D01*
X302840Y148900D02*
X302840Y138900D01*
X302840Y148900D02*
X311840Y148900D01*
X311840Y138900D01*
X302840Y138900D01*
X302840Y139850D02*
X311840Y139850D01*
X311840Y140800D02*
X302840Y140800D01*
X302840Y141750D02*
X311840Y141750D01*
X311840Y142700D02*
X302840Y142700D01*
X302840Y143650D02*
X311840Y143650D01*
X311840Y144600D02*
X302840Y144600D01*
X302840Y145550D02*
X311840Y145550D01*
X311840Y146500D02*
X302840Y146500D01*
X302840Y147450D02*
X311840Y147450D01*
X311840Y148400D02*
X302840Y148400D01*
D23*
X273494Y216944D02*
X269906Y216944D01*
X273494Y216944D02*
X273494Y211456D01*
X269906Y211456D01*
X269906Y216944D01*
X269906Y212417D02*
X273494Y212417D01*
X273494Y213378D02*
X269906Y213378D01*
X269906Y214339D02*
X273494Y214339D01*
X273494Y215300D02*
X269906Y215300D01*
X269906Y216261D02*
X273494Y216261D01*
X263494Y216944D02*
X259906Y216944D01*
X263494Y216944D02*
X263494Y211456D01*
X259906Y211456D01*
X259906Y216944D01*
X259906Y212417D02*
X263494Y212417D01*
X263494Y213378D02*
X259906Y213378D01*
X259906Y214339D02*
X263494Y214339D01*
X263494Y215300D02*
X259906Y215300D01*
X259906Y216261D02*
X263494Y216261D01*
X264906Y205444D02*
X268494Y205444D01*
X268494Y199956D01*
X264906Y199956D01*
X264906Y205444D01*
X264906Y200917D02*
X268494Y200917D01*
X268494Y201878D02*
X264906Y201878D01*
X264906Y202839D02*
X268494Y202839D01*
X268494Y203800D02*
X264906Y203800D01*
X264906Y204761D02*
X268494Y204761D01*
D13*
X263200Y224100D02*
X253200Y224100D01*
X253200Y233100D01*
X263200Y233100D01*
X263200Y224100D01*
X263200Y225050D02*
X253200Y225050D01*
X253200Y226000D02*
X263200Y226000D01*
X263200Y226950D02*
X253200Y226950D01*
X253200Y227900D02*
X263200Y227900D01*
X263200Y228850D02*
X253200Y228850D01*
X253200Y229800D02*
X263200Y229800D01*
X263200Y230750D02*
X253200Y230750D01*
X253200Y231700D02*
X263200Y231700D01*
X263200Y232650D02*
X253200Y232650D01*
X270200Y224100D02*
X280200Y224100D01*
X270200Y224100D02*
X270200Y233100D01*
X280200Y233100D01*
X280200Y224100D01*
X280200Y225050D02*
X270200Y225050D01*
X270200Y226000D02*
X280200Y226000D01*
X280200Y226950D02*
X270200Y226950D01*
X270200Y227900D02*
X280200Y227900D01*
X280200Y228850D02*
X270200Y228850D01*
X270200Y229800D02*
X280200Y229800D01*
X280200Y230750D02*
X270200Y230750D01*
X270200Y231700D02*
X280200Y231700D01*
X280200Y232650D02*
X270200Y232650D01*
D23*
X269906Y178844D02*
X273494Y178844D01*
X273494Y173356D01*
X269906Y173356D01*
X269906Y178844D01*
X269906Y174317D02*
X273494Y174317D01*
X273494Y175278D02*
X269906Y175278D01*
X269906Y176239D02*
X273494Y176239D01*
X273494Y177200D02*
X269906Y177200D01*
X269906Y178161D02*
X273494Y178161D01*
X263494Y178844D02*
X259906Y178844D01*
X263494Y178844D02*
X263494Y173356D01*
X259906Y173356D01*
X259906Y178844D01*
X259906Y174317D02*
X263494Y174317D01*
X263494Y175278D02*
X259906Y175278D01*
X259906Y176239D02*
X263494Y176239D01*
X263494Y177200D02*
X259906Y177200D01*
X259906Y178161D02*
X263494Y178161D01*
X264906Y167344D02*
X268494Y167344D01*
X268494Y161856D01*
X264906Y161856D01*
X264906Y167344D01*
X264906Y162817D02*
X268494Y162817D01*
X268494Y163778D02*
X264906Y163778D01*
X264906Y164739D02*
X268494Y164739D01*
X268494Y165700D02*
X264906Y165700D01*
X264906Y166661D02*
X268494Y166661D01*
D13*
X263200Y186000D02*
X253200Y186000D01*
X253200Y195000D01*
X263200Y195000D01*
X263200Y186000D01*
X263200Y186950D02*
X253200Y186950D01*
X253200Y187900D02*
X263200Y187900D01*
X263200Y188850D02*
X253200Y188850D01*
X253200Y189800D02*
X263200Y189800D01*
X263200Y190750D02*
X253200Y190750D01*
X253200Y191700D02*
X263200Y191700D01*
X263200Y192650D02*
X253200Y192650D01*
X253200Y193600D02*
X263200Y193600D01*
X263200Y194550D02*
X253200Y194550D01*
X270200Y186000D02*
X280200Y186000D01*
X270200Y186000D02*
X270200Y195000D01*
X280200Y195000D01*
X280200Y186000D01*
X280200Y186950D02*
X270200Y186950D01*
X270200Y187900D02*
X280200Y187900D01*
X280200Y188850D02*
X270200Y188850D01*
X270200Y189800D02*
X280200Y189800D01*
X280200Y190750D02*
X270200Y190750D01*
X270200Y191700D02*
X280200Y191700D01*
X280200Y192650D02*
X270200Y192650D01*
X270200Y193600D02*
X280200Y193600D01*
X280200Y194550D02*
X270200Y194550D01*
D23*
X361506Y164056D02*
X365094Y164056D01*
X361506Y164056D02*
X361506Y169544D01*
X365094Y169544D01*
X365094Y164056D01*
X365094Y165017D02*
X361506Y165017D01*
X361506Y165978D02*
X365094Y165978D01*
X365094Y166939D02*
X361506Y166939D01*
X361506Y167900D02*
X365094Y167900D01*
X365094Y168861D02*
X361506Y168861D01*
X371506Y164056D02*
X375094Y164056D01*
X371506Y164056D02*
X371506Y169544D01*
X375094Y169544D01*
X375094Y164056D01*
X375094Y165017D02*
X371506Y165017D01*
X371506Y165978D02*
X375094Y165978D01*
X375094Y166939D02*
X371506Y166939D01*
X371506Y167900D02*
X375094Y167900D01*
X375094Y168861D02*
X371506Y168861D01*
X370094Y175556D02*
X366506Y175556D01*
X366506Y181044D01*
X370094Y181044D01*
X370094Y175556D01*
X370094Y176517D02*
X366506Y176517D01*
X366506Y177478D02*
X370094Y177478D01*
X370094Y178439D02*
X366506Y178439D01*
X366506Y179400D02*
X370094Y179400D01*
X370094Y180361D02*
X366506Y180361D01*
D13*
X364800Y211400D02*
X354800Y211400D01*
X354800Y220400D01*
X364800Y220400D01*
X364800Y211400D01*
X364800Y212350D02*
X354800Y212350D01*
X354800Y213300D02*
X364800Y213300D01*
X364800Y214250D02*
X354800Y214250D01*
X354800Y215200D02*
X364800Y215200D01*
X364800Y216150D02*
X354800Y216150D01*
X354800Y217100D02*
X364800Y217100D01*
X364800Y218050D02*
X354800Y218050D01*
X354800Y219000D02*
X364800Y219000D01*
X364800Y219950D02*
X354800Y219950D01*
X371800Y211400D02*
X381800Y211400D01*
X371800Y211400D02*
X371800Y220400D01*
X381800Y220400D01*
X381800Y211400D01*
X381800Y212350D02*
X371800Y212350D01*
X371800Y213300D02*
X381800Y213300D01*
X381800Y214250D02*
X371800Y214250D01*
X371800Y215200D02*
X381800Y215200D01*
X381800Y216150D02*
X371800Y216150D01*
X371800Y217100D02*
X381800Y217100D01*
X381800Y218050D02*
X371800Y218050D01*
X371800Y219000D02*
X381800Y219000D01*
X381800Y219950D02*
X371800Y219950D01*
X371800Y195000D02*
X381800Y195000D01*
X381800Y186000D01*
X371800Y186000D01*
X371800Y195000D01*
X371800Y186950D02*
X381800Y186950D01*
X381800Y187900D02*
X371800Y187900D01*
X371800Y188850D02*
X381800Y188850D01*
X381800Y189800D02*
X371800Y189800D01*
X371800Y190750D02*
X381800Y190750D01*
X381800Y191700D02*
X371800Y191700D01*
X371800Y192650D02*
X381800Y192650D01*
X381800Y193600D02*
X371800Y193600D01*
X371800Y194550D02*
X381800Y194550D01*
X364800Y195000D02*
X354800Y195000D01*
X364800Y195000D02*
X364800Y186000D01*
X354800Y186000D01*
X354800Y195000D01*
X354800Y186950D02*
X364800Y186950D01*
X364800Y187900D02*
X354800Y187900D01*
X354800Y188850D02*
X364800Y188850D01*
X364800Y189800D02*
X354800Y189800D01*
X354800Y190750D02*
X364800Y190750D01*
X364800Y191700D02*
X354800Y191700D01*
X354800Y192650D02*
X364800Y192650D01*
X364800Y193600D02*
X354800Y193600D01*
X354800Y194550D02*
X364800Y194550D01*
D12*
X541490Y473760D02*
X541490Y478740D01*
X541490Y473760D02*
X530510Y473760D01*
X530510Y478740D01*
X541490Y478740D01*
X541490Y474729D02*
X530510Y474729D01*
X530510Y475698D02*
X541490Y475698D01*
X541490Y476667D02*
X530510Y476667D01*
X530510Y477636D02*
X541490Y477636D01*
X541490Y478605D02*
X530510Y478605D01*
X541490Y486460D02*
X541490Y491440D01*
X541490Y486460D02*
X530510Y486460D01*
X530510Y491440D01*
X541490Y491440D01*
X541490Y487429D02*
X530510Y487429D01*
X530510Y488398D02*
X541490Y488398D01*
X541490Y489367D02*
X530510Y489367D01*
X530510Y490336D02*
X541490Y490336D01*
X541490Y491305D02*
X530510Y491305D01*
X541490Y499160D02*
X541490Y504140D01*
X541490Y499160D02*
X530510Y499160D01*
X530510Y504140D01*
X541490Y504140D01*
X541490Y500129D02*
X530510Y500129D01*
X530510Y501098D02*
X541490Y501098D01*
X541490Y502067D02*
X530510Y502067D01*
X530510Y503036D02*
X541490Y503036D01*
X541490Y504005D02*
X530510Y504005D01*
X541490Y511860D02*
X541490Y516840D01*
X541490Y511860D02*
X530510Y511860D01*
X530510Y516840D01*
X541490Y516840D01*
X541490Y512829D02*
X530510Y512829D01*
X530510Y513798D02*
X541490Y513798D01*
X541490Y514767D02*
X530510Y514767D01*
X530510Y515736D02*
X541490Y515736D01*
X541490Y516705D02*
X530510Y516705D01*
X541490Y524560D02*
X541490Y529540D01*
X541490Y524560D02*
X530510Y524560D01*
X530510Y529540D01*
X541490Y529540D01*
X541490Y525529D02*
X530510Y525529D01*
X530510Y526498D02*
X541490Y526498D01*
X541490Y527467D02*
X530510Y527467D01*
X530510Y528436D02*
X541490Y528436D01*
X541490Y529405D02*
X530510Y529405D01*
X541490Y537260D02*
X541490Y542240D01*
X541490Y537260D02*
X530510Y537260D01*
X530510Y542240D01*
X541490Y542240D01*
X541490Y538229D02*
X530510Y538229D01*
X530510Y539198D02*
X541490Y539198D01*
X541490Y540167D02*
X530510Y540167D01*
X530510Y541136D02*
X541490Y541136D01*
X541490Y542105D02*
X530510Y542105D01*
X541490Y549960D02*
X541490Y554940D01*
X541490Y549960D02*
X530510Y549960D01*
X530510Y554940D01*
X541490Y554940D01*
X541490Y550929D02*
X530510Y550929D01*
X530510Y551898D02*
X541490Y551898D01*
X541490Y552867D02*
X530510Y552867D01*
X530510Y553836D02*
X541490Y553836D01*
X541490Y554805D02*
X530510Y554805D01*
X541490Y562660D02*
X541490Y567640D01*
X541490Y562660D02*
X530510Y562660D01*
X530510Y567640D01*
X541490Y567640D01*
X541490Y563629D02*
X530510Y563629D01*
X530510Y564598D02*
X541490Y564598D01*
X541490Y565567D02*
X530510Y565567D01*
X530510Y566536D02*
X541490Y566536D01*
X541490Y567505D02*
X530510Y567505D01*
X485490Y567640D02*
X485490Y562660D01*
X474510Y562660D01*
X474510Y567640D01*
X485490Y567640D01*
X485490Y563629D02*
X474510Y563629D01*
X474510Y564598D02*
X485490Y564598D01*
X485490Y565567D02*
X474510Y565567D01*
X474510Y566536D02*
X485490Y566536D01*
X485490Y567505D02*
X474510Y567505D01*
X485490Y554940D02*
X485490Y549960D01*
X474510Y549960D01*
X474510Y554940D01*
X485490Y554940D01*
X485490Y550929D02*
X474510Y550929D01*
X474510Y551898D02*
X485490Y551898D01*
X485490Y552867D02*
X474510Y552867D01*
X474510Y553836D02*
X485490Y553836D01*
X485490Y554805D02*
X474510Y554805D01*
X485490Y542240D02*
X485490Y537260D01*
X474510Y537260D01*
X474510Y542240D01*
X485490Y542240D01*
X485490Y538229D02*
X474510Y538229D01*
X474510Y539198D02*
X485490Y539198D01*
X485490Y540167D02*
X474510Y540167D01*
X474510Y541136D02*
X485490Y541136D01*
X485490Y542105D02*
X474510Y542105D01*
X485490Y529540D02*
X485490Y524560D01*
X474510Y524560D01*
X474510Y529540D01*
X485490Y529540D01*
X485490Y525529D02*
X474510Y525529D01*
X474510Y526498D02*
X485490Y526498D01*
X485490Y527467D02*
X474510Y527467D01*
X474510Y528436D02*
X485490Y528436D01*
X485490Y529405D02*
X474510Y529405D01*
X485490Y516840D02*
X485490Y511860D01*
X474510Y511860D01*
X474510Y516840D01*
X485490Y516840D01*
X485490Y512829D02*
X474510Y512829D01*
X474510Y513798D02*
X485490Y513798D01*
X485490Y514767D02*
X474510Y514767D01*
X474510Y515736D02*
X485490Y515736D01*
X485490Y516705D02*
X474510Y516705D01*
X485490Y504140D02*
X485490Y499160D01*
X474510Y499160D01*
X474510Y504140D01*
X485490Y504140D01*
X485490Y500129D02*
X474510Y500129D01*
X474510Y501098D02*
X485490Y501098D01*
X485490Y502067D02*
X474510Y502067D01*
X474510Y503036D02*
X485490Y503036D01*
X485490Y504005D02*
X474510Y504005D01*
X485490Y491440D02*
X485490Y486460D01*
X474510Y486460D01*
X474510Y491440D01*
X485490Y491440D01*
X485490Y487429D02*
X474510Y487429D01*
X474510Y488398D02*
X485490Y488398D01*
X485490Y489367D02*
X474510Y489367D01*
X474510Y490336D02*
X485490Y490336D01*
X485490Y491305D02*
X474510Y491305D01*
X485490Y478740D02*
X485490Y473760D01*
X474510Y473760D01*
X474510Y478740D01*
X485490Y478740D01*
X485490Y474729D02*
X474510Y474729D01*
X474510Y475698D02*
X485490Y475698D01*
X485490Y476667D02*
X474510Y476667D01*
X474510Y477636D02*
X485490Y477636D01*
X485490Y478605D02*
X474510Y478605D01*
D13*
X464350Y480750D02*
X454350Y480750D01*
X464350Y480750D02*
X464350Y471750D01*
X454350Y471750D01*
X454350Y480750D01*
X454350Y472700D02*
X464350Y472700D01*
X464350Y473650D02*
X454350Y473650D01*
X454350Y474600D02*
X464350Y474600D01*
X464350Y475550D02*
X454350Y475550D01*
X454350Y476500D02*
X464350Y476500D01*
X464350Y477450D02*
X454350Y477450D01*
X454350Y478400D02*
X464350Y478400D01*
X464350Y479350D02*
X454350Y479350D01*
X454350Y480300D02*
X464350Y480300D01*
X447350Y480750D02*
X437350Y480750D01*
X447350Y480750D02*
X447350Y471750D01*
X437350Y471750D01*
X437350Y480750D01*
X437350Y472700D02*
X447350Y472700D01*
X447350Y473650D02*
X437350Y473650D01*
X437350Y474600D02*
X447350Y474600D01*
X447350Y475550D02*
X437350Y475550D01*
X437350Y476500D02*
X447350Y476500D01*
X447350Y477450D02*
X437350Y477450D01*
X437350Y478400D02*
X447350Y478400D01*
X447350Y479350D02*
X437350Y479350D01*
X437350Y480300D02*
X447350Y480300D01*
D12*
X310990Y333165D02*
X310990Y329385D01*
X309010Y329385D01*
X309010Y333165D01*
X310990Y333165D01*
X310990Y330354D02*
X309010Y330354D01*
X309010Y331323D02*
X310990Y331323D01*
X310990Y332292D02*
X309010Y332292D01*
X315990Y333165D02*
X315990Y329385D01*
X314010Y329385D01*
X314010Y333165D01*
X315990Y333165D01*
X315990Y330354D02*
X314010Y330354D01*
X314010Y331323D02*
X315990Y331323D01*
X315990Y332292D02*
X314010Y332292D01*
X320990Y333165D02*
X320990Y329385D01*
X319010Y329385D01*
X319010Y333165D01*
X320990Y333165D01*
X320990Y330354D02*
X319010Y330354D01*
X319010Y331323D02*
X320990Y331323D01*
X320990Y332292D02*
X319010Y332292D01*
X325990Y333165D02*
X325990Y329385D01*
X324010Y329385D01*
X324010Y333165D01*
X325990Y333165D01*
X325990Y330354D02*
X324010Y330354D01*
X324010Y331323D02*
X325990Y331323D01*
X325990Y332292D02*
X324010Y332292D01*
X324010Y352635D02*
X324010Y356415D01*
X325990Y356415D01*
X325990Y352635D01*
X324010Y352635D01*
X324010Y353604D02*
X325990Y353604D01*
X325990Y354573D02*
X324010Y354573D01*
X324010Y355542D02*
X325990Y355542D01*
X319010Y356415D02*
X319010Y352635D01*
X319010Y356415D02*
X320990Y356415D01*
X320990Y352635D01*
X319010Y352635D01*
X319010Y353604D02*
X320990Y353604D01*
X320990Y354573D02*
X319010Y354573D01*
X319010Y355542D02*
X320990Y355542D01*
X314010Y356415D02*
X314010Y352635D01*
X314010Y356415D02*
X315990Y356415D01*
X315990Y352635D01*
X314010Y352635D01*
X314010Y353604D02*
X315990Y353604D01*
X315990Y354573D02*
X314010Y354573D01*
X314010Y355542D02*
X315990Y355542D01*
X309010Y356415D02*
X309010Y352635D01*
X309010Y356415D02*
X310990Y356415D01*
X310990Y352635D01*
X309010Y352635D01*
X309010Y353604D02*
X310990Y353604D01*
X310990Y354573D02*
X309010Y354573D01*
X309010Y355542D02*
X310990Y355542D01*
X329390Y338890D02*
X329390Y336910D01*
X325610Y336910D01*
X325610Y338890D01*
X329390Y338890D01*
X329390Y337879D02*
X325610Y337879D01*
X325610Y338848D02*
X329390Y338848D01*
X329390Y341910D02*
X329390Y343890D01*
X329390Y341910D02*
X325610Y341910D01*
X325610Y343890D01*
X329390Y343890D01*
X329390Y342879D02*
X325610Y342879D01*
X325610Y343848D02*
X329390Y343848D01*
X329390Y346910D02*
X329390Y348890D01*
X329390Y346910D02*
X325610Y346910D01*
X325610Y348890D01*
X329390Y348890D01*
X329390Y347879D02*
X325610Y347879D01*
X325610Y348848D02*
X329390Y348848D01*
X305610Y348890D02*
X305610Y346910D01*
X305610Y348890D02*
X309390Y348890D01*
X309390Y346910D01*
X305610Y346910D01*
X305610Y347879D02*
X309390Y347879D01*
X309390Y348848D02*
X305610Y348848D01*
X305610Y343890D02*
X305610Y341910D01*
X305610Y343890D02*
X309390Y343890D01*
X309390Y341910D01*
X305610Y341910D01*
X305610Y342879D02*
X309390Y342879D01*
X309390Y343848D02*
X305610Y343848D01*
X305610Y338890D02*
X305610Y336910D01*
X305610Y338890D02*
X309390Y338890D01*
X309390Y336910D01*
X305610Y336910D01*
X305610Y337879D02*
X309390Y337879D01*
X309390Y338848D02*
X305610Y338848D01*
D24*
X305645Y300015D02*
X299395Y300015D01*
X305645Y300015D02*
X305645Y299265D01*
X299395Y299265D01*
X299395Y300015D01*
X299395Y295015D02*
X305645Y295015D01*
X305645Y294265D01*
X299395Y294265D01*
X299395Y295015D01*
X299395Y290015D02*
X305645Y290015D01*
X305645Y289265D01*
X299395Y289265D01*
X299395Y290015D01*
X299395Y285015D02*
X305645Y285015D01*
X305645Y284265D01*
X299395Y284265D01*
X299395Y285015D01*
X310415Y280145D02*
X310415Y273895D01*
X309665Y273895D01*
X309665Y280145D01*
X310415Y280145D01*
X310415Y276032D02*
X309665Y276032D01*
X309665Y278169D02*
X310415Y278169D01*
X315415Y280145D02*
X315415Y273895D01*
X314665Y273895D01*
X314665Y280145D01*
X315415Y280145D01*
X315415Y276032D02*
X314665Y276032D01*
X314665Y278169D02*
X315415Y278169D01*
X320415Y280145D02*
X320415Y273895D01*
X319665Y273895D01*
X319665Y280145D01*
X320415Y280145D01*
X320415Y276032D02*
X319665Y276032D01*
X319665Y278169D02*
X320415Y278169D01*
X325415Y280145D02*
X325415Y273895D01*
X324665Y273895D01*
X324665Y280145D01*
X325415Y280145D01*
X325415Y276032D02*
X324665Y276032D01*
X324665Y278169D02*
X325415Y278169D01*
X329435Y284265D02*
X335685Y284265D01*
X329435Y284265D02*
X329435Y285015D01*
X335685Y285015D01*
X335685Y284265D01*
X335685Y289265D02*
X329435Y289265D01*
X329435Y290015D01*
X335685Y290015D01*
X335685Y289265D01*
X335685Y294265D02*
X329435Y294265D01*
X329435Y295015D01*
X335685Y295015D01*
X335685Y294265D01*
X335685Y299265D02*
X329435Y299265D01*
X329435Y300015D01*
X335685Y300015D01*
X335685Y299265D01*
X324765Y303935D02*
X324765Y310185D01*
X325515Y310185D01*
X325515Y303935D01*
X324765Y303935D01*
X324765Y306072D02*
X325515Y306072D01*
X325515Y308209D02*
X324765Y308209D01*
X319765Y310185D02*
X319765Y303935D01*
X319765Y310185D02*
X320515Y310185D01*
X320515Y303935D01*
X319765Y303935D01*
X319765Y306072D02*
X320515Y306072D01*
X320515Y308209D02*
X319765Y308209D01*
X314765Y310185D02*
X314765Y303935D01*
X314765Y310185D02*
X315515Y310185D01*
X315515Y303935D01*
X314765Y303935D01*
X314765Y306072D02*
X315515Y306072D01*
X315515Y308209D02*
X314765Y308209D01*
X309765Y310185D02*
X309765Y303935D01*
X309765Y310185D02*
X310515Y310185D01*
X310515Y303935D01*
X309765Y303935D01*
X309765Y306072D02*
X310515Y306072D01*
X310515Y308209D02*
X309765Y308209D01*
D13*
X342100Y351100D02*
X352100Y351100D01*
X342100Y351100D02*
X342100Y360100D01*
X352100Y360100D01*
X352100Y351100D01*
X352100Y352050D02*
X342100Y352050D01*
X342100Y353000D02*
X352100Y353000D01*
X352100Y353950D02*
X342100Y353950D01*
X342100Y354900D02*
X352100Y354900D01*
X352100Y355850D02*
X342100Y355850D01*
X342100Y356800D02*
X352100Y356800D01*
X352100Y357750D02*
X342100Y357750D01*
X342100Y358700D02*
X352100Y358700D01*
X352100Y359650D02*
X342100Y359650D01*
X359100Y351100D02*
X369100Y351100D01*
X359100Y351100D02*
X359100Y360100D01*
X369100Y360100D01*
X369100Y351100D01*
X369100Y352050D02*
X359100Y352050D01*
X359100Y353000D02*
X369100Y353000D01*
X369100Y353950D02*
X359100Y353950D01*
X359100Y354900D02*
X369100Y354900D01*
X369100Y355850D02*
X359100Y355850D01*
X359100Y356800D02*
X369100Y356800D01*
X369100Y357750D02*
X359100Y357750D01*
X359100Y358700D02*
X369100Y358700D01*
X369100Y359650D02*
X359100Y359650D01*
X352100Y325700D02*
X342100Y325700D01*
X342100Y334700D01*
X352100Y334700D01*
X352100Y325700D01*
X352100Y326650D02*
X342100Y326650D01*
X342100Y327600D02*
X352100Y327600D01*
X352100Y328550D02*
X342100Y328550D01*
X342100Y329500D02*
X352100Y329500D01*
X352100Y330450D02*
X342100Y330450D01*
X342100Y331400D02*
X352100Y331400D01*
X352100Y332350D02*
X342100Y332350D01*
X342100Y333300D02*
X352100Y333300D01*
X352100Y334250D02*
X342100Y334250D01*
X359100Y325700D02*
X369100Y325700D01*
X359100Y325700D02*
X359100Y334700D01*
X369100Y334700D01*
X369100Y325700D01*
X369100Y326650D02*
X359100Y326650D01*
X359100Y327600D02*
X369100Y327600D01*
X369100Y328550D02*
X359100Y328550D01*
X359100Y329500D02*
X369100Y329500D01*
X369100Y330450D02*
X359100Y330450D01*
X359100Y331400D02*
X369100Y331400D01*
X369100Y332350D02*
X359100Y332350D01*
X359100Y333300D02*
X369100Y333300D01*
X369100Y334250D02*
X359100Y334250D01*
X290250Y288600D02*
X290250Y278600D01*
X281250Y278600D01*
X281250Y288600D01*
X290250Y288600D01*
X290250Y279550D02*
X281250Y279550D01*
X281250Y280500D02*
X290250Y280500D01*
X290250Y281450D02*
X281250Y281450D01*
X281250Y282400D02*
X290250Y282400D01*
X290250Y283350D02*
X281250Y283350D01*
X281250Y284300D02*
X290250Y284300D01*
X290250Y285250D02*
X281250Y285250D01*
X281250Y286200D02*
X290250Y286200D01*
X290250Y287150D02*
X281250Y287150D01*
X281250Y288100D02*
X290250Y288100D01*
X290250Y295600D02*
X290250Y305600D01*
X290250Y295600D02*
X281250Y295600D01*
X281250Y305600D01*
X290250Y305600D01*
X290250Y296550D02*
X281250Y296550D01*
X281250Y297500D02*
X290250Y297500D01*
X290250Y298450D02*
X281250Y298450D01*
X281250Y299400D02*
X290250Y299400D01*
X290250Y300350D02*
X281250Y300350D01*
X281250Y301300D02*
X290250Y301300D01*
X290250Y302250D02*
X281250Y302250D01*
X281250Y303200D02*
X290250Y303200D01*
X290250Y304150D02*
X281250Y304150D01*
X281250Y305100D02*
X290250Y305100D01*
X353750Y288600D02*
X353750Y278600D01*
X344750Y278600D01*
X344750Y288600D01*
X353750Y288600D01*
X353750Y279550D02*
X344750Y279550D01*
X344750Y280500D02*
X353750Y280500D01*
X353750Y281450D02*
X344750Y281450D01*
X344750Y282400D02*
X353750Y282400D01*
X353750Y283350D02*
X344750Y283350D01*
X344750Y284300D02*
X353750Y284300D01*
X353750Y285250D02*
X344750Y285250D01*
X344750Y286200D02*
X353750Y286200D01*
X353750Y287150D02*
X344750Y287150D01*
X344750Y288100D02*
X353750Y288100D01*
X353750Y295600D02*
X353750Y305600D01*
X353750Y295600D02*
X344750Y295600D01*
X344750Y305600D01*
X353750Y305600D01*
X353750Y296550D02*
X344750Y296550D01*
X344750Y297500D02*
X353750Y297500D01*
X353750Y298450D02*
X344750Y298450D01*
X344750Y299400D02*
X353750Y299400D01*
X353750Y300350D02*
X344750Y300350D01*
X344750Y301300D02*
X353750Y301300D01*
X353750Y302250D02*
X344750Y302250D01*
X344750Y303200D02*
X353750Y303200D01*
X353750Y304150D02*
X344750Y304150D01*
X344750Y305100D02*
X353750Y305100D01*
X277550Y329400D02*
X277550Y339400D01*
X277550Y329400D02*
X268550Y329400D01*
X268550Y339400D01*
X277550Y339400D01*
X277550Y330350D02*
X268550Y330350D01*
X268550Y331300D02*
X277550Y331300D01*
X277550Y332250D02*
X268550Y332250D01*
X268550Y333200D02*
X277550Y333200D01*
X277550Y334150D02*
X268550Y334150D01*
X268550Y335100D02*
X277550Y335100D01*
X277550Y336050D02*
X268550Y336050D01*
X268550Y337000D02*
X277550Y337000D01*
X277550Y337950D02*
X268550Y337950D01*
X268550Y338900D02*
X277550Y338900D01*
X277550Y346400D02*
X277550Y356400D01*
X277550Y346400D02*
X268550Y346400D01*
X268550Y356400D01*
X277550Y356400D01*
X277550Y347350D02*
X268550Y347350D01*
X268550Y348300D02*
X277550Y348300D01*
X277550Y349250D02*
X268550Y349250D01*
X268550Y350200D02*
X277550Y350200D01*
X277550Y351150D02*
X268550Y351150D01*
X268550Y352100D02*
X277550Y352100D01*
X277550Y353050D02*
X268550Y353050D01*
X268550Y354000D02*
X277550Y354000D01*
X277550Y354950D02*
X268550Y354950D01*
X268550Y355900D02*
X277550Y355900D01*
D25*
X188810Y518810D02*
X172390Y518810D01*
X188810Y518810D02*
X188810Y506390D01*
X172390Y506390D01*
X172390Y518810D01*
X172390Y507416D02*
X188810Y507416D01*
X188810Y508442D02*
X172390Y508442D01*
X172390Y509468D02*
X188810Y509468D01*
X188810Y510494D02*
X172390Y510494D01*
X172390Y511520D02*
X188810Y511520D01*
X188810Y512546D02*
X172390Y512546D01*
X172390Y513572D02*
X188810Y513572D01*
X188810Y514598D02*
X172390Y514598D01*
X172390Y515624D02*
X188810Y515624D01*
X188810Y516650D02*
X172390Y516650D01*
X172390Y517676D02*
X188810Y517676D01*
X188810Y518702D02*
X172390Y518702D01*
X30810Y478810D02*
X14390Y478810D01*
X30810Y478810D02*
X30810Y466390D01*
X14390Y466390D01*
X14390Y478810D01*
X14390Y467416D02*
X30810Y467416D01*
X30810Y468442D02*
X14390Y468442D01*
X14390Y469468D02*
X30810Y469468D01*
X30810Y470494D02*
X14390Y470494D01*
X14390Y471520D02*
X30810Y471520D01*
X30810Y472546D02*
X14390Y472546D01*
X14390Y473572D02*
X30810Y473572D01*
X30810Y474598D02*
X14390Y474598D01*
X14390Y475624D02*
X30810Y475624D01*
X30810Y476650D02*
X14390Y476650D01*
X14390Y477676D02*
X30810Y477676D01*
X30810Y478702D02*
X14390Y478702D01*
X14390Y558810D02*
X30810Y558810D01*
X30810Y546390D01*
X14390Y546390D01*
X14390Y558810D01*
X14390Y547416D02*
X30810Y547416D01*
X30810Y548442D02*
X14390Y548442D01*
X14390Y549468D02*
X30810Y549468D01*
X30810Y550494D02*
X14390Y550494D01*
X14390Y551520D02*
X30810Y551520D01*
X30810Y552546D02*
X14390Y552546D01*
X14390Y553572D02*
X30810Y553572D01*
X30810Y554598D02*
X14390Y554598D01*
X14390Y555624D02*
X30810Y555624D01*
X30810Y556650D02*
X14390Y556650D01*
X14390Y557676D02*
X30810Y557676D01*
X30810Y558702D02*
X14390Y558702D01*
X14390Y458810D02*
X30810Y458810D01*
X30810Y446390D01*
X14390Y446390D01*
X14390Y458810D01*
X14390Y447416D02*
X30810Y447416D01*
X30810Y448442D02*
X14390Y448442D01*
X14390Y449468D02*
X30810Y449468D01*
X30810Y450494D02*
X14390Y450494D01*
X14390Y451520D02*
X30810Y451520D01*
X30810Y452546D02*
X14390Y452546D01*
X14390Y453572D02*
X30810Y453572D01*
X30810Y454598D02*
X14390Y454598D01*
X14390Y455624D02*
X30810Y455624D01*
X30810Y456650D02*
X14390Y456650D01*
X14390Y457676D02*
X30810Y457676D01*
X30810Y458702D02*
X14390Y458702D01*
X14390Y438810D02*
X30810Y438810D01*
X30810Y426390D01*
X14390Y426390D01*
X14390Y438810D01*
X14390Y427416D02*
X30810Y427416D01*
X30810Y428442D02*
X14390Y428442D01*
X14390Y429468D02*
X30810Y429468D01*
X30810Y430494D02*
X14390Y430494D01*
X14390Y431520D02*
X30810Y431520D01*
X30810Y432546D02*
X14390Y432546D01*
X14390Y433572D02*
X30810Y433572D01*
X30810Y434598D02*
X14390Y434598D01*
X14390Y435624D02*
X30810Y435624D01*
X30810Y436650D02*
X14390Y436650D01*
X14390Y437676D02*
X30810Y437676D01*
X30810Y438702D02*
X14390Y438702D01*
X14390Y418810D02*
X30810Y418810D01*
X30810Y406390D01*
X14390Y406390D01*
X14390Y418810D01*
X14390Y407416D02*
X30810Y407416D01*
X30810Y408442D02*
X14390Y408442D01*
X14390Y409468D02*
X30810Y409468D01*
X30810Y410494D02*
X14390Y410494D01*
X14390Y411520D02*
X30810Y411520D01*
X30810Y412546D02*
X14390Y412546D01*
X14390Y413572D02*
X30810Y413572D01*
X30810Y414598D02*
X14390Y414598D01*
X14390Y415624D02*
X30810Y415624D01*
X30810Y416650D02*
X14390Y416650D01*
X14390Y417676D02*
X30810Y417676D01*
X30810Y418702D02*
X14390Y418702D01*
X14390Y518810D02*
X30810Y518810D01*
X30810Y506390D01*
X14390Y506390D01*
X14390Y518810D01*
X14390Y507416D02*
X30810Y507416D01*
X30810Y508442D02*
X14390Y508442D01*
X14390Y509468D02*
X30810Y509468D01*
X30810Y510494D02*
X14390Y510494D01*
X14390Y511520D02*
X30810Y511520D01*
X30810Y512546D02*
X14390Y512546D01*
X14390Y513572D02*
X30810Y513572D01*
X30810Y514598D02*
X14390Y514598D01*
X14390Y515624D02*
X30810Y515624D01*
X30810Y516650D02*
X14390Y516650D01*
X14390Y517676D02*
X30810Y517676D01*
X30810Y518702D02*
X14390Y518702D01*
X14390Y498810D02*
X30810Y498810D01*
X30810Y486390D01*
X14390Y486390D01*
X14390Y498810D01*
X14390Y487416D02*
X30810Y487416D01*
X30810Y488442D02*
X14390Y488442D01*
X14390Y489468D02*
X30810Y489468D01*
X30810Y490494D02*
X14390Y490494D01*
X14390Y491520D02*
X30810Y491520D01*
X30810Y492546D02*
X14390Y492546D01*
X14390Y493572D02*
X30810Y493572D01*
X30810Y494598D02*
X14390Y494598D01*
X14390Y495624D02*
X30810Y495624D01*
X30810Y496650D02*
X14390Y496650D01*
X14390Y497676D02*
X30810Y497676D01*
X30810Y498702D02*
X14390Y498702D01*
X172390Y538810D02*
X188810Y538810D01*
X188810Y526390D01*
X172390Y526390D01*
X172390Y538810D01*
X172390Y527416D02*
X188810Y527416D01*
X188810Y528442D02*
X172390Y528442D01*
X172390Y529468D02*
X188810Y529468D01*
X188810Y530494D02*
X172390Y530494D01*
X172390Y531520D02*
X188810Y531520D01*
X188810Y532546D02*
X172390Y532546D01*
X172390Y533572D02*
X188810Y533572D01*
X188810Y534598D02*
X172390Y534598D01*
X172390Y535624D02*
X188810Y535624D01*
X188810Y536650D02*
X172390Y536650D01*
X172390Y537676D02*
X188810Y537676D01*
X188810Y538702D02*
X172390Y538702D01*
X172390Y418810D02*
X188810Y418810D01*
X188810Y406390D01*
X172390Y406390D01*
X172390Y418810D01*
X172390Y407416D02*
X188810Y407416D01*
X188810Y408442D02*
X172390Y408442D01*
X172390Y409468D02*
X188810Y409468D01*
X188810Y410494D02*
X172390Y410494D01*
X172390Y411520D02*
X188810Y411520D01*
X188810Y412546D02*
X172390Y412546D01*
X172390Y413572D02*
X188810Y413572D01*
X188810Y414598D02*
X172390Y414598D01*
X172390Y415624D02*
X188810Y415624D01*
X188810Y416650D02*
X172390Y416650D01*
X172390Y417676D02*
X188810Y417676D01*
X188810Y418702D02*
X172390Y418702D01*
X172390Y558810D02*
X188810Y558810D01*
X188810Y546390D01*
X172390Y546390D01*
X172390Y558810D01*
X172390Y547416D02*
X188810Y547416D01*
X188810Y548442D02*
X172390Y548442D01*
X172390Y549468D02*
X188810Y549468D01*
X188810Y550494D02*
X172390Y550494D01*
X172390Y551520D02*
X188810Y551520D01*
X188810Y552546D02*
X172390Y552546D01*
X172390Y553572D02*
X188810Y553572D01*
X188810Y554598D02*
X172390Y554598D01*
X172390Y555624D02*
X188810Y555624D01*
X188810Y556650D02*
X172390Y556650D01*
X172390Y557676D02*
X188810Y557676D01*
X188810Y558702D02*
X172390Y558702D01*
X30810Y538810D02*
X14390Y538810D01*
X30810Y538810D02*
X30810Y526390D01*
X14390Y526390D01*
X14390Y538810D01*
X14390Y527416D02*
X30810Y527416D01*
X30810Y528442D02*
X14390Y528442D01*
X14390Y529468D02*
X30810Y529468D01*
X30810Y530494D02*
X14390Y530494D01*
X14390Y531520D02*
X30810Y531520D01*
X30810Y532546D02*
X14390Y532546D01*
X14390Y533572D02*
X30810Y533572D01*
X30810Y534598D02*
X14390Y534598D01*
X14390Y535624D02*
X30810Y535624D01*
X30810Y536650D02*
X14390Y536650D01*
X14390Y537676D02*
X30810Y537676D01*
X30810Y538702D02*
X14390Y538702D01*
X172390Y438810D02*
X188810Y438810D01*
X188810Y426390D01*
X172390Y426390D01*
X172390Y438810D01*
X172390Y427416D02*
X188810Y427416D01*
X188810Y428442D02*
X172390Y428442D01*
X172390Y429468D02*
X188810Y429468D01*
X188810Y430494D02*
X172390Y430494D01*
X172390Y431520D02*
X188810Y431520D01*
X188810Y432546D02*
X172390Y432546D01*
X172390Y433572D02*
X188810Y433572D01*
X188810Y434598D02*
X172390Y434598D01*
X172390Y435624D02*
X188810Y435624D01*
X188810Y436650D02*
X172390Y436650D01*
X172390Y437676D02*
X188810Y437676D01*
X188810Y438702D02*
X172390Y438702D01*
X172390Y458810D02*
X188810Y458810D01*
X188810Y446390D01*
X172390Y446390D01*
X172390Y458810D01*
X172390Y447416D02*
X188810Y447416D01*
X188810Y448442D02*
X172390Y448442D01*
X172390Y449468D02*
X188810Y449468D01*
X188810Y450494D02*
X172390Y450494D01*
X172390Y451520D02*
X188810Y451520D01*
X188810Y452546D02*
X172390Y452546D01*
X172390Y453572D02*
X188810Y453572D01*
X188810Y454598D02*
X172390Y454598D01*
X172390Y455624D02*
X188810Y455624D01*
X188810Y456650D02*
X172390Y456650D01*
X172390Y457676D02*
X188810Y457676D01*
X188810Y458702D02*
X172390Y458702D01*
X172390Y498810D02*
X188810Y498810D01*
X188810Y486390D01*
X172390Y486390D01*
X172390Y498810D01*
X172390Y487416D02*
X188810Y487416D01*
X188810Y488442D02*
X172390Y488442D01*
X172390Y489468D02*
X188810Y489468D01*
X188810Y490494D02*
X172390Y490494D01*
X172390Y491520D02*
X188810Y491520D01*
X188810Y492546D02*
X172390Y492546D01*
X172390Y493572D02*
X188810Y493572D01*
X188810Y494598D02*
X172390Y494598D01*
X172390Y495624D02*
X188810Y495624D01*
X188810Y496650D02*
X172390Y496650D01*
X172390Y497676D02*
X188810Y497676D01*
X188810Y498702D02*
X172390Y498702D01*
X172390Y478810D02*
X188810Y478810D01*
X188810Y466390D01*
X172390Y466390D01*
X172390Y478810D01*
X172390Y467416D02*
X188810Y467416D01*
X188810Y468442D02*
X172390Y468442D01*
X172390Y469468D02*
X188810Y469468D01*
X188810Y470494D02*
X172390Y470494D01*
X172390Y471520D02*
X188810Y471520D01*
X188810Y472546D02*
X172390Y472546D01*
X172390Y473572D02*
X188810Y473572D01*
X188810Y474598D02*
X172390Y474598D01*
X172390Y475624D02*
X188810Y475624D01*
X188810Y476650D02*
X172390Y476650D01*
X172390Y477676D02*
X188810Y477676D01*
X188810Y478702D02*
X172390Y478702D01*
D12*
X86690Y574190D02*
X65710Y574190D01*
X86690Y574190D02*
X86690Y566710D01*
X65710Y566710D01*
X65710Y574190D01*
X65710Y567679D02*
X86690Y567679D01*
X86690Y568648D02*
X65710Y568648D01*
X65710Y569617D02*
X86690Y569617D01*
X86690Y570586D02*
X65710Y570586D01*
X65710Y571555D02*
X86690Y571555D01*
X86690Y572524D02*
X65710Y572524D01*
X65710Y573493D02*
X86690Y573493D01*
X86690Y601690D02*
X65710Y601690D01*
X86690Y601690D02*
X86690Y594210D01*
X65710Y594210D01*
X65710Y601690D01*
X65710Y595179D02*
X86690Y595179D01*
X86690Y596148D02*
X65710Y596148D01*
X65710Y597117D02*
X86690Y597117D01*
X86690Y598086D02*
X65710Y598086D01*
X65710Y599055D02*
X86690Y599055D01*
X86690Y600024D02*
X65710Y600024D01*
X65710Y600993D02*
X86690Y600993D01*
D13*
X65700Y588700D02*
X56200Y588700D01*
X65700Y588700D02*
X65700Y579700D01*
X56200Y579700D01*
X56200Y588700D01*
X56200Y580650D02*
X65700Y580650D01*
X65700Y581600D02*
X56200Y581600D01*
X56200Y582550D02*
X65700Y582550D01*
X65700Y583500D02*
X56200Y583500D01*
X56200Y584450D02*
X65700Y584450D01*
X65700Y585400D02*
X56200Y585400D01*
X56200Y586350D02*
X65700Y586350D01*
X65700Y587300D02*
X56200Y587300D01*
X56200Y588250D02*
X65700Y588250D01*
X86700Y588700D02*
X96200Y588700D01*
X96200Y579700D01*
X86700Y579700D01*
X86700Y588700D01*
X86700Y580650D02*
X96200Y580650D01*
X96200Y581600D02*
X86700Y581600D01*
X86700Y582550D02*
X96200Y582550D01*
X96200Y583500D02*
X86700Y583500D01*
X86700Y584450D02*
X96200Y584450D01*
X96200Y585400D02*
X86700Y585400D01*
X86700Y586350D02*
X96200Y586350D01*
X96200Y587300D02*
X86700Y587300D01*
X86700Y588250D02*
X96200Y588250D01*
D12*
X105460Y182410D02*
X110440Y182410D01*
X105460Y182410D02*
X105460Y193390D01*
X110440Y193390D01*
X110440Y182410D01*
X110440Y183379D02*
X105460Y183379D01*
X105460Y184348D02*
X110440Y184348D01*
X110440Y185317D02*
X105460Y185317D01*
X105460Y186286D02*
X110440Y186286D01*
X110440Y187255D02*
X105460Y187255D01*
X105460Y188224D02*
X110440Y188224D01*
X110440Y189193D02*
X105460Y189193D01*
X105460Y190162D02*
X110440Y190162D01*
X110440Y191131D02*
X105460Y191131D01*
X105460Y192100D02*
X110440Y192100D01*
X110440Y193069D02*
X105460Y193069D01*
X118160Y182410D02*
X123140Y182410D01*
X118160Y182410D02*
X118160Y193390D01*
X123140Y193390D01*
X123140Y182410D01*
X123140Y183379D02*
X118160Y183379D01*
X118160Y184348D02*
X123140Y184348D01*
X123140Y185317D02*
X118160Y185317D01*
X118160Y186286D02*
X123140Y186286D01*
X123140Y187255D02*
X118160Y187255D01*
X118160Y188224D02*
X123140Y188224D01*
X123140Y189193D02*
X118160Y189193D01*
X118160Y190162D02*
X123140Y190162D01*
X123140Y191131D02*
X118160Y191131D01*
X118160Y192100D02*
X123140Y192100D01*
X123140Y193069D02*
X118160Y193069D01*
X130860Y182410D02*
X135840Y182410D01*
X130860Y182410D02*
X130860Y193390D01*
X135840Y193390D01*
X135840Y182410D01*
X135840Y183379D02*
X130860Y183379D01*
X130860Y184348D02*
X135840Y184348D01*
X135840Y185317D02*
X130860Y185317D01*
X130860Y186286D02*
X135840Y186286D01*
X135840Y187255D02*
X130860Y187255D01*
X130860Y188224D02*
X135840Y188224D01*
X135840Y189193D02*
X130860Y189193D01*
X130860Y190162D02*
X135840Y190162D01*
X135840Y191131D02*
X130860Y191131D01*
X130860Y192100D02*
X135840Y192100D01*
X135840Y193069D02*
X130860Y193069D01*
X143560Y182410D02*
X148540Y182410D01*
X143560Y182410D02*
X143560Y193390D01*
X148540Y193390D01*
X148540Y182410D01*
X148540Y183379D02*
X143560Y183379D01*
X143560Y184348D02*
X148540Y184348D01*
X148540Y185317D02*
X143560Y185317D01*
X143560Y186286D02*
X148540Y186286D01*
X148540Y187255D02*
X143560Y187255D01*
X143560Y188224D02*
X148540Y188224D01*
X148540Y189193D02*
X143560Y189193D01*
X143560Y190162D02*
X148540Y190162D01*
X148540Y191131D02*
X143560Y191131D01*
X143560Y192100D02*
X148540Y192100D01*
X148540Y193069D02*
X143560Y193069D01*
X156260Y182410D02*
X161240Y182410D01*
X156260Y182410D02*
X156260Y193390D01*
X161240Y193390D01*
X161240Y182410D01*
X161240Y183379D02*
X156260Y183379D01*
X156260Y184348D02*
X161240Y184348D01*
X161240Y185317D02*
X156260Y185317D01*
X156260Y186286D02*
X161240Y186286D01*
X161240Y187255D02*
X156260Y187255D01*
X156260Y188224D02*
X161240Y188224D01*
X161240Y189193D02*
X156260Y189193D01*
X156260Y190162D02*
X161240Y190162D01*
X161240Y191131D02*
X156260Y191131D01*
X156260Y192100D02*
X161240Y192100D01*
X161240Y193069D02*
X156260Y193069D01*
X168960Y182410D02*
X173940Y182410D01*
X168960Y182410D02*
X168960Y193390D01*
X173940Y193390D01*
X173940Y182410D01*
X173940Y183379D02*
X168960Y183379D01*
X168960Y184348D02*
X173940Y184348D01*
X173940Y185317D02*
X168960Y185317D01*
X168960Y186286D02*
X173940Y186286D01*
X173940Y187255D02*
X168960Y187255D01*
X168960Y188224D02*
X173940Y188224D01*
X173940Y189193D02*
X168960Y189193D01*
X168960Y190162D02*
X173940Y190162D01*
X173940Y191131D02*
X168960Y191131D01*
X168960Y192100D02*
X173940Y192100D01*
X173940Y193069D02*
X168960Y193069D01*
X181660Y182410D02*
X186640Y182410D01*
X181660Y182410D02*
X181660Y193390D01*
X186640Y193390D01*
X186640Y182410D01*
X186640Y183379D02*
X181660Y183379D01*
X181660Y184348D02*
X186640Y184348D01*
X186640Y185317D02*
X181660Y185317D01*
X181660Y186286D02*
X186640Y186286D01*
X186640Y187255D02*
X181660Y187255D01*
X181660Y188224D02*
X186640Y188224D01*
X186640Y189193D02*
X181660Y189193D01*
X181660Y190162D02*
X186640Y190162D01*
X186640Y191131D02*
X181660Y191131D01*
X181660Y192100D02*
X186640Y192100D01*
X186640Y193069D02*
X181660Y193069D01*
X194360Y182410D02*
X199340Y182410D01*
X194360Y182410D02*
X194360Y193390D01*
X199340Y193390D01*
X199340Y182410D01*
X199340Y183379D02*
X194360Y183379D01*
X194360Y184348D02*
X199340Y184348D01*
X199340Y185317D02*
X194360Y185317D01*
X194360Y186286D02*
X199340Y186286D01*
X199340Y187255D02*
X194360Y187255D01*
X194360Y188224D02*
X199340Y188224D01*
X199340Y189193D02*
X194360Y189193D01*
X194360Y190162D02*
X199340Y190162D01*
X199340Y191131D02*
X194360Y191131D01*
X194360Y192100D02*
X199340Y192100D01*
X199340Y193069D02*
X194360Y193069D01*
X194360Y238410D02*
X199340Y238410D01*
X194360Y238410D02*
X194360Y249390D01*
X199340Y249390D01*
X199340Y238410D01*
X199340Y239379D02*
X194360Y239379D01*
X194360Y240348D02*
X199340Y240348D01*
X199340Y241317D02*
X194360Y241317D01*
X194360Y242286D02*
X199340Y242286D01*
X199340Y243255D02*
X194360Y243255D01*
X194360Y244224D02*
X199340Y244224D01*
X199340Y245193D02*
X194360Y245193D01*
X194360Y246162D02*
X199340Y246162D01*
X199340Y247131D02*
X194360Y247131D01*
X194360Y248100D02*
X199340Y248100D01*
X199340Y249069D02*
X194360Y249069D01*
X186640Y238410D02*
X181660Y238410D01*
X181660Y249390D01*
X186640Y249390D01*
X186640Y238410D01*
X186640Y239379D02*
X181660Y239379D01*
X181660Y240348D02*
X186640Y240348D01*
X186640Y241317D02*
X181660Y241317D01*
X181660Y242286D02*
X186640Y242286D01*
X186640Y243255D02*
X181660Y243255D01*
X181660Y244224D02*
X186640Y244224D01*
X186640Y245193D02*
X181660Y245193D01*
X181660Y246162D02*
X186640Y246162D01*
X186640Y247131D02*
X181660Y247131D01*
X181660Y248100D02*
X186640Y248100D01*
X186640Y249069D02*
X181660Y249069D01*
X173940Y238410D02*
X168960Y238410D01*
X168960Y249390D01*
X173940Y249390D01*
X173940Y238410D01*
X173940Y239379D02*
X168960Y239379D01*
X168960Y240348D02*
X173940Y240348D01*
X173940Y241317D02*
X168960Y241317D01*
X168960Y242286D02*
X173940Y242286D01*
X173940Y243255D02*
X168960Y243255D01*
X168960Y244224D02*
X173940Y244224D01*
X173940Y245193D02*
X168960Y245193D01*
X168960Y246162D02*
X173940Y246162D01*
X173940Y247131D02*
X168960Y247131D01*
X168960Y248100D02*
X173940Y248100D01*
X173940Y249069D02*
X168960Y249069D01*
X161240Y238410D02*
X156260Y238410D01*
X156260Y249390D01*
X161240Y249390D01*
X161240Y238410D01*
X161240Y239379D02*
X156260Y239379D01*
X156260Y240348D02*
X161240Y240348D01*
X161240Y241317D02*
X156260Y241317D01*
X156260Y242286D02*
X161240Y242286D01*
X161240Y243255D02*
X156260Y243255D01*
X156260Y244224D02*
X161240Y244224D01*
X161240Y245193D02*
X156260Y245193D01*
X156260Y246162D02*
X161240Y246162D01*
X161240Y247131D02*
X156260Y247131D01*
X156260Y248100D02*
X161240Y248100D01*
X161240Y249069D02*
X156260Y249069D01*
X148540Y238410D02*
X143560Y238410D01*
X143560Y249390D01*
X148540Y249390D01*
X148540Y238410D01*
X148540Y239379D02*
X143560Y239379D01*
X143560Y240348D02*
X148540Y240348D01*
X148540Y241317D02*
X143560Y241317D01*
X143560Y242286D02*
X148540Y242286D01*
X148540Y243255D02*
X143560Y243255D01*
X143560Y244224D02*
X148540Y244224D01*
X148540Y245193D02*
X143560Y245193D01*
X143560Y246162D02*
X148540Y246162D01*
X148540Y247131D02*
X143560Y247131D01*
X143560Y248100D02*
X148540Y248100D01*
X148540Y249069D02*
X143560Y249069D01*
X135840Y238410D02*
X130860Y238410D01*
X130860Y249390D01*
X135840Y249390D01*
X135840Y238410D01*
X135840Y239379D02*
X130860Y239379D01*
X130860Y240348D02*
X135840Y240348D01*
X135840Y241317D02*
X130860Y241317D01*
X130860Y242286D02*
X135840Y242286D01*
X135840Y243255D02*
X130860Y243255D01*
X130860Y244224D02*
X135840Y244224D01*
X135840Y245193D02*
X130860Y245193D01*
X130860Y246162D02*
X135840Y246162D01*
X135840Y247131D02*
X130860Y247131D01*
X130860Y248100D02*
X135840Y248100D01*
X135840Y249069D02*
X130860Y249069D01*
X123140Y238410D02*
X118160Y238410D01*
X118160Y249390D01*
X123140Y249390D01*
X123140Y238410D01*
X123140Y239379D02*
X118160Y239379D01*
X118160Y240348D02*
X123140Y240348D01*
X123140Y241317D02*
X118160Y241317D01*
X118160Y242286D02*
X123140Y242286D01*
X123140Y243255D02*
X118160Y243255D01*
X118160Y244224D02*
X123140Y244224D01*
X123140Y245193D02*
X118160Y245193D01*
X118160Y246162D02*
X123140Y246162D01*
X123140Y247131D02*
X118160Y247131D01*
X118160Y248100D02*
X123140Y248100D01*
X123140Y249069D02*
X118160Y249069D01*
X110440Y238410D02*
X105460Y238410D01*
X105460Y249390D01*
X110440Y249390D01*
X110440Y238410D01*
X110440Y239379D02*
X105460Y239379D01*
X105460Y240348D02*
X110440Y240348D01*
X110440Y241317D02*
X105460Y241317D01*
X105460Y242286D02*
X110440Y242286D01*
X110440Y243255D02*
X105460Y243255D01*
X105460Y244224D02*
X110440Y244224D01*
X110440Y245193D02*
X105460Y245193D01*
X105460Y246162D02*
X110440Y246162D01*
X110440Y247131D02*
X105460Y247131D01*
X105460Y248100D02*
X110440Y248100D01*
X110440Y249069D02*
X105460Y249069D01*
D13*
X177000Y160600D02*
X187000Y160600D01*
X177000Y160600D02*
X177000Y169600D01*
X187000Y169600D01*
X187000Y160600D01*
X187000Y161550D02*
X177000Y161550D01*
X177000Y162500D02*
X187000Y162500D01*
X187000Y163450D02*
X177000Y163450D01*
X177000Y164400D02*
X187000Y164400D01*
X187000Y165350D02*
X177000Y165350D01*
X177000Y166300D02*
X187000Y166300D01*
X187000Y167250D02*
X177000Y167250D01*
X177000Y168200D02*
X187000Y168200D01*
X187000Y169150D02*
X177000Y169150D01*
X194000Y160600D02*
X204000Y160600D01*
X194000Y160600D02*
X194000Y169600D01*
X204000Y169600D01*
X204000Y160600D01*
X204000Y161550D02*
X194000Y161550D01*
X194000Y162500D02*
X204000Y162500D01*
X204000Y163450D02*
X194000Y163450D01*
X194000Y164400D02*
X204000Y164400D01*
X204000Y165350D02*
X194000Y165350D01*
X194000Y166300D02*
X204000Y166300D01*
X204000Y167250D02*
X194000Y167250D01*
X194000Y168200D02*
X204000Y168200D01*
X204000Y169150D02*
X194000Y169150D01*
X148900Y160600D02*
X138900Y160600D01*
X138900Y169600D01*
X148900Y169600D01*
X148900Y160600D01*
X148900Y161550D02*
X138900Y161550D01*
X138900Y162500D02*
X148900Y162500D01*
X148900Y163450D02*
X138900Y163450D01*
X138900Y164400D02*
X148900Y164400D01*
X148900Y165350D02*
X138900Y165350D01*
X138900Y166300D02*
X148900Y166300D01*
X148900Y167250D02*
X138900Y167250D01*
X138900Y168200D02*
X148900Y168200D01*
X148900Y169150D02*
X138900Y169150D01*
X155900Y160600D02*
X165900Y160600D01*
X155900Y160600D02*
X155900Y169600D01*
X165900Y169600D01*
X165900Y160600D01*
X165900Y161550D02*
X155900Y161550D01*
X155900Y162500D02*
X165900Y162500D01*
X165900Y163450D02*
X155900Y163450D01*
X155900Y164400D02*
X165900Y164400D01*
X165900Y165350D02*
X155900Y165350D01*
X155900Y166300D02*
X165900Y166300D01*
X165900Y167250D02*
X155900Y167250D01*
X155900Y168200D02*
X165900Y168200D01*
X165900Y169150D02*
X155900Y169150D01*
X127800Y150550D02*
X117800Y150550D01*
X127800Y150550D02*
X127800Y141550D01*
X117800Y141550D01*
X117800Y150550D01*
X117800Y142500D02*
X127800Y142500D01*
X127800Y143450D02*
X117800Y143450D01*
X117800Y144400D02*
X127800Y144400D01*
X127800Y145350D02*
X117800Y145350D01*
X117800Y146300D02*
X127800Y146300D01*
X127800Y147250D02*
X117800Y147250D01*
X117800Y148200D02*
X127800Y148200D01*
X127800Y149150D02*
X117800Y149150D01*
X117800Y150100D02*
X127800Y150100D01*
X110800Y150550D02*
X100800Y150550D01*
X110800Y150550D02*
X110800Y141550D01*
X100800Y141550D01*
X100800Y150550D01*
X100800Y142500D02*
X110800Y142500D01*
X110800Y143450D02*
X100800Y143450D01*
X100800Y144400D02*
X110800Y144400D01*
X110800Y145350D02*
X100800Y145350D01*
X100800Y146300D02*
X110800Y146300D01*
X110800Y147250D02*
X100800Y147250D01*
X100800Y148200D02*
X110800Y148200D01*
X110800Y149150D02*
X100800Y149150D01*
X100800Y150100D02*
X110800Y150100D01*
X138900Y141550D02*
X148900Y141550D01*
X138900Y141550D02*
X138900Y150550D01*
X148900Y150550D01*
X148900Y141550D01*
X148900Y142500D02*
X138900Y142500D01*
X138900Y143450D02*
X148900Y143450D01*
X148900Y144400D02*
X138900Y144400D01*
X138900Y145350D02*
X148900Y145350D01*
X148900Y146300D02*
X138900Y146300D01*
X138900Y147250D02*
X148900Y147250D01*
X148900Y148200D02*
X138900Y148200D01*
X138900Y149150D02*
X148900Y149150D01*
X148900Y150100D02*
X138900Y150100D01*
X155900Y141550D02*
X165900Y141550D01*
X155900Y141550D02*
X155900Y150550D01*
X165900Y150550D01*
X165900Y141550D01*
X165900Y142500D02*
X155900Y142500D01*
X155900Y143450D02*
X165900Y143450D01*
X165900Y144400D02*
X155900Y144400D01*
X155900Y145350D02*
X165900Y145350D01*
X165900Y146300D02*
X155900Y146300D01*
X155900Y147250D02*
X165900Y147250D01*
X165900Y148200D02*
X155900Y148200D01*
X155900Y149150D02*
X165900Y149150D01*
X165900Y150100D02*
X155900Y150100D01*
X177000Y141550D02*
X187000Y141550D01*
X177000Y141550D02*
X177000Y150550D01*
X187000Y150550D01*
X187000Y141550D01*
X187000Y142500D02*
X177000Y142500D01*
X177000Y143450D02*
X187000Y143450D01*
X187000Y144400D02*
X177000Y144400D01*
X177000Y145350D02*
X187000Y145350D01*
X187000Y146300D02*
X177000Y146300D01*
X177000Y147250D02*
X187000Y147250D01*
X187000Y148200D02*
X177000Y148200D01*
X177000Y149150D02*
X187000Y149150D01*
X187000Y150100D02*
X177000Y150100D01*
X194000Y141550D02*
X204000Y141550D01*
X194000Y141550D02*
X194000Y150550D01*
X204000Y150550D01*
X204000Y141550D01*
X204000Y142500D02*
X194000Y142500D01*
X194000Y143450D02*
X204000Y143450D01*
X204000Y144400D02*
X194000Y144400D01*
X194000Y145350D02*
X204000Y145350D01*
X204000Y146300D02*
X194000Y146300D01*
X194000Y147250D02*
X204000Y147250D01*
X204000Y148200D02*
X194000Y148200D01*
X194000Y149150D02*
X204000Y149150D01*
X204000Y150100D02*
X194000Y150100D01*
D12*
X444440Y507160D02*
X444440Y509140D01*
X444440Y507160D02*
X438860Y507160D01*
X438860Y509140D01*
X444440Y509140D01*
X444440Y508129D02*
X438860Y508129D01*
X438860Y509098D02*
X444440Y509098D01*
X457260Y502640D02*
X457260Y500660D01*
X457260Y502640D02*
X462840Y502640D01*
X462840Y500660D01*
X457260Y500660D01*
X457260Y501629D02*
X462840Y501629D01*
X462840Y502598D02*
X457260Y502598D01*
X457260Y496140D02*
X457260Y494160D01*
X457260Y496140D02*
X462840Y496140D01*
X462840Y494160D01*
X457260Y494160D01*
X457260Y495129D02*
X462840Y495129D01*
X462840Y496098D02*
X457260Y496098D01*
X457260Y507160D02*
X457260Y509140D01*
X462840Y509140D01*
X462840Y507160D01*
X457260Y507160D01*
X457260Y508129D02*
X462840Y508129D01*
X462840Y509098D02*
X457260Y509098D01*
X444440Y502640D02*
X444440Y500660D01*
X438860Y500660D01*
X438860Y502640D01*
X444440Y502640D01*
X444440Y501629D02*
X438860Y501629D01*
X438860Y502598D02*
X444440Y502598D01*
X444440Y496140D02*
X444440Y494160D01*
X438860Y494160D01*
X438860Y496140D01*
X444440Y496140D01*
X444440Y495129D02*
X438860Y495129D01*
X438860Y496098D02*
X444440Y496098D01*
D13*
X447350Y522550D02*
X437350Y522550D01*
X437350Y531550D01*
X447350Y531550D01*
X447350Y522550D01*
X447350Y523500D02*
X437350Y523500D01*
X437350Y524450D02*
X447350Y524450D01*
X447350Y525400D02*
X437350Y525400D01*
X437350Y526350D02*
X447350Y526350D01*
X447350Y527300D02*
X437350Y527300D01*
X437350Y528250D02*
X447350Y528250D01*
X447350Y529200D02*
X437350Y529200D01*
X437350Y530150D02*
X447350Y530150D01*
X447350Y531100D02*
X437350Y531100D01*
X454350Y522550D02*
X464350Y522550D01*
X454350Y522550D02*
X454350Y531550D01*
X464350Y531550D01*
X464350Y522550D01*
X464350Y523500D02*
X454350Y523500D01*
X454350Y524450D02*
X464350Y524450D01*
X464350Y525400D02*
X454350Y525400D01*
X454350Y526350D02*
X464350Y526350D01*
X464350Y527300D02*
X454350Y527300D01*
X454350Y528250D02*
X464350Y528250D01*
X464350Y529200D02*
X454350Y529200D01*
X454350Y530150D02*
X464350Y530150D01*
X464350Y531100D02*
X454350Y531100D01*
X454350Y550600D02*
X464350Y550600D01*
X464350Y541600D01*
X454350Y541600D01*
X454350Y550600D01*
X454350Y542550D02*
X464350Y542550D01*
X464350Y543500D02*
X454350Y543500D01*
X454350Y544450D02*
X464350Y544450D01*
X464350Y545400D02*
X454350Y545400D01*
X454350Y546350D02*
X464350Y546350D01*
X464350Y547300D02*
X454350Y547300D01*
X454350Y548250D02*
X464350Y548250D01*
X464350Y549200D02*
X454350Y549200D01*
X454350Y550150D02*
X464350Y550150D01*
X447350Y550600D02*
X437350Y550600D01*
X447350Y550600D02*
X447350Y541600D01*
X437350Y541600D01*
X437350Y550600D01*
X437350Y542550D02*
X447350Y542550D01*
X447350Y543500D02*
X437350Y543500D01*
X437350Y544450D02*
X447350Y544450D01*
X447350Y545400D02*
X437350Y545400D01*
X437350Y546350D02*
X447350Y546350D01*
X447350Y547300D02*
X437350Y547300D01*
X437350Y548250D02*
X447350Y548250D01*
X447350Y549200D02*
X437350Y549200D01*
X437350Y550150D02*
X447350Y550150D01*
X84400Y229400D02*
X84400Y219400D01*
X84400Y229400D02*
X93400Y229400D01*
X93400Y219400D01*
X84400Y219400D01*
X84400Y220350D02*
X93400Y220350D01*
X93400Y221300D02*
X84400Y221300D01*
X84400Y222250D02*
X93400Y222250D01*
X93400Y223200D02*
X84400Y223200D01*
X84400Y224150D02*
X93400Y224150D01*
X93400Y225100D02*
X84400Y225100D01*
X84400Y226050D02*
X93400Y226050D01*
X93400Y227000D02*
X84400Y227000D01*
X84400Y227950D02*
X93400Y227950D01*
X93400Y228900D02*
X84400Y228900D01*
X84400Y212400D02*
X84400Y202400D01*
X84400Y212400D02*
X93400Y212400D01*
X93400Y202400D01*
X84400Y202400D01*
X84400Y203350D02*
X93400Y203350D01*
X93400Y204300D02*
X84400Y204300D01*
X84400Y205250D02*
X93400Y205250D01*
X93400Y206200D02*
X84400Y206200D01*
X84400Y207150D02*
X93400Y207150D01*
X93400Y208100D02*
X84400Y208100D01*
X84400Y209050D02*
X93400Y209050D01*
X93400Y210000D02*
X84400Y210000D01*
X84400Y210950D02*
X93400Y210950D01*
X93400Y211900D02*
X84400Y211900D01*
X117800Y169600D02*
X127800Y169600D01*
X127800Y160600D01*
X117800Y160600D01*
X117800Y169600D01*
X117800Y161550D02*
X127800Y161550D01*
X127800Y162500D02*
X117800Y162500D01*
X117800Y163450D02*
X127800Y163450D01*
X127800Y164400D02*
X117800Y164400D01*
X117800Y165350D02*
X127800Y165350D01*
X127800Y166300D02*
X117800Y166300D01*
X117800Y167250D02*
X127800Y167250D01*
X127800Y168200D02*
X117800Y168200D01*
X117800Y169150D02*
X127800Y169150D01*
X110800Y169600D02*
X100800Y169600D01*
X110800Y169600D02*
X110800Y160600D01*
X100800Y160600D01*
X100800Y169600D01*
X100800Y161550D02*
X110800Y161550D01*
X110800Y162500D02*
X100800Y162500D01*
X100800Y163450D02*
X110800Y163450D01*
X110800Y164400D02*
X100800Y164400D01*
X100800Y165350D02*
X110800Y165350D01*
X110800Y166300D02*
X100800Y166300D01*
X100800Y167250D02*
X110800Y167250D01*
X110800Y168200D02*
X100800Y168200D01*
X100800Y169150D02*
X110800Y169150D01*
D10*
X453705Y384795D02*
X453705Y392805D01*
X453705Y384795D02*
X444695Y384795D01*
X444695Y392805D01*
X453705Y392805D01*
X453705Y385735D02*
X444695Y385735D01*
X444695Y386675D02*
X453705Y386675D01*
X453705Y387615D02*
X444695Y387615D01*
X444695Y388555D02*
X453705Y388555D01*
X453705Y389495D02*
X444695Y389495D01*
X444695Y390435D02*
X453705Y390435D01*
X453705Y391375D02*
X444695Y391375D01*
X444695Y392315D02*
X453705Y392315D01*
X469705Y392805D02*
X469705Y384795D01*
X460695Y384795D01*
X460695Y392805D01*
X469705Y392805D01*
X469705Y385735D02*
X460695Y385735D01*
X460695Y386675D02*
X469705Y386675D01*
X469705Y387615D02*
X460695Y387615D01*
X460695Y388555D02*
X469705Y388555D01*
X469705Y389495D02*
X460695Y389495D01*
X460695Y390435D02*
X469705Y390435D01*
X469705Y391375D02*
X460695Y391375D01*
X460695Y392315D02*
X469705Y392315D01*
X469705Y351805D02*
X469705Y343795D01*
X460695Y343795D01*
X460695Y351805D01*
X469705Y351805D01*
X469705Y344735D02*
X460695Y344735D01*
X460695Y345675D02*
X469705Y345675D01*
X469705Y346615D02*
X460695Y346615D01*
X460695Y347555D02*
X469705Y347555D01*
X469705Y348495D02*
X460695Y348495D01*
X460695Y349435D02*
X469705Y349435D01*
X469705Y350375D02*
X460695Y350375D01*
X460695Y351315D02*
X469705Y351315D01*
X453705Y351805D02*
X453705Y343795D01*
X444695Y343795D01*
X444695Y351805D01*
X453705Y351805D01*
X453705Y344735D02*
X444695Y344735D01*
X444695Y345675D02*
X453705Y345675D01*
X453705Y346615D02*
X444695Y346615D01*
X444695Y347555D02*
X453705Y347555D01*
X453705Y348495D02*
X444695Y348495D01*
X444695Y349435D02*
X453705Y349435D01*
X453705Y350375D02*
X444695Y350375D01*
X444695Y351315D02*
X453705Y351315D01*
X453705Y448295D02*
X453705Y456305D01*
X453705Y448295D02*
X444695Y448295D01*
X444695Y456305D01*
X453705Y456305D01*
X453705Y449235D02*
X444695Y449235D01*
X444695Y450175D02*
X453705Y450175D01*
X453705Y451115D02*
X444695Y451115D01*
X444695Y452055D02*
X453705Y452055D01*
X453705Y452995D02*
X444695Y452995D01*
X444695Y453935D02*
X453705Y453935D01*
X453705Y454875D02*
X444695Y454875D01*
X444695Y455815D02*
X453705Y455815D01*
X469705Y456305D02*
X469705Y448295D01*
X460695Y448295D01*
X460695Y456305D01*
X469705Y456305D01*
X469705Y449235D02*
X460695Y449235D01*
X460695Y450175D02*
X469705Y450175D01*
X469705Y451115D02*
X460695Y451115D01*
X460695Y452055D02*
X469705Y452055D01*
X469705Y452995D02*
X460695Y452995D01*
X460695Y453935D02*
X469705Y453935D01*
X469705Y454875D02*
X460695Y454875D01*
X460695Y455815D02*
X469705Y455815D01*
X469705Y415305D02*
X469705Y407295D01*
X460695Y407295D01*
X460695Y415305D01*
X469705Y415305D01*
X469705Y408235D02*
X460695Y408235D01*
X460695Y409175D02*
X469705Y409175D01*
X469705Y410115D02*
X460695Y410115D01*
X460695Y411055D02*
X469705Y411055D01*
X469705Y411995D02*
X460695Y411995D01*
X460695Y412935D02*
X469705Y412935D01*
X469705Y413875D02*
X460695Y413875D01*
X460695Y414815D02*
X469705Y414815D01*
X453705Y415305D02*
X453705Y407295D01*
X444695Y407295D01*
X444695Y415305D01*
X453705Y415305D01*
X453705Y408235D02*
X444695Y408235D01*
X444695Y409175D02*
X453705Y409175D01*
X453705Y410115D02*
X444695Y410115D01*
X444695Y411055D02*
X453705Y411055D01*
X453705Y411995D02*
X444695Y411995D01*
X444695Y412935D02*
X453705Y412935D01*
X453705Y413875D02*
X444695Y413875D01*
X444695Y414815D02*
X453705Y414815D01*
D15*
X439020Y253780D02*
X439020Y246820D01*
X439020Y253780D02*
X449980Y253780D01*
X449980Y246820D01*
X439020Y246820D01*
X439020Y247808D02*
X449980Y247808D01*
X449980Y248796D02*
X439020Y248796D01*
X439020Y249784D02*
X449980Y249784D01*
X449980Y250772D02*
X439020Y250772D01*
X439020Y251760D02*
X449980Y251760D01*
X449980Y252748D02*
X439020Y252748D01*
X439020Y253736D02*
X449980Y253736D01*
X439020Y235780D02*
X439020Y228820D01*
X439020Y235780D02*
X449980Y235780D01*
X449980Y228820D01*
X439020Y228820D01*
X439020Y229808D02*
X449980Y229808D01*
X449980Y230796D02*
X439020Y230796D01*
X439020Y231784D02*
X449980Y231784D01*
X449980Y232772D02*
X439020Y232772D01*
X439020Y233760D02*
X449980Y233760D01*
X449980Y234748D02*
X439020Y234748D01*
X439020Y235736D02*
X449980Y235736D01*
D17*
X398970Y352100D02*
X398970Y359100D01*
X405970Y359100D01*
X405970Y352100D01*
X398970Y352100D01*
X398970Y354950D02*
X405970Y354950D01*
X405970Y357800D02*
X398970Y357800D01*
X381430Y359100D02*
X381430Y352100D01*
X381430Y359100D02*
X388430Y359100D01*
X388430Y352100D01*
X381430Y352100D01*
X381430Y354950D02*
X388430Y354950D01*
X388430Y357800D02*
X381430Y357800D01*
D13*
X380200Y325700D02*
X390200Y325700D01*
X380200Y325700D02*
X380200Y334700D01*
X390200Y334700D01*
X390200Y325700D01*
X390200Y326650D02*
X380200Y326650D01*
X380200Y327600D02*
X390200Y327600D01*
X390200Y328550D02*
X380200Y328550D01*
X380200Y329500D02*
X390200Y329500D01*
X390200Y330450D02*
X380200Y330450D01*
X380200Y331400D02*
X390200Y331400D01*
X390200Y332350D02*
X380200Y332350D01*
X380200Y333300D02*
X390200Y333300D01*
X390200Y334250D02*
X380200Y334250D01*
X397200Y325700D02*
X407200Y325700D01*
X397200Y325700D02*
X397200Y334700D01*
X407200Y334700D01*
X407200Y325700D01*
X407200Y326650D02*
X397200Y326650D01*
X397200Y327600D02*
X407200Y327600D01*
X407200Y328550D02*
X397200Y328550D01*
X397200Y329500D02*
X407200Y329500D01*
X407200Y330450D02*
X397200Y330450D01*
X397200Y331400D02*
X407200Y331400D01*
X407200Y332350D02*
X397200Y332350D01*
X397200Y333300D02*
X407200Y333300D01*
X407200Y334250D02*
X397200Y334250D01*
D18*
X4530Y236720D02*
X4530Y225680D01*
X4530Y236720D02*
X23570Y236720D01*
X23570Y225680D01*
X4530Y225680D01*
X4530Y226592D02*
X23570Y226592D01*
X23570Y227504D02*
X4530Y227504D01*
X4530Y228416D02*
X23570Y228416D01*
X23570Y229328D02*
X4530Y229328D01*
X4530Y230240D02*
X23570Y230240D01*
X23570Y231152D02*
X4530Y231152D01*
X4530Y232064D02*
X23570Y232064D01*
X23570Y232976D02*
X4530Y232976D01*
X4530Y233888D02*
X23570Y233888D01*
X23570Y234800D02*
X4530Y234800D01*
X4530Y235712D02*
X23570Y235712D01*
X23570Y236624D02*
X4530Y236624D01*
X4530Y180720D02*
X4530Y169680D01*
X4530Y180720D02*
X23570Y180720D01*
X23570Y169680D01*
X4530Y169680D01*
X4530Y170592D02*
X23570Y170592D01*
X23570Y171504D02*
X4530Y171504D01*
X4530Y172416D02*
X23570Y172416D01*
X23570Y173328D02*
X4530Y173328D01*
X4530Y174240D02*
X23570Y174240D01*
X23570Y175152D02*
X4530Y175152D01*
X4530Y176064D02*
X23570Y176064D01*
X23570Y176976D02*
X4530Y176976D01*
X4530Y177888D02*
X23570Y177888D01*
X23570Y178800D02*
X4530Y178800D01*
X4530Y179712D02*
X23570Y179712D01*
X23570Y180624D02*
X4530Y180624D01*
D12*
X44560Y215710D02*
X44560Y220690D01*
X57040Y220690D01*
X57040Y215710D01*
X44560Y215710D01*
X44560Y216679D02*
X57040Y216679D01*
X57040Y217648D02*
X44560Y217648D01*
X44560Y218617D02*
X57040Y218617D01*
X57040Y219586D02*
X44560Y219586D01*
X44560Y220555D02*
X57040Y220555D01*
X44560Y210690D02*
X44560Y205710D01*
X44560Y210690D02*
X57040Y210690D01*
X57040Y205710D01*
X44560Y205710D01*
X44560Y206679D02*
X57040Y206679D01*
X57040Y207648D02*
X44560Y207648D01*
X44560Y208617D02*
X57040Y208617D01*
X57040Y209586D02*
X44560Y209586D01*
X44560Y210555D02*
X57040Y210555D01*
X44560Y200690D02*
X44560Y195710D01*
X44560Y200690D02*
X57040Y200690D01*
X57040Y195710D01*
X44560Y195710D01*
X44560Y196679D02*
X57040Y196679D01*
X57040Y197648D02*
X44560Y197648D01*
X44560Y198617D02*
X57040Y198617D01*
X57040Y199586D02*
X44560Y199586D01*
X44560Y200555D02*
X57040Y200555D01*
X44560Y190690D02*
X44560Y185710D01*
X44560Y190690D02*
X57040Y190690D01*
X57040Y185710D01*
X44560Y185710D01*
X44560Y186679D02*
X57040Y186679D01*
X57040Y187648D02*
X44560Y187648D01*
X44560Y188617D02*
X57040Y188617D01*
X57040Y189586D02*
X44560Y189586D01*
X44560Y190555D02*
X57040Y190555D01*
D13*
X498800Y366450D02*
X508800Y366450D01*
X508800Y357450D01*
X498800Y357450D01*
X498800Y366450D01*
X498800Y358400D02*
X508800Y358400D01*
X508800Y359350D02*
X498800Y359350D01*
X498800Y360300D02*
X508800Y360300D01*
X508800Y361250D02*
X498800Y361250D01*
X498800Y362200D02*
X508800Y362200D01*
X508800Y363150D02*
X498800Y363150D01*
X498800Y364100D02*
X508800Y364100D01*
X508800Y365050D02*
X498800Y365050D01*
X498800Y366000D02*
X508800Y366000D01*
X491800Y366450D02*
X481800Y366450D01*
X491800Y366450D02*
X491800Y357450D01*
X481800Y357450D01*
X481800Y366450D01*
X481800Y358400D02*
X491800Y358400D01*
X491800Y359350D02*
X481800Y359350D01*
X481800Y360300D02*
X491800Y360300D01*
X491800Y361250D02*
X481800Y361250D01*
X481800Y362200D02*
X491800Y362200D01*
X491800Y363150D02*
X481800Y363150D01*
X481800Y364100D02*
X491800Y364100D01*
X491800Y365050D02*
X481800Y365050D01*
X481800Y366000D02*
X491800Y366000D01*
X491800Y376500D02*
X481800Y376500D01*
X481800Y385500D01*
X491800Y385500D01*
X491800Y376500D01*
X491800Y377450D02*
X481800Y377450D01*
X481800Y378400D02*
X491800Y378400D01*
X491800Y379350D02*
X481800Y379350D01*
X481800Y380300D02*
X491800Y380300D01*
X491800Y381250D02*
X481800Y381250D01*
X481800Y382200D02*
X491800Y382200D01*
X491800Y383150D02*
X481800Y383150D01*
X481800Y384100D02*
X491800Y384100D01*
X491800Y385050D02*
X481800Y385050D01*
X498800Y376500D02*
X508800Y376500D01*
X498800Y376500D02*
X498800Y385500D01*
X508800Y385500D01*
X508800Y376500D01*
X508800Y377450D02*
X498800Y377450D01*
X498800Y378400D02*
X508800Y378400D01*
X508800Y379350D02*
X498800Y379350D01*
X498800Y380300D02*
X508800Y380300D01*
X508800Y381250D02*
X498800Y381250D01*
X498800Y382200D02*
X508800Y382200D01*
X508800Y383150D02*
X498800Y383150D01*
X498800Y384100D02*
X508800Y384100D01*
X508800Y385050D02*
X498800Y385050D01*
D16*
X506554Y453554D02*
X511846Y453554D01*
X506554Y453554D02*
X506554Y460846D01*
X511846Y460846D01*
X511846Y453554D01*
X511846Y454512D02*
X506554Y454512D01*
X506554Y455470D02*
X511846Y455470D01*
X511846Y456428D02*
X506554Y456428D01*
X506554Y457386D02*
X511846Y457386D01*
X511846Y458344D02*
X506554Y458344D01*
X506554Y459302D02*
X511846Y459302D01*
X511846Y460260D02*
X506554Y460260D01*
X529554Y453554D02*
X534846Y453554D01*
X529554Y453554D02*
X529554Y460846D01*
X534846Y460846D01*
X534846Y453554D01*
X534846Y454512D02*
X529554Y454512D01*
X529554Y455470D02*
X534846Y455470D01*
X534846Y456428D02*
X529554Y456428D01*
X529554Y457386D02*
X534846Y457386D01*
X534846Y458344D02*
X529554Y458344D01*
X529554Y459302D02*
X534846Y459302D01*
X534846Y460260D02*
X529554Y460260D01*
D13*
X545300Y579700D02*
X555300Y579700D01*
X545300Y579700D02*
X545300Y588700D01*
X555300Y588700D01*
X555300Y579700D01*
X555300Y580650D02*
X545300Y580650D01*
X545300Y581600D02*
X555300Y581600D01*
X555300Y582550D02*
X545300Y582550D01*
X545300Y583500D02*
X555300Y583500D01*
X555300Y584450D02*
X545300Y584450D01*
X545300Y585400D02*
X555300Y585400D01*
X555300Y586350D02*
X545300Y586350D01*
X545300Y587300D02*
X555300Y587300D01*
X555300Y588250D02*
X545300Y588250D01*
X562300Y579700D02*
X572300Y579700D01*
X562300Y579700D02*
X562300Y588700D01*
X572300Y588700D01*
X572300Y579700D01*
X572300Y580650D02*
X562300Y580650D01*
X562300Y581600D02*
X572300Y581600D01*
X572300Y582550D02*
X562300Y582550D01*
X562300Y583500D02*
X572300Y583500D01*
X572300Y584450D02*
X562300Y584450D01*
X562300Y585400D02*
X572300Y585400D01*
X572300Y586350D02*
X562300Y586350D01*
X562300Y587300D02*
X572300Y587300D01*
X572300Y588250D02*
X562300Y588250D01*
X207700Y529900D02*
X207700Y519900D01*
X198700Y519900D01*
X198700Y529900D01*
X207700Y529900D01*
X207700Y520850D02*
X198700Y520850D01*
X198700Y521800D02*
X207700Y521800D01*
X207700Y522750D02*
X198700Y522750D01*
X198700Y523700D02*
X207700Y523700D01*
X207700Y524650D02*
X198700Y524650D01*
X198700Y525600D02*
X207700Y525600D01*
X207700Y526550D02*
X198700Y526550D01*
X198700Y527500D02*
X207700Y527500D01*
X207700Y528450D02*
X198700Y528450D01*
X198700Y529400D02*
X207700Y529400D01*
X207700Y536900D02*
X207700Y546900D01*
X207700Y536900D02*
X198700Y536900D01*
X198700Y546900D01*
X207700Y546900D01*
X207700Y537850D02*
X198700Y537850D01*
X198700Y538800D02*
X207700Y538800D01*
X207700Y539750D02*
X198700Y539750D01*
X198700Y540700D02*
X207700Y540700D01*
X207700Y541650D02*
X198700Y541650D01*
X198700Y542600D02*
X207700Y542600D01*
X207700Y543550D02*
X198700Y543550D01*
X198700Y544500D02*
X207700Y544500D01*
X207700Y545450D02*
X198700Y545450D01*
X198700Y546400D02*
X207700Y546400D01*
D16*
X166546Y270346D02*
X161254Y270346D01*
X166546Y270346D02*
X166546Y263054D01*
X161254Y263054D01*
X161254Y270346D01*
X161254Y264012D02*
X166546Y264012D01*
X166546Y264970D02*
X161254Y264970D01*
X161254Y265928D02*
X166546Y265928D01*
X166546Y266886D02*
X161254Y266886D01*
X161254Y267844D02*
X166546Y267844D01*
X166546Y268802D02*
X161254Y268802D01*
X161254Y269760D02*
X166546Y269760D01*
X143546Y270346D02*
X138254Y270346D01*
X143546Y270346D02*
X143546Y263054D01*
X138254Y263054D01*
X138254Y270346D01*
X138254Y264012D02*
X143546Y264012D01*
X143546Y264970D02*
X138254Y264970D01*
X138254Y265928D02*
X143546Y265928D01*
X143546Y266886D02*
X138254Y266886D01*
X138254Y267844D02*
X143546Y267844D01*
X143546Y268802D02*
X138254Y268802D01*
X138254Y269760D02*
X143546Y269760D01*
D15*
X355320Y227320D02*
X362280Y227320D01*
X355320Y227320D02*
X355320Y235280D01*
X362280Y235280D01*
X362280Y227320D01*
X362280Y228308D02*
X355320Y228308D01*
X355320Y229296D02*
X362280Y229296D01*
X362280Y230284D02*
X355320Y230284D01*
X355320Y231272D02*
X362280Y231272D01*
X362280Y232260D02*
X355320Y232260D01*
X355320Y233248D02*
X362280Y233248D01*
X362280Y234236D02*
X355320Y234236D01*
X355320Y235224D02*
X362280Y235224D01*
X374320Y227320D02*
X381280Y227320D01*
X374320Y227320D02*
X374320Y235280D01*
X381280Y235280D01*
X381280Y227320D01*
X381280Y228308D02*
X374320Y228308D01*
X374320Y229296D02*
X381280Y229296D01*
X381280Y230284D02*
X374320Y230284D01*
X374320Y231272D02*
X381280Y231272D01*
X381280Y232260D02*
X374320Y232260D01*
X374320Y233248D02*
X381280Y233248D01*
X381280Y234236D02*
X374320Y234236D01*
X374320Y235224D02*
X381280Y235224D01*
X371780Y248320D02*
X364820Y248320D01*
X364820Y256280D01*
X371780Y256280D01*
X371780Y248320D01*
X371780Y249308D02*
X364820Y249308D01*
X364820Y250296D02*
X371780Y250296D01*
X371780Y251284D02*
X364820Y251284D01*
X364820Y252272D02*
X371780Y252272D01*
X371780Y253260D02*
X364820Y253260D01*
X364820Y254248D02*
X371780Y254248D01*
X371780Y255236D02*
X364820Y255236D01*
X364820Y256224D02*
X371780Y256224D01*
X387070Y132070D02*
X394030Y132070D01*
X387070Y132070D02*
X387070Y140030D01*
X394030Y140030D01*
X394030Y132070D01*
X394030Y133058D02*
X387070Y133058D01*
X387070Y134046D02*
X394030Y134046D01*
X394030Y135034D02*
X387070Y135034D01*
X387070Y136022D02*
X394030Y136022D01*
X394030Y137010D02*
X387070Y137010D01*
X387070Y137998D02*
X394030Y137998D01*
X394030Y138986D02*
X387070Y138986D01*
X387070Y139974D02*
X394030Y139974D01*
X406070Y132070D02*
X413030Y132070D01*
X406070Y132070D02*
X406070Y140030D01*
X413030Y140030D01*
X413030Y132070D01*
X413030Y133058D02*
X406070Y133058D01*
X406070Y134046D02*
X413030Y134046D01*
X413030Y135034D02*
X406070Y135034D01*
X406070Y136022D02*
X413030Y136022D01*
X413030Y137010D02*
X406070Y137010D01*
X406070Y137998D02*
X413030Y137998D01*
X413030Y138986D02*
X406070Y138986D01*
X406070Y139974D02*
X413030Y139974D01*
X403530Y153070D02*
X396570Y153070D01*
X396570Y161030D01*
X403530Y161030D01*
X403530Y153070D01*
X403530Y154058D02*
X396570Y154058D01*
X396570Y155046D02*
X403530Y155046D01*
X403530Y156034D02*
X396570Y156034D01*
X396570Y157022D02*
X403530Y157022D01*
X403530Y158010D02*
X396570Y158010D01*
X396570Y158998D02*
X403530Y158998D01*
X403530Y159986D02*
X396570Y159986D01*
X396570Y160974D02*
X403530Y160974D01*
D13*
X396550Y166950D02*
X386550Y166950D01*
X386550Y175950D01*
X396550Y175950D01*
X396550Y166950D01*
X396550Y167900D02*
X386550Y167900D01*
X386550Y168850D02*
X396550Y168850D01*
X396550Y169800D02*
X386550Y169800D01*
X386550Y170750D02*
X396550Y170750D01*
X396550Y171700D02*
X386550Y171700D01*
X386550Y172650D02*
X396550Y172650D01*
X396550Y173600D02*
X386550Y173600D01*
X386550Y174550D02*
X396550Y174550D01*
X396550Y175500D02*
X386550Y175500D01*
X403550Y166950D02*
X413550Y166950D01*
X403550Y166950D02*
X403550Y175950D01*
X413550Y175950D01*
X413550Y166950D01*
X413550Y167900D02*
X403550Y167900D01*
X403550Y168850D02*
X413550Y168850D01*
X413550Y169800D02*
X403550Y169800D01*
X403550Y170750D02*
X413550Y170750D01*
X413550Y171700D02*
X403550Y171700D01*
X403550Y172650D02*
X413550Y172650D01*
X413550Y173600D02*
X403550Y173600D01*
X403550Y174550D02*
X413550Y174550D01*
X413550Y175500D02*
X403550Y175500D01*
M02*
